<?xml version="1.0" encoding="utf-8"?>
<!-- Generator: Adobe Illustrator 25.2.1, SVG Export Plug-In . SVG Version: 6.00 Build 0)  -->
<svg version="1.1" id="Layer_1" xmlns="http://www.w3.org/2000/svg" xmlns:xlink="http://www.w3.org/1999/xlink" x="0px" y="0px"
	 viewBox="0 0 600 300" style="enable-background:new 0 0 600 300;" xml:space="preserve">
<style type="text/css">
	.st0{fill:none;stroke:#000000;stroke-width:7;stroke-miterlimit:10;}
	.st1{fill:none;stroke:#000000;stroke-width:7;stroke-linecap:round;stroke-miterlimit:10;}
</style>
<path class="st0" d="M538.11,109.49c-3.39,82.4-134.2,94.52-242.78,94.57c-99.78,0.05-222.45-14.05-224.41-86.86
	c-1.41-52.66,118.7-98.82,228.26-99.65C403.16,16.76,541.4,29.58,538.11,109.49z"/>
<path class="st1" d="M303.98,206.56c0.77,12.76,1.22,25.99,1.27,39.67c0.04,12.62-0.26,24.86-0.84,36.71"/>
<g>
	<g>
		<path d="M208.96,94.04c1.04-1.04,2.11-2.12,3.18-3.18c0.77-0.76,1.23-1.6,1.37-2.72c0.09-0.73,0.65-1.39,1.09-2.25
			c-1.69-0.24-2.96,0.53-4.23,1.21c-0.92,0.49-1.2,1.6-2.06,2.21c-0.8,0.57-1.71,1.22-2.12,2.06c-0.4,0.81-1.2,0.93-1.64,1.54
			c-0.42,0.58-0.88,1.14-1.23,1.76c-0.26,0.47-0.27,1.09-0.58,1.51c-0.26,0.35-0.85,0.43-1.17,0.75c-0.32,0.32-0.66,0.79-0.67,1.21
			c-0.04,0.94-0.33,1.63-0.85,2.46c-0.44,0.7-0.67,1.59-1.35,2.19c-0.13,0.11-0.36,0.27-0.34,0.35c0.42,1.43-0.75,2.04-1.41,2.97
			c-0.63,0.87-1.09,1.9-1.43,2.92c-0.6,1.77-1.72,3.33-1.77,5.34c-0.03,1.03-1,1.92-1.12,3.05c-0.02,0.21-0.33,0.41-0.32,0.61
			c0.05,2.22-0.87,4.36-0.52,6.59c0.17,1.1,0.2,2.27,0.63,3.26c0.27,0.62,0.4,1.63,1.45,1.75c0.16,0.02,0.37,0.27,0.42,0.45
			c0.52,1.77,2.08,2.01,3.51,2.59c1.93,0.78,3.95,1.42,5.94,1.38c2.26-0.05,4.66,0.01,6.76-1.24c0.07-0.04,0.17-0.17,0.17-0.17
			c1.74,1.43,3.1-0.44,4.66-0.57c1.39-0.11,2.75-0.61,4.12-0.97c0.53-0.14,1.07-0.27,1.55-0.51c2.52-1.24,5.16-2.15,7.82-3.03
			c0.66-0.22,1.21-0.75,1.86-0.97c0.96-0.33,1.96-0.5,3.09-0.78c-1.53-2.65-2.57-5.41-3.38-8.26c-0.08-0.29-0.33-0.66-0.23-0.85
			c0.67-1.22,0.38-2.68,0.96-3.89c0.57-1.2,1.25-2.36,2.01-3.45c0.83-1.19,1.8-2.29,2.71-3.42c0.26-0.32,0.59-0.59,0.79-0.94
			c0.39-0.68,1.2-1.67,1.81-2.19c0.38-0.32,0.72-0.71,1.07-1.06c1.32-1.31,2.6-2.64,4.35-3.48c0.78-0.37,1.18-1.52,1.95-1.9
			c0.76-0.38,1.57-0.62,2.29-1.16c1.76-1.31,3.8-2.15,5.87-2.82c0.91-0.3,2.16-0.43,2.94-0.03c1.08,0.57,2.09,0.25,3.25,0.49
			c0.4,1.04,1.83,1.13,2.39,2.34c0.46,1,1.55,1.7,2.02,2.7c0.29,0.6,1.56,1.35,0.29,2.23c0,0.92-0.03,1.85,0.01,2.77
			c0.04,1.14-0.05,2.25-0.5,3.32c-0.35,0.81-0.59,1.63-0.55,2.56c0.03,0.59-0.21,1.25-0.48,1.8c-0.78,1.56-0.75,3.38-1.52,4.91
			c-1.46,2.94-3.59,5.33-6.43,7.03c-1.13,0.68-2.19,1.46-3.56,1.78c-0.94,0.22-1.74,1.04-2.63,1.53c-0.68,0.37-1.36,0.7-2.21,0.77
			c-2.47,0.22-4.87,0.95-7.39,1.05c-1.07,0.04-2.22,0.77-3.14,1.43c-0.97,0.7-2.07,1.15-3.06,1.83c-0.8,0.55-2.03,0.67-3.06,1.06
			c-1.26,0.47-2.43,1.04-3.6,1.65c-2.84,1.48-6,2.13-8.9,3.44c-3.06,0.04-5.77,2.01-8.91,1.63c-0.35-0.04-0.75,0.18-1.11,0.34
			c-1.51,0.67-3.01,1.12-4.6,0.24c-0.13-0.07-0.32-0.12-0.46-0.09c-2.26,0.45-4.24-0.76-6.38-1.05c-0.73-0.1-1.43-0.6-2.1-0.98
			c-1.11-0.63-2.76-0.55-3.07-2.3c-0.02-0.12-0.66-0.05-0.87-0.23c-0.72-0.62-1.52-1.23-2.04-2.01c-0.72-1.1-1.21-2.34-1.81-3.53
			c-0.07-0.14-0.22-0.26-0.23-0.4c-0.18-1.86-0.71-3.78-0.43-5.57c0.52-3.4,1.08-6.83,2.55-10.01c0.3-0.63,0.81-1.25,0.85-1.9
			c0.11-1.99,1.08-3.58,2.04-5.22c0.47-0.79,0.82-1.7,1-2.6c0.31-1.5,1.11-2.77,1.85-4.02c0.88-1.49,1.65-2.98,2.27-4.61
			c0.57-1.52,1.48-2.98,2.54-4.22c1.32-1.54,2.63-3.06,3.72-4.77c0.26-0.4,0.66-0.82,1.09-0.99c0.65-0.26,0.95-0.62,1.25-1.27
			c0.25-0.55,0.82-1.09,1.66-1.35c1.02-0.31,1.96-1.03,2.79-1.74c0.98-0.83,1.98-1.37,3.29-1.23c0.22,0.02,0.48-0.06,0.67-0.18
			c1.12-0.69,2.15-0.32,3.19,0.19c2.84,1.38,2.85,1.37,3.72,4.08c0.14,0.45,0.37,1.07,0.18,1.4c-0.66,1.16-0.41,2.39-0.47,3.59
			c-0.06,1.12-1.35,4.36-2.36,5c-0.97,0.61-0.95,1.68-1.58,2.44c-0.66,0.81-1.39,1.59-2.11,2.35c-0.33,0.35-0.9,0.64-1.37,0.66
			c-0.51,0.02-1.14-0.18-1.52-0.51C209.85,97.12,208.63,95.97,208.96,94.04z M254.4,98.87c-0.97,0.34-2.01,0.52-2.85,1.04
			c-0.87,0.54-1.38,1.65-2.63,1.56c-1.58,1.25-3.16,2.49-4.74,3.74c-2.4,1.9-3.75,4.65-5.42,7.09c-1.02,1.48-1.86,3.26-1.67,5.37
			c0.12,1.29,0.9,2.05,1.48,2.92c0.5,0.75,1.53,1.03,2.58,1c0.77-0.03,1.65-0.36,2.34,0.44c0.14,0.17,0.84,0.17,0.94,0.01
			c0.66-0.99,1.88-0.12,2.69-0.93c0.6-0.6,1.7-0.68,2.55-1.07c3.15-1.47,5.44-3.95,7.51-6.65c0.13-0.17,0.08-0.46,0.16-0.68
			c0.29-0.8,0.64-1.58,0.9-2.39c0.92-2.87,2.04-5.71,1.48-8.95c-0.75,0.53-1.37-0.86-2.12,0.01c0,0.01-0.11-0.07-0.17-0.12
			C256.41,100.44,255.39,99.65,254.4,98.87z"/>
		<path d="M408.87,95.86c-2.64-0.43-4.83,0.62-6.83,2.2c-0.63,0.5-1.9,0.12-2.01,1.07c-0.12,0.95-1.47,0.71-1.29,1.71
			c-2.61,1.18-3.17,4.2-5.28,5.86c-0.55,0.43-0.94,1.34-1.01,2.06c-0.13,1.45-0.55,2.78-1.03,4.12c-0.11,0.31,0.15,0.75,0.25,1.13
			c0.06,0.22,0.28,0.57,0.2,0.64c-1.16,1.19,0.2,1.81,0.57,2.65c0.79,1.81,2.16,2.67,4.08,3.32c3.74,1.26,3.85,1.54,6.7,1.41
			c1.03-0.05,2.04-0.38,3.07-0.47c1-0.08,2.12,0.26,2.99-0.09c1.2-0.48,2.38-0.34,3.82-0.49c-0.14-0.55-0.29-1.05-0.38-1.55
			c-0.21-1.17-0.85-2.23-0.7-3.5c0.13-1.16-0.02-2.35,0.04-3.52c0.06-1.09-0.16-2.07-0.88-3.13c-1.19,0.45-2.5,0.79-3.64,1.43
			c-1.71,0.96-3.69,1.18-5.41,2.19c-0.75,0.44-1.97,0.07-2.96,0.07c-0.57-0.93-0.82-1.89-0.77-2.99c0.06-1.27,0.72-2.19,1.77-2.46
			c1.82-0.48,3.62-0.91,5.3-1.82c1.65-0.9,3.51-1.27,5.28-1.86c1.2-0.4,2.45-0.58,3.6-1.04c1.11-0.44,2.29-0.55,3.39-0.94
			c1.46-0.51,3.09-0.6,4.35-1.68c0.27-0.23,0.74-0.3,1.12-0.31c2.66-0.05,5.14-0.79,7.55-1.84c0.14-0.06,0.29-0.19,0.43-0.18
			c2.39,0.18,4.68-0.75,7.1-0.55c2.36,0.2,2.99,0.69,3,3.06c0,0.25,0,0.5,0,0.76c-0.13,0.08-0.26,0.18-0.4,0.25
			c-2.13,0.98-2.13,0.99-5.46,1c-0.84,0-1.66-0.07-2.22,0.76c-0.11,0.16-0.41,0.22-0.64,0.25c-1.36,0.18-2.72,0.32-4.07,0.53
			c-0.37,0.06-0.69,0.39-1.06,0.46c-1.23,0.25-2.32,0.91-3.59,1.1c-0.86,0.13-1.94,0.23-2.56,1.06c-0.57,0.77-1.4,0.18-2.07,0.5
			c-0.91,0.43-1.89,0.71-3.07,1.14c0.11,1.36-0.5,2.95,0.38,4.53c0.21,0.39,0.05,0.98,0.06,1.48c0.03,1.36-0.23,2.77,0.83,3.95
			c0.22,0.25,0.08,0.79,0.19,1.17c0.07,0.26,0.23,0.64,0.43,0.7c1.54,0.44,1.8,1.91,1.98,3.02c0.19,1.15,0.81,2.05,1.09,3.1
			c0.22,0.82,0.82,0.29,1.21,0.46c1.21,1.89,0.54,3.67-0.36,5.49c-0.87,0-1.77,0-2.55,0c-2.54-1.89-3.78-4.71-5.73-6.96
			c-1.22,0.31-2.51,0.93-3.79,0.91c-3.81-0.05-7.57,1.05-11.37,0.52c-2.31-0.32-4.6-0.99-6.7-2.03c-0.57-0.28-1.13-0.9-1.64-1.41
			c-0.6-0.59-1.22-1.16-1.77-1.79c-0.63-0.73-1.38-1.44-1.74-2.3c-0.45-1.07-0.58-2.28-0.81-3.44c-0.14-0.71-0.23-1.43-0.28-2.14
			c-0.02-0.23,0.22-0.47,0.27-0.71c0.23-1.24,0.75-2.39,1.09-3.59c0.48-1.69,1.29-3.4,2.37-4.77c0.68-0.87,0.89-2.28,2.37-2.58
			c0.55-0.11,0.22-1.09,0.66-1.71c1.17-1.63,2.58-2.99,4-4.36c1.33-1.28,2.36-2.97,4.37-3.44c0.35-0.08,0.63-0.54,0.89-0.86
			c0.4-0.49,0.88-0.63,1.51-0.64c1.37-0.04,2.65-0.63,4.08-0.51c2.13,0.18,3.47,1.93,2.75,3.9
			C409.72,94.74,409.27,95.23,408.87,95.86z"/>
		<path d="M356.11,133.77c-0.73,1.4-2.12,1.45-3.3,1.87c-0.22,0.08-0.6-0.1-0.73,0.03c-1,0.96-1.93,0.29-2.84-0.1
			c-1.2-0.52-1.41-1.86-1.61-2.83c-0.45-2.14-1.02-4.38-0.54-6.56c0.46-2.08,0.63-4.2,1.24-6.27c0.77-2.62,1.79-5.24,2.13-7.91
			c0.36-2.87,1.64-5.65,1.12-8.63c0.91-2.39,0.32-4.89,0.55-7.33c0.53-0.53,1.07-1.07,1.68-1.68c0.88-0.02,1.86-0.32,2.69,0.46
			c1.55-0.34,1.74,1.09,2.07,1.9c0.44,1.08,0.48,2.35,0.55,3.54c0.11,1.7,0.38,2.8,1.36,4.73c0.07,0.14,0.17,0.29,0.16,0.43
			c-0.1,1.98,1.19,3.58,1.47,5.43c0.15,1.01,0.63,1.79,1.08,2.58c1.49,2.63,2.78,5.39,5.11,7.47c0.58,0.52,0.91,1.31,1.45,1.9
			c1.59,1.74,3.19,3.47,5.8,3.69c1.03-1.86,1.78-3.91,1.74-6.19c-0.02-0.8,0.96-1.6,0.45-2.27c-0.61-0.79,0.14-1.27,0.07-1.89
			c-0.08-0.71,0.04-1.4-0.48-2.08c-0.52-0.67,0.63-1.46,0.03-2.36c-0.41-0.61-0.4-1.5-0.56-2.27c-0.03-0.16,0-0.34-0.01-0.5
			c-0.17-2.45-0.32-4.9-0.52-7.34c-0.02-0.29-0.3-0.55-0.37-0.85c-0.28-1.24-0.78-2.44-0.65-3.78c0.06-0.61,0.11-1.22-0.38-1.86
			c-0.56-0.74,0.41-1.43,0.56-2.19c2.98-0.55,5.34,0.6,7.39,2.65c0,0.67,0,1.34,0,1.97c-0.51,0.38-1.21,0.65-1.46,1.15
			c-0.77,1.49-0.75,3.1-0.31,4.71c0.13,0.46,0.27,0.94,0.25,1.4c-0.06,2.6,0.18,5.14,0.97,7.66c0.45,1.44,0.46,3.03,0.54,4.56
			c0.08,1.59,0.1,3.19-0.01,4.78c-0.06,0.85-0.57,1.63-0.51,2.57c0.05,0.77-0.48,1.47-0.53,2.3c-0.04,0.62-0.56,1.36-1.08,1.78
			c-1.18,0.95-1.73,2.77-3.65,2.71c-0.06,0-0.16,0.1-0.17,0.17c-0.11,0.7-0.36,1.3-1.18,1.31c-1.04,0.02-2.06,0.03-3.08-0.47
			c-3.71-1.8-6.84-4.34-9.5-7.44c-1.56-1.82-2.63-4.02-4.28-5.78c-0.14-0.15-0.13-0.44-0.19-0.67c-0.42-1.69-1.59-2.93-2.56-4.69
			c-0.57,1.74-1.15,3.09-1.43,4.49c-0.19,0.96,0.1,2.01-0.94,2.68c-0.04,0.02,0.53,0.7-0.09,1.02c0.27,1.9-0.7,3.69-0.51,5.57
			c0.1,1.02,0.38,2.03,0.61,3.15C354.63,131.43,355.83,132.33,356.11,133.77z"/>
		<path d="M341.13,118.45c0.6,0.18,1.39-0.24,1.48,0.87c0.04,0.56,0.62,1.07,0.9,1.63c0.82,1.65,0.31,2.73-1.44,3.11
			c-1.34,0.29-2.58-0.23-3.8-0.58c-0.54-0.15-0.83-1.11-1.28-1.65c-1.13-1.35-1.78-2.8-1.59-4.66c0.09-0.91-0.43-1.87-0.42-2.81
			c0.01-1.03-0.35-2.08,0.36-3.12c0.57-0.85-0.4-2.15,0.57-3.03c0.05-0.04,0.04-0.15,0.04-0.23c0-0.76-0.06-1.52,0.02-2.26
			c0.08-0.7,0.35-1.37,0.48-2.06c0.15-0.81-0.1-1.42-0.91-1.8c-0.6-0.28-1.53-0.46-2.65-0.5c-1.8-0.07-3.49,0.29-5.17,0.91
			c-1.11,0.41-2.35,0.27-3.54,0.52c-2.38,0.5-4.88,0.59-7.32,0.55c-1.74-0.02-3.29,0.86-4.91,0.54c0.12,1.43,0.24,2.7,0.31,3.96
			c0.18,3.29,0.31,6.58,0.53,9.86c0.04,0.6,0.4,1.17,0.58,1.65c1.3-0.15,2.54-0.29,3.93-0.45c0,1.3,0.01,2.38,0,3.45
			c-0.01,0.95-1.19,2.68-2.1,3.21c-0.68,0.4-1.3,0.91-1.98,1.29c-2.49,1.39-3.79,0.95-4.66-1.21c-0.32-0.79-0.82-1.51-1.23-2.26
			c-0.82-1.5-1.28-3.07-1.13-4.83c0.15-1.87-0.7-3.66-0.52-5.58c0.18-1.91,0.08-3.86,0.02-5.79c-0.02-0.69-0.21-1.42-0.52-2.04
			c-0.3-0.61-1.06-1.16-1.64-0.72c-0.78,0.6-1.56,0.34-2.34,0.46c-0.78,0.13-1.54,0.32-2.31,0.5c-0.46,0.11-0.9,0.24-1.36,0.37
			c-1.88,0.53-3.67-0.31-4.3-2.02c-0.46-1.27,0.41-3.09,1.72-3.37c1.25-0.27,2.57-0.26,3.81-0.55c1.54-0.36,3.18-0.19,4.65-0.93
			c0.13-0.07,0.32-0.04,0.48-0.05c2.7-0.17,5.4-0.32,8.1-0.51c2.11-0.15,4.29-0.07,6.31-0.6c1.23-0.32,2.39-0.32,3.59-0.4
			c0.64-0.04,1.28-0.36,1.81-0.43c2.15-0.25,4.25-0.72,6.37-1.1c0.69-0.13,1.47-0.18,2.03-0.54c0.53-0.34,0.99-0.53,1.58-0.46
			c1.42,0.17,2.69-0.23,3.78-1.08c1.4,1.25,1.4,1.25,1.74,2.58c0.33,0,0.66,0,1.06,0c0.07,0.2,0.12,0.42,0.23,0.62
			c0.75,1.36,0.94,2.82,1.05,4.36c0.22,3.08-0.77,6.05-0.55,9.11c-0.92,1.53-0.46,3.22-0.47,4.83
			C340.52,116.25,340.89,117.26,341.13,118.45z"/>
		<path d="M286.82,92.34c1.25,2.8,1.08,5.18-1.67,7.03c-1.24-0.13-2.36,0.52-3.63,1.1c-1.57,0.72-2.47,2.12-3.85,2.87
			c-1.52,0.84-2.52,2.14-3.62,3.33c-1,1.08-2.1,2.32-1.55,4.01c1.62,2.24,3.98,2.62,6.44,2.8c1.53,0.11,3.05,0.33,4.58,0.49
			c1.53,0.17,3.13,0.09,4.56,0.56c2.77,0.91,5.36,2.32,7.01,4.81c0.92,1.38,0.87,3.13,0.28,4.69c-0.9,2.38-2.53,4.65-4.6,5.56
			c-2.2,0.96-4.31,2.16-6.67,2.75c-2.13,0.53-4.27,0.95-6.47,0.76c-0.35-0.03-0.69-0.37-1-0.6c-0.5-0.37-0.99-0.77-1.65-1.29
			c0-0.86-0.1-1.95,0.05-3.01c0.06-0.42,0.62-0.89,1.06-1.08c0.42-0.19,0.99-0.05,1.49-0.04c0.94,0.03,1.92,1.09,2.74,0.37
			c0.93-0.82,2.07,0.09,3.01-0.78c0.61-0.56,1.77-0.5,2.67-0.78c0.74-0.23,1.44-0.75,2.18-0.78c1.48-0.06,1.45-1.3,1.89-2.14
			c0.12-0.23-0.12-0.83-0.38-1.05c-1.14-1.01-2.37-1.88-4-1.89c-0.96,0-1.89,0.02-2.84-0.45c-0.75-0.37-1.81,0.33-2.56-0.51
			c-0.08-0.09-0.35,0.03-0.48-0.05c-0.88-0.48-1.65,0.67-2.64,0.05c-0.76-0.48-1.78-0.53-2.68-0.79c-0.82-0.24-1.63-0.53-2.46-0.76
			c-0.9-0.25-1.73-0.73-2.57-1.09c-1.78-0.76-2.77-2.36-3.05-4.33c-0.09-0.63,0.23-1.32-0.42-1.86c-0.17-0.14-0.22-0.76-0.06-0.93
			c0.95-1.07,0.77-2.9,2.37-3.53c0.21-0.09,0.51-0.34,0.52-0.52c0.01-1.67,1.51-2.26,2.34-3.32c0.65-0.83,1.15-1.93,2-2.39
			c0.92-0.5,1.48-1.26,2.24-1.86c0.69-0.54,1.07-1.52,2.22-1.38c0.22,0.03,0.56-0.33,0.74-0.59c1.46-2.03,4.09-1.98,5.96-3.32
			C284.85,92.01,285.93,92.34,286.82,92.34z"/>
	</g>
</g>
</svg>
