<?xml version="1.0" encoding="utf-8"?>
<!-- Generator: Adobe Illustrator 25.2.1, SVG Export Plug-In . SVG Version: 6.00 Build 0)  -->
<svg version="1.1" id="Layer_1" xmlns="http://www.w3.org/2000/svg" xmlns:xlink="http://www.w3.org/1999/xlink" x="0px" y="0px"
	 viewBox="0 0 600 300" style="enable-background:new 0 0 600 300;" xml:space="preserve">
<style type="text/css">
	.st0{fill:none;stroke:#000000;stroke-width:7;stroke-linecap:round;stroke-miterlimit:10;}
</style>
<path class="st0" d="M303.64,213.09c0.77,10.44,1.22,21.25,1.27,32.43c0.04,10.32-0.26,20.33-0.84,30.01"/>
<path class="st0" d="M293.04,209.41c43.43,5.13,95.19-20.59,102.62-62.45c8.23-46.36-40.96-95.27-92.58-96.07
	c-45.18-0.7-94.44,35.45-93.45,81.22C210.56,174.72,254.59,204.87,293.04,209.41z"/>
<g>
	<g>
		<path d="M288.01,137.49c-1.18,0-2.26,0-3.3,0c-0.41-0.83-0.78-1.56-0.68-2.46c0.07-0.6,0.42-1.12,0.84-1.05
			c1.18,0.17,1.92-0.79,2.97-0.98c0.14-0.55,0.28-1.15,0.44-1.75c0.05-0.2,0.23-0.51,0.16-0.57c-1.19-1.08,0.52-2.11,0.04-3.16
			c0.65-1.5,0.79-3.09,0.88-4.71c0.06-1.1-0.02-2.33-0.56-3.06c-0.65-0.88-0.1-1.49,0.14-1.87c1.16-1.85,1.22-1.81,1.27-3.41
			c0.01-0.41,0.03-0.88,0.22-1.22c0.53-0.91,1.4-1.14,2.39-0.7c0.37,0.17,0.78,0.34,1.05,0.63c0.53,0.55,0.98,0.57,1.69,0.24
			c1.04-0.48,2.18-0.75,3.3-1.07c1.47-0.42,2.92-0.98,4.48-0.87c1.13,0.08,1.79-1.16,2.94-0.9c1.77-0.89,3.67-1.12,5.61-1.4
			c1.42-0.2,2.81-0.32,4.23-0.37c1.16-0.04,2.17,0.41,3.15,0.9c1.36,0.68,1.72,1.56,1.45,3.17c-0.07,0.42,0.77,0.78,0.1,1.21
			c-0.51,0.33-1.05,0.77-1.62,0.84c-0.57,0.07-1.27-0.12-1.77-0.43c-0.42-0.26-0.65-0.84-0.99-1.33c-1.02,0.28-2.16-0.42-3.12,0.47
			c-0.08,0.08-0.38-0.09-0.58-0.14c-0.47-0.1-0.98-0.35-1.42-0.26c-2.15,0.46-4.37,0.67-6.46,1.4c-1.99,0.69-3.95,1.45-5.96,2.08
			c-1.73,0.54-3.07,1.76-4.7,2.48c-0.78,0.35-0.92,1.33-0.92,2.23c-0.01,1.93-0.72,3.81-0.43,5.76c-0.79,1.41-0.28,2.93-0.51,4.65
			c1.93-0.45,3.66-0.82,5.38-1.25c1.39-0.35,2.82-0.56,4.05-1.39c1.36,0.42,2.57-0.26,3.8-0.58c2.85-0.76,5.81-1.07,8.59-2.11
			c0.13-0.05,0.27-0.06,0.41-0.07c1.7-0.15,3.43-0.16,5.09-0.48c1.38-0.27,2.95-0.23,3.9-1.35c0.2-2.12,0.46-4.1,0.55-6.09
			c0.09-1.98,0.02-3.96,0.02-5.94c0.43-0.37,0.91-1.08,1.28-1.03c0.51,0.08,0.89,0.12,1.42-0.04c0.61-0.18,1.31-0.08,1.97-0.03
			c0.64,0.04,1.09,0.39,1.04,1.08c-0.06,0.88,0.48,1.58,0.63,2.39c0.06,0.34,0.26,0.67,0.25,0.99c-0.07,1.86,0.71,3.52,1.09,5.27
			c0.19,0.86,1.29,1.66,0.38,2.69c-0.05,0.05-0.01,0.23,0.04,0.3c1.66,2.07,1.84,4.82,3.29,7.02c0.66,0.99,1.14,1.95,2.26,2.56
			c1.36,0.75,1.48,0.82,2.47-0.31c0.24-0.28-0.01-0.89,0.7-0.88c0.55,0.01,0.21-0.58,0.36-0.85c0.2-0.37,0.56-0.64,0.76-1.01
			c2.12-3.88,4.31-7.73,5.41-12.07c0.23-0.92,0.68-1.77,0.97-2.68c0.43-1.36,0.84-2.74,1.21-4.12c0.21-0.8,0.12-1.78,0.56-2.4
			c0.88-1.23,0.75-2.54,0.77-3.74c0.43-0.51,0.79-0.95,1.18-1.41c0.94,0.7,1.78,1.32,2.79,2.07c0,1.53,0.01,3.2-0.01,4.87
			c0,0.25-0.24,0.5-0.28,0.76c-0.15,0.96-0.8,1.8-0.6,2.84c0.05,0.27,0.1,0.68-0.05,0.85c-1.15,1.28-0.82,2.83-0.8,4.29
			c0.01,0.81-0.26,1.5-0.45,2.24c-0.19,0.73,0.3,1.59-0.42,2.26c-0.15,0.14-0.02,0.56-0.03,0.85c-0.04,0.93,0.18,2.02-0.21,2.76
			c-0.46,0.87,0.29,1.95-0.66,2.6c0.13,1.29-0.27,2.53-0.39,3.79c-0.14,1.4-0.35,2.73-0.84,4.07c-0.26,0.71-0.02,1.59-0.09,2.39
			c-0.13,1.48,0.4,3.03-0.42,4.45c-0.1,0.17-0.09,0.47,0,0.65c0.59,1.14,0.39,2.37,0.43,3.57c0.01,0.2,0.05,0.44,0.17,0.58
			c0.86,1.03,0.43,2.64,1.59,3.53c-0.07,1.03,0.49,1.23,1.42,1.44c0.94,0.21,1.77,0.94,2.59,1.41c-0.08,0.33-0.07,0.5-0.15,0.6
			c-1.09,1.43-2.39,1.66-3.95,0.75c-0.25-0.15-0.7,0.04-1.19,0.08c-0.8-0.85-1.93-1.74-2.63-2.89c-0.62-1.01-0.73-2.33-1.12-3.49
			c-0.8-2.4-0.95-6.2-0.32-8.58c0.05-0.2,0.14-0.5,0.04-0.62c-0.56-0.71,0.03-1.41-0.03-2.07c-0.19-2.04,0.66-3.96,0.52-5.99
			c-0.06-0.89,0.69-1.72,0.41-2.68c0.87-1.18,0.18-2.51,0.61-4.08c-1.72,1.9-1.94,4.15-3.31,5.83c-1.42,1.73-2.18,3.97-4.29,5.39
			c-0.52,0.18-1.41-0.39-2.04,0.4c-0.06,0.07-0.4-0.04-0.57-0.13c-1.26-0.67-2.67-1.19-3.73-2.1c-0.9-0.77-1.5-1.96-2.05-3.06
			c-0.69-1.39-1.21-2.87-1.78-4.32c-0.32-0.82-0.64-1.65-0.88-2.5c-0.47-1.72-0.88-3.45-1.35-5.17c-0.05-0.18-0.39-0.27-0.86-0.58
			c0,0.91,0.01,1.55,0,2.19c-0.02,1.19,0.21,2.43-0.72,3.45c-0.16,0.17-0.15,0.53-0.15,0.81c0.01,1.63-0.54,3.15-0.81,4.71
			c-0.18,1.09-0.31,2.22-0.53,3.33c-0.34,1.76-0.6,3.53-1.16,5.24c-0.13,0.39-0.17,0.84-0.14,1.26c0.05,0.67-0.08,1.28-0.47,1.79
			c-0.58,0.77-0.13,1.78-0.49,2.43c-0.53,0.97,0.08,1.7,0.09,2.53c0.01,0.36,0.27,0.9,0.57,1.05c1.23,0.62,1.55,1.79,1.9,3
			c-2.15,2.38-2.15,2.38-4.49,2.39c-0.41-1.15-0.83-2.29-1.23-3.45c-0.13-0.39-0.28-0.8-0.28-1.2c-0.03-1.61-0.2-3.25,0.03-4.84
			c0.42-3,0.93-6,1.85-8.91c0.08-0.26,0.33-0.52,0.3-0.75c-0.25-1.46,0.6-2.79,0.46-4.22c-0.02-0.22-0.08-0.55,0.03-0.63
			c0.94-0.72-0.12-2,0.8-2.8c-1.53,0.6-3.09,0.3-4.62,0.39c-0.68,0.04-1.35,0.27-2.02,0.42c-2.07,0.48-4.1,1.2-6.17,1.53
			c-1.72,0.27-3.26,1.11-5.06,1.22c-1.41,0.08-2.89,0.78-4.27,1.3c-1.21,0.46-2.49,0.66-3.71,1.14c-1.15,0.46-2.39,1.13-3.78,1.02
			c-0.33-0.03-0.7,0.38-1.18,0.66c0.18,1.5-0.35,3.16,0.46,4.73c-0.32,2.73,1.29,5.25,0.9,8c-0.03,0.23,0.12,0.56,0.3,0.74
			c0.98,1,0.71,2.06,0.2,3.15c-0.14,0.31-0.24,0.77-0.48,0.88c-0.56,0.25-0.15,1.21-1.01,1.2c-0.88,0-1.31-0.63-1.64-1.21
			c-0.47-0.82-1.31-1.57-0.91-2.7c0.02-0.07,0.03-0.16,0-0.22c-1.11-2-0.75-4.34-1.5-6.43c-0.11-0.32-0.35-0.76-0.23-0.97
			c0.59-1.02,0.41-1.9,0.04-2.98C287.75,139.68,288.01,138.58,288.01,137.49z"/>
		<path d="M260.55,154.57c-0.9-0.16-1.5-0.36-2.11-0.36c-0.79,0-1.51-0.16-2.25-0.44c-1.15-0.45-2.18-1.74-1.6-2.68
			c0.81-1.31,0.08-2.33-0.24-3.36c-0.23-0.74-0.46-1.32,0.02-1.96c0.3-0.4,0.14-0.64-0.15-0.92c-0.09-0.08-0.17-0.29-0.13-0.37
			c0.91-1.72,0.08-3.59,0.46-5.32c0.54-2.5,0.38-5.02,0.41-7.53c0.01-0.69,0.75-1.29,0.04-2.09c-0.38-0.43,0.48-1.1,0.03-1.84
			c-0.24-0.39-0.18-1.17,0.21-1.84c0.32-0.55,0.4-1.54,0.11-2.09c-0.55-1.06-0.27-2.1-0.39-3.15c-0.15-1.4-0.33-2.79-0.52-4.39
			c-0.36,0.17-0.68,0.24-0.91,0.43c-1.57,1.27-3.34,2.13-5.25,2.74c-0.12-0.07-0.28-0.11-0.35-0.22c-0.43-0.63-1.23-0.9-1.38-1.86
			c-0.18-1.1,1.08-1.31,1.08-2.23c0-0.18,0.45-0.55,0.62-0.51c1.47,0.34,2.14-1.19,3.42-1.39c1.13-0.17,2.23-0.61,3.21-1.27
			c0.28-0.19,0.63-0.46,0.91-0.42c1.72,0.25,3.08-0.7,4.57-1.22c0.19-0.07,0.41-0.12,0.61-0.12c1.7,0.02,3.31-0.37,4.93-0.85
			c0.74-0.22,1.6-0.03,2.41-0.04c0.5-0.01,1.15,0.13,1.47-0.12c0.55-0.43,0.78-0.16,1.27,0.05c0.6,0.26,1.26,0.48,1.98,0.57
			c1.05,0.13,2.27,0.43,3.01,1.11c0.6,0.55,1.59,0.22,1.97,1.27c0.22,0.6,1.44,0.75,2.01,1.3c0.85,0.83,1.57,1.81,2.24,2.8
			c0.78,1.15,1.14,2.43,1.43,3.83c0.27,1.29,0.16,2.39-0.04,3.63c-0.19,1.18-0.42,2.27-0.84,3.4c-0.44,1.17-0.84,2.29-1.6,3.31
			c-0.61,0.82-1.1,1.74-1.56,2.65c-0.63,1.25-1.38,2.39-2.29,3.47c-0.84,1-1.35,2.27-2.37,3.19c-0.56,0.51-0.96,1.2-1.42,1.82
			c-0.36,0.49-0.68,1.03-1.07,1.5c-0.97,1.15-1.93,2.3-2.96,3.4c-1.41,1.5-3.04,2.82-4.8,3.83c-1.12,0.64-1.58,1.86-2.71,2.38
			C261.93,153.64,260.94,153.93,260.55,154.57z M259.26,149.5c2.74-1.83,5.49-3.26,7.57-5.62c0.82-0.93,1.79-1.73,2.62-2.66
			c0.94-1.05,1.89-2.12,2.67-3.29c1.28-1.91,2.64-3.75,3.99-5.61c1.28-1.76,2.49-3.58,3.11-5.74c0.38-1.32,0.59-2.71,1.03-3.97
			c0.7-2.01-0.2-3.63-1.04-5.05c-1.15-1.95-3.28-3.02-5.28-4.09c-0.18-0.1-0.38-0.25-0.55-0.24c-0.95,0.08-1.7-0.57-2.58-0.68
			c-0.83-0.1-1.67-0.12-2.51-0.09c-0.4,0.01-0.78,0.25-1.18,0.31c-1.18,0.17-2.37,0.3-3.55,0.45c-0.44,0.86-1.4,0.1-1.94,0.62
			c-0.85,0.81-1.94,0.71-2.93,0.7c-0.6,0.94-0.99,2-0.54,2.86c0.38,0.73,0.25,1.38,0.34,2.06c0.25,1.84-0.51,3.75,0.43,5.54
			c0.05,0.1,0.01,0.32-0.07,0.4c-0.68,0.6-0.36,1.38-0.33,2.05c0.03,0.9,0.38,1.78,0.39,2.68c0.02,1.48-0.07,2.95-0.34,4.45
			c-0.44,2.45-0.5,5-0.48,7.5c0.01,1.61-0.56,3.31,0.38,4.87C257.31,148.17,258.62,148.65,259.26,149.5z"/>
	</g>
</g>
</svg>
