<?xml version="1.0" encoding="utf-8"?>
<!-- Generator: Adobe Illustrator 25.2.1, SVG Export Plug-In . SVG Version: 6.00 Build 0)  -->
<svg version="1.1" id="Layer_1" xmlns="http://www.w3.org/2000/svg" xmlns:xlink="http://www.w3.org/1999/xlink" x="0px" y="0px"
	 viewBox="0 0 100 57.8" style="enable-background:new 0 0 100 57.8;" xml:space="preserve">
<g>
	<g>
		<path d="M51.5,42.5c0,0.4,0,0.7,0,1c0,1,0,2.1-0.1,3.1c0,1.7-0.1,3.5-0.1,5.2c0,0.6,0,1.3,0,1.9c0,0.1,0,0.2,0,0.3
			c0,0.3-0.3,0.5-0.5,0.5c-0.3,0-0.5-0.2-0.5-0.5c0-0.3,0-0.6,0-0.9c0-1.1,0.1-2.3,0.1-3.4c0-1.7,0.1-3.4,0.1-5.1c0-0.7,0-1.3,0-2
			c0,0,0-0.1,0-0.2c-0.3,0-0.6,0-1,0c-1.6,0-3.2-0.1-4.8-0.3c-2.1-0.2-4.3-0.5-6.4-0.9c-2.6-0.5-5.3-1-7.9-1.7
			c-3.8-0.9-7.4-2.1-11-3.6c-2.5-1.1-4.8-2.3-7-3.9c-1.6-1.1-3-2.4-4.2-4c-1-1.4-1.8-2.9-2.1-4.6c-0.5-2.4-0.2-4.6,0.9-6.8
			c0.7-1.4,1.6-2.6,2.7-3.7c1.9-1.9,4.1-3.4,6.4-4.7c3-1.6,6.2-2.9,9.4-3.9c2.6-0.8,5.3-1.4,8-2c1.9-0.4,3.8-0.6,5.7-0.9
			c1.2-0.1,2.4-0.2,3.7-0.3C45.1,1,47.2,1,49.3,1c1.8,0,3.6,0.1,5.4,0.2c2,0.1,3.9,0.3,5.8,0.6c4.2,0.6,8.3,1.6,12.3,2.8
			c3,0.9,6,1.9,8.9,3.2c2.3,1,4.6,2.2,6.7,3.7c1.4,0.9,2.6,2,3.7,3.2c1.2,1.4,2.1,2.9,2.6,4.6c0.6,2.2,0.3,4.2-0.6,6.2
			c-0.6,1.3-1.4,2.4-2.3,3.5c-1.7,1.9-3.7,3.5-5.9,4.8c-2.8,1.8-5.8,3.1-8.9,4.3c-3.4,1.2-6.8,2.2-10.3,2.9
			c-1.9,0.4-3.8,0.7-5.8,0.9c-1.5,0.2-2.9,0.3-4.4,0.4c-1.3,0.1-2.7,0.2-4.1,0.2C52.1,42.4,51.9,42.5,51.5,42.5z M51.3,41.4
			c0.9,0,1.5,0,2.2-0.1c1.1,0,2.2-0.1,3.3-0.2c1.2-0.1,2.4-0.2,3.6-0.3c1.7-0.2,3.4-0.5,5.1-0.8c3.9-0.7,7.7-1.7,11.4-3.1
			c3.1-1.2,6.2-2.6,9-4.4c2-1.3,3.9-2.8,5.4-4.6c0.9-1.1,1.7-2.2,2.2-3.5c0.5-1.2,0.7-2.4,0.5-3.6c-0.1-1.5-0.7-2.8-1.5-4
			c-0.9-1.4-2.1-2.6-3.5-3.7c-1.7-1.3-3.5-2.4-5.3-3.3c-3-1.5-6.1-2.7-9.3-3.7c-3.9-1.2-7.8-2.2-11.7-3c-2-0.4-4-0.6-6-0.8
			c-1.4-0.1-2.7-0.2-4.1-0.3C51.1,2,49.6,2,48.2,2c-1.8,0-3.7,0.1-5.5,0.2c-1.1,0.1-2.3,0.2-3.4,0.3c-1.5,0.2-2.9,0.4-4.3,0.6
			c-2.2,0.4-4.4,0.8-6.5,1.4c-3.8,1-7.4,2.3-10.9,4.1c-2.2,1.1-4.3,2.5-6.1,4.1C10,14.1,8.8,15.5,8,17.2C7.1,19.1,6.9,21,7.2,23
			c0.3,1.6,1,3,1.9,4.3c1.1,1.6,2.6,2.8,4.1,4c1.8,1.3,3.7,2.3,5.6,3.2c3.7,1.7,7.5,2.9,11.4,4c3.2,0.8,6.5,1.5,9.8,2
			c2.2,0.4,4.4,0.6,6.7,0.8C48.3,41.4,49.9,41.4,51.3,41.4z"/>
		<path d="M27.9,27.8c-0.1-0.2-0.1-0.3-0.2-0.4c0-0.1,0.1-0.2,0.1-0.2c0.2-0.2,0.3-0.5,0.3-0.7c0.1-0.7,0.1-1.5,0.2-2.2
			c0-0.5,0.1-1,0.1-1.6c0-0.2,0-0.3-0.1-0.5c-0.8,0.3-1.7,0.5-2.4,0.9c-0.1,0-0.2,0-0.3,0c-0.3,0.2-0.7,0.3-1.1,0.5
			c-0.1,0.1-0.3,0.1-0.4,0c-0.1-0.1-0.2-0.3-0.2-0.5c0-0.1,0.1-0.2,0.1-0.3c0.6-0.3,1.1-0.5,1.7-0.7c0.2-0.1,0.4-0.2,0.6-0.2
			c0.5-0.2,1-0.4,1.5-0.6c0.1-0.1,0.3,0,0.4-0.1c0.7-0.2,1.5-0.4,2.2-0.4c0.6,0,1.2-0.1,1.8,0c0.8,0,1.5,0.2,2.1,0.6
			c0.6,0.3,0.8,1.1,0.5,1.7c-0.2,0.4-0.4,0.8-0.7,1.1c-0.1,0.2-0.3,0.3-0.5,0.5c-0.3,0.2-0.5,0.4-0.8,0.6c-0.1,0.1-0.3,0.2-0.4,0.3
			c-0.6,0.4-1.2,0.8-1.9,1.1c-0.3,0.1-0.5,0.3-0.8,0.5c0.1,0.1,0.2,0.2,0.3,0.2c0.4,0.2,0.8,0.4,1.3,0.5c0.4,0.2,0.9,0.4,1.3,0.5
			c0.4,0.2,0.9,0.3,1.3,0.4c0.2,0.1,0.4,0.2,0.7,0.1c-0.2-0.6-0.1-1.2-0.1-1.8c0-0.2,0.1-0.3,0.1-0.5c0-0.2,0-0.3-0.1-0.5
			c0,0,0,0,0-0.1c0.3-0.4,0.3-0.9,0.3-1.4c0-0.2,0-0.4,0-0.6c0.1-0.2,0.3-0.3,0.4-0.3c0.1-0.1,0.2-0.2,0.3-0.2
			c0.4-0.2,0.8-0.4,1.2-0.5c0,0,0.1,0,0.1,0c0.9,0,1.8-0.2,2.7,0c0.2,0,0.5,0,0.7,0c0,0.1,0.1,0.3,0.1,0.4c-0.2,0.2-0.4,0.2-0.6,0.2
			c-0.1,0-0.2,0-0.4,0c-0.5,0-0.9,0-1.4,0.1c-0.6,0.1-1.1,0.3-1.7,0.4c-0.2,0-0.4,0.2-0.6,0.3c0,0.4-0.1,0.7,0,1c0.1,0,0.1,0,0.1,0
			c0.6-0.1,1.2-0.1,1.8-0.2c0.1,0,0.2,0,0.3-0.1c0.3-0.1,0.3-0.1,0.8,0c0.2,0.3,0,0.4-0.1,0.6c-0.4,0.1-0.7,0.2-1,0.3
			c-0.6,0.2-1.2,0.3-1.9,0.3c-0.1,0.1-0.2,0.1-0.3,0.2c-0.1,0.5-0.1,1.1,0,1.6c0,0.2,0.1,0.5,0.2,0.6c0.2,0.3,0.5,0.3,0.8,0.2
			c0.2-0.1,0.4-0.2,0.6-0.3c0.2-0.1,0.3-0.3,0.5-0.4c0.1-0.2,0.2-0.4,0.3-0.7c0,0,0,0,0,0c0.1-0.1,0.2-0.2,0.4-0.3
			c0.1,0,0.2,0,0.3,0c0.1,0.1,0.1,0.3,0.2,0.4c-0.2,0.4-0.4,0.9-0.7,1.3c-0.1,0.1-0.2,0.2-0.3,0.3c-0.1,0.1-0.2,0.2-0.3,0.3
			c-0.1,0.1-0.2,0.2-0.3,0.2c-0.2,0-0.3,0.1-0.5,0.1c-0.2,0.1-0.4,0.2-0.6,0.2c-0.5,0-1-0.1-1.5-0.2c-0.1,0-0.2-0.1-0.3-0.1
			c-0.3,0.1-0.6-0.1-0.9-0.2c-0.4-0.2-0.8-0.3-1.2-0.4c-0.2-0.1-0.3-0.1-0.5-0.2c-0.2-0.1-0.4-0.2-0.6-0.2c-0.5-0.2-0.9-0.3-1.4-0.5
			c-0.1,0-0.2-0.1-0.3-0.2c-0.1,0-0.3,0-0.4,0c-0.2,1.1-0.2,2.2-0.2,3.3c-0.1,0.1-0.2,0.2-0.3,0.2c-0.1,0-0.1-0.1-0.2-0.1
			c-0.1,0.1-0.1,0.1-0.2,0.2c-0.1-0.1-0.3-0.2-0.4-0.3c0-0.2,0-0.4,0-0.5c0-0.4,0-0.7,0.1-1.1c0.1-0.3,0.1-0.7,0.2-1
			C28,28.6,27.9,28.2,27.9,27.8z M29.1,26.4c0.2-0.1,0.3-0.1,0.5-0.2c0.8-0.4,1.6-0.8,2.3-1.3c0.5-0.4,1-0.8,1.4-1.2
			c0.3-0.3,0.5-0.7,0.7-1c0.1-0.2,0.1-0.3-0.1-0.4c-0.1-0.1-0.3-0.2-0.4-0.3c-0.7-0.3-1.5-0.4-2.3-0.4c-0.3,0-0.5,0.1-0.8,0.1
			c-0.4,0-0.7,0.1-1,0.3C29.4,23.4,29.3,24.9,29.1,26.4z"/>
		<path d="M54.3,23.4c0.3,0.1,0.6,0.2,0.9,0c0.1-0.1,0.2,0,0.3,0c0.4-0.2,0.8-0.2,1.2-0.3c0.1,0,0.3,0,0.4-0.1c0.2,0,0.5,0,0.7-0.1
			c0.6-0.1,1.3,0,1.9,0.2c0.1,0.1,0.3,0.3,0.4,0.5c0,0.3,0,0.5-0.1,0.8c-0.1,0.3-0.3,0.6-0.4,0.9c0,0.1-0.1,0.2-0.2,0.2
			c-0.7,0.6-1.4,1.2-2.1,1.8c-0.1,0.1-0.2,0.2-0.2,0.4c0.1,0.1,0.1,0.2,0.2,0.2c0.5,0.1,0.9,0,1.4,0c0.5,0,0.9-0.1,1.4-0.1
			c0.6-0.1,1.3-0.1,2-0.2c0-0.1,0-0.2,0-0.3c0-0.5,0-1.1,0.1-1.6c0.1-0.5,0.1-1-0.1-1.5c-0.3,0.1-0.5,0.1-0.8,0.2
			c-0.1,0-0.2-0.1-0.4-0.1c-0.2-0.3-0.1-0.5,0-0.7c0.5-0.3,1-0.2,1.4-0.6c0.6-0.1,1.3-0.1,1.9-0.2c0.3-0.1,0.6-0.1,0.9,0
			c0.3,0.1,0.7,0.1,1,0.2c0.3,0.1,0.6,0.3,0.8,0.6c0.3,0.3,0.5,0.6,0.6,0.9c0.1,0.2,0.1,0.4,0,0.6c-0.1,0.1,0,0.3-0.1,0.4
			c-0.2,0.6-0.5,1.1-0.9,1.6c-0.4,0.3-0.7,0.7-1.1,1c-0.1,0.1-0.2,0.1-0.2,0.2c-0.4,0.4-0.9,0.6-1.4,0.8c-0.1,0-0.2,0.1-0.3,0.1
			c-0.1,0-0.2-0.1-0.2-0.1c-0.2-0.2-0.4-0.3-0.6-0.5c0,0,0,0,0,0c-0.1-0.1-0.2-0.3-0.3-0.4c-0.7,0-1.5,0.1-2.1,0.3
			c-0.1,0-0.2,0-0.3,0c-0.3,0.1-0.7,0.1-1,0.2c0,0-0.1,0-0.1,0.1c-0.1,0-0.2-0.1-0.3-0.1c-0.5,0.1-1,0.2-1.5,0
			c-0.6-0.2-0.7-0.2-1-0.8c0-0.2,0.1-0.5,0.1-0.7c0.5-0.6,1.2-1.1,1.8-1.5c0.4-0.3,0.7-0.6,1-1c0.1-0.1,0.2-0.4,0.3-0.5
			C59,24,58.9,24,58.7,23.9c-0.3,0-0.5-0.1-0.8,0c-0.5,0-0.9,0.1-1.4,0.2c-0.3,0-0.5,0.1-0.8,0.2c-0.3,0-0.5,0.2-0.7,0.3
			c0,0.2-0.1,0.4-0.1,0.6c0,0.2-0.1,0.4-0.1,0.7c0,0.4-0.1,0.8-0.1,1.2c0,0.6,0.1,1.2,0.4,1.7c0.1,0.1,0.2,0.2,0.3,0.3
			c-0.1,0.2-0.1,0.4-0.2,0.7c-0.3,0.1-0.5,0-0.6-0.1c-0.3-0.3-0.5-0.5-0.6-1c0-0.2-0.1-0.4-0.1-0.5c0-0.3,0-0.5-0.1-0.7
			c0-0.1,0-0.2,0-0.4c0-0.2,0-0.4,0-0.6c0-0.1,0-0.2,0-0.3c0-0.3,0.1-0.6,0.1-0.9c0-0.1,0-0.2,0-0.3c-0.3,0.1-0.6,0.3-0.9,0.4
			c-0.1-0.1-0.3-0.2-0.5-0.3c0-0.1,0-0.2,0-0.4c0.2-0.3,0.6-0.4,0.9-0.5c0.2-0.1,0.5-0.2,0.6-0.3C54.1,23.6,54.2,23.5,54.3,23.4z
			 M66.5,24.2C66.4,24.2,66.4,24.2,66.5,24.2c-0.2-0.1-0.4-0.2-0.6-0.3c-0.3-0.2-0.7-0.2-1-0.2c-0.3,0-0.6,0-0.8,0.1
			c-0.3,0-0.5,0.1-0.7,0.2c0,0.3,0,0.5,0,0.7c0,0.2,0.1,0.4,0,0.6c-0.1,0.4-0.1,0.8-0.2,1.1c-0.1,0.4-0.1,0.7,0,1.1
			c0.2,0,0.4-0.1,0.6-0.1c0.2,0.1,0.4,0.1,0.5,0.2c0,0.1,0,0.2,0.1,0.3c0.3-0.2,0.6-0.4,0.9-0.6c0.2-0.2,0.4-0.4,0.6-0.6
			c0.5-0.4,0.9-1,1.1-1.7C66.7,24.7,66.6,24.5,66.5,24.2z"/>
		<path d="M32.8,12.7c0.1,0.2,0.2,0.4,0.3,0.6c0.2,0.5,0.4,1.1,0.7,1.5c0.2,0.1,0.4,0.3,0.6,0.4c0.4-0.3,0.6-0.7,0.8-1.1
			c0.2-0.4,0.4-0.8,0.6-1.2c0.3-0.5,0.4-1,0.6-1.5c0.1-0.4,0.2-0.7,0.4-1.1c0.1-0.3,0.2-0.6,0.3-0.9C37,9.2,37.1,9,37.2,8.7
			c0-0.2,0.1-0.4,0.1-0.5c0-0.2,0.1-0.3,0.3-0.4c0.2,0.1,0.4,0.3,0.6,0.4c0,0.1,0.1,0.3,0.1,0.5c0,0.4-0.1,0.8-0.2,1.2
			c-0.2,0.8-0.3,1.5-0.4,2.3c0,0.2-0.1,0.5-0.1,0.7c0,0.6-0.2,1.2-0.3,1.8c0,0.4-0.1,0.8-0.2,1.2c0,0.3-0.1,0.6-0.1,0.8
			c0,0.3-0.1,0.7-0.1,1c0,0.5,0,0.9,0.2,1.4c0.1,0.3,0.2,0.6,0.3,0.9c0.2,0.1,0.4,0.2,0.6,0.2c0.3,0.1,0.3,0.2,0.2,0.5
			c-0.1,0.1-0.3,0.2-0.4,0.2c-0.2-0.1-0.3-0.1-0.4-0.2c-0.1,0-0.2,0-0.3,0c0,0-0.1,0-0.1-0.1c-0.3-0.3-0.6-0.7-0.8-1.2
			c-0.1-0.5-0.3-1-0.3-1.6c0-0.3,0-0.6,0.1-0.8c0-0.1,0-0.1,0-0.2c0-0.5,0.1-0.9,0.1-1.4c0.1-0.7,0.2-1.4,0.3-2.2
			c-0.2,0.2-0.2,0.5-0.3,0.6c-0.1,0.2-0.2,0.4-0.3,0.6c-0.1,0.1-0.2,0.3-0.3,0.4c-0.4,0.6-0.5,0.8-0.8,1c-0.2,0.1-0.4,0.1-0.7,0.2
			c-0.3-0.2-0.6-0.4-1-0.6c-0.1-0.2-0.2-0.3-0.4-0.5c-0.3-0.4-0.4-0.8-0.5-1.3c0-0.1,0-0.2-0.1-0.3c-0.2-0.2-0.2-0.5-0.3-0.8
			c-0.1-0.3-0.2-0.6-0.3-0.9c-0.2,0.5-0.2,1.1-0.3,1.6c-0.1,0.5-0.1,1.1-0.3,1.6c-0.1,0.5-0.2,1.1-0.3,1.6c-0.1,0.5-0.2,1-0.3,1.7
			c0,0.1,0.1,0.3,0.2,0.6c0.1,0,0.1,0.1,0.3,0.1c0.1,0.2,0.2,0.4,0.2,0.6c-0.3,0.5-0.6,0.7-1.1,0.6c-0.4-0.7-0.5-1.5-0.4-2.3
			c0.1-0.7,0.2-1.4,0.4-2.1c0.1-0.5,0.2-1.1,0.3-1.6c0-0.1,0-0.2,0.1-0.3c0.2-0.8,0.3-1.5,0.4-2.3c0-0.5,0.1-0.9,0.1-1.4
			c0-0.1,0-0.3,0-0.5c0.1-0.1,0.2-0.2,0.3-0.3c0.4,0.1,0.7-0.1,1.1,0.1c0.1,0.3,0.2,0.7,0.3,1.1c0.1,0.5,0.2,0.9,0.3,1.3
			C32.7,12.2,32.7,12.4,32.8,12.7z"/>
		<path d="M45.6,18.1c-0.2-0.1-0.3-0.3-0.5-0.4c0,0,0,0,0,0c-0.1-0.1-0.2-0.3-0.3-0.4c-0.1-0.2-0.1-0.3-0.2-0.4c0-0.2,0-0.4,0-0.6
			c0-0.5,0-1,0.1-1.5c0-0.5,0.1-1-0.1-1.5c-0.3,0.1-0.5,0.1-0.8,0.2c-0.1,0-0.2-0.1-0.4-0.1c0-0.1-0.1-0.2-0.1-0.4
			c-0.3,0-0.6,0-0.9,0.1c0,0-0.1,0-0.1,0c-0.6,0-1.1,0.3-1.7,0.4c-0.2,0-0.4,0.2-0.5,0.2c0,0.3,0,0.6,0,1c0.1,0,0.1,0,0.2,0
			c0.6-0.1,1.1-0.1,1.7-0.2c0.1,0,0.3,0,0.4-0.1c0.1,0,0.2-0.1,0.3-0.1c0.2,0,0.3,0,0.5,0.1c0.3,0.3,0,0.4-0.1,0.6
			c-0.4,0.1-0.7,0.2-1.1,0.3c-0.6,0.2-1.2,0.3-1.9,0.3c-0.1,0.1-0.2,0.1-0.3,0.2c0,0.1,0,0.1,0,0.1c0,0.2-0.1,0.4,0,0.6
			c0,0.4,0.1,0.8,0.1,1.3c0,0.1,0.1,0.2,0.2,0.3c0.2,0.2,0.4,0.3,0.6,0.1c0.3-0.2,0.6-0.2,0.9-0.5c0.1-0.1,0.2-0.2,0.4-0.3
			c0.1-0.2,0.2-0.4,0.3-0.7c0,0,0,0,0,0c0.1-0.1,0.3-0.2,0.4-0.3c0,0,0,0,0,0c0.1,0,0.2,0,0.4,0c0.1,0.1,0.1,0.3,0.2,0.4
			c-0.2,0.3-0.3,0.6-0.5,0.9c-0.3,0.5-0.7,0.9-1.2,1.1c-0.2,0.1-0.4,0.2-0.6,0.3c-0.2,0-0.5,0-0.7,0c-0.1,0-0.2-0.1-0.3-0.1
			c-0.4-0.1-0.6-0.3-0.8-0.7c-0.2-0.4-0.3-0.9-0.3-1.4c0-0.4,0-0.7,0.1-1.1c0-0.2,0-0.4,0-0.7c0,0,0-0.1,0-0.1
			c0.2-0.4,0.3-0.9,0.2-1.4c0-0.2,0-0.4,0-0.6c0.1-0.2,0.3-0.3,0.4-0.3c0.4-0.3,0.8-0.5,1.3-0.7c0.3-0.1,0.6,0,0.9-0.1
			c0.5-0.1,1,0,1.5-0.1c0.2,0,0.4,0,0.6,0c0.4,0,0.8,0,1.1-0.3c0.6-0.1,1.2-0.1,1.8-0.2c0.4-0.1,0.8,0,1.1,0c0.3,0,0.5,0.1,0.8,0.2
			c0.3,0.1,0.6,0.3,0.8,0.6c0.3,0.3,0.5,0.6,0.6,1c0.1,0.2,0.1,0.3,0,0.5c-0.1,0.1,0,0.3-0.1,0.4c-0.2,0.6-0.5,1.2-0.9,1.6
			c-0.4,0.3-0.7,0.7-1.1,1c-0.1,0.1-0.2,0.2-0.3,0.3c-0.2,0.2-0.4,0.3-0.6,0.4c-0.3,0.1-0.6,0.3-1,0.4
			C45.8,18.2,45.7,18.1,45.6,18.1C45.6,18.1,45.6,18.1,45.6,18.1z M45.9,17.2c0.6-0.2,1.1-0.5,1.6-0.9c0.2-0.2,0.4-0.4,0.6-0.5
			c0.6-0.4,0.9-1,1.1-1.7c-0.1-0.3-0.3-0.5-0.4-0.8c-0.2-0.1-0.4-0.2-0.5-0.3c-0.2-0.2-0.4-0.2-0.7-0.3c-0.5-0.1-1,0-1.5,0
			c-0.2,0-0.3,0.1-0.5,0.2c0,0.2,0,0.4,0,0.6c0,0.3,0,0.5,0,0.8c-0.1,0.4-0.1,0.8-0.2,1.1c-0.1,0.4-0.1,0.9,0,1.3
			C45.6,16.9,45.9,16.9,45.9,17.2z"/>
		<path d="M62.7,11.3c0.3,0.1,0.5,0.2,0.8,0.2c0,0.1,0.1,0.1,0.1,0.2c0.1,0.5,0.2,1,0.4,1.5c0,0.1,0.1,0.2,0.1,0.3
			c0,0.1,0.1,0.2,0.1,0.3c0,0.7,0.3,1.3,0.4,1.9c0,0.1,0.1,0.3,0.2,0.4c0.3,0,0.6,0.1,0.9,0.1c-0.1,0.2-0.1,0.3-0.2,0.5
			c-0.1,0-0.3,0.1-0.5,0.1c0.2,0.2,0.3,0.3,0.4,0.4c0.3,0,0.6,0.1,0.8,0.1c0.1,0.1,0.1,0.2,0.2,0.3C66.4,18,66.2,18,66,18.1
			c-0.3,0.1-0.7,0.1-1,0.1c-0.5-0.1-0.7-0.5-0.9-0.9c-0.1-0.1-0.1-0.2-0.2-0.3c-0.1,0-0.2,0.1-0.3,0.1c0,0-0.1-0.1-0.2-0.1
			c-0.5,0.1-1.1,0.1-1.6,0.2c-0.3,0.1-0.7,0.1-1,0c-0.3,0.1-0.4,0.5-0.6,0.7c-0.2,0.2-0.4,0.5-0.6,0.8c-0.1,0.1-0.3,0.1-0.6,0.1
			c0-0.1-0.1-0.2-0.2-0.3c0-0.3,0.1-0.5,0.3-0.7c0-0.1,0-0.2,0-0.2c0.1-0.1,0.2-0.1,0.3-0.2c0,0,0,0,0,0c-0.2,0.1-0.4,0.1-0.6,0.2
			c-1,0.2-1.9,0.2-2.9,0.2c-0.4,0-0.8-0.1-1.2-0.3c-0.2-0.1-0.3-0.2-0.5-0.2c-0.3-0.2-0.5-0.4-0.8-0.7c-0.1-0.2-0.1-0.4-0.2-0.7
			c-0.2-0.6-0.1-1.2,0.2-1.8c0.1-0.1,0.2-0.2,0.3-0.3c0.5-0.5,1-0.8,1.6-1c0.6-0.3,1.2-0.4,1.9-0.4c0,0,0.1,0,0.1,0
			c0.4,0.1,0.7,0.2,1.1,0.3c0.1,0,0.2,0.1,0.2,0.2c0.1,0.1,0.1,0.3,0.2,0.4c-0.2,0.7-0.7,0.9-1.5,0.5c0-0.1,0-0.2,0.1-0.4
			c-0.1-0.1-0.2-0.1-0.4-0.2c-0.3,0.1-0.6,0.2-0.8,0.3c-0.4,0-0.7,0.2-1.1,0.4c-0.3,0.2-0.5,0.4-0.7,0.6c-0.1,0.1-0.2,0.3-0.2,0.5
			c-0.1,0.7,0.2,1.1,0.7,1.5c0.1,0.1,0.2,0.1,0.2,0.2c1.3,0.5,2.7,0.5,4.1,0.1c0.2,0.1,0.5-0.1,0.8-0.1c0.4-0.4,0.6-0.9,0.9-1.4
			c0.2-0.3,0.4-0.7,0.6-1c0.1-0.2,0.2-0.5,0.3-0.8c0.1-0.2,0.2-0.4,0.2-0.5c0.1-0.2,0.2-0.5,0.3-0.7c0.1-0.1,0.1-0.3,0.2-0.4
			c0-0.1,0-0.2,0.1-0.3C62.5,11.5,62.6,11.4,62.7,11.3z M63.6,16.4c0.1-0.1,0.1-0.2,0.1-0.3c0-0.1-0.1-0.2-0.1-0.3
			c-0.1-0.7-0.3-1.4-0.5-2.2c0-0.1-0.1-0.3-0.2-0.4c0,0,0,0-0.1,0c0,0.1,0,0.2,0,0.3c-0.1,0.2-0.2,0.3-0.3,0.5
			c-0.1,0.2-0.2,0.3-0.2,0.5c-0.3,0.5-0.5,1-0.8,1.4c0,0.1,0,0.2,0,0.3c0.1,0,0.1,0.1,0.2,0.1c0.5,0.1,1,0,1.5,0
			C63.2,16.4,63.4,16.4,63.6,16.4z"/>
		<path d="M52.2,24.1c0,0,0,0.1,0,0.2c0,0.6-0.2,1.1-0.3,1.6c0,0.1-0.1,0.2-0.1,0.3c0,0.1-0.1,0.2-0.1,0.3c-0.1,0.7-0.5,1.1-1,1.5
			c-0.4,0.4-1,0.5-1.4,0.8c-0.2,0.1-0.4,0.1-0.6,0.2c-0.3,0-0.5,0.1-0.8,0.1c-0.5,0.1-0.8-0.2-1.2-0.4c-0.2-0.1-0.3-0.4-0.4-0.5
			c-0.1,0-0.2,0.2-0.3,0.2c-0.7,0.3-1.4,0.3-2.1,0.3c-0.4,0-0.9,0-1.3,0.1c-0.5,0-1-0.1-1.4-0.3c-0.2-0.1-0.3-0.2-0.5-0.2
			c-0.3-0.1-0.5-0.4-0.7-0.6c-0.1-0.2-0.1-0.4-0.2-0.7c-0.2-0.6-0.1-1.2,0.2-1.8c0-0.1,0.1-0.2,0.2-0.2c0.5-0.4,1-0.8,1.5-1
			c0.5-0.2,1-0.4,1.6-0.5c0.3-0.1,0.7-0.1,1,0.1c0.2,0.1,0.4,0.1,0.5,0.1c0.2,0,0.4,0.2,0.4,0.4c0,0.1,0.1,0.2,0.1,0.3
			c-0.2,0.7-0.7,0.9-1.5,0.5c0-0.1,0-0.2,0.1-0.4c-0.1-0.1-0.2-0.1-0.4-0.2c-0.3,0.1-0.5,0.2-0.8,0.3c-0.4,0-0.7,0.3-1.1,0.4
			c-0.3,0.1-0.5,0.4-0.7,0.6c-0.1,0.1-0.2,0.3-0.2,0.5c-0.1,0.7,0.2,1.1,0.7,1.5c0.1,0.1,0.2,0.1,0.3,0.2c1.3,0.5,2.7,0.5,4,0.1
			c0.2,0,0.4,0.1,0.6-0.1c0,0,0-0.1,0-0.1c-0.2-0.4-0.1-0.8,0.1-1.2c0.1-0.3,0.3-0.6,0.5-0.9c0.1-0.2,0.3-0.4,0.5-0.7
			c0.1-0.1,0.1-0.1,0.2-0.2c0.3-0.3,0.7-0.5,1-0.8c0.1-0.1,0.1-0.2,0.2-0.2c0.3-0.2,0.5-0.3,0.8-0.4c0.2-0.1,0.5-0.2,0.8-0.3
			c0.2-0.1,0.4-0.1,0.7,0c0.1,0,0.3,0,0.4,0.1C51.8,23.3,52.1,23.7,52.2,24.1z M50.4,24c-0.2,0.1-0.3,0.1-0.5,0.2
			c-0.5,0.3-1,0.6-1.5,1c-0.3,0.3-0.5,0.7-0.8,1.1c-0.3,0.3-0.4,0.7-0.3,1.2c0,0,0.1,0.1,0.1,0.1c0.1,0.3,0.4,0.4,0.7,0.4
			c0.1,0,0.3,0,0.4,0c0.1,0,0.3-0.1,0.5-0.1c0.6-0.2,1.2-0.5,1.6-1.1c0.2-0.3,0.3-0.6,0.4-0.8c0.2-0.4,0.3-0.9,0.3-1.4
			C50.9,24.4,50.5,24.3,50.4,24z"/>
		<path d="M70.6,24.1c-0.8,0.4-1.5,1-2,1.7c0,0.4,0.3,0.6,0.6,0.7c0.6,0.1,1.2,0.2,1.8,0.2c0.5,0,0.9,0.2,1.3,0.5
			c0.5,0.4,0.6,0.9,0.2,1.5c-0.2,0.3-0.6,0.5-0.9,0.7c-0.6,0.3-1.3,0.5-2,0.5c-0.1-0.1-0.3-0.2-0.4-0.3c0-0.2,0-0.4,0-0.7
			c0.2,0,0.4-0.1,0.5,0c0.3,0.1,0.5,0,0.8,0c0.4-0.1,0.8-0.3,1.2-0.4c0-0.1,0.1-0.3,0.1-0.4c-0.3-0.2-0.5-0.4-0.9-0.4
			c-0.3,0-0.5-0.1-0.8-0.1c-0.6,0-1.2-0.2-1.8-0.4c-0.3-0.1-0.5-0.3-0.6-0.6c-0.1-0.2-0.1-0.4-0.1-0.6c0.1-0.2,0.2-0.4,0.2-0.5
			c0.1-0.2,0.2-0.3,0.3-0.5c0.2-0.3,0.5-0.6,0.8-0.9c0,0,0.1,0,0.1-0.1c0.2-0.2,0.4-0.3,0.6-0.5c0.3-0.2,0.7-0.4,1-0.6
			c0.2-0.1,0.4-0.2,0.6-0.1c0.1,0.2,0.1,0.5,0.1,0.7c-0.1,0.2-0.2,0.3-0.3,0.5C70.8,24.1,70.8,24.1,70.6,24.1z"/>
		<path d="M71.2,16c-0.1,0.5-0.5,0.7-0.8,0.9c-0.4,0.2-0.9,0.4-1.3,0.7c-0.6,0.2-1.1,0.2-1.7,0.3c-0.5-0.2-0.7-0.6-0.8-1.1
			c-0.1-0.2-0.1-0.4-0.1-0.6c0.1-0.5,0.1-1.1,0.2-1.6c0-0.2,0-0.3,0-0.5c0-0.2,0-0.4,0-0.6c0-0.1-0.1-0.2-0.1-0.3
			c-0.1-0.3-0.1-0.5,0.2-0.7c0.1-0.1,0.2-0.1,0.4-0.2c0.2,0.1,0.4,0.1,0.6,0.2c0.2,0.5,0.2,1,0.1,1.5c0,0.5-0.2,0.9-0.3,1.4
			c-0.1,0.5-0.1,1,0.1,1.5c0.3,0.2,0.5,0.2,0.7,0c0.1,0,0.1,0,0.2,0.1c0.5-0.2,1-0.4,1.6-0.7C70.7,16,70.7,15.9,71.2,16z"/>
		<path d="M51.8,12.8c0.2,0.5,0.1,1,0.1,1.5c0,0.5-0.1,0.9-0.1,1.4c0,0.2,0.1,0.5,0.1,0.7c0.1,0,0.2,0,0.2,0.1
			c0.1,0.2,0.2,0.4,0.3,0.6c-0.1,0.4-0.5,0.3-0.7,0.3c-0.1-0.1-0.2-0.1-0.3-0.1c-0.3-0.3-0.4-0.7-0.5-1.1c-0.1-0.6,0.1-1.2,0.1-1.8
			c0-0.3,0-0.6,0-0.9c0-0.2,0-0.3,0-0.5c0.1-0.1,0.1-0.2,0.2-0.3C51.4,12.6,51.6,12.6,51.8,12.8z"/>
	</g>
</g>
</svg>
