<?xml version="1.0" encoding="utf-8"?>
<!-- Generator: Adobe Illustrator 25.2.1, SVG Export Plug-In . SVG Version: 6.00 Build 0)  -->
<svg version="1.1" id="Layer_1" xmlns="http://www.w3.org/2000/svg" xmlns:xlink="http://www.w3.org/1999/xlink" x="0px" y="0px"
	 viewBox="0 0 600 300" style="enable-background:new 0 0 600 300;" xml:space="preserve">
<g>
	<g>
		<path d="M292.1,237c0.1,1.8,0.4,3.6,0.4,5.4c0.1,11.9,0.1,23.8,0.1,35.7c0,3.5-1.3,4.8-4.9,4.8c-1.5-0.5-2.6-1.4-3.1-3.2
			c0-10.9,0-22.2,0-33.4c0-3.1-0.4-6.2-0.6-9.4c-0.8,0-1.6,0-2.4,0c-5.7,0-11.4,0-17.1-0.1c-3.7-0.1-7.4-0.1-11-0.6
			c-2.1-0.2-4.2-0.2-6.3-0.4c-3.6-0.4-7.1-0.8-10.7-1c-2.7-0.2-5.5-0.6-8.2-1c-3.6-0.5-7.2-1.1-10.8-1.5c-4-0.5-8-1.1-11.9-2
			c-5.3-1.1-10.6-2.2-15.8-3.3c-6.7-1.4-13.3-3.1-20-4.7c-4.5-1-8.8-2.5-13.2-3.9c-5.4-1.7-10.9-3.5-16.3-5.3
			c-5.1-1.7-10.1-3.7-15.2-5.7c-9.3-3.7-18.4-8-27.3-12.8c-6.7-3.6-13.2-7.4-19.2-11.9c-3.4-2.6-6.9-4.9-10.1-7.8
			c-4-3.6-7.8-7.3-11.2-11.5c-3.3-4-6.3-8.3-8.4-13.1c-1.6-3.5-2.6-7.1-3.2-10.9c-0.5-3-0.5-5.9-0.3-8.8c0.2-3.1,1-6.2,2-9.2
			c2-5.7,5-10.9,8.6-15.7c3.9-5.2,8.6-9.8,13.4-14.2c5.6-5,11.7-9.4,18-13.5c5.9-3.8,12-7.5,18.3-10.6c2.7-1.3,5.2-3,8-4.2
			c5.8-2.6,11.4-5.3,17.3-7.7c11.4-4.8,22.9-9,34.7-12.8c6.8-2.2,13.7-4.1,20.6-6c4.7-1.3,9.3-2.4,14-3.6c3.4-0.9,6.9-1.5,10.4-2.2
			c3.7-0.8,7.4-1.6,11.1-2.4c2.3-0.5,4.6-0.7,7-1.1c2.5-0.4,4.9-0.9,7.4-1.4c1.3-0.2,2.6-0.4,3.8-0.6c3.1-0.4,6.2-0.5,9.2-1.1
			c3.4-0.6,6.8-0.6,10.1-1.4c0.2,0,0.3,0,0.5,0c2.9-0.2,5.7-0.2,8.6-0.6c2.5-0.4,4.9-0.1,7.3-0.5c4-0.6,8.1-0.1,12-0.5
			c5.9-0.7,11.8-0.3,17.7-0.3c2.6,0,5.2,0.3,7.8,0.4c2.6,0.1,5.2-0.2,7.7,0.2c2.7,0.4,5.4,0.2,8.1,0.5c4,0.4,8,0.6,11.9,1
			c3.2,0.3,6.5,0.7,9.7,1c2.6,0.3,5.1,0.6,7.7,1c3.8,0.5,7.6,1.5,11.5,1.8c3.6,0.3,7,1.2,10.6,1.7c3.9,0.6,7.7,1.7,11.6,2.3
			c8.2,1.4,16.2,3.6,24.3,5.6c3.4,0.8,6.8,1.9,10.2,2.9c5.8,1.8,11.5,3.6,17.2,5.5c6.3,2.1,12.6,4.5,18.8,7.1
			c7.2,3,14.2,6.2,21.1,9.9c6.9,3.7,13.6,7.6,19.9,12.3c2.6,2,5.2,4,7.6,6.1c2.4,2.1,4.8,4.3,7,6.6c4.1,4.3,7.7,8.9,10.2,14.3
			c1.7,3.6,3,7.4,3.8,11.4c0.6,3.5,0.6,6.9,0.3,10.3c-0.3,3.5-1.3,6.9-2.6,10.3c-2.4,6.3-6,11.9-10.2,17.1
			c-3.9,4.9-8.4,9.4-13.1,13.5c-7.7,6.8-16,12.8-24.8,18.2c-5.8,3.6-11.7,7-17.8,10.1c-5.1,2.6-10.1,5.2-15.2,7.6
			c-8,3.6-16.1,7-24.4,10.1c-7.6,2.8-15.3,5.5-23.1,7.9c-7.6,2.4-15.2,4.7-23,6.4c-3.6,0.8-7.1,2-10.7,2.8
			c-3.6,0.8-7.3,1.4-10.9,2.2c-3.9,0.8-7.7,1.6-11.6,2.4c-1.1,0.2-2.2,0.4-3.4,0.5c-3.9,0.5-7.9,1-11.8,1.6c-2.6,0.4-5.1,0.7-7.7,1
			c-3.3,0.4-6.6,0.7-9.9,1c-4.5,0.4-8.9,0.9-13.4,1C296.4,236.4,294.4,236.8,292.1,237z M280.7,228.8c3.7-0.2,9.1,0.3,14.5-0.3
			c3.6-0.4,7.2-0.2,10.8-0.6c2.7-0.3,5.4-0.4,8.1-0.6c0.2,0,0.3,0,0.5-0.1c2-0.8,4.2-0.3,6.3-0.8c1.9-0.5,3.9-0.2,5.8-0.7
			c1.5-0.4,2.9-0.3,4.4-0.5c2.7-0.5,5.4-0.9,8.1-1.4c2.4-0.4,4.8-0.6,7.2-1.1c2.8-0.5,5.7-1.3,8.5-1.8c3.6-0.7,7.3-1.3,10.9-2.2
			c9.4-2.4,18.9-4.8,28.2-7.4c5.8-1.6,11.5-3.6,17.2-5.6c7.4-2.6,14.7-5.3,21.9-8.3c5-2.1,10-4.2,14.8-6.6
			c6.2-3.1,12.3-6.2,18.4-9.4c3.5-1.9,7-3.8,10.3-6c5.1-3.3,10.2-6.7,15.1-10.3c4.9-3.7,9.5-7.7,14-11.9c2.3-2.2,4.3-4.7,6.4-7.2
			c3.9-4.5,7-9.4,9.3-14.8c1.4-3.2,2.3-6.6,2.7-10c0.4-3.7-0.1-7.4-1.2-11.1c-2-6.5-5.8-12-10.2-17c-3.7-4.1-7.9-7.6-12.3-11
			c-7-5.3-14.5-9.8-22.3-14c-6.4-3.4-13.1-6.4-19.8-9.2c-4-1.6-8.1-3.3-12.2-4.7c-7.1-2.4-14.2-4.8-21.3-7c-5.2-1.6-10.5-3-15.8-4.3
			c-5.8-1.5-11.6-2.9-17.4-4c-3.9-0.7-7.7-1.7-11.7-2.2c-3.3-0.4-6.5-1.3-9.7-1.8c-3.3-0.6-6.5-1-9.8-1.5c-3.9-0.5-7.7-1-11.6-1.5
			c-3.2-0.4-6.5-0.8-9.7-1c-4.2-0.2-8.3-0.6-12.4-1c-2.8-0.3-5.7-0.2-8.6-0.5c-5.9-0.5-11.8,0.1-17.7-0.5c-2.2-0.2-4.4,0.4-6.6,0.3
			c-7.1-0.1-14.1,0.4-21.2,0.6c-0.2,0-0.5,0-0.7,0c-3,0.7-6.1,0.5-9.2,0.9c-2.2,0.3-4.4,0.3-6.6,0.6c-3.2,0.4-6.4,1-9.6,1.4
			c-2.9,0.4-5.8,0.6-8.7,1.1c-1.3,0.3-2.6,0.3-3.9,0.5c-3.3,0.6-6.7,1.3-10,1.9c-2.3,0.4-4.6,0.9-6.9,1.4c-1.7,0.4-3.5,0.7-5.2,1.1
			c-3.5,0.7-7,1.4-10.4,2.2c-4.7,1.2-9.3,2.6-14,3.7c-7.9,1.9-15.6,4.4-23.4,6.9c-7.4,2.4-14.8,5.1-22,8c-6.3,2.5-12.6,5.1-18.7,8
			c-9.6,4.5-19.1,9.3-28.1,15c-4,2.5-7.9,5.2-11.7,8c-2.7,2-5.3,4.1-7.9,6.3c-2.2,1.8-4.4,3.6-6.5,5.7c-2,2-3.6,4.2-5.5,6.3
			c-2.6,3-4.8,6.2-6.5,9.7c-1.9,3.7-3.1,7.5-3.8,11.7c-0.5,3.3-0.3,6.5,0.3,9.7c1,4.9,3.1,9.5,6,13.7c3.5,4.9,7.3,9.6,12,13.6
			c3.3,2.8,6.6,5.6,10.1,8.1c6.6,4.9,13.6,9.1,20.9,13c8.2,4.4,16.6,8.4,25.3,11.7c5.4,2.1,10.8,4.2,16.3,6.1
			c7,2.5,14.1,4.6,21.2,6.7c5.4,1.5,10.9,3,16.3,4.3c3.4,0.8,6.7,1.7,10.1,2.4c2.7,0.6,5.4,1,8.1,1.5c2.2,0.4,4.4,1,6.6,1.4
			c2.1,0.4,4.3,0.7,6.5,1.1c1.8,0.3,3.7,0.4,5.5,0.9c1.6,0.4,3.4,0.4,5.1,0.6c1.5,0.2,3.1,0.2,4.6,0.6c2.1,0.5,4.2,0.6,6.2,0.9
			c2.3,0.3,4.6,0.1,6.8,0.6c2.5,0.6,5,0.2,7.5,0.8c2.1,0.5,4.4,0.2,6.6,0.5c3.5,0.4,7,0.3,10.5,0.5
			C270.2,229,274.6,228.8,280.7,228.8z"/>
		<path d="M314.4,117.4c1,1.2,2,2.4,3,3.7c0,0.8,0,1.6,0,2.6c0.6-0.5,1-1.1,1.5-1.4c0.6-0.3,1.4-0.4,2.1-0.5c1-0.1,1.9-0.2,2.9-0.4
			c1.8-0.4,3.7-0.6,5.6-0.6c2.5,0,4.8-0.4,7.2-0.9c1.4-0.3,2.9-0.3,4.3-0.5c1.8-0.3,3.5-1.3,5.4-1.2c0.6,0,1.3-0.6,2-0.9
			c0.4,0.5,0.7,1,1.1,1.6c1.5,0.3,3-0.6,4.6-0.8c2,0.5,4-0.4,6.1-0.2c2.1,0.2,4.3,0,6.4,0c0.9,1.1,0.9,1.1,0.3,2.4
			c-2.8,0.4-5.8,0-8.7,0.6c-2.9,0.6-5.5,1.7-8.4,2.5c-0.7,1.5-1.3,3-0.1,4.3c2.2-0.1,4.2-0.2,6.1-0.3c1.8-0.1,3.7-0.3,5.4-0.5
			c1,1.4,1,1.4-0.1,2.8c-1.6,0.4-3.2,0.7-4.7,1.3c-1.8,0.7-3.6,1-5.5,1c-0.6,0-1.1,0.1-1.7,0.2c-0.1,0-0.3,0.2-0.4,0.3
			c-0.9,2.3-0.3,4.7-0.2,7.1c0.1,1.5,1.1,2.5,2.8,2.8c1.4-0.8,3.1-1.2,4.5-2.5c0.9-0.9,1.8-1.7,2-2.9c0.2-0.9,0.8-1.4,1.4-2
			c0.4,0,0.9,0,1.4,0c0.7,0.5,1.1,1.3,0.7,2.1c-1.5,3.2-3,6.5-6.7,7.9c-0.8,0.3-1.6,0.8-2.5,1.3c-0.8,0-1.7,0-2.7,0
			c-0.5-0.3-1.1-0.6-1.7-0.9c-1.1-0.4-1.8-1.2-2.2-2.2c-0.5-1-1.1-2-1.3-3.1c-0.1-1.2-0.3-2.5-0.2-3.7c0.1-1.1,0.4-2.1,0.4-3.2
			c0.1-1.1,0-2.1,0-3.3c0.3-0.6,0.6-1.2,1-1.9c0.2-2.3,0-3.3-0.7-4.9c-2.4,0.3-4.9,0.3-7.2,0.9c-2.4,0.6-4.9-0.1-7.2,1.2
			c0.4,3.4,0.2,7,1,10.4c1-0.1,1.7-0.2,2.6-0.3c0,1.1,0,2,0,3.2c-1,1.3-2.6,2.2-4.4,2.9c-1.8-1-2-3-3.1-4.5c-0.1-3-0.2-6.1-0.4-9.2
			c0-0.8-0.4-1.5-0.7-2.4c-1.2,0.6-2.2,0.3-3.3,0.5c-1,0.2-2,0.5-3.1,0.8c-0.6-0.7-1.2-1.3-1.8-2.1c-0.7,2.7-1.1,5.4-2.1,7.9
			c-0.6,1.6-1.8,3.1-3.1,4.3c-1.2,1-2.4,2.2-4.2,2.4c-0.2,0-0.5,0.2-0.7,0.3c-2.9,1.6-4.3,1.9-7.4,2c-0.4,0-0.8,0-1.4,0
			c-1-1.1-3.1-0.9-3.6-2.8c-0.1,0-0.3,0.1-0.4,0.1c-2.7,0.4-5.4,0.8-8.1,1.2c-0.3,0-0.7,0-1,0.1c-1.8,0.9-3.8,0.6-5.8,0.9
			c-2.4,0.4-4.7-0.3-6.8-1.7c-0.3-0.7-0.7-1.4-1.1-2.2c0.2-0.9,0.4-1.8,0.6-2.9c1.7-2,4.1-3.6,6.2-5.4c1.8-1.5,3.7-2.9,5.1-4.9
			c0.5-0.7,0.6-1.3,0.4-2c-1.7-1-3.6-1.1-5.3-0.6c-2.3,0.6-4.8-0.3-6.9,1.4c-0.7,0-1.4,0-2.1,0c-0.8,0.4-1.5,0.8-2.3,1.2
			c0.1,0.3,0.3,0.6,0.2,0.8c-1.2,2.6-0.8,5.5-0.9,8.2c-0.1,1.9,0.2,3.7,0.9,5.5c0.4,1.1,0.9,2.2,1.6,3.8c-0.1,0.4-0.4,1.3-0.6,2.3
			c-0.5,0-0.9,0-1.8,0c-0.6-0.7-1.4-1.6-2.2-2.6c-0.1,0.1-0.2,0.1-0.3,0.2c-0.3-2-0.7-3.9-1-5.9c-0.3-1.9,0.4-3.9-0.3-5.8
			c0.2-1.6,0.4-3.2,0.7-5c-0.1-0.1-0.3-0.4-0.6-0.7c-1.1,0.5-2.2,1-3.3,1.6c-0.6-0.6-1.3-1.2-1.8-1.7c-0.2-0.9,0.2-1.5,0.8-1.8
			c0.9-0.4,1.7-1,2.6-1.2c1.5-0.4,2.7-1.1,3.7-2.3c0.5,0.2,0.9,0.4,1.4,0.4c0.5,0.1,1.2,0.3,1.4,0c0.9-1,2.2-0.4,3.2-1
			c1-0.6,2.3-0.6,3.5-0.9c0.1,0,0.2,0,0.2,0c2.6-0.2,5.2-0.4,7.8-0.5c2.4-0.1,4.5,0.6,5.9,2.9c0.4,2.5-1.1,4.6-1.8,6.1
			c-3.4,3.9-7.1,6.4-10.3,9.8c1.8,1.7,3.7,1,5.5,1c0.7,0,1.4-0.3,2.1-0.3c3.1-0.2,6.2-0.4,9.5-0.7c-0.1-0.6-0.2-1.2-0.4-2.1
			c0,0,0.3-0.3,0.3-0.6c0-1.6,0.8-2.8,1.6-4c2-2.8,4.2-5.4,6.9-7.6c1.9-1.5,3.9-2.6,5.9-3.8c1.5-0.8,3-1.1,4.7-0.4
			C313,117.3,313.6,117.3,314.4,117.4z M304.6,136.5c6.5-2,8.5-7.1,9.1-13.2c-1.1-1-3.1-0.6-3.5-2.4c-5.7,2.3-9.9,6.1-12.2,11.9
			c0,0.7,0.1,1.5,0.2,2.4c1.4-0.2,2.6-0.3,3.9-0.5C302.8,135.3,304.5,134.8,304.6,136.5z"/>
		<path d="M259.4,102.6c2.7,2.7,1.8,6.1,1.9,8.9c-0.5,1.3-0.8,2.4-1.3,3.6c-0.8,1.1-1.8,2.4-2.5,3.9c-1.2,2.2-3,3.9-4.5,5.8
			c-2.4,2.9-5.2,5.5-7.9,8c-2.1,1.9-4.5,3.5-6.8,5.2c-0.6,0.5-1.5,0.6-2.1,0.9c-0.1,1.1-0.3,2.1-0.4,3.6c0.4,0.6,1,1.7,1.7,2.8
			c-0.4,1.2-0.8,2.4-1.3,3.9c-1.2-0.2-2.2-0.3-3.4-0.5c-0.2-1-0.5-1.9-0.6-2.9c-0.3-3.6,0.3-7.2,1-10.7c0.5-2.1,0.7-4.2,1-6.2
			c0.4-2.1,0-4.2,0.8-6.2c0.2-0.5,0.1-1.1,0.1-1.7c0-3.1,0-6.3,0-9.3c-0.7-0.5-1.4-0.4-1.9-0.1c-1.4,0.8-2.8,1.7-4.1,2.6
			c-1.2,0.8-2.3,1.8-3.8,2.2c-0.7-0.5-1.3-0.9-2-1.4c0-0.6,0-1.2,0-1.9c0.4-0.3,0.8-0.9,1.4-1.1c1.6-0.7,3.2-1.6,4.6-2.5
			c2.5-1.6,5.2-2.5,7.8-3.7c1.3-0.6,2.6-1.3,3.9-1.8c1.3-0.5,2.7-1,4-1.4c0.7-0.2,1.4-0.3,2.1-0.5c3-0.8,6-0.6,9-0.4
			C257.1,101.5,258.3,102.2,259.4,102.6z M236.9,134.4c0.9-0.4,1.4-0.5,1.8-0.8c2-1.6,4-3.1,5.8-4.8c2.4-2.3,4.5-4.8,6.8-7.2
			c0.2-0.2,0.4-0.5,0.6-0.8c1.2-1.6,2.3-3.3,3.4-4.9c1.7-2.6,2.9-5.1,2.5-8.3c-0.5-0.5-1-1.1-1.4-1.6c-1.1-0.3-2.1-0.7-3.2-0.7
			c-2.3,0-4.5-0.2-6.7,0.9c-0.8,0.4-1.7,0.3-2.6,0.6c-2,0.8-4,1.7-5.6,2.4c0,1.9,0,3.4,0.2,4.9c0.2,1.7-0.1,3.5,0.1,5.2
			c0.2,1.7-0.6,3.1-0.4,4.8c0.2,1.6-0.4,3.3-0.6,4.9C237.3,130.7,237.1,132.3,236.9,134.4z"/>
		<path d="M107.8,145.9c0.1-0.8,0.3-1.7,0.1-2.4c-0.9-2.8-0.3-5.7-0.3-8.6c0-1,0.3-1.9,0.4-2.9c0.1-1.1,0-2.1,0-3.2
			c0.1-1-0.2-1.9,0.3-2.9c0.2-0.4-0.3-1.1-0.2-1.6c0.3-1.2,0.1-2.5,0.2-3.7c0.1-2.7-0.3-5.5-0.6-8.3c0-0.1-0.2-0.3-0.4-0.5
			c-1.8,1-3.7,2-5.6,3.1c-0.7-0.6-1.2-1-1.7-1.5c0-0.5,0-1,0-1.8c0.4-0.3,1-1,1.7-1.4c2.3-1,4.4-2.2,6.8-3.1
			c1.5-0.6,3.1-0.9,4.6-1.3c1.4-0.4,2.8-1.1,4.4-0.8c0.3,0.1,0.8-0.1,1.1-0.3c0.8-0.5,1.5-0.6,2.3-0.2c0.3,0.1,0.6,0.2,0.9,0.2
			c2.7-0.2,4.6,0.3,6.8,1.5c0.6,0.4,1.2,0.7,1.8,1c0.6,0.4,1.2,0.8,2,1.3c0.4,0.5,1.1,1.3,1.7,2.1c1.9,2.3,2.5,5.5,1.9,8.7
			c-0.5,3-2,5.4-3.5,7.9c-3.1,5.3-6.8,10.2-11.1,14.5c-0.9,0.9-1.9,1.8-3,2.5c-1.8,1.2-3.3,2.6-4.4,4.6
			C111.3,149,108.7,149.3,107.8,145.9z M112.1,143.9c0.6-0.2,1.2-0.3,1.7-0.6c3.4-2.2,6.4-4.8,9-8c2.6-3.2,4.8-6.7,7.3-10.1
			c1.3-1.7,1.6-3.8,2.3-5.8c0.3-0.7,0.4-1.5,0.5-2.3c0.1-1.8-0.5-3.4-1.6-4.7c-0.9-1.1-2.2-1.7-3.3-2.5c-3-2.1-6.3-2-9.6-1.4
			c-2.1,0.4-4.2,1.1-6.3,1.7c-0.1,0-0.3,0.1-0.4,0.2c-0.2,0.4-0.3,0.7-0.3,0.6c0.1,1.8,0.1,3,0.2,4.3c0,1.3-0.2,2.7,0.1,3.9
			c0.7,3,0.6,6.1,0.2,9c-0.4,2.7-0.2,5.3-0.7,8c-0.4,2.2,0.2,4.5,0.4,6.8C111.6,143.4,111.9,143.6,112.1,143.9z"/>
		<path d="M471.8,140.6c0.4-0.8,0.8-1.5,1.2-2.3c0.1-1.6,0.2-3.3,0.4-5.1c0.2-1.4-0.3-2.9-0.5-4.3c-0.1-0.8-0.3-1.6-0.3-2.4
			c-0.1-1.6-0.2-3.2-0.7-4.8c-0.4-1.5-0.3-3.1-0.4-4.8c1,0,1.8,0,2.8,0c0.8,0.5,1.8,1.1,2.9,1.8c-0.6,1-1.1,2-1.7,2.9
			c0,2.9,0.4,5.6,0.9,8.5c0.4,2.9,0.3,6,0,8.9c-0.2,1.8-1.1,3.6-3,4.4c-0.6,0.3-1.1,0.7-1.9,1.2c-0.4-0.1-1.1-0.2-1.6-0.5
			c-3.1-1.5-5.6-3.6-7.5-6.4c-1-1.5-2.2-2.8-2.8-4.5c-0.2-0.6-0.7-1-1.2-1.6c-0.9,2.4-1.7,4.6-1.7,6.9c0,0.9-0.5,1.8-0.4,2.6
			c0.2,1.3,0.8,2.5,1.9,3.2c0,0.5,0,0.9,0,1.6c-1.1,0.4-2.3,0.8-3.6,1.2c-2-0.8-2.2-2.6-2.4-4.4c-0.3-2.9,0.4-5.7,1.2-8.4
			c1.5-4.8,2.4-9.6,2.3-14.7c0.3-0.4,0.7-0.8,1.1-1.2c1.3-0.4,2.2,0.2,3.2,0.9c0.8,8,3.7,15.1,9.7,20.6c0.3,0.1,0.7,0.2,1.1,0.3
			C471.2,140.3,471.5,140.5,471.8,140.6z"/>
		<path d="M425.7,137.6c-2.9,1.6-3.5,1.3-6.1-2.4c0-2.1-0.3-4.3,0.1-6.4c0.3-1.8,0.3-3.6,0.4-5.4c0-0.2,0-0.3-0.1-0.5
			c-0.7-0.1-1.5-0.3-2.2-0.2c-2.8,0.3-5.6,0.7-8.4,1.1c-0.4,0.1-0.8,0.3-1.1,0.3c-1.8,0.2-3.5,0.3-5.3,0.5c0.3,3.7,0.4,7.2,0.9,10.8
			c1-0.1,1.7-0.2,2.7-0.3c0.1,1.1,0.1,2,0.1,3.1c-1.1,1.6-2.8,2.4-4.5,3.1c-1.8-1-2-3-3.1-4.5c-0.1-3-0.2-6.1-0.4-9.2
			c0-0.8-0.4-1.5-0.7-2.4c-1.1,0.6-2.2,0.3-3.3,0.5c-1,0.2-2,0.5-3.2,0.8c-0.6-0.8-1.2-1.6-1.8-2.3c0.3-0.6,0.6-1.1,1-1.7
			c1.9-0.3,3.8-0.8,5.8-1c2.4-0.3,4.9-0.2,7.3-0.6c3.9-0.6,7.9-0.8,11.7-1.9c1.7-0.5,3.4-0.9,5.3-1.4c0.9,1.3,2.6,2.3,2.8,4.3
			c0.1,0.9,0.5,1.9,0.2,2.6c-0.4,1.1-0.2,2.3-0.4,3.4c-0.1,0.7-0.2,1.4-0.3,2.2c-0.4,2-0.1,3,1.2,5
			C424.9,135.6,425.2,136.6,425.7,137.6z"/>
		<path d="M156.6,134c1.3,0.1,2.4,0.1,3.6,0.2c-0.3,0.9-0.5,1.5-0.8,2.3c-0.5,0.1-1.1,0.1-2.3,0.3c0.9,0.5,1.4,0.8,1.9,1
			c1.3,0.3,2.9,0.1,4.1,1.8c-0.4,0.5-0.8,0.9-1.1,1.4c-1.2,0.3-2.3,0.2-3.4,0.5c-1.5,0.5-2.9-0.3-3.8-1.6c-0.7-1-1.2-2.1-1.9-3.3
			c-2.9,0.6-6,0.2-9,1.3c-1.1,0.4-2.4,0.1-3.7,0.1c-1.2,1.4-2.6,2.7-3.7,4.2c-0.8,1.1-1.7,1.4-2.9,1.2c-2.1-1.7,0.5-3.1,0.2-4.4
			c0.8-0.8,1.6-1.4,2.2-2.1c1-1.2,2-2.4,2.8-3.7c1.9-3.4,3.6-6.8,5.4-10.3c0.1-0.3,0.3-0.6,0.4-0.9c0.9-2.2,1.7-4.3,2.6-6.5
			c0.3-0.6,0.7-1.2,0.9-1.8c1.2,0.4,2.2,0.7,3.3,1.1c1,3.1,1.4,6.4,2.7,9.6c-0.1,2.6,1.1,5,1.6,7.6
			C155.8,132.8,156.3,133.5,156.6,134z M151.9,134.1c-1.1-4.3-1.7-8.4-3.5-12.6c-0.1,0.7-0.1,1.1-0.2,1.4c-1.3,2.5-2.6,4.9-3.8,7.3
			c-0.6,1.2-1.5,2.2-1.6,3.6c1.2,0.2,2.2,0.6,3.2,0.6c1.1,0,2.2-0.5,3.3,0C149.9,133.4,151.3,135.4,151.9,134.1z"/>
		<path d="M196.8,113.9c1.2,0.4,2.2,0.7,3.3,1.1c1,3.1,1.4,6.5,2.7,9.6c-0.1,2.7,1.1,5,1.6,7.6c0.1,0.7,0.7,1.4,1,2
			c1.3,0.1,2.4,0.1,3.6,0.2c-0.3,0.9-0.5,1.5-0.8,2.3c-0.5,0.1-1.1,0.1-2.1,0.3c0.7,0.5,1.2,0.9,1.7,1.3c1.3,0,3-0.2,4.1,1.5
			c-0.4,0.5-0.8,0.9-1,1.2c-1.4,0.3-2.4,0.6-3.5,0.7c-1.6,0.2-2.9-0.3-3.8-1.7c-0.7-1-1.2-2.1-1.9-3.3c-2.9,0.5-6,0.3-9,1.4
			c-1.1,0.4-2.4,0.1-3.7,0.1c-1.2,1.4-2.5,2.8-3.7,4.2c-1,1.2-1,1.2-2.9,1.2c-2-1.7,0.5-3.1,0.3-4.4c0.8-0.7,1.6-1.4,2.2-2.1
			c1-1.2,2-2.4,2.8-3.7c1.9-3.3,3.6-6.7,5.4-10c0.2-0.4,0.3-0.8,0.4-1.1c0.9-2.2,1.7-4.3,2.6-6.5C196.1,115,196.5,114.4,196.8,113.9
			z M197.2,121.9c-1,2-1.9,4.1-2.9,6.1c-1,2-2.3,3.7-3,6.3c1.8-0.7,3.3,1.1,4.9-0.1c1.1,0.8,2.5-0.3,3.6,0.3
			c0.2,0.1,0.6-0.4,0.9-0.5c-0.3-0.8-0.8-1.4-0.8-2.1c-0.1-3-1.5-5.7-2.1-8.6C197.7,122.8,197.3,122.3,197.2,121.9z"/>
		<path d="M432.4,141.1c-0.3-0.2-0.4-0.3-0.5-0.4c-0.9-0.6-2-0.9-2.5-1.7c-0.8-1.2-1.2-2.6-1.8-4c-0.2-0.4-0.3-0.9-0.5-1.5
			c0.1-0.2,0.4-0.4,0.4-0.7c0-1.6,0.8-2.8,1.6-4c2-2.8,4.2-5.4,6.9-7.6c1.9-1.5,3.9-2.6,5.9-3.8c1.5-0.8,3-1.1,4.7-0.4
			c0.4,0.2,1,0.1,1.7,0.2c1,1.2,2.1,2.5,3,3.7c0,1.5,0,2.9,0,3.6c-0.6,2.1-1,3.7-1.4,5.2c-0.2,0.5-0.4,1.1-0.5,1.6
			c-0.4,2.3-1.9,3.8-3.6,5.3c-1.2,1.1-2.6,1.9-4.2,2.4c-1.2,0.4-2,1.7-3.5,1.5c-0.6-0.1-1,0.8-1.8,0.3c-0.4-0.2-1.2,0.2-1.8,0.3
			C433.8,141.1,433.1,141.1,432.4,141.1z M447.9,123.1c-1.5-0.6-3.2-0.6-3.7-2.2c-5.7,2.3-9.8,6-12.2,11.8c0,0.5,0,1.3,0,2
			c0.4,0.6,0.8,1.2,1.2,1.8c1.2,0.2,2.4,0.4,3.8,0.6c0.6-0.2,1.3-0.5,2.1-0.8c3.7-1.2,6.1-3.7,7.5-7.4
			C447.2,127.1,447.2,125.2,447.9,123.1z"/>
		<path d="M166.9,125c-1.1,0.6-2.2,0.3-3.3,0.5c-1,0.2-2,0.5-3.2,0.8c-0.6-0.8-1.2-1.6-1.8-2.3c0.3-0.6,0.6-1.1,1-1.8
			c2.1-0.3,4.3-0.7,6.5-1.1c3.9-0.7,7.9-0.2,11.8-1.4c1.1-0.4,2.4-0.2,3.6-0.4c1.9-0.3,3.8-0.7,5.6-1.2c0.8-0.2,1.5-0.6,2.4-1
			c0.5,0.6,1.1,1.3,1.8,2c-0.6,1-1.1,2.1-1.8,3.3c-0.7,0.3-1.5,0.3-2.5,0.2c-1-0.1-2,0.3-3.1,0.4c-1.5,0.2-3.1,0.3-4.6,0.5
			c-1.6,0.2-3.2,0.5-4.8,0.5c-0.9,0-1.9,0.4-2.7,0.6c0.3,3.5,0.2,7,1,10.5c0.9-0.1,1.6-0.2,2.6-0.3c0.1,1.1,0.1,2,0.1,2.9
			c-1.3,1.7-2.5,2.5-4.8,3.2c-1.5-1.5-2.5-3.4-2.8-5.6c-0.4-2.7-0.3-5.4-0.5-8.1C167.5,126.7,167.1,125.9,166.9,125z"/>
		<path d="M369.5,128.1c-0.1,0.9-0.2,1.9-0.3,3.1c0.9,3,3.6,4.2,6.8,5.3c1.6,0.2,3.5,0.5,5.5,0.5c1.9,0,3.9-0.4,6.1-0.6
			c0.2-0.2,0.7-0.5,1-0.8c1.3,0,2.4,0,3.9,0c-1,1.1-1.8,2-3,2.4c-2.5,1-5.2,1.2-7.8,1.4c-1.8,0.1-3.6,0-5.4,0.1
			c-3.1,0.1-5.6-1.5-8.1-3.1c-1.6-1-2.3-2.7-2.6-4.5c-0.2-1.2-0.7-2.4-0.4-3.8c0.5-2.4,1.8-4.2,3.7-5.5c3.4-2.4,7.2-3.8,11.3-4.4
			c2.2-0.3,4.1,0.7,6,1.1c1.1,1.7,1.1,1.7,1.1,3.8c-0.4,0.4-1,1-1.7,1.6c-1.3-0.2-2.4-0.4-3.5-0.5c-0.4-0.8-0.1-1.8-1.2-2
			C376.6,122.9,372.4,123.9,369.5,128.1z"/>
	</g>
</g>
</svg>
