<?xml version="1.0" encoding="utf-8"?>
<!-- Generator: Adobe Illustrator 25.2.1, SVG Export Plug-In . SVG Version: 6.00 Build 0)  -->
<svg version="1.1" id="Layer_1" xmlns="http://www.w3.org/2000/svg" xmlns:xlink="http://www.w3.org/1999/xlink" x="0px" y="0px"
	 viewBox="0 0 80 60" style="enable-background:new 0 0 80 60;" xml:space="preserve">
<g>
	<g>
		<path d="M41.1,44.6c0,0.2,0.1,0.3,0.1,0.5c0,0.2,0,0.4,0,0.5c0,0.3,0,0.5,0,0.8c0,0.3,0,0.5,0,0.8c0.1,0.3,0,0.5,0.1,0.8
			c0,0.3,0,0.5,0,0.8c0,0.3,0,0.5,0,0.8c0.1,0.4,0,0.8,0.1,1.1c0,0.4,0,0.8,0,1.2c0.1,0.8,0,1.6,0.1,2.4c0.1,0.8,0,1.5,0.1,2.3
			c0.1,0.5,0,1,0.1,1.5c0,0.3-0.1,0.5-0.4,0.6c-0.1,0-0.2,0-0.3,0c-0.1-0.1-0.2-0.1-0.2-0.2c-0.1-0.1-0.1-0.2-0.1-0.3
			c0-0.7-0.1-1.5-0.1-2.2c0-0.2,0-0.5,0-0.7c-0.1-0.8,0-1.6-0.1-2.5c-0.1-0.4-0.1-0.7-0.1-1.1c0-0.4,0-0.7,0-1.1
			c0-0.3-0.1-0.5-0.1-0.8c0-0.3,0-0.6,0-0.9c0-0.3,0-0.6,0-0.8c-0.1-0.3,0-0.6-0.1-0.9c0-0.3,0-0.6,0-0.9c0-0.5-0.1-1.1-0.1-1.6
			c-0.2,0-0.4-0.1-0.6-0.1c-0.2,0-0.4,0-0.6,0c-0.4,0-0.7-0.1-1.1-0.1c-0.2-0.1-0.4,0-0.6-0.1c-0.1,0-0.3,0-0.4-0.1
			c-0.1,0-0.3,0-0.4-0.1c0,0,0,0-0.1,0c-0.2,0-0.3,0-0.5-0.1c-0.1-0.1-0.3,0-0.4-0.1c-0.2,0-0.4-0.1-0.6-0.1c-0.1,0-0.2,0-0.3-0.1
			c-0.1,0-0.2,0-0.3,0c-0.1-0.1-0.3,0-0.4-0.1c-0.4-0.1-0.8-0.1-1.2-0.3c-0.3-0.1-0.7-0.1-1-0.2c-0.4-0.1-0.8-0.1-1.2-0.3
			c-0.4,0-0.7-0.2-1.1-0.3c-0.1,0-0.2-0.1-0.3-0.1c-0.5-0.1-1-0.3-1.5-0.5c-0.3-0.1-0.7-0.2-1-0.4c-0.6-0.2-1.3-0.5-1.9-0.7
			c-0.4-0.2-0.8-0.3-1.2-0.5c-1.2-0.5-2.3-1.1-3.5-1.7c-0.5-0.3-1.1-0.6-1.6-0.9c-0.3-0.2-0.7-0.4-1-0.6c-0.5-0.3-1.1-0.7-1.6-1
			c-0.4-0.3-0.8-0.6-1.2-0.9c-0.4-0.3-0.7-0.6-1.1-0.9c-0.2-0.1-0.3-0.3-0.5-0.4c-0.8-0.7-1.5-1.4-2.2-2.2c-0.3-0.3-0.6-0.6-0.9-1
			c-0.6-0.7-1.1-1.4-1.5-2.1c-0.2-0.3-0.4-0.6-0.5-0.9c-0.1-0.3-0.3-0.6-0.4-0.9c-0.3-0.6-0.5-1.2-0.7-1.8c-0.1-0.3-0.2-0.6-0.2-0.9
			c0-0.2-0.1-0.4-0.1-0.6c0-0.2-0.1-0.4-0.1-0.6c-0.1-0.3,0-0.7-0.1-1.1c0-0.4,0-0.7,0-1.1c0-0.1,0-0.2,0.1-0.4c0-0.1,0-0.2,0.1-0.4
			c0-0.1,0-0.3,0.1-0.5c0-0.1,0.1-0.3,0.1-0.4c0-0.1,0.1-0.3,0.1-0.4c0.1-0.3,0.2-0.7,0.4-1c0.2-0.6,0.5-1.2,0.9-1.9
			c0.2-0.4,0.5-0.8,0.7-1.2C8.8,14.7,9,14.4,9.3,14c0.3-0.3,0.5-0.7,0.8-1c0.6-0.7,1.3-1.4,2-2c0.2-0.2,0.5-0.5,0.8-0.7
			c0.2-0.1,0.3-0.3,0.5-0.4c0.2-0.2,0.4-0.3,0.6-0.4c0.2-0.1,0.4-0.3,0.6-0.4c0.4-0.3,0.9-0.6,1.3-0.9c0.3-0.2,0.6-0.4,0.9-0.6
			c0.4-0.3,0.9-0.5,1.3-0.8c0.4-0.3,0.8-0.5,1.2-0.7c0.6-0.3,1.2-0.7,1.8-0.9c0.5-0.2,1-0.5,1.5-0.7c0.3-0.1,0.7-0.3,1-0.4
			c0.4-0.2,0.8-0.3,1.1-0.4c0.3-0.1,0.6-0.2,0.9-0.3C26,3.2,26.3,3,26.6,2.9C27,2.8,27.5,2.7,28,2.5c0.4-0.1,0.9-0.2,1.3-0.3
			c0.4-0.1,0.8-0.2,1.3-0.3c0.1-0.1,0.3,0,0.4-0.1c0.1-0.1,0.3,0,0.4-0.1c0.2,0,0.5-0.1,0.7-0.2c0.1,0,0.2,0,0.2,0
			c0.1,0,0.1-0.1,0.2-0.1c0.3,0,0.6-0.2,0.8-0.1c0.1-0.1,0.3,0,0.4-0.1c0.1-0.1,0.2,0,0.4-0.1c0.3-0.1,0.6-0.1,0.8-0.1
			c0.2,0,0.3,0,0.5-0.1c0.2-0.1,0.3,0,0.5-0.1c0.2-0.1,0.5,0,0.8-0.1c0,0,0,0,0,0c0.4,0,0.8,0,1.1-0.1c0.3-0.1,0.7,0,1-0.1
			c0.4-0.1,0.7,0,1.1,0c1,0,2,0,3,0c0.1,0,0.3,0,0.4,0c0.1,0.1,0.3,0,0.4,0c0.1,0,0.3,0,0.4,0c0.2,0.1,0.5,0,0.7,0.1
			c0.1,0,0.2,0.1,0.4,0.1c0.1,0,0.3,0,0.4,0.1c0.3,0.1,0.5,0,0.8,0.1c0.1,0,0.2,0,0.3,0.1c0.1,0,0.2,0,0.3,0.1
			c0.1,0.1,0.3,0,0.4,0.1c0.2,0,0.4,0,0.6,0.1c0.2,0.1,0.5,0.1,0.8,0.2c0.3,0,0.5,0.1,0.8,0.2c0.2,0,0.4,0.1,0.6,0.1
			c0.3,0.1,0.6,0.2,0.9,0.2C51.4,1.9,51.7,2,52,2.1c0.3,0.1,0.6,0.2,0.9,0.3c0.7,0.2,1.5,0.4,2.2,0.7c0.4,0.2,0.8,0.3,1.2,0.5
			C56.7,3.7,57,3.8,57.4,4c1.3,0.5,2.6,1.2,3.9,1.8c0.2,0.2,0.6,0.3,0.8,0.5c0.3,0.2,0.5,0.3,0.8,0.5c0.5,0.3,1,0.6,1.4,0.9
			c0.3,0.2,0.7,0.5,1.1,0.7c0.2,0.2,0.4,0.3,0.6,0.5c0.2,0.2,0.4,0.4,0.7,0.5c0.1,0.1,0.2,0.2,0.4,0.3c0.3,0.3,0.6,0.6,1,0.8
			c0.3,0.2,0.4,0.4,0.7,0.6c0.4,0.3,0.8,0.7,1.1,1.1c0.3,0.3,0.5,0.5,0.8,0.8c0.3,0.3,0.6,0.7,0.8,1c0.3,0.4,0.7,0.9,1,1.4
			c0.2,0.2,0.3,0.5,0.4,0.7c0.3,0.4,0.5,0.8,0.7,1.3c0.2,0.4,0.3,0.8,0.5,1.1c0.1,0.2,0.2,0.4,0.2,0.6c0.1,0.3,0.2,0.5,0.2,0.8
			c0.1,0.4,0.2,0.7,0.2,1.1c0.1,0.2,0,0.4,0.1,0.5c0.1,0.4,0,0.7,0.1,1.1c0,0.4,0,0.7,0,1.1c0,0.2-0.1,0.3-0.1,0.5
			c0,0.2-0.1,0.3-0.1,0.5c-0.1,0.2-0.1,0.5-0.2,0.7c-0.1,0.2-0.1,0.5-0.2,0.7c-0.1,0.2-0.2,0.5-0.2,0.7c-0.1,0.4-0.4,0.8-0.5,1.3
			c-0.2,0.4-0.4,0.7-0.5,1.1c-0.2,0.5-0.5,0.9-0.8,1.3c-0.3,0.4-0.5,0.7-0.8,1.1c-0.3,0.3-0.6,0.7-0.9,1c-0.4,0.5-0.8,0.9-1.2,1.3
			c-0.2,0.2-0.5,0.5-0.8,0.7c-0.3,0.2-0.5,0.5-0.8,0.7c-0.2,0.2-0.5,0.4-0.7,0.5c-0.3,0.2-0.6,0.4-0.8,0.6c-0.1,0.1-0.3,0.2-0.4,0.3
			c-0.5,0.3-0.9,0.6-1.4,0.9c-0.4,0.2-0.8,0.4-1.1,0.7c-0.4,0.2-0.9,0.5-1.3,0.7c-0.5,0.3-1.1,0.6-1.6,0.8c-0.5,0.2-1,0.5-1.5,0.7
			c-0.5,0.2-1,0.5-1.6,0.6c-0.4,0.2-0.9,0.3-1.3,0.5c-0.6,0.2-1.3,0.4-1.9,0.6c-0.4,0.1-0.9,0.3-1.3,0.4c-0.3,0.1-0.6,0.2-0.9,0.2
			c-0.3,0.1-0.6,0.2-1,0.3c-0.2,0.1-0.5,0.1-0.7,0.1c-0.2,0.1-0.4,0.1-0.6,0.2c-0.1,0.1-0.3,0-0.4,0.1c-0.2,0.1-0.4,0-0.5,0.1
			c-0.2,0.1-0.3,0-0.5,0.1c-0.2,0-0.4,0-0.5,0.1c-0.2,0-0.4,0-0.6,0.1c0,0,0,0-0.1,0c-0.2,0-0.3,0-0.5,0.1c-0.1,0-0.3,0-0.4,0.1
			c-0.3,0.1-0.5,0-0.8,0.1c-0.2,0-0.3,0-0.5,0.1c-0.2,0-0.3,0-0.5,0.1c0,0,0,0,0,0c-0.3,0-0.6,0-0.9,0.1
			C42.7,44.6,41.9,44.6,41.1,44.6z M73.8,22.9c0-0.3,0-0.7-0.1-1c0-0.2,0-0.4-0.1-0.5c-0.1-0.2,0-0.4-0.1-0.5c0-0.1,0-0.3-0.1-0.4
			c-0.1-0.2-0.1-0.5-0.2-0.8c-0.1-0.2-0.2-0.5-0.3-0.8c-0.1-0.3-0.2-0.5-0.3-0.8c-0.2-0.5-0.5-1-0.8-1.5c-0.2-0.3-0.3-0.5-0.5-0.8
			c-0.3-0.5-0.6-0.9-1-1.3c-0.1-0.2-0.3-0.3-0.4-0.5c-0.2-0.3-0.5-0.6-0.7-0.8c-0.7-0.7-1.3-1.3-2-1.9c-0.2-0.2-0.4-0.4-0.6-0.5
			c-0.1-0.1-0.3-0.2-0.4-0.3c-0.4-0.3-0.8-0.6-1.2-0.8c-0.3-0.2-0.7-0.5-1-0.7c-0.2-0.1-0.4-0.3-0.6-0.4C63.2,8.2,63,8,62.7,7.9
			c-0.4-0.2-0.8-0.5-1.3-0.7c-0.3-0.2-0.7-0.4-1-0.6c-0.8-0.4-1.5-0.8-2.3-1.2c-0.3-0.1-0.5-0.2-0.8-0.3C57.2,5,57,4.9,56.8,4.9
			c-0.4-0.1-0.7-0.3-1.1-0.4c-0.4-0.1-0.8-0.3-1.2-0.5c-0.8-0.3-1.6-0.5-2.4-0.8c-0.3-0.1-0.7-0.2-1-0.3c-0.6-0.2-1.1-0.3-1.7-0.4
			c-0.2-0.1-0.5-0.1-0.7-0.1c-0.1-0.1-0.3,0-0.4-0.1c-0.1-0.1-0.3,0-0.4-0.1c-0.1,0-0.1-0.1-0.2-0.1c-0.1,0-0.2,0-0.3,0
			C47,2,46.7,2,46.3,1.9c-0.3-0.1-0.5-0.1-0.8-0.1c0,0,0,0-0.1,0c-0.1-0.1-0.3-0.1-0.4-0.1c-0.1,0-0.3-0.1-0.4-0.1
			c-0.2,0-0.5,0-0.7-0.1c-0.4,0-0.9,0-1.3-0.1c-0.5,0-0.9,0-1.4,0c-0.5,0-0.9,0-1.4,0c-0.5,0-0.9,0-1.4,0.1c-0.4,0-0.7,0.1-1.1,0.1
			c0,0,0,0,0,0c-0.1,0.1-0.3,0-0.5,0.1c-0.2,0-0.3,0-0.5,0.1c-0.3,0-0.5,0-0.8,0.1c-0.1,0-0.3,0-0.4,0.1C35.1,2,35,2.1,34.8,2
			c0,0-0.1,0-0.1,0c-0.1,0.1-0.2,0-0.3,0.1c-0.1,0-0.2,0.1-0.3,0.1c-0.2,0-0.4,0.1-0.5,0.1c-0.3,0.1-0.6,0.1-0.9,0.2
			c-0.1,0-0.3,0-0.4,0.1c-0.2,0.1-0.4,0.1-0.5,0.1c-0.2,0-0.4,0.1-0.5,0.1c-0.2,0.1-0.5,0.1-0.7,0.2c-0.3,0.1-0.7,0.2-1,0.3
			c-0.5,0.1-1,0.3-1.5,0.4c-0.5,0.1-1,0.3-1.4,0.5c-0.3,0.1-0.6,0.2-0.9,0.3c-0.3,0.1-0.6,0.2-1,0.3c-0.2,0.1-0.5,0.2-0.7,0.3
			c-0.2,0.1-0.5,0.2-0.7,0.3c-0.5,0.2-1.1,0.4-1.6,0.7c-0.1,0.1-0.2,0.1-0.3,0.1c-0.4,0.1-0.7,0.3-1,0.5c-0.2,0.2-0.4,0.2-0.6,0.4
			c-0.2,0.1-0.4,0.2-0.6,0.3c-0.3,0.2-0.7,0.4-1,0.6c-0.3,0.2-0.7,0.4-1,0.6C16.7,8.8,16.4,9,16,9.3c-0.4,0.3-0.7,0.5-1.1,0.8
			c-0.1,0.1-0.2,0.2-0.3,0.3c-0.3,0.1-0.5,0.4-0.7,0.5c-0.3,0.2-0.5,0.4-0.8,0.7c-0.3,0.2-0.5,0.5-0.8,0.7c-0.5,0.5-0.9,0.9-1.4,1.4
			c0,0,0,0,0,0c-0.2,0.3-0.5,0.7-0.8,1C10,14.8,10,14.9,9.9,15c-0.2,0.4-0.5,0.7-0.7,1.1C9,16.4,8.8,16.7,8.7,17
			c-0.2,0.4-0.4,0.7-0.5,1.1c-0.2,0.4-0.3,0.9-0.5,1.3c-0.1,0.2-0.1,0.5-0.2,0.7c-0.1,0.3-0.1,0.5-0.1,0.8c-0.1,0.3-0.1,0.6-0.1,0.9
			c0,0.3,0,0.6,0,0.9c0,0.3,0,0.6,0.1,0.8c0,0,0,0.1,0,0.1c0.1,0.1,0,0.3,0.1,0.5c0.1,0.1,0.1,0.3,0.1,0.5c0,0.1,0,0.2,0.1,0.3
			c0.2,0.5,0.3,1.1,0.6,1.6c0,0.3,0.2,0.4,0.3,0.7c0.1,0.2,0.2,0.4,0.3,0.6c0.3,0.4,0.5,0.8,0.7,1.2c0.3,0.4,0.6,0.9,1,1.3
			c0.1,0.1,0.3,0.3,0.4,0.4c0.2,0.3,0.4,0.5,0.6,0.7c0.5,0.6,1.1,1.1,1.6,1.6c0.1,0.1,0.1,0.1,0.2,0.2c0.2,0.1,0.2,0.2,0.4,0.3
			c0.1,0.1,0.3,0.2,0.4,0.3c0.2,0.2,0.3,0.3,0.5,0.5c0.1,0.1,0.2,0.2,0.3,0.3c0.3,0.2,0.5,0.3,0.7,0.5c0.2,0.2,0.4,0.3,0.6,0.5
			c0.4,0.3,0.8,0.6,1.2,0.8c0.3,0.2,0.6,0.4,1,0.6c0.4,0.2,0.8,0.5,1.3,0.7c0.3,0.2,0.7,0.4,1,0.6c0.7,0.4,1.5,0.8,2.2,1.1
			c0.4,0.2,0.9,0.4,1.4,0.6c0.5,0.2,0.9,0.4,1.4,0.6c0.2,0.1,0.5,0.1,0.7,0.2c0.2,0.1,0.5,0.2,0.7,0.3c0.6,0.2,1.3,0.4,1.9,0.6
			c0.3,0.1,0.6,0.2,1,0.3c0.2,0.1,0.4,0.1,0.6,0.2c0.3,0.1,0.7,0.2,1,0.3c0.3,0,0.5,0.2,0.8,0.1c0.1,0.1,0.2,0,0.4,0.1
			c0.1,0.1,0.3,0.1,0.4,0.1c0.1,0,0.3,0,0.4,0.1c0.1,0.1,0.3,0,0.4,0.1c0.1,0.1,0.3,0,0.4,0.1c0.1,0.1,0.3,0,0.4,0.1
			c0.1,0.1,0.2,0,0.4,0.1c0,0,0.1,0,0.1,0c0.1,0.1,0.2,0,0.3,0.1c0.1,0,0.2,0.1,0.3,0.1c0.2,0,0.5,0.1,0.7,0.1
			c0.2,0.1,0.5,0,0.8,0.1c0.2,0.1,0.5,0,0.7,0.1c0.3,0,0.6,0,0.8,0.1c0.3,0,0.6,0,0.9,0c0.3,0,0.6,0.1,0.9,0.1c0.5,0,0.9,0,1.4,0
			c0.5-0.1,1,0,1.5-0.1c0.3-0.1,0.5,0,0.8-0.1c0.2-0.1,0.4,0,0.6-0.1c0.2-0.1,0.4,0,0.6-0.1c0.3-0.1,0.5-0.1,0.8-0.1
			c0,0,0.1,0,0.1,0c0.1-0.1,0.2,0,0.4-0.1c0.1-0.1,0.3-0.1,0.4-0.1c0,0,0.1,0,0.1,0c0.1-0.1,0.2,0,0.3-0.1c0.1,0,0.2,0,0.3-0.1
			c0.2,0,0.4,0,0.5-0.1c0.3-0.1,0.6-0.1,0.9-0.2c0.1,0,0.3,0,0.4-0.1c0.2-0.1,0.4-0.1,0.6-0.1c0.2,0,0.5-0.1,0.7-0.2
			c0.3-0.1,0.5-0.2,0.8-0.2c0.3-0.1,0.6-0.2,1-0.3c0.5-0.1,0.9-0.3,1.4-0.4c0.3-0.1,0.6-0.2,0.9-0.3c0.3-0.1,0.6-0.2,0.9-0.3
			c0.5-0.2,1.1-0.4,1.6-0.6c0.5-0.2,1-0.4,1.5-0.6c0.4-0.2,0.8-0.4,1.2-0.6c0.2-0.1,0.4-0.2,0.7-0.3c0.3-0.2,0.6-0.3,0.9-0.5
			c0.5-0.3,1-0.6,1.5-0.9c0.5-0.3,1-0.6,1.5-0.9c0.4-0.2,0.7-0.5,1-0.8c0.4-0.3,0.8-0.6,1.1-0.9c0.1-0.1,0.3-0.3,0.4-0.3
			c0.2-0.1,0.3-0.2,0.4-0.4c0.1-0.1,0.3-0.2,0.4-0.4c0.5-0.5,1.1-1,1.5-1.6c0.2-0.3,0.4-0.5,0.7-0.8c0.3-0.3,0.5-0.7,0.8-1.1
			c0.3-0.4,0.6-0.9,0.9-1.4c0.4-0.7,0.7-1.4,1-2.2c0.1-0.4,0.2-0.8,0.3-1.1c0-0.2,0-0.4,0.1-0.5c0.1-0.2,0-0.4,0.1-0.5
			c0-0.3,0-0.6,0.1-1C73.8,23.2,73.8,23.1,73.8,22.9z"/>
		<path d="M32.9,29.6c0.1,0,0.2,0.1,0.3,0.1c0.1,0,0.2,0,0.3,0c0.2-0.1,0.4,0,0.5-0.1c0.1-0.1,0.3-0.2,0.5-0.3
			c0.3-0.2,0.5-0.4,0.8-0.7c0.2-0.2,0.5-0.4,0.7-0.6c0.2-0.1,0.3-0.3,0.4-0.5c0.3-0.3,0.5-0.7,0.7-1c0.2-0.4,0.5-0.7,0.7-1.1
			c0.1-0.1,0.2-0.3,0.3-0.4c0-0.3,0.1-0.6,0.2-0.9c0.3-0.6,0.6-1.2,0.8-1.9c0-0.1,0-0.2,0-0.3c0-0.1,0-0.1,0-0.2
			c-0.1-0.2-0.1-0.2,0-0.5c0.1-0.3,0.2-0.6,0.2-0.9c0-0.2,0-0.3,0.1-0.5c0.1-0.2,0-0.3,0.1-0.5c0.1-0.2,0-0.3,0.1-0.5
			c0-0.1,0-0.3,0.1-0.4c0-0.2,0.1-0.4,0.1-0.7c0-0.1,0-0.1,0-0.2c0-0.2,0-0.4,0-0.6c0-0.3,0-0.6,0.1-0.9c0.1-0.3,0.1-0.6,0.2-0.9
			c0,0,0,0,0,0c0-0.2,0.1-0.4,0.1-0.7c0-0.2,0-0.4,0-0.7c0-0.2-0.1-0.3-0.1-0.5c0.1-0.1,0.1-0.1,0.2-0.2c0-0.3,0-0.6-0.1-0.8
			c0-0.2,0.1-0.3,0.1-0.4c0-0.1,0-0.3,0-0.4c0.1-0.2,0.1-0.4,0.1-0.6c0-0.2,0-0.3,0.1-0.5c0-0.2,0-0.4,0-0.6
			c0.1-0.1,0.3-0.2,0.4-0.3c0.2,0,0.5,0,0.7,0c0.2,0.1,0.2,0.4,0.3,0.6c0.2,0.5,0.3,1,0.4,1.5c0.1,0.3,0.1,0.5,0.2,0.8
			c0,0.2,0,0.3,0.1,0.5c0,0,0,0.1,0,0.1c0,0.1,0,0.2,0,0.3c0.1,0.1,0,0.2,0.1,0.3c0.1,0.1,0,0.2,0.1,0.3c0.1,0.1,0.1,0.3,0,0.4
			c-0.1,0.1,0,0.3-0.1,0.4c-0.1,0.1-0.1,0.3-0.1,0.4c0,0.1,0,0.3,0.1,0.4c0,0.1,0,0.3,0,0.4c0.1,0.4,0.1,0.7,0,1.1
			c0,0.2,0,0.4-0.1,0.7c-0.1,0.3-0.2,0.7-0.2,1c-0.1,0.4,0,0.8-0.1,1.2c0,0.2,0,0.4,0,0.6c-0.1,0.2-0.1,0.4-0.1,0.6
			c-0.1,0.2-0.1,0.5,0,0.7c0.1,0.1,0,0.3,0,0.5c0,0.1-0.1,0.2-0.1,0.2c0,0.2,0.1,0.3,0.1,0.5c-0.1,0.1-0.1,0.3-0.1,0.4
			c0,0.2,0,0.4,0,0.6c0,0.3-0.1,0.7-0.2,1c-0.1,0.2-0.1,0.4-0.1,0.6c0,0.4,0,0.7,0,1.1c0,0.3-0.1,0.5-0.2,0.8
			c0.1,0.1,0.1,0.2,0.2,0.3c0,0.2,0.1,0.4,0.1,0.6c0,0.2,0.1,0.4,0.1,0.5c0,0.2,0.1,0.4,0.2,0.5c0,0.2,0.2,0.3,0.2,0.5
			c0,0.1,0.1,0.1,0.1,0.2c0.1,0.1,0.3,0.2,0.4,0.3c0,0.1,0,0.2,0,0.2c0.2,0.1,0.2-0.1,0.3-0.1c0.1,0,0.2,0,0.3,0
			c0.2,0.2,0.4,0.3,0.5,0.6c0,0.1,0,0.2,0,0.2c0,0.2-0.1,0.4-0.2,0.5c-0.2,0.1-0.3,0.2-0.5,0.3c-0.1,0-0.2,0.1-0.4,0.2
			c-0.1,0-0.2,0-0.3-0.1c-0.1-0.1-0.2,0-0.3,0c0,0-0.1,0-0.2,0c-0.2,0-0.5-0.1-0.7-0.1c-0.1,0-0.2-0.1-0.2-0.2
			c-0.4-0.4-0.7-0.9-0.9-1.5c-0.1-0.4-0.2-0.7-0.3-1.1c-0.1-0.2,0-0.4-0.1-0.5c0-0.1-0.1-0.3-0.1-0.4c0-0.1-0.1-0.3-0.1-0.4
			c0-0.1,0-0.3,0-0.4s0-0.3,0-0.4c0-0.2-0.1-0.4-0.3-0.5c0.3-0.1,0.3-0.4,0.4-0.6c0-0.3,0-0.5,0-0.9c-0.2,0.2-0.3,0.4-0.4,0.6
			c-0.1,0.2-0.2,0.5-0.3,0.8c-0.2,0.4-0.5,0.8-0.7,1.1c-0.3,0.4-0.7,0.8-1,1.2c-0.6,0.7-1.3,1.3-2,2c-0.3,0-0.4,0.2-0.6,0.3
			c-0.1,0.1-0.2,0.2-0.3,0.2c-0.1,0.1-0.3,0.1-0.5,0.2c-0.2,0-0.4,0.1-0.5,0.1c-0.2,0-0.4,0-0.6,0c-0.5,0-0.9-0.1-1.3-0.3
			c-0.2-0.1-0.5-0.3-0.5-0.6c-0.1-0.3-0.2-0.5-0.4-0.8c-0.1-0.3-0.2-0.5-0.3-0.8c0,0,0-0.1,0-0.1c0-0.1,0-0.2-0.1-0.4
			c0,0,0-0.1,0-0.2c0-0.2,0-0.5,0-0.7c0-0.5,0-0.9,0.1-1.4c0-0.4,0.1-0.8,0.2-1.2c0-0.1,0-0.3,0.1-0.4c0-0.2,0-0.3-0.1-0.5
			c0.1-0.3,0.2-0.6,0.3-0.9c0.2-0.6,0.1-1.1,0.1-1.7c0-0.1,0-0.3,0.1-0.4c0.1-0.2,0.1-0.3,0.1-0.5c0-0.4,0.1-0.8,0.1-1.2
			c0-0.4,0-0.8,0-1.2c0-0.1,0.1-0.3,0.1-0.4c0-0.1,0-0.3,0.1-0.4c0,0,0-0.1,0-0.2c0-0.1,0-0.2,0.1-0.4c0.1-0.1-0.1-0.3,0.1-0.4
			c0,0,0,0,0-0.1c0-0.4,0.1-0.8,0.1-1.2c0-0.4,0.1-0.7,0.1-1.1c0-0.4,0-0.8,0-1.1c0-0.3,0.1-0.6,0.4-0.9c0,0,0.1-0.1,0.1-0.1
			c0.1,0,0.1,0,0.2-0.1c0.2,0.1,0.3,0.1,0.5,0.2c0.1,0.2,0.3,0.5,0.4,0.8c0.1,0.1,0.1,0.3,0.1,0.4c0,0.1,0.1,0.3,0.1,0.4
			c0,0.2,0,0.5,0,0.7c0,0.2-0.1,0.4-0.1,0.6c-0.1,0.3-0.1,0.6-0.1,0.9c0,0.1,0.1,0.3,0.1,0.4c0,0.2-0.1,0.4-0.2,0.7c0,0.3,0,0.6,0,1
			c0,0.1,0.1,0.2,0.1,0.4c0,0.2,0,0.5-0.1,0.7c0,0.3,0,0.5,0,0.8c0,0.1,0,0.2-0.1,0.4c0,0.1,0,0.2,0,0.3c-0.1,0.1,0,0.2,0,0.4
			c-0.1,0.3-0.1,0.6-0.1,0.9c0,0.1,0,0.3-0.1,0.4c-0.1,0.1,0,0.3-0.1,0.4c-0.1,0.2,0,0.3-0.1,0.5c-0.1,0.2,0,0.3-0.1,0.5
			c-0.1,0.2,0,0.4-0.1,0.5c-0.1,0.2,0,0.3-0.1,0.5c-0.1,0.2,0,0.5-0.1,0.7c-0.1,0.3,0,0.6-0.1,0.9c0,0.3,0,0.6,0,1
			c0,0.3-0.1,0.6-0.1,0.9c0,0.4,0.1,0.7,0.3,1C32.7,29.3,32.8,29.4,32.9,29.6z"/>
		<path d="M48.6,22.5c0.1,0.2,0.1,0.4,0,0.6c-0.1,0.2,0,0.4-0.1,0.5c-0.1,0.1-0.1,0.3-0.1,0.5c0,0.2,0,0.5,0,0.7c0,0,0,0,0,0
			c-0.1,0.2-0.1,0.4-0.2,0.7c0,0.3-0.2,0.6-0.1,0.9c-0.1,0.2,0,0.4-0.1,0.6c-0.1,0.2,0,0.4,0,0.6c0,0.2,0,0.4,0,0.6
			c0.1,0.4,0.1,0.9,0.4,1.1c0.4,0.1,0.7,0.1,1.1,0.1c0.2,0,0.4,0.1,0.6,0.3c0.1,0.3-0.1,0.6-0.3,0.8c-0.1,0.1-0.2,0.3-0.3,0.4
			c-0.1,0.1-0.3,0.1-0.4,0.1c-0.1,0-0.2,0-0.4,0.1c-0.1,0-0.2,0.1-0.3,0.1c-0.4-0.2-0.7-0.4-1.2-0.3c-0.3-0.2-0.5-0.4-0.6-0.8
			c-0.1-0.3-0.2-0.6-0.3-0.8c0-0.1,0-0.2-0.1-0.4c-0.1-0.2-0.1-0.4-0.1-0.6c0-0.3-0.1-0.6-0.1-0.8c0-0.2,0-0.3,0.1-0.5
			c0-0.2,0-0.3,0-0.5c0-0.1,0.1-0.3,0.1-0.4c0-0.1,0.1-0.2,0.1-0.4c0-0.1,0-0.2,0.1-0.3c0.1-0.2,0-0.4,0-0.6c0,0,0,0,0-0.1
			c0.1-0.3,0.2-0.6,0.2-0.8c0.1-0.3,0.1-0.5,0.1-0.8c0-0.2,0-0.4,0.1-0.6c0.1-0.2,0-0.4,0.1-0.6c0-0.2,0-0.4,0.1-0.6
			c0.1-0.4,0.1-0.8,0.2-1.2c0,0,0-0.1,0-0.2c0-0.2,0-0.5,0-0.7c0-0.2,0.1-0.4,0.1-0.6c0-0.1,0-0.3,0-0.4c0-0.1,0-0.2,0-0.3
			c0,0,0-0.1,0-0.2c0-0.3,0-0.5,0-0.8c0-0.3,0-0.6,0.1-0.9c0-0.2,0.1-0.4,0-0.6c0-0.3,0.1-0.6,0.1-0.9c0-0.2,0-0.3-0.1-0.5
			c0-0.1,0-0.3-0.1-0.4c0,0,0-0.1,0-0.2c0-0.3,0-0.5,0-0.8c0-0.1,0-0.3,0.1-0.4c0.5-0.3,1.1-0.4,1.6,0c0,0-0.1,0.1-0.1,0.1
			C49,13,49,13.1,49,13.3c0.1,0.1,0.1,0.3,0.1,0.4c0.1,0.3,0,0.6,0.1,0.9c-0.1,0.3-0.1,0.6,0,0.9c0.1,0.4,0.1,0.7,0,1.1
			c0,0.4,0,0.7-0.1,1.1c0,0.3,0,0.5-0.1,0.8c-0.1,0.3,0,0.7-0.1,1c0,0.2,0,0.3-0.1,0.5c0,0.2,0,0.3-0.1,0.5c0,0.3-0.1,0.6-0.1,0.8
			c-0.1,0.4-0.1,0.7-0.1,1.1C48.6,22.4,48.6,22.5,48.6,22.5z"/>
	</g>
</g>
</svg>
