<?xml version="1.0" encoding="utf-8"?>
<!-- Generator: Adobe Illustrator 25.2.1, SVG Export Plug-In . SVG Version: 6.00 Build 0)  -->
<svg version="1.1" id="Layer_1" xmlns="http://www.w3.org/2000/svg" xmlns:xlink="http://www.w3.org/1999/xlink" x="0px" y="0px"
	 viewBox="0 0 600 300" style="enable-background:new 0 0 600 300;" xml:space="preserve">
<style type="text/css">
	.st0{fill:none;stroke:#000000;stroke-width:7;stroke-linecap:round;stroke-miterlimit:10;}
	.st1{fill:none;stroke:#000000;stroke-width:7;stroke-miterlimit:10;}
</style>
<path class="st0" d="M297.77,232.59c-0.46,7.62-0.73,15.52-0.76,23.69c-0.03,7.54,0.16,14.85,0.51,21.92"/>
<path class="st1" d="M90.01,114.58c2.14-54.55,106.68-85.05,195.19-90.08c100.96-5.73,227.96,41.17,223.59,99.25
	c-4.23,56.22-102.93,104-212.79,105C192.23,229.69,87.84,170.05,90.01,114.58z"/>
<g>
	<g>
		<path d="M236.42,136.54c-1.12,2.04-0.76,3.97,0.13,6.23c0.13,0.12,0.59,0.56,1.1,1.04c0.22,1.76-0.97,3.04-1.41,4.55
			c-0.37,0.03-0.6,0.08-0.83,0.06c-3.24-0.3-3.6-0.78-3.95-3.94c-0.29-2.67,0.64-5.25,0.49-7.9c0.85-1.6,0.38-3.58,1.43-5.12
			c-0.25-1.33,0.34-2.57,0.48-3.85c0.16-1.52,0.19-3.08,0.54-4.55c0.14-0.56,0.47-1.11,0.39-1.72c-0.06-0.51-0.26-0.99-0.42-1.59
			c0.34-1,0.95-2.04,0.92-3.29c-0.04-2.06,0.12-4.14-0.05-6.19c-0.14-1.67-0.65-3.31-0.3-5.31c-0.73,0.2-1.22,0.27-1.66,0.46
			c-2.36,0.99-4.47,2.38-6.44,4.02c-0.58,0.48-1.24,0.86-1.97,1.35c-0.33,0-0.8,0-1.1,0c-0.8-0.41-1.45-0.74-2.23-1.13
			c0-0.72,0-1.57,0-2.6c1.46-0.84,3.06-1.78,4.67-2.69c1.26-0.71,2.75-1.16,3.76-2.13c1.07-1.03,2.83-0.48,3.59-1.89
			c1.61,0.13,2.58-1.39,4.15-1.55c0.87-0.09,1.63-1.1,2.52-1.3c0.97-0.22,1.46-1.26,2.7-1.11c0.79,0.1,1.7-0.76,2.72-1.28
			c1.3-0.08,2.73-0.41,4.17-0.93c1.02-0.37,2.14-0.78,3.35-0.58c0.85,0.14,1.75-0.04,2.61,0.05c0.83,0.08,1.63-0.22,2.51,0.27
			c0.68,0.37,1.67,0.19,2.37,0.24c0.76,0.39,1.42,0.72,2.08,1.06c0.44,0.73,0.75,1.68,1.41,2.19c0.79,0.61,0.32,1.7,1.13,2.18
			c-0.91,0.75-0.28,1.78-0.47,2.66c1.18,1.5-0.02,2.87-0.29,4.26c-0.34,1.76-1.12,3.35-2.3,4.77c-0.7,0.84-1.14,1.9-1.7,2.86
			c-0.7,1.19-1.6,2.22-2.51,3.26c-1.3,1.49-2.73,2.89-3.75,4.63c-0.23,0.4-0.66,0.68-1,1.02c-1.85,1.85-3.78,3.64-5.54,5.58
			c-1.63,1.79-3.58,3.16-5.56,4.47c-0.65,0.43-1.22,0.91-1.78,1.41C239.28,135.52,237.94,136.13,236.42,136.54z M237.24,131.19
			c1.12,0.22,1.81-0.32,2.58-0.85c1.57-1.09,2.96-2.41,4.41-3.62c1.64-1.38,3.28-2.84,4.49-4.74c0.9-1.41,2.15-2.72,3.39-3.78
			c1.24-1.06,1.97-2.45,3.16-3.5c0.82-0.72,1.34-1.79,1.93-2.75c0.59-0.96,0.85-2.1,1.84-2.82c0.16-0.12,0.07-0.59,0.1-0.94
			c0.48-0.44,1-0.92,1.28-1.18c0.38-1.72,0.69-3.1,0.97-4.38c-0.53-1.54-0.45-3.4-2.25-4.09c-1.13-0.34-2.26-0.69-3.47-1.06
			c-1.03,0.61-2.16,0.66-3.1,0.02c-1.72,0.48-3.46,0.62-4.8,1.42c-1.51,0.91-3.26,0.92-4.74,1.8c-1.38,0.82-2.9,1.42-4.29,2.08
			c-0.18,0.38-0.34,0.72-0.52,1.09c0.09,0.1,0.37,0.26,0.38,0.43c0.04,1.03,0,2.06,0.03,3.09c0.02,0.98,1.03,1.95,0.01,2.95
			c-0.11,0.11-0.07,0.56,0.05,0.66c0.7,0.57,0.36,1.32,0.4,1.98c0.19,2.81-0.83,5.55-0.47,8.37c-0.62,1.23-0.12,2.69-0.58,3.81
			c-0.43,1.04-0.11,2.01-0.41,2.93C237.32,129.09,237.08,130.02,237.24,131.19z"/>
		<path d="M314.76,133.35c-0.21,0.52-0.34,0.82-0.5,1.2c-0.65,0-1.35,0-1.96,0c-0.36,0.36-0.65,0.65-0.93,0.93l-2.75,0.28
			c-1.2-0.19-2.37-0.52-3.56,0.24c-0.39,0.25-1.09,0.08-1.64,0.03c-2.4-0.21-4.63,0.79-6.97,1.03c-0.43,0.04-0.83,0.33-1.26,0.39
			c-1.28,0.19-2.62,0.17-3.83,0.56c-0.58,0.19-1.12,0.37-1.73,0.41c-1.14,0.08-2.24-0.03-3.41,0.38c-0.88,0.31-2.1,0.4-3.14-0.33
			c-0.42-0.3-1.23-0.05-1.81-0.12c-1.96-0.59-3.19-1.95-4.08-3.68c0.2-1.03,0.41-2.07,0.66-3.37c0.59-0.83,1.83-1.44,2.38-2.76
			c0.22-0.53,1.07-0.79,1.6-1.21c2.31-1.81,4.69-3.54,6.7-5.71c0.34-0.37,0.93-0.51,1.29-0.87c0.36-0.36,0.58-0.86,0.86-1.3
			c0.52-0.84,1.05-1.68,0.75-2.77c-0.36-0.18-0.75-0.39-1.3-0.67c-1.8,0-3.79-0.04-5.77,0.02c-0.81,0.03-1.61,0.36-2.43,0.44
			c-0.86,0.08-1.74,0.02-2.46,0.02c-0.64,0.36-1.15,0.65-1.78,1.01c-0.19-0.11-0.45-0.26-0.95-0.55c-1.27,0.54-2.73,1.17-4.03,1.73
			c-0.41,1.54-0.77,2.83-1.1,4.12c-0.09,0.37-0.14,0.75-0.14,1.13c-0.01,2.62-0.07,5.24,0.02,7.86c0.06,1.8,0.71,3.5,1.23,5.2
			c0.25,0.83,1,1.5,1.65,2.43c-0.18,0.88-0.4,1.99-0.65,3.2c-1.25,0.35-2.24-0.23-3.2-1.07c-1.37-1.21-1.91-2.84-2.39-4.49
			c-0.54-1.89-0.41-3.89-0.92-5.81c-0.15-0.58-0.36-1.39,0.27-2.01c0.17-0.17,0.13-0.58,0.15-0.88c0.07-0.95-0.88-1.69-0.31-2.84
			c0.42-0.83,0.2-1.97,0.33-2.96c0.05-0.43,0.25-0.84,0.43-1.39c-0.19-0.37-0.46-0.88-0.78-1.49c-1.22,0.7-2.37,1.36-3.55,2.04
			c-0.71-0.48-1.45-0.99-2.24-1.53c0-0.46,0-0.92,0-1.6c1.26-1.63,3.34-2.02,5.4-2.72c0.9-0.72,1.91-1.53,2.64-2.12
			c1.16,0.14,2.01,0.46,2.77,0.3c1.97-0.41,3.97-0.67,5.91-1.23c0.58-0.17,1.23-0.07,1.84-0.17c0.58-0.1,1.14-0.42,1.71-0.44
			c1.85-0.08,3.68-0.12,5.53-0.43c2.42-0.4,4.83,0.41,7.34,0.96c0.55,0.58,1.21,1.27,2.03,2.13c0.36,0.86-0.05,1.89-0.46,2.84
			c-0.89,2.05-1.61,4.19-3.38,5.75c-1.99,1.76-3.89,3.62-5.89,5.37c-1.08,0.94-2.27,1.75-3.56,2.74c-0.15,0.42-0.38,1.04-0.65,1.76
			c0.5,0.37,0.94,0.7,1.66,1.24c4.54,0.31,9.37-0.61,14.57-1.27c0.05,0.02,0.56,0.42,0.85,0.3c1.81-0.75,3.69-0.31,5.54-0.44
			c0.07,0,0.15-0.03,0.32-0.06c-0.13-0.31-0.32-0.59-0.37-0.9c-0.06-0.39,0.02-0.8-0.02-1.19c-0.09-0.82,0.33-1.71-0.44-2.46
			c-0.15-0.15,0.09-0.71,0.17-1.08c0.08-0.36,0.25-0.71,0.27-1.08c0.06-0.99,0.02-1.94,0.43-2.92c0.33-0.79-0.14-1.82,0.51-2.66
			c0.15-0.2,0.14-0.69,0-0.92c-0.79-1.31-0.3-2.74-0.5-4.13c0.42-0.38,0.83-0.75,1.32-1.19c0.35,0,0.82,0,1.47,0
			c0.46,0.63,1,1.36,1.55,2.1c0,1.34,0.06,2.69-0.02,4.03c-0.06,1.05-0.29,2.09-0.46,3.14c-0.16,0.97,0.45,2.06-0.47,2.9
			c0.19,1.05-0.34,2.16,0.33,3.21c0.26,0.4,0.15,1.04,0.2,1.58C311.45,132.17,313.31,132.54,314.76,133.35z"/>
		<path d="M182.72,148.38c-1.7-0.22-3.06-0.4-4.36-0.57c-1.42-0.34-2.07-1.44-2.65-2.6c0-0.08-0.03-0.19,0.01-0.23
			c0.82-0.86,0.34-1.93,0.47-2.91c-1.25-1.43,0.28-3.41-0.83-4.75c0.93-1.83-0.29-3.95,0.86-5.65c-0.18-0.27-0.34-0.52-0.42-0.65
			c0.15-0.76,0.35-1.41,0.38-2.07c0.06-1.43-0.02-2.86,0.03-4.29c0.03-0.74-0.14-1.46,0.37-2.24c0.31-0.47-0.11-1.42-0.25-2.45
			c0.01-0.02,0.39-0.44,0.3-0.66c-0.43-1.09,0.13-2.13,0.05-3.2c-0.08-1.11,0.2-2.28-0.06-3.32c-0.49-1.92-0.39-3.84-0.46-5.77
			c-0.01-0.33-0.36-0.64-0.51-0.9c-0.55,0.16-1.03,0.3-1.75,0.52c-1.11,1.55-3.15,1.97-5.06,2.75c-0.53-0.6-1.06-1.19-1.71-1.91
			c-0.24-1.34,0.6-2.4,1.5-3.23c0.76-0.19,1.42-0.2,1.9-0.5c1.15-0.71,2.18-1.6,3.65-1.58c0.2,0,0.46-0.11,0.6-0.26
			c1.11-1.23,2.56-1.28,3.44-1.18c1.72-0.59,3.05-0.78,4.04-1.46c1.19-0.82,2.67,0.17,3.7-0.89c1.27,0.3,2.37-0.56,3.61-0.5
			c1.31,0.06,2.63,0.03,3.93-0.19c0.93,0.15,1.74,0.95,2.87,0.69c0.15-0.04,3.26,1.35,3.45,1.44c0.46,0.23,0.93,0.43,1.41,0.59
			c1,0.51,1.36,1.99,2.85,1.77c1.3,2.17,3.3,3.9,4.05,6.42c0,1.67-0.05,3.34,0.01,5c0.07,1.72-0.44,3.23-1.16,4.77
			c-1.84,3.9-4.13,7.54-6.51,11.11c-1.27,1.9-2.92,3.54-4.27,5.39c-1.35,1.84-3,3.38-4.57,5.02c-1.5,1.56-3.13,2.94-5,4.04
			c-0.45,0.26-0.98,0.48-1.3,0.86c-0.57,0.68-1,1.49-1.52,2.22C183.45,147.53,183.03,147.99,182.72,148.38z M180.8,142.74
			c4.14-2.27,5.28-2.79,8.1-5.83c1.35-1.45,2.83-2.78,4.19-4.23c1.51-1.6,2.74-3.41,3.89-5.29c0.35-0.58,0.76-1.12,1.17-1.66
			c2.06-2.66,3.88-5.46,5.16-8.57c0.36-0.88,0.33-1.92,0.57-2.86c0.2-0.78,0.72-1.5,0.78-2.28c0.07-0.86-0.18-1.76-0.38-2.63
			c-0.14-0.64-0.42-1.25-0.64-1.91c-0.71-0.71-1.45-1.42-2.15-2.18c-0.13-0.14-0.09-0.42-0.09-0.42c-1.56-0.92-2.9-1.87-4.36-2.54
			c-2.84-1.31-5.83-1.1-8.81-0.53c-0.68,0.9-1.72,0.2-2.61,0.6c-1.6,0.72-3.4,0.97-5.2,1.43c-0.26,0.47-0.55,0.97-0.79,1.4
			c0.14,0.31,0.35,0.57,0.36,0.84c0.14,2.71-0.11,5.42,0.42,8.15c0.38,1.99,0.14,4.11,0.06,6.17c-0.09,2.08,0.27,4.16-0.39,6.25
			c-0.37,1.15,0,2.52-0.08,3.79c-0.08,1.29-0.45,2.57-0.43,3.85c0.04,2.16,0.29,4.31,0.44,6.47c0.03,0.45,0,0.91,0,1.25
			C180.37,142.36,180.6,142.56,180.8,142.74z"/>
		<path d="M163.78,126c0-0.34,0-0.97,0-1.73c-0.49-0.33-1.06-0.7-1.6-1.05c-0.8-0.27-1.74,0.32-2.45-0.5
			c-0.14-0.16-0.68-0.16-0.91-0.02c-2.43,1.45-5.42,1.41-7.84,2.96c-0.89,0.57-2.07,0.71-3.32,1.11c-0.05-0.02-0.36-0.17-0.73-0.35
			c-0.18,0.36-0.34,0.68-0.5,1.01c-0.31,0-0.62,0-1.02,0c-0.48-0.52-1.01-1.11-1.62-1.77c0-0.33,0-0.8,0-0.99
			c1.82-2.27,3.55-4.33,5.17-6.48c1.18-1.57,1.95-3.33,2-5.37c0.02-0.88,0.35-1.76,0.52-2.5c-0.57-0.83-1.04-1.51-1.54-2.23
			c-1.47-0.73-2.64,0.34-3.66,1c-1.61,1.04-2.97,2.49-4.4,3.73c0,0.4,0,0.71,0,1.03c-0.66,0.12-0.99,0.56-1.14,1.16
			c-0.45,1.85-1.77,2.95-3.4,3.77c-1.21-0.65-2.73-1.05-3.07-2.72c0.15-0.52,0.4-1.01,0.42-1.51c0.03-0.82,0.48-1.4,0.89-2.02
			c0.42-0.63,0.9-1.21,1.34-1.83c0.3-0.43,0.46-1.09,0.86-1.28c1.75-0.85,2.77-2.58,4.52-3.46c1.66-0.83,3.2-1.92,4.7-3.01
			c0.62-0.45,1.46-0.47,1.74-0.22c0.8,0.71,1.68,0.18,2.6,0.52c2.12,1.04,3.32,3.15,4.11,5.27c0.71,1.9,0.41,4.08-0.47,6.05
			c-0.75,1.67-1.45,3.35-2.2,5.1c0.28,0.06,0.5,0.17,0.7,0.14c0.97-0.13,1.94-0.3,2.9-0.47c0.96-0.17,2.01,0.4,2.93-0.44
			c0.26-0.23,1.11-0.22,1.35,0.02c0.76,0.76,1.67,0.19,2.42,0.51c1.84,0.91,3.75,1.73,4.92,3.53c0.41,1.86-0.34,3.56-0.91,5.28
			c-0.14,0.41-0.46,0.77-0.73,1.12c-0.37,0.49-0.74,0.99-1.17,1.42c-1.88,1.89-3.04,4.44-5.51,5.82c-0.62,0.35-0.9,1.32-1.27,1.9
			c-1.17,0.93-2.35,1.76-3.39,2.73c-0.79,0.73-1.62,1.38-2.53,1.96c-0.76,0.48-1.37,1.2-2.13,1.68c-0.81,0.52-1.79,0.74-2.47,1.52
			c-0.28,0.32-0.75,0.46-1.13,0.69c-3.03,1.86-6.16,3.55-9.24,5.32c-1.11,0.64-2.57,1.63-4.02,0.31c-0.26-0.52-0.52-1.05-0.78-1.57
			c1.06-0.87,2.07-1.69,3.27-2.67c0.43,0,1.13,0,1.49,0c2.39-1.4,4.45-2.77,6.65-3.81c0.86-0.41,1.13-1.57,2.24-1.49
			c2.27-1.67,4.71-3.13,6.65-5.22c1.65-0.58,2.35-2.4,3.97-3.07c0.54-0.22,1.1-0.79,1.32-1.33c0.37-0.92,1.05-1.54,1.74-2.13
			C161.73,130.02,162.84,128.23,163.78,126z"/>
		<path d="M442.66,133.14c1.65-0.03,1.24,1.44,1.74,2.17c0.47,0.68,0.49,1.69,0.71,2.59c0.56,0.36,1.13,0.72,1.73,1.1
			c0,0.88,0,1.73,0,2.76c-0.76,0.31-1.57,0.63-2.59,1.04c-1.56-1.75-3.15-3.55-4.85-5.45c-2.58,0.86-5.32,0.51-8.04,0.61
			c-0.65,0.02-1.29,0.33-1.95,0.45c-1.9,0.37-3.51-0.73-5.27-1.07c-0.58-0.11-1.15-0.32-1.64-0.46c-1.4-1.29-2.78-2.57-4.23-3.91
			c-0.24-1.75-0.48-3.53-0.74-5.48c0.16-0.28,0.73-0.79,0.72-1.3c-0.03-1.95,1.24-3.33,2-4.91c0.46-0.95,1.37-1.67,2.24-2.68
			c0-0.14,0-0.51,0-0.76c0.97-1.2,1.93-2.22,2.84-3.24c1.34-1.51,3.04-2.84,4.84-3.76c1.82-0.93,3.91-1.69,6.06-0.47
			c0.21,0.41,0.44,0.87,0.71,1.39c-0.78,0.56-0.19,1.89-1.22,2.28c-0.41,0.15-0.98-0.11-1.67-0.22c-0.97,0.39-2.16,0.96-3.32,1.64
			c-0.95,0.56-1.71,1.23-2.47,1.98c-0.84,0.82-1.78,1.54-2.56,2.41c-0.87,0.97-1.62,2.05-2.58,3.28c-0.17,0.89-0.39,2.07-0.64,3.24
			c-0.09,0.43-0.34,0.85-0.34,1.28c-0.01,1.01-0.1,2.07,0.17,3.03c0.23,0.82,0.9,1.52,1.44,2.37c0.51,0.27,1.15,0.64,1.82,0.95
			c1.29,0.61,2.67,0.9,4.08,1.08c2.58,0.33,5.1-0.46,7.66-0.51c0.63-0.01,1.25-0.4,2.1-0.69c-0.31-0.8-0.61-1.6-1.08-2.81
			c0-1.6,0-3.67,0-5.78c-0.22-0.18-0.46-0.39-0.83-0.7c-2.26,0.86-4.65,1.77-7.4,2.81c-0.27,0-0.96,0-1.7,0
			c-0.36-0.59-0.7-1.17-1.08-1.81c0.16-0.29,0.39-0.59,0.5-0.93c0.09-0.27,0.02-0.6,0.02-1.01c0.42,0,0.89,0.13,1-0.02
			c0.84-1.07,2.18-1.06,3.27-1.32c1.1-0.26,1.91-1.14,3.16-1.11c1.14,0.03,2.22-0.7,3.41-0.94c2.39-0.48,4.8-1.04,7.03-1.97
			c1.09-0.45,2.35,0.12,3.23-0.83c0.15-0.16,0.37-0.27,0.66-0.48c1.23-0.05,2.69,0.28,3.78-0.99c2.53,0.51,5.1-1.54,7.74,0.45
			c0.07,0.35,0.21,1.07,0.38,1.92c-0.71,0.38-1.62,0.86-2.52,1.34c-1.1-0.61-2.3-0.45-3.49-0.1c-1.15,0.34-2.25,0.91-3.52,0.72
			c-0.15-0.02-0.37-0.07-0.47,0.01c-1.59,1.22-3.65,1.14-5.4,1.94c-1.26,0.58-2.63,0.92-3.95,1.39c-0.28,0.1-0.52,0.28-0.94,0.51
			c0.14,1.47,0.45,2.97,0.39,4.45C441.55,130.19,442.6,131.44,442.66,133.14z"/>
		<path d="M318.23,114.66c0.77-0.82,1.31-1.38,1.89-2c0.65,0.15,1.43,0.2,2.09,0.52c1,0.49,0.88,1.67,1.21,2.54
			c0.21,0.56-0.02,1.26,0.06,1.89c0.07,0.58,0.37,1.13,0.44,1.71c0.2,1.64,0.5,3.23,1.43,4.65c0.73,1.12,0.61,2.52,1.36,3.73
			c1.18,1.92,2.09,3.98,3.75,5.59c0.93,0.9,1.71,1.97,2.53,2.99c0.87,1.09,1.87,1.74,3.56,2.17c0.38-0.54,0.95-1.08,1.17-1.75
			c0.31-0.92,0.51-1.93,0.47-2.88c-0.04-0.91,0.64-1.77,0.09-2.73c-0.15-0.25,0.23-0.81,0.42-1.42c-0.08-0.09-0.4-0.31-0.43-0.55
			c-0.2-1.91-0.37-3.83-0.51-5.75c-0.07-1.06,0.02-2.1-0.43-3.16c-0.41-0.94-0.04-2.04-0.43-3.15c-0.56-1.61-0.45-3.45-0.64-5.34
			c0.81,0.08,1.41-0.17,2.12,0.28c0.52,0.33,1.35,0.17,1.92,0.22c0.81,0.58,1.55,1.1,2.28,1.63c-0.46,0.94-0.58,1.9-1.45,2.58
			c-0.56,0.44-0.89,1.51-0.46,2.1c0.57,0.76,0.37,1.48,0.41,2.23c0.05,1.19,0.01,2.38,0.02,3.57c1.08,0.73-0.01,2.1,0.9,2.99
			c0.32,0.31,0.05,1.22,0.05,1.85c0,1.75-0.04,3.49,0.01,5.24c0.11,3.87-1.43,6.71-5.05,8.31c-0.26,0.11-0.47,0.35-0.69,0.53
			c-2.89-0.87-5.28-2.31-7.38-4.35c-2.6-2.52-4.47-5.51-6.21-8.63c-0.37-0.66-0.82-1.27-1.31-2.02c-0.73,1.39-1.33,2.61-1.31,4.07
			c0.01,0.34-0.36,0.67-0.39,1.02c-0.09,1.13-0.83,2.16-0.55,3.35c0.07,0.3,0.15,0.76-0.01,0.93c-0.88,0.94-0.37,1.81,0,2.73
			c0.13,0.34,0.02,0.78,0.02,1.05c0.69,0.51,1.3,0.95,1.88,1.38c0,0.56,0,1.02,0,1.58c-0.65,0.87-1.85,0.72-2.72,1.2
			c-0.97,0.54-1.82,0.63-3-0.52c-0.38-1.11-0.86-2.72-0.96-4.48c-0.13-2.28,0.14-4.52,0.59-6.69c0.37-1.75,0.71-3.58,1.44-5.2
			c0.41-0.92,0.39-1.87,0.77-2.78c0.53-1.29,0.21-2.91,0.62-4.27C318.49,119.26,318.04,116.85,318.23,114.66z"/>
		<path d="M408.69,111.6c1.62,0.28,2.89,0.5,4.15,0.72c0.71,0.51,1.45,1.03,2.18,1.56c-0.46,0.94-0.58,1.9-1.45,2.58
			c-0.56,0.44-0.89,1.51-0.46,2.1c0.57,0.76,0.37,1.48,0.41,2.23c0.05,1.19,0.02,2.38,0.02,3.57c1.08,0.74-0.01,2.1,0.9,2.99
			c0.32,0.31,0.05,1.22,0.05,1.85c0,1.75-0.04,3.5,0.01,5.24c0.11,3.88-1.44,6.71-5.06,8.31c-0.26,0.12-0.47,0.34-0.7,0.52
			c-4.86-1.47-8.27-4.59-10.92-8.64c-1.05-1.61-2.29-3.11-2.91-4.99c-0.15-0.47-0.72-0.81-1.17-1.28c-0.59,1.31-1.24,2.54-1.19,4
			c0.01,0.28-0.18,0.55-0.26,0.84c-0.33,1.16-0.89,2.27-0.68,3.53c0.04,0.23,0.1,0.54-0.01,0.7c-0.72,1-0.5,1.95-0.01,2.96
			c0.15,0.32,0.02,0.77,0.02,1c0.72,0.54,1.32,0.99,1.88,1.4c-0.03,1.77-0.03,1.77-1.55,2.28c-0.42,0.14-0.81,0.34-1.23,0.47
			c-1.46,0.45-1.46,0.44-2.77-0.04c-0.63-1.56-1.05-3.19-1.12-4.96c-0.18-4.25,0.98-8.22,2.21-12.2c0.26-0.85,0.48-1.71,0.66-2.58
			c0.2-0.96,0.38-1.93,0.47-2.9c0.08-0.91,0.22-1.78,0.41-2.68c0.3-1.36,0.08-2.84,0.08-4.27c0-0.48,0-0.95,0-1.36
			c0.65-0.61,1.27-1.2,2-1.89c0.51,0.12,1.27,0.22,1.95,0.49c1.09,0.45,1.01,1.65,1.22,2.51c0.28,1.16,0.19,2.39,0.48,3.61
			c0.39,1.67,0.75,3.31,1.47,4.88c0.58,1.26,0.78,2.73,1.5,3.9c1.09,1.79,1.98,3.73,3.59,5.21c0.99,0.92,1.64,2.2,2.58,3.19
			c0.95,1.01,2.07,1.86,3.47,2c1.38-1.13,1.41-2.77,1.66-4.17c0.18-0.97,0.63-2.08,0.13-3.18c-0.13-0.3,0.22-0.82,0.42-1.44
			c-0.06-0.08-0.38-0.29-0.41-0.54c-0.21-1.91-0.38-3.83-0.52-5.75c-0.08-1.06,0.04-2.1-0.43-3.16c-0.41-0.94-0.04-2.04-0.43-3.15
			C408.78,115.48,408.89,113.64,408.69,111.6z"/>
		<path d="M358.06,139.73c-1.14-1.78-2.1-3.29-3.06-4.8c-0.17-3.73-0.82-7.44-0.59-11.2c0.03-0.48-0.35-0.97-0.43-1.47
			c-0.08-0.45-0.02-0.92-0.02-1.53c-1.06,0.1-2.05,0.45-2.86,0.21c-1.01-0.3-1.67,0.84-2.59,0.32c-0.83,0.96-1.94,0.25-2.87,0.52
			c-1.03-1.09-1.71-2.2-0.56-3.71c1.11-0.48,2.48-0.48,3.81-0.71c1.07-0.18,2.25-0.13,3.25-0.72c0.18-0.11,0.43-0.13,0.65-0.14
			c2.87-0.17,5.74-0.27,8.61-0.5c1.56-0.13,3.11-0.45,4.64-0.82c1.04-0.25,2.19-0.05,3.24-0.05c0.46-0.4,0.86-0.74,1.29-1.11
			c0.25,0.16,0.44,0.28,0.66,0.41c0.85-0.51,1.83-0.26,3.06-0.33c0.13-0.23,0.37-0.64,0.53-0.91c1.2,0,2.15,0,3.08,0
			c0.42-0.37,0.82-0.71,1.32-1.14c1.56,1.26,2.3,3,3.31,4.89c0,1.2,0.06,2.7-0.02,4.19c-0.05,0.97-0.33,1.93-0.45,2.9
			c-0.11,0.98-0.1,1.93-0.39,2.93c-0.26,0.9-0.55,2.14,0.34,3.14c0.24,0.27,0.04,0.92,0.04,1.49c0.42,0.08,0.85,0.16,1.18,0.23
			c0.42,1.01,0.81,1.96,1.23,2.96c-0.18,0.2-0.39,0.43-0.59,0.65c-0.76,0.11-1.53,0.15-2.25,0.35c-0.69,0.19-1.15-0.51-1.7-0.32
			c-0.73-1.01-1.42-1.99-2.11-2.95c-0.25-1.36,0.26-2.76-0.45-4.12c-0.26-0.51,0.28-1.41,0.4-2.15c0.11-0.68,0.09-1.38,0.2-2.06
			c0.22-1.33,0.6-2.64,0.71-3.97c0.05-0.58-0.38-1.21-0.6-1.87c-0.21,0.21-0.32,0.32-0.6,0.6c-0.2-0.39-0.41-0.79-0.58-1.11
			c-0.5,0.29-0.74,0.54-0.99,0.56c-2.31,0.19-4.63,0.36-6.94,0.48c-1.21,0.06-1.21,0.02-2.75,0.85c-2.61-1.21-4.92,0.64-7.27,0.65
			c0.09,0.78,0.14,1.5,0.26,2.21c0.12,0.73,0.41,1.45,0.44,2.19c0.03,0.7-0.49,1.57-0.23,2.09c0.41,0.8,0.18,1.53,0.24,2.28
			c0.07,0.79,0.02,1.58,0.02,2.21c0.27,0.53,0.48,0.93,0.72,1.4c0.96,0,1.97,0,3.04,0c0,1.02,0,1.96,0,2.97
			c-0.33,0.46-0.72,1.01-1.16,1.63C361.05,138.04,359.71,138.8,358.06,139.73z"/>
	</g>
</g>
</svg>
