<?xml version="1.0" encoding="utf-8"?>
<!-- Generator: Adobe Illustrator 25.2.1, SVG Export Plug-In . SVG Version: 6.00 Build 0)  -->
<svg version="1.1" id="Layer_1" xmlns="http://www.w3.org/2000/svg" xmlns:xlink="http://www.w3.org/1999/xlink" x="0px" y="0px"
	 viewBox="0 0 600 300" style="enable-background:new 0 0 600 300;" xml:space="preserve">
<style type="text/css">
	.st0{fill:none;stroke:#000000;stroke-width:7;stroke-linecap:round;stroke-miterlimit:10;}
</style>
<path class="st0" d="M303.64,213.09c0.77,10.44,1.22,21.25,1.27,32.43c0.04,10.32-0.26,20.33-0.84,30.01"/>
<path class="st0" d="M293.04,209.41c43.43,5.13,95.19-20.59,102.62-62.45c8.23-46.36-40.96-95.27-92.58-96.07
	c-45.18-0.7-94.44,35.45-93.45,81.22C210.56,174.72,254.59,204.87,293.04,209.41z"/>
<g>
	<g>
		<path d="M289.53,145.39c0,0.02-0.03,0.17-0.07,0.37c-2.25-0.01-4.02,1.28-5.97,2.11c-1.1,0.47-2.25,0.82-3.37,1.24
			c-1.03,0.38-2.06,0.78-3.09,1.16c-0.23,0.08-0.5,0.09-0.74,0.15c-1.63,0.4-3.25,0.81-4.88,1.19c-0.58,0.14-1.19,0.29-1.78,0.26
			c-0.9-0.05-1.67,0.25-2.42,0.67c-0.13,0.07-0.31,0.13-0.46,0.11c-1.77-0.2-3.55-0.39-5.32-0.66c-0.59-0.09-1.14-0.42-1.7-0.63
			c-0.09-0.04-0.2-0.12-0.28-0.1c-0.67,0.14-1.19-0.19-1.76-0.46c-0.7-0.33-1.47-0.53-2.13-0.92c-0.41-0.24-0.71-0.71-0.96-1.14
			c-0.15-0.26-0.26-0.37-0.57-0.36c-0.2,0.01-0.48-0.08-0.61-0.22c-0.51-0.58-1-1.19-1.44-1.83c-0.38-0.55-0.71-1.14-1-1.75
			c-0.18-0.37-0.31-0.79-0.35-1.19c-0.1-0.86-0.17-1.7-0.49-2.55c-0.22-0.59-0.05-1.38,0.09-2.05c0.51-2.42,1.08-4.83,1.63-7.25
			c0.02-0.1,0.06-0.24,0.14-0.29c0.57-0.34,0.57-0.94,0.7-1.48c0.47-1.96,1.06-3.87,2.35-5.48c0.08-0.09,0.14-0.22,0.15-0.34
			c0.13-1.36,0.78-2.53,1.39-3.71c0.64-1.22,1.5-2.34,1.77-3.73c0.73-0.62,0.76-1.64,1.36-2.36c0.41-0.49,0.59-1.19,0.87-1.79
			c0.05-0.11,0.1-0.24,0.19-0.3c0.99-0.62,1.6-1.58,2.28-2.48c0.72-0.94,1.36-1.95,2.46-2.52c0.11-0.06,0.22-0.24,0.21-0.35
			c-0.03-0.43,0.25-0.61,0.54-0.79c1.25-0.78,2.55-1.51,3.75-2.36c0.71-0.51,1.38-0.91,2.28-0.76c0.13,0.02,0.29-0.03,0.41-0.1
			c0.74-0.45,1.5-0.41,2.25-0.04c0.86,0.43,1.72,0.88,2.55,1.37c0.21,0.12,0.37,0.41,0.45,0.66c0.24,0.72,0.43,1.47,0.64,2.2
			c0.02,0.08,0,0.18-0.02,0.27c-0.17,1.08-0.36,2.15-0.49,3.24c-0.21,1.67-1.06,2.97-2.19,4.14c-0.07,0.08-0.15,0.16-0.18,0.26
			c-0.24,0.86-0.76,1.52-1.37,2.14c-0.26,0.26-0.48,0.55-0.7,0.84c-0.74,0.97-2.01,1.16-2.99,0.43c-0.8-0.59-1.26-1.41-1.5-2.35
			c-0.06-0.23,0.02-0.58,0.17-0.76c0.64-0.77,1.32-1.5,2-2.22c0.73-0.77,1.53-1.48,1.68-2.62c0.02-0.14,0.06-0.3,0.03-0.43
			c-0.09-0.43,0.07-0.72,0.41-0.98c0.14-0.11,0.18-0.35,0.27-0.54c-0.19-0.05-0.38-0.16-0.57-0.15c-1.7,0.11-3,0.9-3.98,2.29
			c-0.17,0.25-0.43,0.43-0.67,0.63c-0.83,0.67-1.6,1.39-2.04,2.48c-0.57-0.19-0.82,0.27-1.12,0.68c-0.29,0.39-0.65,0.74-0.96,1.12
			c-0.1,0.12-0.25,0.27-0.26,0.41c-0.09,0.9-0.89,1.28-1.31,1.93c-0.24,0.37-0.26,0.88-0.37,1.34c-0.03,0.1,0,0.23-0.04,0.32
			c-0.34,0.72-0.69,1.43-1.05,2.14c-0.07,0.14-0.17,0.28-0.3,0.37c-0.54,0.35-0.74,0.88-0.8,1.48c-0.02,0.17-0.03,0.39-0.14,0.51
			c-1.27,1.42-1.99,3.13-2.64,4.87c-0.34,0.93-0.92,1.8-0.74,2.87c0.01,0.05-0.02,0.11-0.04,0.16c-0.46,1.02-0.95,2.04-1.38,3.07
			c-0.13,0.32-0.13,0.71-0.17,1.06c-0.1,0.94-0.18,1.87-0.27,2.81c-0.01,0.07-0.07,0.15-0.05,0.21c0.29,1.42,0.55,2.86,0.9,4.27
			c0.14,0.59,0.53,1.07,1.12,1.35c0.1,0.05,0.21,0.17,0.23,0.27c0.22,0.94,0.92,1.43,1.73,1.76c0.69,0.28,1.41,0.49,2.12,0.73
			c0.09,0.03,0.19,0.02,0.26,0.07c0.99,0.57,2.15,0.6,3.2,0.64c1.7,0.06,3.41-0.22,5.11-0.37c0.14-0.01,0.28-0.08,0.4-0.16
			c0.41-0.28,0.78-0.54,1.3-0.12c0.16,0.13,0.57,0.01,0.84-0.07c1.08-0.33,2.14-0.7,3.22-1.05c0.13-0.04,0.28-0.06,0.42-0.07
			c0.22-0.02,0.45,0.03,0.65-0.02c0.95-0.28,1.93-0.39,2.87-0.76c2.13-0.85,4.32-1.55,6.47-2.33c0.26-0.09,0.48-0.3,0.74-0.41
			c0.56-0.24,1.12-0.51,1.71-0.65c0.62-0.16,1.21-0.28,1.74-0.71c0.31-0.25,0.81-0.27,1.22-0.4c0.51-0.17,1.01-0.36,1.52-0.54
			c0.09-0.03,0.22-0.09,0.28-0.06c0.62,0.33,1.25,0.66,1.84,1.04c0.33,0.21,0.35,0.51,0.09,0.89c-0.22,0.33-0.34,0.72-0.73,0.9
			c-0.25,0.11-0.52,0.18-0.78,0.26c-0.04,0.01-0.11-0.05-0.15-0.03c-0.51,0.3-1.02,0.6-1.53,0.9
			C290.94,144.57,290.28,144.95,289.53,145.39z"/>
		<path d="M306.43,142.72c-1.11-0.33-1.32-0.26-2,0.65c-0.02,0.03-0.04,0.06-0.06,0.09c-0.98,1.31-0.97,1.39-2.61,0.46
			c-0.2-0.11-0.37-0.39-0.43-0.62c-0.28-1.03-0.38-2.08-0.13-3.14c0.03-0.13,0.03-0.3-0.02-0.43c-0.51-1.44-0.38-2.9-0.25-4.38
			c0.09-1.01,0.01-2.03-0.03-3.05c-0.01-0.13-0.22-0.38-0.33-0.37c-1.36,0.06-2.73,0.16-4.09,0.25c-0.05,0-0.11,0.01-0.16,0.03
			c-0.73,0.23-1.43,0.49-2.25,0.22c-0.44-0.14-1,0.07-1.51,0.1c-0.67,0.05-1.2-0.06-1.58-0.76c-0.4-0.73-1-1.34-1.49-2.02
			c-0.28-0.4-0.52-0.83-0.85-1.36c1.05-0.1,1.98-0.23,2.92-0.27c2.66-0.12,5.32-0.21,7.98-0.32c0.91-0.04,1.43-0.65,1.35-1.53
			c-0.21-2.36-0.42-4.72-0.64-7.08c-0.03-0.34-0.09-0.71-0.24-1.01c-0.46-0.9,0.14-1.62,0.37-2.39c0.09-0.29,1.28-0.6,1.66-0.43
			c0.92,0.4,1.81,0.84,2.7,1.3c0.15,0.08,0.25,0.33,0.3,0.52c0.2,0.85,0.26,1.74,0.56,2.55c0.42,1.14,0.22,2.26,0.19,3.4
			c-0.03,1.09-0.04,2.18,0.06,3.27c0.07,0.79,0.55,0.99,1.34,0.93c1.34-0.11,2.69-0.1,4.04-0.19c0.85-0.06,1.69-0.28,2.54-0.31
			c0.9-0.04,1.82-0.02,2.71,0.11c1.47,0.22,2.93,0.39,4.39-0.03c0.09-0.02,0.2-0.06,0.27-0.02c0.85,0.4,1.8,0.63,2.45,1.37
			c0.22,0.25,0.31,0.5,0.04,0.76c-0.58,0.55-1.14,1.13-1.78,1.59c-0.2,0.15-0.63-0.01-0.96-0.04c-0.63-0.05-1.27-0.19-1.9-0.14
			c-0.46,0.04-0.89,0.34-1.34,0.51c-0.15,0.06-0.32,0.14-0.48,0.13c-2.07-0.12-4.15-0.25-6.22-0.37c-0.09-0.01-0.2-0.03-0.27,0.02
			c-1.1,0.68-2.38,0.62-3.59,0.85c-0.48,0.09-0.73,0.26-0.77,0.78c-0.1,1.16-0.3,2.31-0.36,3.47c-0.04,0.84,0.06,1.69,0.77,2.31
			c0.06,0.05,0.1,0.16,0.1,0.24c-0.04,1.2-0.08,2.4-0.15,3.6C306.65,142.22,306.51,142.46,306.43,142.72z"/>
		<path d="M344.54,142.71c-1.18-0.3-1.31-0.25-2.04,0.73c-0.99,1.33-0.98,1.42-2.65,0.46c-0.19-0.11-0.35-0.36-0.41-0.58
			c-0.28-1.05-0.39-2.11-0.13-3.19c0.03-0.12,0.03-0.26-0.01-0.37c-0.54-1.47-0.39-2.97-0.25-4.49c0.09-0.97,0-1.96-0.02-2.94
			c-0.01-0.35-0.19-0.43-0.54-0.4c-1.27,0.11-2.54,0.17-3.82,0.25c-0.05,0-0.11,0.01-0.16,0.02c-0.79,0.24-1.54,0.53-2.42,0.24
			c-0.44-0.15-1,0.09-1.51,0.11c-0.62,0.03-1.15-0.06-1.48-0.75c-0.27-0.56-0.75-1.03-1.12-1.55c-0.41-0.57-0.8-1.15-1.28-1.85
			c1.11-0.1,2.05-0.23,2.99-0.27c2.64-0.12,5.28-0.21,7.93-0.32c0.94-0.04,1.45-0.65,1.38-1.56c-0.18-2.11-0.34-4.22-0.53-6.32
			c-0.05-0.56-0.14-1.14-0.34-1.66c-0.25-0.66-0.19-1.24,0.12-1.83c0.14-0.26,0.21-0.65,0.43-0.76c0.54-0.28,1.13-0.55,1.77-0.23
			c0.78,0.39,1.58,0.75,2.34,1.18c0.18,0.1,0.31,0.38,0.36,0.6c0.17,0.72,0.18,1.5,0.45,2.18c0.51,1.25,0.37,2.49,0.3,3.77
			c-0.06,1.07-0.04,2.15,0.05,3.21c0.07,0.82,0.55,1.01,1.37,0.95c1.34-0.11,2.69-0.09,4.04-0.18c0.83-0.06,1.66-0.28,2.49-0.3
			c0.94-0.03,1.89-0.01,2.82,0.12c1.44,0.21,2.86,0.37,4.28-0.04c0.09-0.02,0.2-0.06,0.27-0.03c0.89,0.4,1.87,0.64,2.53,1.44
			c0.2,0.24,0.23,0.46,0,0.67c-0.58,0.55-1.13,1.14-1.77,1.6c-0.21,0.16-0.66-0.02-1.01-0.03c-0.81-0.02-1.63-0.06-2.44-0.05
			c-0.2,0-0.45,0.12-0.58,0.27c-0.32,0.39-0.68,0.27-1.08,0.24c-1.98-0.13-3.97-0.23-5.95-0.34c-0.04,0-0.08,0-0.11,0.02
			c-1.12,0.69-2.42,0.62-3.64,0.86c-0.45,0.09-0.7,0.23-0.74,0.74c-0.1,1.21-0.31,2.42-0.36,3.64c-0.04,0.78,0.09,1.58,0.75,2.15
			c0.06,0.05,0.12,0.16,0.12,0.23c-0.06,1.38,0.22,2.78-0.3,4.12C344.6,142.54,344.58,142.61,344.54,142.71z"/>
	</g>
</g>
</svg>
