<?xml version="1.0" encoding="utf-8"?>
<!-- Generator: Adobe Illustrator 25.2.1, SVG Export Plug-In . SVG Version: 6.00 Build 0)  -->
<svg version="1.1" id="Layer_1" xmlns="http://www.w3.org/2000/svg" xmlns:xlink="http://www.w3.org/1999/xlink" x="0px" y="0px"
	 viewBox="0 0 600 300" style="enable-background:new 0 0 600 300;" xml:space="preserve">
<style type="text/css">
	.st0{fill:none;stroke:#000000;stroke-width:7;stroke-linecap:round;stroke-miterlimit:10;}
	.st1{fill:none;stroke:#000000;stroke-width:7;stroke-miterlimit:10;}
</style>
<path class="st0" d="M297.77,232.59c-0.46,7.62-0.73,15.52-0.76,23.69c-0.03,7.54,0.16,14.85,0.51,21.92"/>
<path class="st1" d="M52.15,114.58c2.52-54.55,125.96-85.05,230.47-90.08c119.21-5.73,269.16,41.17,264.01,99.25
	c-4.99,56.22-121.54,104-251.25,105C172.85,229.69,49.59,170.05,52.15,114.58z"/>
<g>
	<g>
		<path d="M272.54,117.07c-0.58-1.15-1.79-1.22-2.67-1.25c-1.54-0.05-3.17-0.56-4.67,0.36c-0.28,0.17-0.76,0.04-1.14,0.02
			c-1.42-0.06-2.8,0.03-4.09,0.74c-0.24,0.13-0.57,0.21-0.84,0.18c-1.6-0.19-2.79,0.69-4.02,1.4c-0.41,0.69-0.19,1.44-0.53,2.17
			c-0.43,0.92-0.68,2.07-0.59,3.23c0.13,1.76-0.03,3.54,0.06,5.31c0.07,1.32,0.2,2.67,0.56,3.92c0.4,1.39,0.92,2.8,2.35,3.69
			c-0.36,1-0.7,1.94-1.04,2.88c-0.6,0-1.05,0-1.39,0c-1.05-1.05-2.07-2.07-3.29-3.29c-0.03-0.52,0.13-1.42-0.43-2.23
			c-0.27-0.39-0.4-0.93-0.46-1.41c-0.08-0.61-0.02-1.23-0.02-1.85c0-2-0.03-4.01,0.01-6.01c0.02-1.26-0.21-2.53,0.41-3.76
			c0.24-0.47,0.04-1.16,0.04-1.97c-1.49,0.75-2.7,1.35-3.93,1.97c-0.62-0.49-1.29-1.03-2.06-1.64c0-0.29,0-0.74,0-1.25
			c1.03-1.15,2.3-1.89,3.92-2.11c0.61-0.08,1.19-0.47,1.74-0.81c0.62-0.38,1.21-0.83,1.77-1.3c0.82-0.7,1.34,0.4,2.05,0.3
			c0.3-0.04,0.61-0.01,0.91-0.01c0.28-0.28,0.56-0.56,0.83-0.83c0.14-0.03,0.29-0.1,0.42-0.09c2.04,0.21,3.84-0.89,5.81-1.07
			c0.27-0.02,0.52-0.3,0.79-0.31c2.63-0.18,5.26-0.39,7.9-0.44c1.24-0.02,2.48,0.3,3.71,0.46c0.83,0.83,1.65,1.65,2.58,2.58
			c-0.49,2.4-0.99,4.88-2.81,6.81c-1.32,1.41-2.69,2.76-4.09,4.08c-0.64,0.61-1.4,1.08-2.08,1.65c-0.68,0.57-1.2,1.29-2.08,1.67
			c-0.59,0.26-1,0.94-1.49,1.43c0,0.46,0,0.92,0,1.45c0.5,0.2,1.04,0.61,1.55,0.59c1.1-0.06,2.29,0.48,3.29-0.4
			c0.09-0.08,0.3-0.02,0.45-0.03c2.25-0.15,4.5-0.28,6.74-0.47c0.87-0.07,1.72-0.36,2.58-0.43c0.91-0.08,1.84-0.02,2.97-0.02
			c-0.17-0.9-0.33-1.72-0.48-2.54c0.86-0.63,0.25-1.57,0.53-2.4c2.64-4.79,6.42-8.67,11.02-12.13c1.86-0.27,3.27-2.07,5.76-2.77
			c4.33-0.27,5.76,1.05,8.12,4.93c-0.15,0.48-0.45,0.96-0.44,1.43c0.11,2.99-1.03,5.71-1.69,8.54c-0.52,2.23-1.53,4.04-3.22,5.35
			c-1.51,1.17-2.88,2.7-5.05,2.87c-0.9,0.07-1.39,1.22-2.43,1.37c-0.84,0.12-1.65,0.66-2.47,0.65c-0.73-0.01-1.36,0.34-2.08,0.27
			c-0.91-0.08-1.84-0.02-2.78-0.02c-1.25-0.89-2.5-1.78-3.9-2.78c-1.93,0.76-4.26,0.42-6.41,1.32c-1.02,0.43-2.31,0.14-3.5,0.45
			c-0.88,0.23-1.6,0.63-2.49,1.02c-0.6-0.09-1.3-1.06-2.07-0.08c-2.78,0.33-5.46,0.06-7.93-1.35c-0.3-0.17-0.5-0.54-0.68-0.86
			c-0.28-0.5-0.5-1.03-0.78-1.6c0.55-0.85,0.2-1.9,0.32-2.84c2.62-2.77,5.55-5.08,8.61-7.25c0.44-0.31,0.67-0.89,1.06-1.28
			c0.48-0.47,1.07-0.82,1.52-1.31c0.39-0.42,0.69-0.94,0.99-1.43C272.05,118.07,272.29,117.55,272.54,117.07z M303.43,117.74
			c-1.2-0.82-3.33-0.42-3.86-2.39c-1.3,0.76-2.85,1.1-3.94,2.23c-0.11,0.12-0.45,0.02-0.56,0.02c-0.95,0.74-1.89,1.35-2.69,2.12
			c-1.34,1.28-2.46,2.73-3.54,4.27c-1.3,1.86-2.32,3.58-1.94,5.93c0.17,0.17,0.38,0.38,0.64,0.64c0.75-0.17,1.56,0.26,2.34-0.43
			c0.43-0.38,2.94,0.41,3.71,0.94c0.06,0.04,0.05,0.21,0.06,0.25c-0.12,0.2-0.21,0.34-0.29,0.47c1.14-0.25,2.04-0.84,3.01-1.22
			c0.83-0.33,1.55-0.74,2.22-1.34c2.11-1.86,3.1-4.34,3.99-6.9c0.27-0.78,0.47-1.52,0.47-2.35
			C303.05,119.27,303.28,118.56,303.43,117.74z"/>
		<path d="M123.28,130.79c-0.24-0.94-0.69-1.68-0.5-2.17c0.58-1.53,0.45-3.32,1.64-4.64c0.8-0.89,1.53-1.83,2.3-2.74
			c0.81-0.97,1.56-2.01,2.47-2.9c1.46-1.42,2.99-2.77,4.55-4.08c0.42-0.35,1.06-0.41,1.56-0.68c1.45-0.79,2.88-1.61,4.26-2.39
			c1.72-0.36,3.32,0.1,4.84,0.62c1.27,0.44,2.59,2.25,3.75,4.34c-0.15,0.5-0.45,0.99-0.42,1.45c0.16,2.93-0.97,5.58-1.62,8.35
			c-0.49,2.1-1.41,3.9-3.02,5.21c-1.55,1.26-3,2.82-5.18,3.1c-0.26,0.03-0.48,0.3-0.74,0.44c-0.56,0.32-1.1,0.76-1.7,0.89
			c-0.71,0.16-1.45,0.38-2.07,0.61c-0.55,0.2-1.06-0.12-1.61,0.22c-0.51,0.31-1.34,0.04-2.01,0.14c-1.91,0.28-3.14-0.99-4.53-1.91
			c-0.18-0.12-0.34-0.29-0.64-0.56c-1.87,2.26-4.95,2.9-6.61,5.12c-0.54,0.14-1.04,0.12-1.22,0.34c-0.77,0.98-1.91,1.34-2.92,1.93
			c-0.99,0.58-2.18,0.92-2.98,1.68c-1.61,1.54-3.66,1.73-5.61,2.11c-1.41,0.27-2.93,0.18-4.38,0.02c-1.35-0.15-2.47-0.98-3.58-1.73
			c-0.2-0.14-0.32-0.4-0.52-0.54c-1.14-0.77-1.97-1.72-2.28-3.12c-0.11-0.47-0.51-0.88-0.87-1.45c0.03-1.6-0.69-3.31-0.53-5.15
			c0.17-1.83-0.21-3.74,0.96-5.39c-0.19-1.84,0.4-3.46,1.12-4.69c0.45-2.34,0.83-4.35,1.22-6.36c0.94-0.45-0.53-1.02,0.06-1.43
			c0.72-0.51,0.04-1.38,0.5-1.87c0.52-0.55,0.32-1.15,0.31-1.72c-0.01-1.05,0.69-1.94,0.51-3.05c-0.16-0.98-0.11-2.01-0.01-3
			c0.08-0.78,0.39-1.53,0.65-2.5c0.62-0.18,1.45-0.41,2.27-0.64c0.6,0.84,1.11,1.56,1.74,2.44c-0.15,0.68-0.38,1.52-0.51,2.38
			c-0.14,0.87,0.28,1.83-0.47,2.58c0.21,2.11-0.52,4.07-0.86,6.1c-0.22,1.3-0.65,2.55-0.79,3.83c-0.18,1.76-0.78,3.39-1.1,5.1
			c-0.11,0.58-0.26,1.11-0.44,1.67c-0.31,0.96-0.51,1.97-0.57,3.02c-0.07,1.32-0.59,2.62-0.39,3.97c0.15,1.01,0.39,2,0.62,3.19
			c-0.1-0.1-0.01-0.05,0.01,0.01c0.73,2.59,3.01,3.3,5.13,4.18c0.26,0.11,0.69,0.15,0.9,0.01c1.09-0.72,2.43-0.38,3.56-0.9
			c0.45-0.21,1.02-0.21,1.41-0.49c3.14-2.18,6.81-3.48,9.82-5.9c0.76-0.61,1.83-0.82,2.66-1.36
			C122.1,132.05,122.65,131.38,123.28,130.79z M129.52,132.01c1.52-0.61,2.88,0.62,4.53-0.01c2.05-0.78,4.01-1.57,5.69-2.99
			c2.03-1.72,2.87-4.14,3.8-6.51c0.33-0.83,0.48-1.67,0.49-2.58c0.01-0.71,0.26-1.41,0.39-2.06c-1.13-1.13-3.42-0.41-3.81-2.48
			c-0.81,0.35-1.53,0.67-2.67,1.17c-0.12,0.13-0.58,0.64-0.96,1.07c-0.49,0-0.89-0.13-1.08,0.02c-1,0.77-1.91,1.67-2.94,2.41
			c-1.88,1.36-2.79,3.49-4.15,5.25c-0.85,1.09-1.68,2.63-0.56,4.24c0.21,0.3,0.03,0.88,0.03,1.23
			C128.69,131.19,129.02,131.52,129.52,132.01z"/>
		<path d="M187.08,118.93c-1.58,0.26-2.82,0.46-4.2,0.69c-0.15,0.15-0.42,0.42-0.72,0.72c-0.15-0.13-0.31-0.25-0.48-0.4
			c-2.07,0.49-4.12,1.14-6.23,1.6c-2.1,0.45-4.14,1.19-6.56,1.9c0.02-0.03-0.24,0.25-0.49,0.51c-3.28,0.36-6.27,1.7-9.59,2.56
			c0.18,1.2-0.52,2.54,0.41,3.8c0.11,0.15,0.06,0.45,0.02,0.68c-0.3,2.12,0.79,4.03,0.93,6.09c0.8,0.9,0.07,2.15,0.58,2.98
			c0.66,1.06,0,2.11,0.52,3.2c-1.21,0.34-0.87,2.19-2.5,2.08c-1.24-0.35-1.33-1.85-2.31-2.53c0.12-1.95-0.53-3.76-0.91-5.63
			c-0.25-1.23-0.39-2.48-0.46-3.73c-0.08-1.23-0.02-2.46-0.02-3.7c0-0.45,0-0.9,0-1.28c-0.24-0.24-0.4-0.4-0.65-0.65
			c-0.89,0-1.88,0-2.77,0c-0.3-0.3-0.52-0.52-0.74-0.74c0-0.77,0-1.54,0-2.33c1.37-0.56,2.94-0.72,4.18-1.76
			c-0.14-1.03,0.27-2.11-0.5-3.05c0.36-0.92,1.11-1.71,0.96-2.84c-0.04-0.32,0.33-0.68,0.31-1c-0.08-0.87,0.62-1.63,0.19-2.6
			c-0.22-0.49,0.16-1.24,0.32-2.12c-0.62-0.82-1.08-1.95-0.79-3.29c1-0.79,1.14-1.98,1.33-3.13c0.13-0.78,0.66-2.38,1.1-3.01
			c1.7-0.37,2.74,0.72,3.64,1.67c1.82-0.61,3.48-1.48,5.21-1.65c1.78-0.17,3.29-1.44,4.91-1.02c4.27-2.27,8.66-2.52,13.01-2.25
			c1.05,0.53,2.01,1.02,3.23,1.64c0.13,0.92,0.3,2.06,0.44,3.02c-0.81,0.55-1.41,0.95-2.15,1.46c-0.65-0.39-1.33-0.78-1.98-1.2
			c-1.08-0.71-2.14-1.2-3.48-0.5c-0.49,0.25-1.19,0.2-1.78,0.15c-3.03-0.26-5.73,0.94-8.47,1.89c-1.28,0.44-2.47,1.08-3.79,1.46
			c-2.15,0.62-3.86,2.17-5.8,2.95c-0.81,1.32-0.51,2.78-0.94,3.94c-0.7,1.89,0.25,3.91-0.78,5.68c1.03,0.96-0.66,1.88,0.21,3
			c0.25-0.05,0.8,0,1.15-0.24c1.07-0.72,2.34-0.76,3.5-1.02c0.98-0.23,1.97-0.45,2.94-0.75c1.04-0.32,2.02-0.88,3.17-0.72
			c0.28,0.04,0.69,0.05,0.86-0.11c1.03-0.99,2.53-0.59,3.64-1.27c0.88-0.55,1.85-0.42,2.61-0.45c0.92-0.56,1.67-0.86,2.59-0.98
			c1.25-0.17,2.47-0.42,3.74-0.45c0.58-0.01,1.14-0.52,1.72-0.8c0.12,0.11,0.29,0.25,0.51,0.45c0.5-0.25,1-0.5,1.45-0.72
			c0.07-0.27,0.12-0.48,0.2-0.83c0.97,0.21,1.89,0.41,2.86,0.62c0.17,0.32,0.36,0.69,0.59,1.14c-0.07,0.09-0.33,0.25-0.32,0.39
			c0.23,4.34-0.89,8.63-0.45,13.11c0.31,0.2,0.73,0.48,1.12,0.74c0.35,0.83,0.7,1.69,1.15,2.75c-0.3,0.32-0.7,0.75-1.1,1.17
			c-2.52,0.46-3.86-1.02-4.93-3c-0.12-1.12,0.03-2.27-0.38-3.48c-0.29-0.85-0.07-1.97,0.27-3.04
			C186.97,122.92,186.88,120.99,187.08,118.93z"/>
		<path d="M221.66,134.61c0,1.55,0,3.25,0,4.94c1.71,0.69,1.35,2.2,1.38,3.37c-0.43,0.82-0.79,1.51-1.23,2.35c-0.61,0-1.44,0-2.31,0
			c-0.49-0.35-1.24-0.62-1.49-1.14c-0.36-0.76-0.39-1.69-0.51-2.55c-0.35-2.43,0.44-4.78,0.54-7.19c0.06-1.47,0.93-2.9,0.85-4.47
			c0.87-0.82,0.05-2.04,0.53-2.77c0.65-0.98,0.24-1.92,0.4-2.85c0.17-1.01,0.31-2.03,0.47-3.04c0.16-1.01-0.42-2.14,0.46-3.04
			c-0.34-2.28,0.89-4.53,0.39-6.72c-0.45-1.95-0.21-3.87-0.47-6.02c-0.53,0.17-0.99,0.28-1.43,0.46c-2.31,0.94-4.36,2.29-6.22,3.92
			c-0.92,0.81-2,0.88-3.03,0.8c-0.52-0.39-0.98-0.74-1.66-1.25c0.01,0.08-0.06-0.13-0.05-0.34c0.04-1.24,0.4-2.22,1.73-2.73
			c0.8-0.31,1.45-0.99,2.54-1.76c0.23-0.09,1.15,0.43,1.6-0.48c2.14-0.97,3.86-2.8,6.32-3.13c1.9-1.47,4.47-1.56,6.35-3.07
			c1.81-0.2,3.25-1.56,5.13-1.58c0.55,0,1.11-0.28,1.66-0.44c2.98-0.87,6.03-0.4,9.04-0.4c1,0,2.01,0.67,3.01,1.05
			c0.26,0.1,0.51,0.25,0.75,0.37c0.71,1.22,1.44,2.45,2.17,3.71c-0.3,0.89-0.98,1.76-0.09,2.64c-0.22,1,0.07,1.99-0.36,3.08
			c-0.56,1.45-0.84,3.02-1.73,4.37c-0.84,1.26-1.55,2.62-2.47,3.82c-1.45,1.89-3.03,3.68-4.55,5.51c-0.81,0.97-1.54,2.04-2.47,2.89
			c-1.2,1.08-2.36,2.18-3.38,3.42c-1.44,1.75-3.4,2.89-5.21,4.18c-1.13,0.81-2.07,1.88-3.33,2.51
			C223.96,133.51,222.93,133.99,221.66,134.61z M224.43,104.99c-0.3,0.87-0.99,1.73-0.04,2.64c0.08,0.08,0.04,0.29,0.04,0.44
			c0,2.61-0.03,5.23,0.02,7.84c0.01,0.64-0.31,1.11-0.44,1.66c-0.11,0.45,0.15,0.98,0.26,1.48c0.04,0.21,0.22,0.54,0.14,0.61
			c-0.87,0.76-0.09,1.84-0.49,2.57c-0.52,0.94-0.36,1.88-0.42,2.83c-0.01,0.22,0.05,0.5-0.06,0.66c-0.86,1.27-0.25,2.59-0.37,4.02
			c0.41-0.14,0.64-0.17,0.81-0.29c1.73-1.22,3.63-2.24,5.12-3.76c2.72-2.76,5.32-5.64,8.01-8.43c1.5-1.56,2.82-3.25,4.05-5.02
			c0.32-0.45,0.32-1.35,0.69-1.5c1.03-0.43,1.16-1.16,1.16-2.22c0.44-0.36,0.98-0.79,1.15-0.93c0.31-1.22,0.59-1.98,0.68-2.76
			c0.1-0.91,0.02-1.83,0.02-2.56c-0.56-0.81-1.01-1.47-1.45-2.12c-2.03-0.24-3.98-0.72-6.03-0.63c-1.16,0.05-2.14,0.34-3.06,0.98
			c-3.13-0.32-5.66,1.57-8.5,2.32c-0.66,0.17-1.22,0.72-1.94,1.15C224.05,104.4,224.24,104.69,224.43,104.99z"/>
		<path d="M406.78,137.21c-0.51,0.88-0.83,1.44-1.13,1.95c-1.09,0.45-1.95,0-2.74-0.52c-0.73-0.49-1.14-1.41-2.17-1.73
			c-0.46-0.91-0.98-1.93-1.57-3.08c0-1.44-0.34-3.16,0.1-4.65c0.4-1.37,0.18-2.67,0.42-4.17c-0.52,0.04-1.04-0.07-1.32,0.14
			c-1.74,1.28-3.71,1.37-5.8,1.2c-0.82-0.42-1.69-0.91-2.6-1.34c-0.78-0.37-1.29-0.84-1.48-1.78c-0.15-0.74-0.71-1.4-1.35-2.57
			c0.03-0.46,0.11-1.45,0.19-2.56c-0.6-0.26-1.3,0.13-2.07,0.39c-0.69,0.23-1.49,0.1-2.22,0.23c-1.06,0.19-2.1,0.6-3.16,0.7
			c-2,0.2-4,0.25-6.34,0.38c0.88,1.56,0.6,2.97,0.68,4.35c0.06,1.02-0.17,2.02,0.37,3.08c0.33,0.64-0.14,1.68-0.26,2.64
			c0.34,0.28,0.81,0.66,1.31,1.07c1.17-0.51,1.17-0.51,2.23,0.24c0,0.89,0,1.8,0,2.86c-1.42,1.44-2.96,2.88-5.1,3.04
			c-0.42-0.49-0.72-0.82-1.31-1.5c0-0.01-0.04-0.6-0.35-0.93c-0.81-0.88-1.06-1.86-1.08-3.04c-0.03-1.4-0.34-2.8-0.42-4.2
			c-0.08-1.46,0.05-2.93-0.04-4.39c-0.06-0.85-0.38-1.68-0.62-2.64c-1.39,0.17-2.94,0.08-4.26,0.6c-1.43,0.57-2.56,0.26-3.76-0.27
			c-0.16-0.56-0.32-1.11-0.52-1.82c0.12-0.27,0.32-0.73,0.45-1.02c1.01-1.25,2.42-0.65,3.6-1.1c1.47-0.57,3.22-0.39,4.85-0.57
			c1.1-0.12,2.18-0.36,3.28-0.44c1.15-0.08,2.42,0.28,3.44-0.1c1.21-0.45,2.43-0.07,3.52-0.44c1.19-0.4,2.36-0.26,3.52-0.43
			c1.49-0.23,2.96-0.65,4.5-1.01c0.33-0.52,0.68-1.07,0.98-1.53c1.34-0.87,2.62,0.8,4.09-0.07c0.5,0.56,1.13,1.27,1.77,1.99
			c-0.53,0.99-1.01,2.19-1.75,3.2c-1.02,1.38,0.08,2.52,0.16,3.85c0.53,0.32,1.08,0.65,1.55,0.94c0.77-0.18,1.48-0.35,2.45-0.58
			c0.09-0.13,0.35-0.52,0.5-0.75c0.72,0,1.18,0,1.64,0c0.4-0.24,0.24-0.79,0.93-1.03c1.54-0.53,2.13-1.62,2.54-3.46
			c0.03-0.14,0-0.32,0.08-0.43c1.32-1.9,1.8-4.2,2.94-6.18c0.07-0.13,0.21-0.22,0.39-0.39c0.76,0,1.58,0,2.44,0
			c0.18,0.18,0.4,0.4,0.71,0.71c-0.16,0.28-0.33,0.59-0.59,1.04c1,0.84,0.31,2.04,0.26,3.29c-0.07,0.07-0.29,0.29-0.6,0.6
			c0.01,2.64-2.14,4.52-2.67,7.18c-0.07-0.07,0.04,0.04,0.2,0.18c-0.9,1.84-1.8,3.71-1.77,5.84c-0.94,1.11-0.16,2.57-0.86,3.81
			c-0.46,0.82,0.42,1.77,0.62,2.69c0.06,0.27,0.21,0.53,0.25,0.61C404.85,135.97,405.76,136.55,406.78,137.21z"/>
		<path d="M497.64,131.93c-0.16-1.55-0.38-2.94-0.44-4.33c-0.06-1.33,0.04-2.67-0.7-3.9c-0.76,0.16-1.59,0.34-2.48,0.52
			c-0.23,0.23-0.5,0.5-0.76,0.76c-1.95-0.13-3.6,1.56-5.69,0.8c-0.84-1.15-0.63-2.3,0.34-3.3c2.91-1.03,5.71-2.06,8.55-3.01
			c2.77-0.92,5.75-1.22,8.26-2.67c1.46-0.24,2.84-0.46,4.35-0.71c0.6-0.66,1.51-0.81,2.51-0.81c1.26-0.01,2.43-0.71,3.73-0.45
			c0.85,0.17,1.7,0.28,2.49,0.4c0.17,0.87,0.3,1.56,0.46,2.35c-0.7,0.36-1.53,0.79-2.27,1.16c-0.94-0.1-1.87-0.19-2.86-0.29
			c-0.25,0.32-0.48,0.62-0.65,0.85c-1.58,0.26-3.03,0.5-4.57,0.75c-0.63,0.67-1.57,0.69-2.53,0.85c-0.88,0.15-1.68,0.75-2.85,1.32
			c-0.53,0.12-1.45,0.32-2.56,0.57c0.17,1.39-0.42,2.85,0.39,4.31c0.23,0.41,0.04,1.05,0.05,1.59c0.01,0.3,0.77,2.44,0.96,2.6
			c1.3,1.06,1.35,2.67,2.06,4.22c0.98,0.1,1.22,1.15,1.67,2.24c-0.3,0.6-0.65,1.3-1,2c-0.62,0-1.14,0-1.78,0
			c-1.31-1.44-2.68-2.95-4.17-4.57c-0.16,0.09-0.47,0.24-0.89,0.46c-2.59-0.15-5.24,0.59-7.98,0.54c-2.12-0.04-4.05-0.53-5.99-1.22
			c-0.34-0.12-0.69-0.2-0.99-0.28c-0.44-0.45-0.8-0.99-1.31-1.32c-1.87-1.24-2.82-2.92-2.8-5.18c0-0.64,0.34-1.39-0.35-1.91
			c0.28-0.64,0.71-1.25,0.8-1.9c0.26-1.84,1.12-3.53,2.19-4.84c1.94-2.37,3.51-5.1,5.98-7.01c1.9-1.47,3.85-2.97,6.48-2.73
			c0.63,0.06,1.24,0.32,1.85,0.49c0.22,0.48,0.44,0.93,0.63,1.35c-0.31,0.75-0.6,1.47-0.91,2.24c-0.9,0-1.73,0-2.23,0
			c-1.56,0.8-2.83,1.45-4.21,2.15c-0.01,0.18-0.03,0.47-0.05,0.78c-0.69,0.82-1.77,1.14-2.51,2.05c-0.69,0.85-1,2.22-2.37,2.57
			c-0.92,2.37-1.37,4.89-1.04,7.72c0.52,0.66,1.16,1.47,1.82,2.3c0.41,0.03,0.84-0.06,1.13,0.11c1.92,1.11,3.89,1.75,5.67,1.27
			c0.96-0.26,1.89-0.52,2.82-0.36c1.04,0.17,1.86-0.49,2.82-0.5C496.95,131.92,497.18,131.93,497.64,131.93z"/>
		<path d="M456.43,126.47c-0.63,1.36-0.86,2.41-1.23,3.41c-0.36,0.97-0.81,2.07-0.58,3.25c0.12,0.63-0.24,1.29-0.35,1.9
			c-0.2,1.11,0.14,2.33,0.23,3.27c0.75,0.96,1.34,1.71,1.92,2.45c-0.9,1.09-0.9,1.09-3.84,2.33c-0.45-0.18-0.97-0.39-1.58-0.64
			c-0.31-0.97-0.83-1.96-0.93-3c-0.16-1.6-0.22-3.25,0-4.84c0.29-2.07,0.62-4.2,1.43-6.1c0.71-1.67,0.83-3.4,1.29-5.09
			c0.25-0.91,0.38-1.87,0.46-2.81c0.08-0.92,0.13-1.87-0.01-2.77c-0.2-1.25,0.61-2.3,0.47-3.7c0.38-0.28,0.87-0.64,1.59-1.17
			c0.56,0.12,1.48,0.33,2.54,0.57c0.36,2.02,0.74,4.09,1.14,6.33c0.13,0.13,0.4,0.4,0.68,0.68c-0.13,0.23-0.26,0.46-0.37,0.66
			c0.77,1.94,1.36,3.95,2.34,5.76c1,1.85,1.91,3.82,3.63,5.21c0.39,0.32,0.66,0.79,0.95,1.22c1.03,1.57,2.52,2.39,4.48,2.82
			c0.08-0.48,0.15-0.89,0.22-1.33c0.24-0.24,0.51-0.51,0.81-0.81c0.01-0.19,0.03-0.41,0.04-0.64c0-0.77-0.21-1.63,0.06-2.29
			c0.27-0.67-0.2-1.25-0.01-1.7c0.41-1.01,0.24-1.88,0-2.88c-0.23-0.99,0.06-2.05-0.47-3.05c-0.22-0.42-0.05-1.06-0.03-1.6
			c0.06-1.86-0.17-3.67-0.88-5.41c-0.05-0.13-0.04-0.29-0.04-0.44c0-0.69,0.07-1.4-0.03-2.08c-0.08-0.55-0.37-1.08-0.56-1.59
			c0.33-0.3,0.55-0.5,0.83-0.76c0.84,0,1.76,0,2.7,0c0.86,0.64,1.75,1.31,2.74,2.06c-0.72,1.22-1.4,2.39-1.87,3.18
			c0.14,1.43,0.19,2.46,0.34,3.47c0.16,1.02-0.33,2.04,0.38,3.09c0.49,0.73-0.35,1.92,0.5,2.8c0.19,0.2,0.03,0.74,0.03,1.13
			c0,1,0.03,2-0.01,3c-0.08,2.01-0.2,4.02-0.3,5.99c-1.59,1.41-3.06,2.71-4.59,4.06c-0.59-0.17-1.15-0.3-1.69-0.5
			c-4.06-1.42-6.72-4.51-9.08-7.87c-0.6-0.85-1.48-1.54-1.67-2.78C457.98,128.35,457.13,127.57,456.43,126.47z"/>
		<path d="M433.8,119.59c0-0.51,0-0.96,0-1.41c-1.19-0.22-2.34-0.37-3.47-0.66c-1.73-0.43-1.71-0.47-3.59,0
			c-0.29,0.07-0.6,0.05-0.9,0.06c-0.83,0.04-1.84-0.21-2.45,0.18c-0.82,0.52-1.77-0.13-2.35,0.45c-0.67,0.66-1.68-0.14-2.29,0.73
			c-0.15,0.21-0.87,0.03-1.31,0.03c-0.51,0.51-1,1-1.54,1.54c-0.18,1.33-0.43,2.71-0.52,4.1c-0.09,1.38,0.17,2.81-0.09,4.14
			c-0.17,0.87,0.1,1.61,0.08,2.4c-0.03,0.92-0.08,1.86,0.02,2.77c0.08,0.7,0.38,1.38,0.63,2.23c0.9-0.18,1.81-0.36,2.85-0.57
			c0.26,0.63,0.52,1.27,0.82,1.99c-2.08,1.67-4.11,2.96-6.92,1.68c-0.45-1.09-0.94-2.26-1.49-3.6c0-0.93,0-2.06,0-3.27
			c1.05,0,2.03,0,3.09,0c0-2.14,0-4.19,0-6.41c-0.95,0-1.99,0-3.1,0c0-1.14,0-2.12,0-3.27c-0.28,0.1-0.43,0.16-0.73,0.27
			c-0.22-0.09-0.57-0.24-1.09-0.45c-0.5-0.5-0.55-2.67,0.09-3.48c0.23-0.3,0.57-0.53,0.8-0.83c0.22-0.28,0.36-0.61,0.58-1
			c0.49-0.08,1.16-0.01,1.61-0.3c1.8-1.15,3.85-1.52,5.84-2.1c2.2-0.64,4.43-1.27,6.64-1.76c1.98-0.44,4.15-0.22,6.21-0.05
			c1.18,0.1,2.33,0.64,3.48,1.03c1.63,0.55,3.03,1.47,4.2,2.84c0.31,1.77-0.49,3.23-1.68,4.49c-1.33,1.4-2.64,2.83-4.48,3.66
			c-0.56,0.25-0.9,1.01-1.48,1.34c-3.53,1.64-7.25,2.76-10.73,5.04c-0.55,0-1.38,0-2.32,0c-0.33-0.56-0.7-1.18-1.17-1.97
			c0.55-0.33,0.99-0.69,1.49-0.9c3.52-1.4,6.82-3.25,10.19-4.94c1.21-0.61,2.47-1.18,3.56-1.96
			C432.91,121.19,433.25,120.36,433.8,119.59z"/>
		<path d="M335,126.16c0.98-2.62,2.96-4.55,4.72-6.58c1.78-2.05,3.96-3.74,5.71-5.35c1.02-0.44,1.85-0.61,2.43-1.09
			c0.97-0.81,2.12-1.23,3.22-1.73c0.64-0.29,1.46-0.32,2.19-0.27c1.61,0.13,3.2,0.56,4.35,1.71c0.91,0.91,1.54,2.11,2.24,3.12
			c-0.16,0.63-0.47,1.2-0.42,1.74c0.25,2.8-0.84,5.35-1.47,7.96c-0.68,2.83-1.54,4.2-3.24,5.56c-1.56,1.25-3.03,2.7-5.2,3.06
			c-1.02,0.17-1.71,1.18-2.87,1.44c-2.06,0.46-4.69,0.99-6.42,0.82c-1.01-0.1-3.42-1.77-3.94-2.86c-0.67-1.41-1.26-2.86-1.85-4.31
			c-0.11-0.26-0.15-0.76,0.01-0.89C335.29,127.8,334.71,126.89,335,126.16z M341.32,131.99c1.5-0.5,2.88,0.62,4.5,0.01
			c1.9-0.72,3.76-1.44,5.34-2.71c2.2-1.76,3.13-4.31,4.11-6.83c0.33-0.86,0.41-1.7,0.46-2.59c0.04-0.7,0.25-1.4,0.37-2.02
			c-1.23-1-3.3-0.57-3.82-2.42c-0.82,0.34-1.54,0.64-2.66,1.09c-0.17,0.15-0.62,0.92-1.19,1.01c-1.54,0.26-2.39,1.44-3.45,2.28
			c-2.46,1.97-3.91,4.74-5.4,7.22C339.37,129.02,339.5,130.7,341.32,131.99z"/>
		<path d="M320.57,120.02c0.19,0.71,0.42,1.26,0.46,1.82c0.14,1.94-0.22,3.9,0.43,5.83c0.2,0.6-0.19,1.4-0.31,2.15
			c0.32,0.37,0.71,0.82,1.09,1.25c0.91-0.44,1.72-1.02,2.47,0.18c0,0.81,0,1.73,0,2.79c-1.42,1.44-2.96,2.89-5.11,3.04
			c-0.42-0.48-0.71-0.82-1.3-1.51c0,0-0.04-0.59-0.35-0.92c-0.81-0.88-1.07-1.86-1.09-3.04c-0.03-1.4-0.34-2.79-0.41-4.2
			c-0.08-1.46,0.05-2.93-0.04-4.39c-0.06-0.85-0.38-1.68-0.62-2.66c-1.38,0.17-2.93,0.08-4.24,0.6c-1.43,0.57-2.55,0.27-3.77-0.25
			c-0.16-0.55-0.31-1.1-0.51-1.83c0.11-0.25,0.31-0.71,0.49-1.14c0.39-0.21,0.75-0.54,1.15-0.6c1.31-0.21,2.72-0.11,3.94-0.54
			c1.62-0.56,3.31-0.05,4.85-0.57c1.59-0.53,3.15-0.2,4.72-0.28c0.89-0.05,1.61-0.68,2.59-0.53c0.76,0.11,1.67,0.36,2.36-0.4
			c0.1-0.11,0.44-0.03,0.68-0.01c1.94,0.1,3.78-0.39,5.63-0.91c0.35-0.1,0.74-0.01,1.04-0.01c0.35-0.35,0.63-0.63,0.92-0.92
			c1.22-0.04,2.54,0.24,3.7-0.94c0.63,0.7,1.25,1.39,1.95,2.17c-0.55,0.92-1.19,2-1.94,3.26c-0.37,0.12-0.97,0.32-1.69,0.56
			c-0.79-0.66-1.99-0.69-2.88-0.36c-2.16,0.8-4.45,0.75-6.59,1.38c-1.43,0.43-2.81,0.27-4.21,0.42
			C322.86,119.57,321.79,119.81,320.57,120.02z"/>
		<path d="M445.26,114.92c0.21,0.43,0.37,0.75,0.61,1.24c0,1.79,0.35,3.86-0.09,5.75c-0.58,2.5-0.12,4.97-0.43,7.49
			c0.42,0.28,0.83,0.57,1.24,0.85c0.36,0.87,0.74,1.78,1.18,2.85c-0.38,0.27-0.81,0.58-1.49,1.08c-0.28,0-0.95,0-1.43,0
			c-1.52-0.61-2.48-1.58-3.17-3.27c-0.15-0.78,0.2-1.95-0.37-3.14c-0.35-0.72-0.13-1.81,0.08-2.67c0.49-2.05,0.99-5.84,0.75-7.27
			c-0.03-0.18-0.3-0.33-0.48-0.52c0.34-0.92,0.69-1.86,1.03-2.79C443.62,114,444.38,114.62,445.26,114.92z"/>
	</g>
</g>
</svg>
