<?xml version="1.0" encoding="utf-8"?>
<!-- Generator: Adobe Illustrator 25.2.1, SVG Export Plug-In . SVG Version: 6.00 Build 0)  -->
<svg version="1.1" id="Layer_1" xmlns="http://www.w3.org/2000/svg" xmlns:xlink="http://www.w3.org/1999/xlink" x="0px" y="0px"
	 viewBox="0 0 600 300" style="enable-background:new 0 0 600 300;" xml:space="preserve">
<style type="text/css">
	.st0{fill:none;stroke:#000000;stroke-width:7;stroke-miterlimit:10;}
	.st1{fill:none;stroke:#000000;stroke-width:7;stroke-linecap:round;stroke-miterlimit:10;}
</style>
<path class="st0" d="M70.82,113.99c-2.46-52.52,123.53-96.4,232.11-96.45c99.78-0.05,219.63,36.89,224.41,86.86
	c5.01,52.45-118.7,98.82-228.26,99.65C195.1,204.84,73.2,164.84,70.82,113.99z"/>
<path class="st1" d="M303.98,206.56c0.77,12.76,1.22,25.99,1.27,39.67c0.04,12.62-0.26,24.86-0.84,36.71"/>
<g>
	<g>
		<path d="M351.29,145.72c-1.03,1.01-0.67,2.15-1.27,3c-0.49,0.7-0.03,1.8-0.84,2.47c-0.12,1.26,0.06,2.53-0.41,3.81
			c-0.46,1.25,0.46,2.51,0.39,3.72c0.57,0.42,1.11,0.82,1.63,1.19c0,0.69,0,1.3,0,1.9c-1.26,0.43-2.49,0.85-3.97,1.36
			c-0.36-0.28-1.1-0.6-1.42-1.17c-0.47-0.83-0.88-1.76-0.89-2.78c0-1.68-0.11-3.38,0.03-5.04c0.14-1.57,0.49-3.14,0.87-4.68
			c0.28-1.13,0.96-2.18,1.11-3.31c0.16-1.2,0.63-2.33,0.59-3.59c-0.02-0.55,0.1-1.43,0.42-1.88c0.54-0.76,0.15-1.47,0.46-2.36
			c-0.81,0.11-1.35-0.01-2.06,0.38c-0.94,0.53-2.1,0.76-3.2,0.86c-0.92,0.09-1.28,1.17-2.4,0.96c-0.65-0.13-1.44,0.48-2.16,0.77
			c-0.24,0.1-0.46,0.27-0.82,0.5c0.14,1.42,0.43,2.88,0.38,4.33c-0.05,1.54,1.11,2.74,0.9,4.35c1.53,0.07,1.69,1.43,2.02,2.42
			c0.21,0.65,0.14,1.5,0.56,2.08c0.37,0.51,1.05,0.8,1.56,1.17c0,0.94,0,1.83,0,2.81c-0.67,0.28-1.33,0.56-2.01,0.84
			c-1.89-0.67-2.49-1.84-4.87-5.05c-0.63,0.2-1.34-0.22-2.08,0.33c-0.37,0.27-1.07,0.1-1.62,0.11c-1.33,0.01-2.66,0-4,0
			c-0.35,0-0.76-0.11-1.04,0.02c-0.55,0.27-0.93,0.62-1.66,0.2c-0.43-0.25-1.22,0.23-1.82,0.15c-0.55-0.07-1.04-0.52-1.59-0.69
			c-0.82-0.26-1.66-0.42-2.71-0.68c-1.32-1.14-2.82-2.44-4.25-3.67c-0.29-1.49-0.56-2.84-0.86-4.36c0.04-0.06,0.19-0.26,0.33-0.46
			c-0.13-0.16-0.27-0.31-0.39-0.45c0.02-0.16,0-0.33,0.07-0.42c0.47-0.59,0.78-1.2,0.81-1.99c0.02-0.49,0.29-1,0.53-1.45
			c0.98-1.81,1.66-3.82,3.41-5.11c0.78-2.08,2.63-3.27,4-4.87c1.22-1.42,2.96-2.04,4.37-3.09c0.72-0.25,1.58,0.3,2.16-0.47
			c1.47-0.19,2.68,0.28,3.63,1.57c-0.5,0.84-0.44,2.06-1.7,2.67c-0.18-0.11-0.45-0.28-0.86-0.54c-1.71,0.88-3.5,1.79-5.33,2.73
			c-0.24,0.94-1.16,1.42-1.77,2.14c-0.58,0.68-1.15,1.35-1.74,2.01c-0.64,0.72-1.29,1.44-2.07,2.3c-0.26,1.16-0.62,2.49-0.86,3.85
			c-0.42,2.39,0.21,4.3,1.9,6.01c0.1,0.1,0.2,0.2,0.3,0.3c1.52,0.38,2.91,1.24,4.48,1.35c1.68,0.11,3.49,0.41,5.01-0.08
			c1.56-0.5,3.31,0.31,4.79-1.09c-0.14-0.55-0.23-1.29-0.54-1.92c-0.18-0.37-0.38-0.67-0.4-1.1c-0.04-0.8,1.03-1.59,0.02-2.39
			c0-0.84,0-1.68,0-2.52c0-0.13-0.04-0.26-0.06-0.4c-0.15-0.15-0.3-0.3-0.53-0.53c-0.11,0.08-0.26,0.28-0.36,0.26
			c-1.2-0.3-1.88,0.87-2.97,1.01c-1,0.13-1.98,0.62-2.89,1.11c-0.88,0.47-1.75,0.62-2.82,0.45c-0.3-0.5-0.63-1.07-1-1.69
			c0.28-0.61,0.55-1.2,0.76-1.65c1.49-1.22,3.32-1.18,4.82-2.01c1.17-0.65,2.57-0.88,3.87-1.31c1.3-0.42,2.62-0.81,3.92-1.16
			c1.64-0.45,3.33-0.71,4.91-1.37c0.18-0.07,0.33-0.22,0.56-0.37c1.95,0.01,3.84-0.5,5.68-1.33c-0.07-1.23-0.06-2.31,0.96-3.26
			c1.28-0.45,2.35,0.64,3.66,0.79c0,0.58,0,1.05,0,1.48c1.26,0.21,2.44,0.4,3.62,0.6c0.23,0.79,0.44,1.54,0.63,2.21
			c-0.88,0.52-1.66,0.98-2.63,1.55c-0.12-0.2-0.32-0.54-0.73-1.24c0,1.1,0,1.71,0,2.39c0.18,0.06,0.42,0.15,0.74,0.26
			c-0.14,0.21-0.26,0.4-0.44,0.68c1.07,1.95,1.45,4.23,2.56,6.24c1,1.81,2,3.57,3.46,5.1c1.13,1.18,2.13,2.5,3.31,3.66
			c0.77,0.76,1.64,1.16,2.7,1c1.28-1.81,1.09-4.04,1.8-6c0.04-0.1-0.24-0.29-0.24-0.44c0.03-0.64,0.1-1.28,0.2-2.26
			c0.03,0.05-0.24-0.23-0.25-0.52c-0.07-1.22,0.15-2.46-0.44-3.61c0.32-2.01-0.46-3.93-0.46-5.93c0-0.82-0.39-1.64-0.63-2.55
			c0.87-0.68-0.25-1.43-0.19-2.23c0.06-0.82,0.01-1.65,0.01-2.52c1.26,0.19,2.37,0.36,3.6,0.54c0.33,0.19,0.82,0.41,1.24,0.73
			c0.39,0.29,0.7,0.68,1.14,1.12c-0.55,0.92-1.11,1.87-1.77,2.99c0,0.79,0.1,1.78-0.03,2.74c-0.13,1.06,0.4,1.98,0.45,2.98
			c0.04,0.94,0.16,1.85,0.33,2.79c0.29,1.58,0.73,3.18,0.54,4.86c-0.15,1.39-0.03,2.8-0.03,4.2c-0.01,1.68-0.85,4.01-1.97,5.28
			c-0.3,0.34-0.76,0.52-1.14,0.79c-0.71,0.5-1.42,1.01-2.37,1.68c-0.39,0.1-0.98-0.02-1.61-0.4c-1-0.6-2.08-1.06-3.12-1.61
			c-0.41-0.21-0.84-0.43-1.16-0.75c-1.66-1.65-3.51-3.18-4.74-5.19c-1.09-1.79-2.38-3.46-3.26-5.38
			C351.9,146.56,351.61,146.22,351.29,145.72z"/>
		<path d="M288.99,96.32c0.28-0.19,0.55-0.37,0.83-0.56c-0.17-0.24-0.31-0.45-0.56-0.81c2.84-1.33,3.76-4.37,6.04-6.4
			c0-0.15-0.1-0.47,0.02-0.67c0.87-1.54,1.69-3.11,2.71-4.55c1.37-1.95,2.2-4.13,3.17-6.27c-0.31-1,1.22-1.36,0.84-2.39
			c1.3-0.91,1.09-2.49,1.68-3.72c0.36-0.76,0.72-1.52,1.11-2.35c0.04,0.04-0.06-0.06-0.19-0.19c0.33-0.51,0.68-1.02,1.11-1.69
			c0.94,1.29,2.77,0.74,3.54,1.66c0.54,1.98,1.13,3.6,1.39,5.28c0.36,2.29,1.5,4.38,1.5,6.77c0,1.2,0.76,2.34,0.94,3.59
			c0.12,0.83,0.59,1.62,0.66,2.44c0.09,1.12,0.65,1.88,1.48,2.66c1.09,0,2.26,0,3.47,0c0.65,2.25-1.82,1.76-2.45,2.88
			c0.8,1.84,2.78,0.94,3.96,1.83c0.24-0.22,0.44-0.41,0.41-0.38c0.61-2.42,1.16-4.59,1.71-6.75c0.26-1.02,0.7-1.99,0.73-3.07
			c0.01-0.58,0.28-1.14,0.39-1.72c0.27-1.4,0.63-2.8,0.42-4.24c-0.25-1.67,0.34-3.25,0.47-4.87c0.04-0.54,0.49-1.05,0.78-1.63
			c1.44-0.39,2.54,0.52,3.71,0.84c0.18,1.18,0.35,2.31,0.52,3.43c0.17,1.13,0.33,2.26,0.51,3.49c0.13,0.05,0.38,0.13,0.72,0.25
			c-0.14,0.21-0.27,0.39-0.44,0.65c1.04,1.98,1.46,4.24,2.56,6.26c0.99,1.82,2.02,3.56,3.44,5.11c1.11,1.21,2.15,2.49,3.32,3.65
			c0.78,0.77,1.42,0.99,2.72,1.04c0.33-0.64,0.66-1.27,1.07-2.08c0.1-0.52-0.18-1.23,0.34-1.98c0.38-0.55,0.3-1.48,0.26-2.23
			c-0.05-0.93-0.08-1.39,0.24-2.09c-0.14-0.26-0.4-0.54-0.42-0.83c-0.07-1.22,0.15-2.46-0.44-3.61c0.32-2.01-0.45-3.93-0.45-5.93
			c0-0.82-0.38-1.64-0.61-2.56c0.8-0.67-0.25-1.42-0.21-2.21c0.05-0.82,0.01-1.65,0.01-2.54c1.24,0.19,2.35,0.35,3.71,0.56
			c0.63,0.49,1.46,1.14,2.34,1.82c-0.65,1.03-1.2,1.92-1.84,2.93c0,1.18-0.23,2.56,0.05,3.82c0.5,2.2,0.17,4.54,1.19,6.65
			c0.16,0.34,0.02,0.83,0.02,1.25c0,1.75-0.04,3.51,0.01,5.26c0.06,2.07-0.58,3.92-1.71,5.6c-0.29,0.44-0.72,0.94-1.19,1.08
			c-1.04,0.31-1.68,1.08-2.5,1.84c-0.48-0.15-1.01-0.26-1.48-0.48c-1.18-0.55-2.32-1.16-3.49-1.74c-0.23-0.12-0.52-0.17-0.7-0.34
			c-1.81-1.81-3.83-3.45-5.17-5.64c-1.06-1.73-2.29-3.35-3.14-5.21c-0.18-0.4-0.46-0.75-0.77-1.25c-1.18,1.18-0.68,2.87-1.75,3.82
			c0.11,0.11,0.21,0.21,0.38,0.38c-0.59,0.85-0.92,1.8-0.83,2.9c0.05,0.57-0.06,1.15-0.27,1.76c-0.28,0.82-0.35,1.87,0.12,2.8
			c0.2,0.4,0.17,0.92,0.24,1.37c0.51,0.37,1.04,0.77,1.58,1.16c0,0.67,0,1.28,0,1.99c-0.63,0.15-1.28,0.27-1.89,0.47
			c-0.61,0.21-1.19,0.51-1.87,0.81c-2.13-0.4-2.14-2.33-2.47-3.95c-0.2-0.99-0.04-2.07-0.04-3.06c-1.05,0.22-1.98,0.42-3.08,0.65
			c-0.16-0.08-0.5-0.25-0.83-0.41c-0.22,0.2-0.37,0.34-0.61,0.56c-0.76-0.41-1.62-0.77-2.35-1.3c-0.7-0.51-1.33-1.18-1.54-2.08
			c-0.23-0.99-0.9-1.6-1.6-2.27c-0.44,0.17-0.81,0.3-1.4,0.52c-0.47-0.14-1.03-0.58-1.96-0.08c-0.82,0.44-2.05,0.09-3.11,0.09
			c-0.51,0.28-1.03,0.56-1.54,0.84c-0.58-0.61-1.16,0.07-1.76,0.01c-0.62-0.06-1.26-0.01-1.89-0.01c-0.7,0-1.4,0-2.17,0
			c0.25,0.87-0.72,0.84-1.04,1.39c-1.02,1.71-2.25,3.3-3.49,4.87c-0.61,0.77-1.54,1.05-2.57,0.87c-0.33-0.33-0.68-0.68-1.02-1.02
			c0-0.63,0-1.26,0-1.89C288.71,96.88,288.85,96.6,288.99,96.32z M309.96,88.99c-0.11-0.19-0.27-0.39-0.35-0.62
			c-0.38-1.03-0.19-2.19-0.5-3.16c-0.46-1.43-0.63-2.93-1.18-4.33c-0.58-1.46-0.53-3.1-1.26-4.51c-0.19-0.36-0.37-0.72-0.69-1.35
			c-0.16,2-1.57,3.02-1.93,4.64c-0.32,1.46-1.31,2.86-2.29,4.05c-1.04,1.26-0.8,3.14-2.19,3.96c0,0.57,0,0.98,0,1.39
			c1.86,0.31,3.67,1.09,5.5,0.12c1.16,0.81,2.3,0.49,3.39-0.02c0.32,0.2,0.6,0.37,0.87,0.54C309.58,89.4,309.77,89.2,309.96,88.99z"
			/>
		<path d="M205.45,100.68c0.22,0.67,0.41,1.36,0.67,2.02c0.33,0.84,0.62,1.73,1.11,2.48c0.48,0.73,1.3,1.04,2.18,1.3
			c0.72,0.2,1.83,0.32,1.74,1.66c-0.33,0.89-1.25,1.2-1.88,1.56c-1.34-0.34-2.55-0.64-4.06-1.02c-0.59-0.59-1.43-1.43-2.34-2.34
			c-0.56-1.92-1.15-3.92-1.7-5.93c-0.11-0.39-0.07-0.81-0.1-1.22c-0.06-0.67-0.18-1.35-0.19-2.02c0-0.61,0.15-1.22,0.18-1.84
			c0.03-0.63,0.01-1.26,0.01-1.89c0-0.7-0.05-1.41,0.01-2.1c0.08-0.86,0.25-1.71,0.41-2.56c0.15-0.78-0.38-1.67,0.4-2.37
			c0.1-0.09-0.01-0.41,0.02-0.61c0.12-0.87-0.26-1.77,0.28-2.62c0.43-0.68-0.18-1.62,0.53-2.32c0.18-0.17,0.01-0.68,0.03-1.02
			c0.08-1.05,0.17-2.11,0.25-3.15c-0.82,0.11-0.82,0.99-1.07,1.55c-1.27,2.89-3.14,5.42-4.7,8.14c-0.51,0.89-1.32,1.85-2.45,2.08
			c-0.81,0.16-1.6,0.28-2.35,0.93c-1.56-0.98-3.05-1.91-4.65-2.91c-0.26-0.33-0.64-0.79-0.99-1.27c-1.42-1.98-2.23-4.26-2.97-6.55
			c-0.44-1.36-0.99-2.68-1.3-4.09c-0.3-1.33-0.83-2.6-1.22-3.9c-0.07-0.24-0.01-0.52-0.01-1.21c-1.31,1.98-0.63,3.78-0.91,5.68
			c-0.21,0.08-0.63,0.23-0.78,0.28c0.01,2.18,0.07,3.92-0.79,5.55c-0.23,0.44-0.1,1.11-0.03,1.66c0.11,0.78-0.19,1.45-0.45,2.13
			c-0.12,0.3-0.36,0.58-0.39,0.89c-0.15,1.99-0.6,3.91-1.2,5.81c-0.24,0.76-0.04,1.66-0.04,2.55c-0.26,0.21-0.53,0.43-0.71,0.58
			c-0.49,1.11,0.32,2.34-0.58,3.25c0.21,0.75,0.34,1.54,0.66,2.25c0.25,0.55,0.32,1.41,1.26,1.27c0.22,0.47,0.42,0.87,0.6,1.29
			c0.18,0.41,0.36,0.83,0.58,1.35c-0.95,0.86-1.84,1.68-2.59,2.36c-0.87,0-1.48,0-2.23,0c-0.51-1.18-1.02-2.37-1.53-3.56
			c-0.32-0.8,0.32-1.78-0.53-2.51c0.17-0.93-0.33-1.92,0.3-2.82c0.14-0.19,0.12-0.52,0.11-0.79c-0.05-1.69,0.45-3.29,0.78-4.92
			c0.24-1.16,0.49-2.33,0.74-3.49c0.25-1.17,0.32-2.38,0.61-3.54c0.43-1.69,0.86-3.36,0.85-5.12c0-0.56,0.31-1.12,0.49-1.68
			c0.1-0.31,0.29-0.6,0.32-0.92c0.07-0.73-0.02-1.44,0.39-2.16c0.31-0.53-0.25-1.39,0.46-1.91c0.03-0.02,0.01-0.14,0-0.2
			c-0.29-1.8,0.39-3.52,0.44-5.29c0.06-1.84,0.29-3.67,0.38-5.5c0.02-0.43-0.17-0.87-0.33-1.57c0.19-0.33,0.51-0.9,0.76-1.33
			c0.77-0.51,1.35,0.27,2.11-0.11c0.62-0.31,1.51-0.06,2.14-0.06c1.17,0.42,1.27,1.51,1.58,2.32c0.37,0.97,0.41,2.1,0.46,3.17
			c0.03,0.62,0.25,1.15,0.42,1.72c0.49,1.63,0.66,3.34,1.29,4.94c0.1,0.24,0.23,0.47,0.36,0.73c-0.09,0.1-0.23,0.25-0.35,0.38
			c0,0.15-0.06,0.36,0.01,0.42c1.26,1.2,1.39,2.95,2.02,4.43c0.75,1.75,1.5,3.48,2.61,5.01c0.49,0.67,1.22,1.18,1.89,1.69
			c0.18,0.13,0.54,0.02,0.74,0.02c1.86-1.43,3.03-3.32,4.07-5.29c1.03-1.95,1.95-3.96,3.02-5.89c0.92-1.67,1.4-3.51,1.95-5.28
			c0.34-1.09,0.87-2.03,1.36-3.46c0.01-0.58-0.01-1.53,0.64-2.46c0.45-0.65,0.53-1.62,0.6-2.46c0.11-1.29,0.63-2.39,1.26-3.7
			c0-0.77,0-1.74,0-2.66c0.4-0.44,0.77-0.84,1.18-1.29c1.01,0.81,1.95,1.56,3.05,2.44c0,1.58,0.06,3.32-0.03,5.04
			c-0.04,0.77-0.38,1.52-0.57,2.28c-0.1,0.38-0.24,0.78-0.23,1.16c0.03,0.92-0.18,1.72-0.78,2.4c-0.17,2.26-0.31,4.5-0.51,6.75
			c-0.05,0.58-0.3,1.14-0.4,1.72c-0.1,0.59,0.01,1.14-0.37,1.75c-0.34,0.55,0.21,1.34-0.01,2.15c-0.49,1.79-1.05,3.61-0.89,5.52
			c-0.66,0.92-0.28,1.99-0.45,2.97c-0.16,0.95-0.57,1.87-0.81,2.81c-0.23,0.91,0.36,1.93-0.34,2.81c-0.14,0.18-0.12,0.54-0.08,0.79
			c0.11,0.65,0.42,1.3,0.36,1.93c-0.05,0.56-0.45,1.08-0.38,1.72c0.18,1.76,0.33,3.52,0.49,5.29
			C205.37,100.71,205.41,100.7,205.45,100.68z"/>
		<path d="M231.47,165.83c-0.88-0.74-1.81-0.42-2.67-0.53c-0.84-0.11-1.67-0.33-2.33-0.46c-0.91-0.85-1.06-1.74-1.01-2.73
			c0.1-2.32-0.49-4.59-0.6-6.89c-0.04-0.89,0.08-1.79,0.2-2.68c0.12-0.86-0.37-1.77,0.36-2.6c0.19-0.21-0.1-0.84-0.2-1.43
			c0.03-0.1,0.22-0.4,0.23-0.71c0.04-0.91-0.02-1.82,0.02-2.73c0.08-1.42-0.19-2.84,0.35-4.26c0.26-0.68-0.13-1.6-0.14-2.41
			c0-0.68,0.18-1.37,0.19-2.05c0.03-2.03,0.05-4.07-0.01-6.1c-0.03-1-0.32-1.98-0.39-2.98c-0.07-1.03-0.02-2.07-0.02-3.28
			c-1.44,0.5-2.39,1.43-3.51,2.09c-1.1,0.65-2.39,0.99-3.56,1.45c-1.09-0.49-1.44-1.42-1.83-2.29c0.29-1.2,1.03-1.98,1.92-2.76
			c0.32,0,0.73,0,1.2,0c1.57-1.8,4.18-1.8,6.07-3.43c1.45,0.25,2.84-0.38,4.26-0.97c0.78-0.32,1.55-0.78,2.44-0.7
			c0.52,0.05,0.88-0.3,1.31-0.4c2.3-0.52,4.61-1.03,7.01-0.89c0.58,0.03,1.28,0.27,1.72-0.41c0.25,0.25,0.49,0.5,0.78,0.79
			c0.65,0,1.33,0,1.61,0c1.23,0.46,2.09,0.77,2.94,1.09c0.05-0.1,0.11-0.19,0.16-0.29c0.39,0.48,0.79,0.97,1.18,1.45
			c0.06-0.09,0.12-0.17,0.18-0.26c0.4,0.21,0.99,0.33,1.15,0.66c0.44,0.9,1.1,1.22,1.89,1.19c1.69,1.88,3.19,3.8,4.22,6.49
			c0.07,0.5-0.02,1.41,0.31,2.36c0.27,0.78,0.3,1.83-0.29,2.77c-0.39,0.63-0.01,1.54-0.32,2.38c-0.88,2.33-1.97,4.53-3.31,6.62
			c-0.95,1.49-1.74,3.09-2.75,4.53c-1.03,1.48-2.09,2.94-3.16,4.39c-1.3,1.78-2.75,3.44-4.1,5.17c-1.17,1.49-2.54,2.91-4.19,4
			c-1.51,1-2.91,2.18-4.29,3.35c-0.54,0.46-0.86,1.16-1.34,1.71C232.69,164.66,232.11,165.18,231.47,165.83z M229.92,159.92
			c0.35-0.12,0.75-0.19,1.08-0.37c1.99-1.07,3.86-2.36,5.53-3.87c1.71-1.54,3.39-3.16,4.88-4.91c0.95-1.11,1.94-2.2,2.75-3.46
			c0.75-1.16,1.34-2.47,2.24-3.47c1.13-1.27,2.14-2.6,3.06-4.01c0.72-1.1,1.55-2.16,2.02-3.36c0.24-0.62,0.22-1.42,0.51-2.1
			c0.27-0.66,0.56-1.32,0.73-2.01c0.14-0.59-0.04-1.29,0.2-1.81c0.5-1.08,0.4-2.03-0.09-3.07c-0.27-0.58-0.34-1.27-0.48-1.84
			c-1.52-2.12-3.72-3.4-5.64-4.78c-0.86-0.29-1.58-0.58-2.34-0.79c-1.43-0.39-2.86-0.79-4.37-0.62c-0.52,0.71-1.28,0.31-1.93,0.43
			c-0.65,0.12-1.29,0.27-1.93,0.42c-1.72,0.38-3.48,0.64-5.03,1.63c-0.17-0.12-0.37-0.28-0.67-0.5c-0.35,0.49-0.67,0.94-0.98,1.38
			c-0.22,0.49-0.27,1.19-0.2,1.89c0.07,0.72-0.2,1.44,0.34,2.19c0.26,0.36-0.22,1.23-0.34,1.88c-0.04,0.2-0.06,0.51,0.04,0.6
			c0.62,0.5,0.34,1.16,0.36,1.75c0.04,1.54-0.03,3.08,0.03,4.62c0.06,1.49-0.29,3,0.38,4.46c0.18,0.39,0.04,0.96-0.06,1.42
			c-0.21,0.95-0.61,1.88-0.72,2.84c-0.13,1.18-0.15,2.39,0,3.56c0.17,1.28-0.57,2.38-0.46,3.61c0.11,1.21-0.05,2.39,0.35,3.63
			c0.35,1.07,0.07,2.35,0.07,3.36C229.51,159.14,229.69,159.48,229.92,159.92z"/>
		<path d="M408.16,88.32c-1.39-0.15-2.06,1.29-3.25,1.69c-0.77,0-1.54,0.01-2.3,0c-1.54-0.02-3.16,0.31-4.42-0.9
			c-0.62-1-1.18-2.04-1.86-2.99c-0.48-0.67-0.8-1.32-0.95-2.15c-0.13-0.74-0.62-1.42-1.19-2.05c0-0.61,0-1.22,0-1.73
			c-0.28-0.3-0.47-0.5-0.68-0.73c-0.17,0.71-0.33,1.38-0.49,2.05c0.87,0.72-0.19,1.33-0.22,2.01c-0.04,0.74-0.35,1.55-0.3,2.35
			c0.01,0.17,0.2,0.34,0.31,0.53c-0.36,0.94-1.38,1.84-0.31,3.03c-0.24,0.08-0.49,0.17-0.79,0.27c0,1.43,0,2.88,0,4.4
			c0.35,0.47,0.65,1.19,1.18,1.5c0.6,0.36,0.89,0.88,1.25,1.37c-0.8,0.32-1.52,0.78-1.72,1.74c-2.05,0.46-2.05,0.46-3.98,0.07
			c-0.5-1.44-0.52-2.97-0.91-4.45c-0.26-0.96-0.42-2.19,0.27-3.2c0.07-0.1,0.06-0.26,0.07-0.39c0.14-1.97,0.36-3.95,0.39-5.92
			c0.01-0.97,0.35-1.85,0.43-2.77c0.07-0.95,0.05-1.87,0.74-2.66c0.15-0.17,0.12-0.51,0.13-0.78c0.07-1.33,0.35-2.62,0.76-3.89
			c0.14-0.44,0.11-0.96,0.08-1.44c-0.06-1.01,0.25-1.85,1.1-2.65c1.1,0.54,2.31,0.76,3.48,0.04c0.57,0.19,1.13,0.37,1.61,0.53
			c1.18,0.82,1,2.19,1.32,3.28c0.33,1.09,0.07,2.36,0.07,3.03c0.51,1.44,1.04,2.39,1.15,3.39c0.12,1.04,0.96,1.58,1.23,2.45
			c0.29,0.9,0.9,1.44,1.76,1.78c0.11,0.04,0.11,0.36,0.17,0.61c0.59,0,1.2,0,1.53,0c1.77-0.48,2.76-1.98,4.46-2.1
			c2.41-1.91,3.93-4.56,5.48-7.16c0.69-1.16,1.2-2.45,1.86-3.64c0.47-0.84,1.08-1.69,0.9-2.8c-0.03-0.17,0.35-0.4,0.52-0.57
			c1.33-0.46,2.38,0.31,3.42,0.82c0.5,0.25,0.97,1.03,1.03,1.61c0.12,1.21,0.68,2.34,0.5,3.61c-0.13,0.89,0.07,1.83-0.04,2.73
			c-0.29,2.3-0.38,4.65-1.18,6.87c0.31,1.21-1.06,2.34-0.11,3.66c0.24,0.33-0.16,1.12-0.29,1.84c0.2,0.5,0.47,1.16,0.75,1.86
			c1.24,0,2.42,0,3.52,0c0.27,0.27,0.47,0.47,0.69,0.69c0,0.4,0,0.81,0,1.3c-1.87,0.75-3.79,1.52-5.73,2.31
			c-0.67-0.34-1.36-0.68-2.19-1.1c-0.36-1.33-1.27-2.65-1.49-4.26c-0.05-0.41-0.32-0.92-0.23-1.34c0.4-1.9,0.41-3.88,0.9-5.73
			c0.49-1.84,0.84-3.64,0.71-5.88c-1.26,1.89-2.31,3.55-3.47,5.15c-0.37,0.51-1.35,0.75-1.46,1.24c-0.2,0.91-0.94,1.01-1.46,1.23
			C409.77,86.54,409.24,87.55,408.16,88.32z"/>
		<path d="M288.99,96.32c-0.14,0.28-0.28,0.56-0.42,0.84c-0.78,0.68-1.56,1.35-2.5,2.17c-0.33-0.12-0.81-0.3-1.33-0.5
			c0.36-2.2-0.57-4.03-1.07-5.95c-0.81-3.1-1.24-6.24-0.91-9.45c0.01-0.11,0.19-0.2,0.28-0.29c-0.16-0.34-0.32-0.67-0.53-1.12
			c-3.68-0.09-6.94,1.48-10.27,2.96c0,2.48,0,4.91,0,7.45c0.64,0.94,1.66,1.64,2.78,1.82c0,0.45,0,0.91,0,1.53
			c-0.53,0.49-1.2,1.1-1.86,1.71c-0.66-0.76-1.64-0.11-2.49-0.38c-1.34-1.08-1.87-2.63-2.29-4.26c-0.21-0.81-0.51-1.6-0.79-2.46
			c0.79-1.35,0.17-2.9,0.44-4.59c-0.52,0.09-0.96,0.1-1.35,0.25c-0.66,0.26-1.28,0.62-1.94,0.95c-0.05-0.05-0.15-0.15-0.27-0.27
			c-0.9,0.43-1.81,0.86-2.53,1.2c-1.74-0.18-0.67-1.77-1.6-2.35c1.53-1.31,3.25-2.17,5.14-2.74c0.86-0.26,1.8-0.54,2.46-1.1
			c0.7-0.59,0.89-1.6,0.85-2.56c-0.08-1.85,0.62-3.62,0.46-5.5c-0.15-1.8-0.03-3.61-0.03-5.3c1.13-1.44,2.19-0.12,3.23-0.16
			c0.48,1.21,0.77,2.49,0.52,3.76c-0.26,1.31,0.82,2.45,0.11,3.9c-0.52,1.07,0.15,2.56-0.38,3.94c1.57,0.46,3.23-0.18,4.77-0.5
			c1.54-0.32,3.3-0.34,4.61-1.52c0.47-0.55-0.19-1.42,0.57-1.89c0.1-0.06,0.1-0.44,0.01-0.6c-0.75-1.29-0.33-2.69-0.39-4.04
			c-0.06-1.4-0.01-2.8-0.01-4.4c0.46,0.08,0.87,0.17,1.29,0.24c0.6,0.09,1.2,0.17,1.89,0.27c0.75,1.34,0.33,3.18,1.53,4.55
			c-0.17,0.23-0.33,0.43-0.39,0.51c0.11,0.96,0.18,1.82,0.31,2.67c0.13,0.85,0.3,1.69,0.47,2.62c0.47,0,0.93,0,1.47,0
			c0.49,0.67,0.96,1.33,1.39,1.92c-0.3,0.62-0.45,1.35-0.9,1.75c-0.45,0.39-1.2,0.44-1.82,0.64c-0.47,0.81-0.87,1.56-0.24,2.54
			c0.22,0.34,0.3,1.13-0.51,1.45c0.22,0.35,0.5,0.62,0.53,0.91c0.18,1.62,0.3,3.24,0.44,4.87c0.03,0.36,0.8,3.2,0.96,3.6
			C288.81,95.69,288.89,96.01,288.99,96.32z"/>
		<path d="M217.95,86.38c-0.21,0.21-0.51,0.51-0.81,0.81c-0.36,1.02,0.36,2.21-0.37,3c0.21,2.06,0.42,3.98,0.61,5.82
			c0.73,0.73,1.37,1.37,1.98,1.99c0.59,0,1.15,0,1.26,0c2.49-0.83,4.35-1.94,5.98-3.83c-0.23-0.83,1.62-1.38,0.94-2.65
			c0.68-0.68,1.28-1.28,1.88-1.88c0.47,0,0.94,0,1.5,0c0.28,0.66,0.56,1.32,0.87,2.05c-0.99,1.83-1.74,3.88-3.2,5.54
			c-0.61,0.69-2.51,2.46-3.38,2.94c-0.97,0.53-1.89,1.22-2.92,1.58c-0.57,0.2-1.27,1.11-1.99,0.15c-0.69,0.15-1.38,0.3-1.95,0.43
			c-0.52-0.39-0.86-0.85-1.27-0.92c-2.28-0.36-3.07-2.11-3.8-3.91c-0.32-0.78-0.53-1.6-0.84-2.56c0.06-0.09,0.22-0.3,0.38-0.53
			c-0.51-1.48-0.5-4.09-0.11-5.76c0.18-0.79,0.16-1.65,0.12-2.47c-0.04-0.96,0.01-1.93,0.46-2.75c0.43-0.78,0.39-1.56,0.39-2.36
			c0.01-1.68,0-3.36,0-5.2c0.31-0.21,0.71-0.49,1.44-0.98c0,0,0.47,0,0.99,0c0.05-0.25,0.09-0.45,0.12-0.57
			c0.69-0.43,1.34-0.87,2.02-1.26c0.62-0.35,1.29-0.58,1.98-0.8c1.28-0.41,2.53-0.73,3.89-0.77c1.28-0.03,2.54-0.31,3.82-0.38
			c1.26-0.07,2.53-0.08,3.78,0c2.04,0.13,4.08,0.35,6.29,0.55c0.02,0.5,0.05,1.16,0.08,1.75c-1.48,0.79-2.99,0.7-4.47,0.62
			c-2.35-0.13-4.65,0.26-6.71,0.52c-1.38,0.44-2.55,0.82-3.73,1.17c-0.75,0.22-1.53,0.36-2.28,0.59c-1.08,0.33-2.07,0.84-2.95,1.66
			c0,1.07,0,2.18,0,3.51c0.26,0.21,0.68,0.55,0.97,0.78c0.48-0.08,0.92-0.18,1.37-0.21c2.11-0.15,4.23-0.27,6.34-0.44
			c0.37-0.03,0.72-0.3,1.09-0.4c0.64-0.17,1.29-0.42,1.92-0.39c0.63,0.02,1.25,0.34,2.26,0.65c1.36,0.93-0.61,1.66-0.72,2.7
			c-1.56-0.15-3.02,0.24-4.46,0.81c-0.6,0.24-1.28,0.41-1.92,0.41c-0.7,0-1.29,0.3-1.93,0.42
			C221.34,86.06,219.78,86.17,217.95,86.38z"/>
		<path d="M282.25,131.24c0,0.75,0,1.31,0,1.98c-0.71,0.17-1.46,0.48-2.22,0.52c-1.68,0.08-3.39-0.15-5.04,0.07
			c-1.82,0.25-3.69,0.16-5.45,1.02c-1.01,0.49-2.23,0.84-3.36,0.98c-1.63,0.2-2.83,1.01-4.09,1.88c0,1.14,0,2.26,0,3.5
			c0.29,0.24,0.67,0.54,1.03,0.84c0.27-0.07,0.65-0.28,0.99-0.24c2.22,0.26,4.35-0.55,6.55-0.46c0.43,0.02,0.86-0.28,1.3-0.39
			c0.64-0.16,1.29-0.42,1.92-0.39c0.63,0.03,1.24,0.36,2.13,0.64c0.07,0.15,0.27,0.56,0.45,0.93c-0.41,0.59-0.74,1.08-1.21,1.75
			c-1.75-0.12-3.55,0.46-5.35,1.17c-0.91,0.36-1.95,0.14-2.96,0.45c-1.46,0.45-3.07,0.43-4.83,0.64c-0.17,0.18-0.5,0.54-0.88,0.96
			c-0.17,0.96,0.32,2.11-0.28,2.88c0.21,2.1,0.41,4.02,0.59,5.8c0.72,0.72,1.32,1.32,1.87,1.87c1.56,0.61,2.78-0.43,3.99-0.93
			c1.25-0.52,2.23-1.67,3.44-2.63c0.02-0.14,0.05-0.48,0.09-0.79c0.26-0.26,0.51-0.51,0.78-0.78c0-0.4,0-0.81,0-1.27
			c0.65-0.6,1.32-1.22,2.06-1.9c0.27,0,0.69,0,1.28,0c0.28,0.66,0.58,1.37,0.9,2.13c-1.02,1.87-1.86,3.85-3.25,5.57
			c-0.93,1.15-2.01,2.05-3.23,2.81c-0.99,0.62-2.02,1.19-3.09,1.67c-0.5,0.22-1.09,0.84-1.65,0.34c-0.6-0.54-0.88,0.37-1.4,0.13
			c-0.29-0.13-0.69-0.02-1.04-0.02c-0.3-0.28-0.58-0.77-0.92-0.81c-2.49-0.33-3.28-2.18-3.95-4.2c-0.24-0.74-0.56-1.45-0.86-2.24
			c0.13-0.18,0.29-0.39,0.45-0.6c-0.68-1.21-0.45-2.54-0.39-3.82c0.09-1.97,0.6-3.92,0.4-5.92c1.45-2.78,0.59-5.79,0.89-8.77
			c0.29-0.27,0.65-0.6,1.06-0.98c0.33,0,0.75,0,1.16,0c0.61-1.2,1.96-1.36,2.88-2.12c1.01-0.83,2.44-0.49,3.48-1.25
			c0.09-0.07,0.27-0.01,0.41-0.01c1.12,0,2.38,0.32,3.33-0.08c1.12-0.48,2.16-0.24,3.23-0.32c1.11-0.08,2.24-0.07,3.36,0
			c0.86,0.05,1.7,0.32,2.56,0.39C280.27,131.29,281.18,131.24,282.25,131.24z"/>
		<path d="M378.59,69.4c0,0.56-0.16,1.08,0.03,1.37c0.96,1.43,0.09,2.38-0.76,3.36c-0.23,0.26-0.49,0.5-0.81,0.83
			c-0.26-0.15-0.54-0.32-0.84-0.49c-2.15,0.94-2.15,0.94-8.95,7.74c0,0.53,0,1.08,0,1.73c0.55,0.5,1.17,1.07,1.79,1.63
			c0.48,0.48,1.34-0.11,1.78,0.66c0.65-0.16,1.31,0.6,1.96,0c0.95,0.43,2.06,0.2,2.95,0.51c0.82,0.28,1.59,0.24,2.38,0.34
			c2.28,0.3,4.35,1.14,5.97,2.81c0.53,0.55,0.79,1.35,1.18,2.04c0.45,1.28-0.25,2.42-0.89,3.34c-0.61,0.87-1.1,1.86-2.25,2.47
			c-2.43,1.3-5.39,2.49-7.88,2.84c-0.99,0.14-1.96,0.47-3.04,0.35c-0.6-0.6-1.23-1.25-1.86-1.88c0-0.7,0-1.4,0-2.14
			c1.91-0.57,3.93,0.31,5.87-0.54c1.72-0.75,3.58-1.17,5.32-1.72c0.21-0.64,0.39-1.2,0.58-1.77c-0.05-0.09-0.09-0.25-0.19-0.31
			c-0.27-0.17-0.63-0.25-0.85-0.47c-0.68-0.67-1.48-0.92-2.4-0.82c-1,0.11-1.84-0.22-2.75-0.85c-0.63,0-1.58,0.28-2.12-0.07
			c-0.69-0.45-1.29,0.41-1.91-0.21c-0.45-0.45-1.26,0-1.89-0.52c-0.51-0.41-1.38-0.33-2.06-0.57c-0.67-0.24-1.29-0.6-1.96-0.83
			c-1.75-1.28-2.5-3.09-2.36-5.24c0.09-1.41,0.99-2.71,2.09-3.3c0-0.28,0-0.56,0-0.65c1.05-1.27,1.91-2.54,3.01-3.55
			c0.73-0.66,1.25-1.51,2.03-2.08c0.79-0.57,1.68-1.02,2.53-1.51c1.47-0.85,2.95-1.68,4.42-2.53
			C377.26,69.4,377.82,69.4,378.59,69.4z"/>
		<path d="M294.62,151.01c-2.34,0-2.34,0-3.7-0.8c-1.01-0.21-2.1,0.32-3.01-0.43c-0.13,0.12-0.28,0.26-0.49,0.45
			c-2.2-0.73-4.42-1.48-6.73-2.25c-1.61-1.3-2.51-3.15-2.15-5.25c0.2-1.13,0.2-2.76,1.98-3.18c0.02-0.23,0.04-0.5,0.08-1
			c1.53-0.94,2.19-2.99,3.97-3.95c0.44-1.77,2.27-1.94,3.42-2.88c1.13-0.93,2.63-1.4,3.91-2.17c0.77-0.46,1.55-0.41,2.45-0.38
			c0.17,1.02,0.64,2.13,0.43,3.09c-0.2,0.9-1.12,1.63-1.79,2.52c-0.38-0.24-0.66-0.41-0.93-0.58c-2.2,1.01-2.2,1.01-8.96,7.77
			c0,0.54,0,1.1,0,1.66c0.59,0.57,1.19,1.16,1.99,1.94c0.22,0,0.79-0.17,1.14,0.03c0.8,0.47,1.54,0.48,2.45,0.45
			c0.89-0.03,1.9,0.16,2.74,0.42c1.02,0.31,2.05,0.12,2.99,0.38c2.58,0.72,5.33,1.3,6.34,4.35c0.79,0.59,0.22,1.44,0.43,2.01
			c-0.32,0.55-0.6,1-0.85,1.46c-1.33,2.44-2.03,3.01-4.65,3.93c-0.85,0.3-1.66,0.73-2.51,1.04c-0.93,0.34-1.87,0.58-2.89,0.69
			c-1.06,0.11-2.1,0.47-3.23,0.34c-0.56-0.57-1.16-1.17-1.81-1.83c0-0.68,0-1.43,0-2.24c1.9-0.47,3.91,0.28,5.84-0.51
			c1.74-0.71,3.58-1.17,5.3-1.72c0.21-0.66,0.39-1.21,0.59-1.82C296.25,152.07,295.49,151.57,294.62,151.01z"/>
		<path d="M258.17,78.57c-1.58,0.4-2.82-0.28-3.96-0.89c0.13-0.45,0.25-0.88,0.36-1.28c-1.66-1.19-2.84-0.68-5.74,0.49
			c-0.14-0.09-0.33-0.22-0.62-0.41c-1.43,0.93-3.1,1.51-4.57,2.54c-1.16,0.81-2.02,1.86-3,2.82c-0.32,0.31-0.4,0.97-0.43,1.48
			c-0.06,1.04-0.02,2.09-0.02,3.1c0.62,0.92,1.12,1.89,1.84,2.65c0.74,0.78,1.68,1.36,2.59,2.07c0.77,0.23,1.64,0.49,2.51,0.75
			c0.77,0.5,1.65-0.06,2.53,0.58c0.65,0.47,1.78-0.35,2.51,0.5c0.93-0.15,1.93,0.32,2.82-0.29c0.1-0.07,0.25-0.14,0.37-0.12
			c1.8,0.25,3.51-0.38,5.13-0.47c0.66-0.45,1.21-0.82,1.77-1.2c1.13,1.28,2.4-0.66,3.55,0.15c0.26,0.99-0.83,0.64-1.12,1.16
			c-0.68,1.19-2.02,1.45-3.17,1.94c-0.73,0.31-1.54,0.18-2.34,0.43c-1.39,0.44-2.94,0.38-4.43,0.5c-1.83,0.15-3.67,0.32-5.5,0.42
			c-1.97,0.11-4.71-0.54-7.08-1.67c-1.25-0.6-2.53-1.12-3.53-2.15c-0.91-0.93-1.69-1.84-1.96-3.2c-0.21-1.07-0.89-2.04-1.09-3.11
			c-0.41-2.13,0.43-4.1,1.29-5.96c0.41-0.9,1.3-1.69,2.17-2.22c0.59-0.36,0.86-1.36,1.82-1.07c-0.02-1.14,1.14-0.62,1.61-1.14
			c0.53-0.59,1.43-0.66,2.09-0.99c1.26-0.64,2.45-1.24,3.9-1.29c0.4-0.02,0.79-0.44,1.25-0.71c1.25-0.21,2.65,0.33,3.94-0.43
			c0.21-0.12,0.65-0.14,0.82,0c1.08,0.89,2.5,0.99,3.71,1.15c1.75,0.23,1.71,1.59,2.13,2.56c0.38,0.88-0.17,1.84-0.93,2.5
			C259,78.08,258.52,78.33,258.17,78.57z"/>
		<path d="M356.47,72.76c0.51,0.51,1,1,1.51,1.51c0,1.73-0.13,3.49,0.04,5.23c0.15,1.54-0.57,2.93-0.48,4.45
			c0.09,1.53,0.02,3.07,0.02,4.42c0.26,0.51,0.44,0.86,0.62,1.21c0.28,0,0.55,0,0.84,0c0.4,1.03,0.79,2.06,1.19,3.09
			c-0.3,0.24-0.52,0.41-0.76,0.6c-0.71,0.11-1.49,0.24-2.62,0.42c-1.28-0.33-2.01-1.76-2.97-3.11c-0.16-1.53-0.37-3.21-0.48-4.89
			c-0.05-0.79-0.1-1.57,0.36-2.37c0.38-0.66-0.34-1.65,0.43-2.34c-0.03-1.59-0.05-3.18-0.09-4.77c0-0.1-0.19-0.2-0.29-0.3
			c0.77-0.58,0.21-1.43,0.49-2.19c0.28-0.28,0.63-0.63,0.97-0.97C355.66,72.76,356.08,72.76,356.47,72.76z"/>
		<path d="M306.23,133.64c0.44-0.44,0.78-0.78,1.13-1.13c0.38,0,0.8,0,1.2,0c0.46,0.46,0.91,0.91,1.46,1.46
			c0,2.26,0.28,4.67-0.08,6.98c-0.31,2-0.28,3.96-0.31,5.93c-0.01,0.77,0.22,1.54,0.35,2.4c0.46,0.02,0.79,0.04,1.11,0.05
			c0.39,1.04,0.78,2.07,1.15,3.04c-0.31,0.31-0.5,0.5-0.62,0.62c-0.87,0.14-1.65,0.26-2.76,0.43c-0.37-0.28-1.06-0.69-1.61-1.25
			c-0.51-0.51-0.87-1.18-1.42-1.94c0-0.49,0.05-1.19-0.02-1.87c-0.06-0.58-0.36-1.14-0.38-1.72c-0.04-1.03-0.27-2.24,0.16-3.07
			c0.51-0.97-0.35-2.14,0.66-2.89c-0.05-1.59-0.1-3.18-0.14-4.77c-0.62-0.42,0.29-0.58,0.17-0.98
			C306.14,134.57,306.23,134.12,306.23,133.64z"/>
	</g>
</g>
</svg>
