<?xml version="1.0" encoding="utf-8"?>
<!-- Generator: Adobe Illustrator 25.2.1, SVG Export Plug-In . SVG Version: 6.00 Build 0)  -->
<svg version="1.1" id="Layer_1" xmlns="http://www.w3.org/2000/svg" xmlns:xlink="http://www.w3.org/1999/xlink" x="0px" y="0px"
	 viewBox="0 0 600 300" style="enable-background:new 0 0 600 300;" xml:space="preserve">
<style type="text/css">
	.st0{fill:none;stroke:#000000;stroke-width:7;stroke-miterlimit:10;}
	.st1{fill:none;stroke:#000000;stroke-width:7;stroke-linecap:round;stroke-miterlimit:10;}
</style>
<path class="st0" d="M70.82,113.99c-2.46-52.52,123.53-96.4,232.11-96.45c99.78-0.05,219.63,36.89,224.41,86.86
	c5.01,52.45-118.7,98.82-228.26,99.65C195.1,204.84,73.2,164.84,70.82,113.99z"/>
<path class="st1" d="M303.98,206.56c0.77,12.76,1.22,25.99,1.27,39.67c0.04,12.62-0.26,24.86-0.84,36.71"/>
<g>
	<g>
		<path d="M210.56,122.16c-0.21-0.14-0.35-0.27-0.51-0.33c-0.12-0.05-0.32-0.07-0.42,0c-1.15,0.75-2.68,0.23-3.85,1.15
			c-0.57-0.43-1.27-0.41-1.93-0.26c-1.38,0.31-2.69,0.27-4.33-0.02c-0.58-0.1-1.14-0.25-1.68-0.42c-1.27-0.4-2.08-1.35-2.62-2.54
			c-0.07-0.16-0.2-0.29-0.34-0.48c0.11-0.15,0.22-0.29,0.34-0.46c0-0.34-0.1-0.76,0.02-1.09c0.19-0.53,0.22-1.12,0.67-1.57
			c0.71-0.72,1.59-1.3,2.02-2.27c0.04-0.08,0.12-0.17,0.2-0.2c1.8-0.7,2.86-2.47,4.62-3.21c0.15-0.63,1.01-0.64,1.12-1.36
			c0.03-0.23,0.45-0.42,0.71-0.6c1.34-0.97,2.51-2.36,2.55-4.24c-0.88-0.19-1.77-0.46-2.68-0.56c-0.89-0.1-1.79-0.05-2.69-0.01
			c-0.48,0.02-0.96,0.19-1.44,0.27c-0.44,0.07-0.92-0.13-1.31,0.27c-0.09,0.09-0.36,0.02-0.55,0.01c-0.96-0.04-1.91,0-2.76,0.52
			c-0.11,0.06-0.27,0.06-0.4,0.05c-1.28-0.16-2.34,0.45-3.43,0.97c-0.28,0.13-0.53,0.31-0.89,0.52c0.04,0.88,0,1.77-0.48,2.58
			c-0.11,0.18-0.07,0.45-0.08,0.67c-0.01,0.38-0.02,0.76,0,1.13c0.11,1.77-0.19,3.51-0.26,5.27c-0.05,1.3,0.35,2.57,0.65,3.84
			c0.23,0.98,0.51,1.96,1.34,2.92c0.03,0.02,0.29,0.18,0.45,0.28c0.5,1.19-0.76,1.93-0.44,2.99c-1.33,0.4-2.28-0.12-3.05-1.08
			c-0.54-0.66-1.02-1.37-1.51-2.04c0.07-1.03-0.33-1.95-0.6-2.89c-0.07-0.25-0.22-0.49-0.25-0.75c-0.08-0.86,0.15-1.75-0.28-2.58
			c-0.08-0.15-0.04-0.38-0.01-0.56c0.36-1.71,0.33-1.71,0.02-3.18c-0.07-0.32-0.07-0.68,0.13-1.07c0.21-0.39,0.37-0.87,0.16-1.42
			c-0.12-0.31,0.21-0.75,0.23-1.14c0.04-0.7,0.01-1.4,0.01-2.24c-1.35,0.49-2.4,1.53-3.66,1.49c-0.62-0.38-1.11-0.69-1.68-1.04
			c0-0.47,0-1.07,0-1.71c0.74-0.92,1.99-1.06,2.98-1.8c1.21,0.25,2.03-0.61,2.93-1.27c0.43-0.32,0.83-0.67,1.19-0.96
			c1.13,0.48,2.16,0.94,3.21-0.03c0.45,0,0.93,0.06,1.38-0.02c0.38-0.07,0.72-0.31,1.08-0.46c0.54-0.23,1.21,0.12,1.69-0.37
			c1.85-0.25,3.68-0.76,5.58-0.57c1.54-0.5,3.14-0.16,4.7-0.31c0.72-0.07,1.32,0.31,2.01,0.32c0.2,0,0.39,0.21,0.59,0.26
			c0.17,0.05,0.37,0.01,0.54,0.01c0.52,0.52,1.06,0.98,1.5,1.53c0.39,0.49,1.02,1.01,0.34,1.75c-0.05,1.51-0.8,2.78-1.41,4.09
			c-0.25,0.54-0.56,1.02-1,1.43c-1.5,1.4-2.98,2.83-4.5,4.2c-1.16,1.04-2.37,2.02-3.57,3.01c-0.2,0.16-0.46,0.25-0.69,0.36
			c-0.16,0.45-0.3,0.86-0.48,1.35c0.18,0.08,0.49,0.12,0.53,0.25c0.2,0.54,0.6,0.77,1.1,0.73c1.05-0.08,2.14,0.29,3.15-0.26
			c0.11-0.06,0.28,0,0.42-0.01c1.43-0.09,2.87-0.07,4.27-0.33c0.92-0.17,1.81-0.2,2.73-0.25c0.39-0.02,0.77-0.25,1.16-0.25
			c0.34,0,0.76,0.35,1,0.23c0.66-0.33,1.34-0.2,1.99-0.26c0.15-0.16,0.37-0.28,0.39-0.43c0.12-0.95,0.23-1.9,0.29-2.86
			c0.02-0.35,0.09-0.7-0.18-1.06c-0.16-0.21-0.03-0.69,0.07-1.02c0.12-0.42,0.3-0.82,0.44-1.24c0.64-1.95,0.68-2.2,0.27-4.34
			c-0.1-0.5-0.01-1.04-0.01-1.64c0.27-0.38,0.57-0.82,0.89-1.28c0.45,0,0.86,0,1.16,0c0.24-0.33,0.38-0.74,0.62-0.81
			c1.18-0.37,2.09-1.34,3.36-1.47c0.58-0.53,1.43-0.09,2.03-0.57c1.63,0.2,3.22-0.31,4.84-0.29c1.65,0.02,3.33-0.15,4.95,0.06
			c1.1,0.15,2.19,0.18,3.27,0.24c0.12,0.12,0.22,0.22,0.37,0.37c0,0.36,0,0.77,0,1.25c-0.46,0.43-1.11,0.61-1.79,0.63
			c-1.65,0.03-3.31,0.02-4.96,0c-0.42,0-0.83,0.02-1.15,0.29c-0.35,0.3-0.75,0.28-1.16,0.28c-0.47,0-0.95,0-1.12,0
			c-1.06,0.34-1.85,0.62-2.65,0.84c-0.76,0.22-1.57,0.32-2.31,0.59c-0.82,0.3-1.59,0.73-2.37,1.1c0,1.17,0,2.24,0,3.29
			c0.23,0.4,0.62,0.55,0.97,0.39c0.89-0.39,1.82-0.19,2.72-0.28c0.72-0.07,1.43,0.15,2.17-0.23c0.56-0.29,1.31-0.08,2-0.27
			c1.13-0.31,2.36-0.29,3.54-0.4c0.25,0.3,0.46,0.55,0.74,0.87c0,0.25,0,0.62,0,0.97c-0.24,0.34-0.47,0.67-0.75,1.06
			c-1.44-0.19-2.8,0.52-4.21,0.91c-0.73,0.2-1.41,0.52-2.2,0.52c-0.34,0-0.67,0.2-1.02,0.26c-0.35,0.07-0.77-0.14-1.02,0.28
			c-0.94,0-1.89,0-2.84,0c-0.32,0.34-0.65,0.68-1,1.05c0,0.7,0,1.46,0,2.32c1.12-0.06,2.2,0.12,3.37-0.18
			c1.16-0.3,2.3,0.27,3.2,1.28c-0.42,0.42-0.85,0.85-1.21,1.21c-1.31,0.03-2.48-0.1-3.61,0.53c-0.43,0.24-1.1,0.04-1.67,0.04
			c0.15,1.53,0.3,3.07,1.99,3.93c0.7,0.13,1.34,0.02,1.92-0.41c0.24-0.18,0.54-0.34,0.83-0.38c0.68-0.09,1.13-0.49,1.61-0.92
			c0.5-0.44,1.06-0.8,1.75-1.3c0.11-0.87,1.22-1.53,1.19-2.67c0.43-0.43,0.86-0.86,1.36-1.35c0.34,0,0.81,0,1.34,0
			c0.57,0.86,0.97,1.71,0.3,2.79c-0.75,1.2-1.35,2.48-2.15,3.65c-0.26,0.39-0.55,0.74-0.88,1.04c-0.57,0.52-1.22,0.97-2,1.58
			c-1.02,0.29-2.16,0.85-3.32,1.68c-0.89,0-1.92,0-3.13,0c-0.06-0.11-0.21-0.35-0.31-0.53c-1.63,0.16-2.45-0.92-3.12-1.9
			c-0.89-1.31-1.41-2.85-1.5-4.61c-0.99,0.12-2.04,0.12-3.01,0.39C212.52,121.63,211.49,121.52,210.56,122.16z"/>
		<path d="M409.92,100.72c0.61,0.71,1.61,1.31,2.01,2.54c-0.37,1.12-0.72,2.35-1.2,3.52c-0.4,0.98-0.81,1.99-1.68,2.71
			c-0.82,0.67-1.37,1.65-2.38,2.13c-0.16,0.08-0.28,0.25-0.41,0.37c-1.16,1.07-2.31,2.16-3.5,3.2c-0.75,0.65-1.57,1.22-2.4,1.86
			c-0.12,0.37-0.26,0.78-0.39,1.2c0.08,0.3,0.71,0.04,0.6,0.6c-0.02,0.09,0.42,0.38,0.65,0.38c1.11,0,2.23,0.25,3.32-0.12
			c0.12-0.04,0.26-0.12,0.38-0.11c1.4,0.21,2.74-0.34,4.14-0.31c0.67,0.02,1.34-0.17,2.01-0.27c0.62-0.09,1.3,0.24,1.88-0.27
			c0.08-0.07,0.31-0.06,0.41,0c0.93,0.55,1.81-0.23,2.75,0.03c-0.09-0.82-0.27-1.53-0.23-2.23c0.11-1.86,0.75-3.54,1.93-5.01
			c0.87-1.09,1.68-2.23,2.51-3.35c0.2-0.27,0.41-0.55,0.65-0.78c0.26-0.26,0.52-0.54,0.85-0.69c0.75-0.34,1.19-1.01,1.78-1.51
			c0.34-0.29,0.72-0.55,1.08-0.8c0.31-0.22,0.8-0.2,0.85-0.77c0.02-0.18,0.37-0.35,0.59-0.48c1.34-0.76,2.66-1.56,4.04-2.23
			c1.02-0.49,2.14-0.74,3.29-0.59c0.33,0.04,0.62,0.34,1.02,0.27c0.32-0.05,0.66-0.01,0.99-0.01c0.59,0.4,1.17,0.8,1.75,1.2
			c0.59,0.86,1.2,1.75,1.9,2.77c-0.13,1.75,0.44,3.78-0.89,5.63c0.43,1.41-0.59,2.58-0.87,3.93c-0.05,0.26-0.22,0.51-0.21,0.76
			c0.05,0.73-0.4,1.28-0.72,1.83c-0.46,0.82-1.11,1.53-1.68,2.29c-0.06,0.07-0.12,0.17-0.2,0.2c-1.18,0.38-1.91,1.45-3.03,1.92
			c-0.45,0.19-0.83,0.47-1.35,0.52c-0.36,0.04-0.75,0.28-1.04,0.53c-0.9,0.75-1.94,0.96-3.07,1.17c-1.48,0.28-2.94,0.53-4.45,0.54
			c-0.48,0-0.92-0.12-1.29-0.32c-1.01-0.57-2.19-0.91-2.84-2.01c-2.28,0.15-4.49,0.5-6.6,1.09c-0.42-0.04-0.82-0.19-1.17-0.09
			c-0.91,0.25-1.8,0.58-2.67,0.46c-0.39,0.22-0.7,0.39-0.84,0.47c-0.74-0.07-1.39-0.33-1.88-0.15c-1.06,0.39-2.11,0.19-3.16,0.23
			c-0.97,0.04-3.26-0.59-4.06-1.13c-0.77-0.51-1.29-1.25-1.64-2.11c-0.05-0.12-0.18-0.21-0.25-0.27c0.19-0.99,0.38-1.95,0.54-2.8
			c0.77-1,1.84-1.59,2.35-2.69c0.06-0.12,0.18-0.27,0.3-0.29c0.87-0.18,1.32-0.93,1.98-1.39c1.1-0.77,2.31-1.49,3.17-2.46
			c0.82-0.93,1.9-1.56,2.64-2.54c0.32-0.43,0.67-0.85,0.88-1.34c0.2-0.48,0.25-1.03,0.35-1.51c-0.84-0.62-1.79-0.53-2.64-0.7
			c-0.91-0.18-1.88-0.07-2.83-0.03c-0.48,0.02-0.96,0.2-1.44,0.26c-0.45,0.05-0.9-0.07-1.31,0.27c-0.14,0.12-0.46,0.03-0.69,0.02
			c-0.87-0.04-1.72,0.02-2.51,0.45c-0.15,0.08-0.35,0.13-0.52,0.11c-1.18-0.14-2.18,0.39-3.19,0.86c-0.36,0.17-0.69,0.4-1.09,0.63
			c0.05,0.9-0.03,1.79-0.51,2.6c-0.11,0.17-0.04,0.45-0.05,0.69c-0.01,0.43,0,0.85,0,1.28c0,0.9-0.01,1.8,0,2.69
			c0.01,0.83-0.42,1.58-0.3,2.44c0.17,1.29,0.42,2.56,0.7,3.83c0.21,0.95,0.6,1.83,1.14,2.77c0.14,0.08,0.4,0.24,0.69,0.42
			c0,0.43,0,0.84,0,1.25c-0.03-0.01-0.07-0.03-0.1-0.04c-0.18,0.58-0.36,1.17-0.56,1.82c-0.42,0-0.93,0-1.41,0
			c-1.3-0.55-1.91-1.77-2.7-2.81c-0.21-0.28-0.28-0.63-0.31-1.01c-0.08-0.88-0.32-1.73-0.83-2.76c0-0.3,0.04-0.86-0.01-1.42
			c-0.05-0.63-0.39-1.31-0.22-1.85c0.21-0.64,0.22-1.25,0.22-1.88c0-0.49,0-0.95-0.23-1.46c-0.28-0.62,0.24-1.27,0.4-1.87
			c-0.36-1.29,0.5-2.58-0.02-3.92c-1.2,0.48-2.23,1.42-3.5,1.47c-0.61-0.37-1.14-0.69-1.73-1.03c0-0.48,0-1.04,0-1.75
			c1.16-0.89,2.44-1.74,4.24-1.83c0.89-0.66,1.9-1.41,2.88-2.14c0.51,0.17,0.98,0.36,1.48,0.49c0.22,0.06,0.55,0.11,0.69-0.01
			c0.82-0.66,1.88-0.45,2.79-0.8c0.9-0.35,1.91-0.41,2.87-0.6c0.69-0.14,1.38-0.31,2.08-0.46c0.13-0.03,0.26-0.1,0.38-0.1
			c2.66,0.08,5.3-0.51,7.96-0.28c0.44,0.04,0.87,0.16,1.3,0.28C408.96,100.39,409.37,100.54,409.92,100.72z M427.41,118.77
			c2.91-1,5.02-2.83,6.56-5.5c0.28-0.81,0.62-1.76,0.95-2.71c0.17-0.5,0.4-0.98,0.49-1.49c0.08-0.46-0.02-0.95,0.03-1.41
			c0.05-0.44,0.2-0.86,0.33-1.38c-1.08-0.43-2.13-0.84-2.96-1.17c-0.32-0.43-0.5-0.67-0.66-0.9c-1.55,0.24-2.55,1.55-3.9,1.78
			c-0.5,0.4-0.89,0.84-1.37,1.07c-0.6,0.28-1.03,0.73-1.51,1.14c-1.6,1.4-2.62,3.23-3.87,4.9c-1.04,1.4-1.21,2.85-1.04,4.49
			c1.31-0.14,2.56,0.2,3.79-0.28c0.28-0.11,0.69,0.04,1.05,0.13C426.15,117.67,426.84,118.1,427.41,118.77z"/>
		<path d="M147.59,98.08c0.06-0.9-0.19-1.75,0.38-2.53c1.12-0.37,2.29-0.8,3.09-1.72c0.41-0.1,0.79-0.11,1.1-0.28
			c0.77-0.42,1.41-1.09,2.33-1.23c0.46-1.02,1.58-0.96,2.39-1.38c1.98-1.02,4.1-1.75,6.08-2.77c0.27-0.14,0.62-0.11,0.99-0.16
			c0.32-0.32,0.69-0.69,1.1-1.1c1.32,0.27,2.35-0.54,3.53-1.16c0.14,0.09,0.32,0.21,0.45,0.28c0.68-0.18,1.37-0.26,1.94-0.55
			c1.85-0.94,3.82-0.41,5.73-0.54c0.52-0.04,1.04,0,1.56-0.01c1.51-0.01,2.89,0.46,4.2,1.14c0.22,0.12,0.5,0.31,0.56,0.52
			c0.23,0.8,0.86,1.28,1.33,1.78c0.11,0.49,0.21,0.92,0.33,1.43c-0.36,0.62-0.31,1.4-0.13,2.16c0.23,0.96,0.15,1.73,0.02,2.68
			c-0.13,0.94-0.68,1.72-0.77,2.68c-0.09,0.99-0.91,1.69-1.4,2.53c-0.74,1.27-1.72,2.4-2.45,3.67c-0.29,0.51-0.69,0.85-1.04,1.26
			c-0.37,0.43-0.97,0.74-1.16,1.22c-0.46,1.19-1.46,1.87-2.24,2.76c-0.64,0.72-1.28,1.45-1.9,2.19c-0.51,0.62-1.23,1-1.71,1.67
			c-0.5,0.68-1.21,1.19-1.77,1.83c-1.31,1.5-3.02,2.48-4.58,3.67c-0.36,0.27-0.74,0.53-1.07,0.84c-1.25,1.2-2.75,2.02-4.41,2.32
			c0,0.48,0.03,0.99-0.01,1.49c-0.04,0.49,0.12,0.97-0.23,1.47c-0.18,0.26-0.23,0.89,0.14,1.31c0.13,0.14,0.09,0.43,0.09,0.44
			c0.46,0.52,0.8,0.9,1.12,1.26c0,0.7,0,1.35,0,2.14c-0.25,0.2-0.58,0.46-0.85,0.68c0,0.4,0,0.68,0,0.95
			c-0.14,0.14-0.28,0.28-0.42,0.42c-0.52,0-1.04,0.05-1.55-0.01c-0.48-0.06-0.94-0.24-1.42-0.37c-0.55-0.79-0.88-1.64-0.86-2.62
			c0.02-1.04,0.03-2.08,0-3.12c-0.02-0.69,0.1-1.35,0.28-2.01c0.17-0.65-0.18-1.37,0.28-2.02c0.13-0.19,0.03-0.55,0.02-0.84
			c-0.03-0.62,0.08-1.18,0.56-1.61c0.03-0.54-0.01-1.06,0.26-1.59c0.23-0.46-0.2-1.12,0.31-1.57c-0.19-0.84,0.31-1.61,0.28-2.43
			c-0.04-1.1,0.18-2.14,0.51-3.19c0.16-0.52,0.01-1.12,0.06-1.68c0.05-0.64-0.21-1.31,0.17-1.91c0.35-0.57-0.24-1.32,0.38-1.83
			c0.05-0.04,0.01-0.18,0.01-0.28c0-1.98,0-3.97,0-5.95c-0.54-1.2-0.16-2.47-0.31-3.7c-0.13-0.13-0.27-0.27-0.35-0.35
			c-2.96,0.97-5.21,3.05-7.7,4.76C149.67,99.13,148.42,99.36,147.59,98.08z M179.89,89.32c-1.13-0.26-2.03-0.51-2.95-0.66
			c-0.99-0.16-2.04,0.26-3-0.3c-0.64,0.27-1.29,0.55-2.01,0.85c-0.73-0.06-1.55-0.01-2.25,0.47c-0.57,0.39-1.19,0.39-1.8,0.44
			c-0.43,0.21-0.89,0.35-1.35,0.51c-0.21,0.07-0.43,0.13-0.6,0.25c-0.59,0.41-1.23,0.65-1.89,0.91c-0.75,0.3-1.62,0.55-2.04,1.47
			c0.1,0.2,0.25,0.38,0.29,0.59c0.06,0.27,0.15,0.61,0.03,0.82c-0.23,0.43-0.37,0.72-0.03,1.23c0.24,0.37,0,1.03,0.17,1.48
			c0.18,0.47,0.25,0.82-0.02,1.28c-0.15,0.25-0.19,0.67-0.08,0.94c0.46,1.13,0.19,2.29,0.25,3.43c0.02,0.35-0.05,0.68-0.18,1.05
			c-0.26,0.75-0.43,1.61-0.33,2.39c0.08,0.62,0.39,1.17-0.05,1.76c0.22,0.85-0.37,1.6-0.29,2.43c0.08,0.83-0.49,1.58-0.29,2.43
			c0.03,0.13,0.04,0.32-0.04,0.4c-0.47,0.49-0.14,1.08-0.24,1.6c-0.1,0.51-0.2,1.03-0.32,1.69c0.63-0.15,1.13-0.27,1.75-0.42
			c0.38-0.41,0.84-0.88,1.28-1.36c0.21,0,0.39,0,0.56,0c1.81-1.72,3.61-3.42,5.41-5.12c0.24-0.23,0.55-0.43,0.66-0.72
			c0.32-0.77,1.05-1.16,1.54-1.77c0.49-0.6,0.89-1.39,1.53-1.74c0.82-0.46,1.03-1.37,1.76-1.83c-0.04-0.46,0.34-0.65,0.61-0.88
			c1.3-1.07,1.94-2.55,2.6-4.03c1.01-0.28,1.04-1.11,1.08-1.82c0.41-0.55,0.81-1,1.08-1.51c0.13-0.25,0.1-0.58,0.28-0.88
			c0.16-0.28-0.09-0.82,0.08-1.09c0.2-0.31,0.25-0.58,0.24-0.9C181.28,91.36,180.83,90.17,179.89,89.32z"/>
		<path d="M357.72,118.85c0.02-0.54,0.01-1.06,0.26-1.6c0.22-0.47-0.18-1.11,0.31-1.57c-0.19-0.84,0.31-1.61,0.28-2.43
			c-0.04-1.1,0.18-2.14,0.52-3.19c0.17-0.51,0.01-1.12,0.06-1.68c0.05-0.64-0.21-1.31,0.17-1.91c0.35-0.56-0.24-1.32,0.38-1.84
			c0.07-0.06,0.01-0.27,0.01-0.41c0-1.89,0.18-3.8-0.06-5.66c-0.17-1.29-0.13-2.57-0.24-3.84c-0.11-0.11-0.21-0.21-0.32-0.32
			c-0.05,0.01-0.12,0-0.18,0.03c-2.13,0.73-3.93,2.03-5.68,3.4c-0.6,0.47-1.25,0.87-1.88,1.31c-0.64,0-1.3,0-1.98,0
			c-0.43-0.31-0.87-0.62-1.27-0.91c0-0.74,0-1.41,0-1.97c0.14-0.27,0.24-0.47,0.36-0.7c1.14-0.37,2.3-0.81,3.11-1.72
			c0.41-0.1,0.79-0.12,1.1-0.28c0.78-0.4,1.4-1.1,2.33-1.22c0.44-1.05,1.58-0.96,2.39-1.38c1.98-1.02,4.09-1.75,6.08-2.77
			c0.27-0.14,0.62-0.1,0.98-0.15c0.33-0.33,0.7-0.7,1.1-1.1c1.33,0.27,2.35-0.54,3.52-1.15c0.11,0.07,0.27,0.15,0.53,0.31
			c0.86-0.5,2.03-0.39,2.97-1.04c0.16-0.11,0.44-0.08,0.67-0.08c2.03-0.01,4.07-0.06,6.1,0.02c1.33,0.05,2.57,0.57,3.78,1.13
			c0.19,0.09,0.37,0.32,0.43,0.52c0.22,0.81,0.86,1.28,1.33,1.78c0.12,0.5,0.22,0.93,0.34,1.43c-0.38,0.63-0.31,1.41-0.13,2.16
			c0.22,0.94,0.14,1.72,0.01,2.68c-0.13,0.94-0.68,1.72-0.77,2.68c-0.09,0.99-0.91,1.69-1.4,2.53c-0.74,1.27-1.72,2.4-2.45,3.67
			c-0.29,0.51-0.69,0.85-1.04,1.26c-0.37,0.43-0.97,0.74-1.16,1.22c-0.44,1.14-1.38,1.81-2.14,2.66c-0.68,0.76-1.35,1.51-2,2.29
			c-0.51,0.61-1.23,1-1.71,1.67c-0.5,0.68-1.21,1.19-1.77,1.83c-1.32,1.49-3.02,2.49-4.58,3.66c-0.36,0.27-0.73,0.55-1.07,0.84
			c-1.25,1.1-2.58,2.05-4.4,2.32c0,0.48,0.03,0.99-0.01,1.5c-0.04,0.49,0.12,0.97-0.23,1.47c-0.18,0.26-0.24,0.89,0.14,1.31
			c0.13,0.14,0.09,0.43,0.09,0.43c0.46,0.52,0.8,0.9,1.12,1.27c0,0.7,0,1.36,0,2.14c-0.25,0.2-0.58,0.46-0.85,0.68
			c0,0.39,0,0.67,0,0.94c-0.15,0.15-0.28,0.28-0.42,0.42c-0.86-0.03-1.73,0.08-2.58-0.26c-0.33-0.13-0.56-0.26-0.67-0.58
			c-0.25-0.71-0.61-1.38-0.58-2.18c0.04-1.04,0.04-2.08,0-3.12c-0.02-0.7,0.11-1.35,0.28-2.01c0.16-0.65-0.15-1.37,0.28-2.02
			c0.13-0.2,0.03-0.55,0.02-0.84C357.12,119.84,357.24,119.28,357.72,118.85z M368.4,90.18c-0.46,0.15-0.92,0.29-1.37,0.45
			c-0.21,0.07-0.43,0.13-0.6,0.25c-0.59,0.39-1.22,0.66-1.89,0.92c-0.76,0.29-1.62,0.55-2,1.37c0.11,0.45,0.27,0.83,0.28,1.22
			c0,0.34-0.24,0.68-0.24,1.02c0,0.34,0.22,0.67,0.25,1.02c0.04,0.45,0.13,0.87,0.25,1.31c0.12,0.42-0.16,0.95-0.23,1.43
			c-0.03,0.23-0.04,0.48,0.01,0.7c0.34,1.49,0.33,2.96,0.04,4.19c-0.18,0.79-0.39,1.62-0.3,2.4c0.07,0.61,0.42,1.17-0.05,1.75
			c0.21,0.8-0.27,1.51-0.3,2.29c-0.03,0.81-0.18,1.62-0.27,2.43c-0.02,0.18,0.06,0.44-0.04,0.54c-0.47,0.49-0.14,1.08-0.24,1.61
			c-0.1,0.51-0.2,1.03-0.33,1.7c0.63-0.15,1.13-0.27,1.72-0.4c0.4-0.42,0.86-0.89,1.31-1.37c0.2,0,0.39,0,0.54,0
			c1.52-1.42,3.03-2.81,4.52-4.22c0.55-0.52,1.19-0.99,1.56-1.63c0.41-0.71,1.06-1.15,1.55-1.76c0.49-0.6,0.89-1.37,1.53-1.74
			c0.76-0.44,1.03-1.23,1.65-1.75c0.3-0.25,0.42-0.71,0.72-0.96c1.28-1.08,1.97-2.54,2.59-4.03c1.01-0.29,1.06-1.1,1.08-1.82
			c0.41-0.55,0.81-1,1.08-1.51c0.14-0.25,0.09-0.58,0.28-0.88c0.17-0.27-0.1-0.82,0.07-1.09c0.19-0.31,0.26-0.58,0.24-0.9
			c-0.08-1.39-0.5-2.62-1.58-3.52c-0.21,0-0.37,0.04-0.49-0.01c-1.44-0.55-2.93-0.62-4.44-0.57c-0.29,0.01-0.59-0.16-0.9-0.26
			c-0.62,0.26-1.26,0.53-2,0.84c-0.72-0.07-1.53,0.01-2.24,0.47C369.6,90.05,368.99,90.09,368.4,90.18z"/>
		<path d="M310.65,106.28c-0.01,0.77,0.09,1.48-0.29,2.09c-0.34,0.55-0.27,1.14-0.28,1.73c-0.01,1.09,0.03,2.17-0.01,3.26
			c-0.04,0.86-0.26,1.72-0.25,2.58c0,1.3,0.36,2.57,0.65,3.84c0.23,0.98,0.51,1.96,1.34,2.92c0.03,0.02,0.29,0.18,0.44,0.28
			c0.51,1.19-0.75,1.93-0.43,3c-1.33,0.4-2.28-0.12-3.05-1.08c-0.53-0.66-1.02-1.37-1.51-2.04c0.06-1.03-0.33-1.95-0.6-2.89
			c-0.07-0.25-0.23-0.49-0.25-0.74c-0.08-0.86,0.15-1.75-0.28-2.58c-0.08-0.15-0.07-0.4,0-0.56c0.47-1.11,0.39-2.2,0.01-3.32
			c-0.09-0.26-0.02-0.59,0.14-0.92c0.19-0.41,0.36-0.88,0.16-1.42c-0.11-0.31,0.21-0.75,0.23-1.15c0.04-0.7,0.01-1.4,0.01-2.25
			c-1.35,0.48-2.4,1.52-3.66,1.49c-0.62-0.38-1.11-0.68-1.69-1.04c0-0.47,0-1.07,0-1.72c0.73-0.91,1.98-1.06,2.97-1.8
			c1.21,0.26,2.03-0.61,2.93-1.27c0.43-0.32,0.84-0.68,1.2-0.97c1.12,0.49,2.14,0.93,3.21-0.02c0.83,0.03,1.67,0,2.46-0.46
			c0.5-0.29,1.2,0.1,1.68-0.39c1.85-0.24,3.68-0.77,5.58-0.57c1.54-0.48,3.14-0.18,4.7-0.3c0.76-0.05,1.42,0.22,2.11,0.39
			c0.35,0.08,0.69,0.17,1.14,0.29c0.64,0.73,1.61,1.35,2.05,2.49c-0.46,1.59-0.81,3.27-1.71,4.77c-0.3,0.51-0.56,1.02-1,1.43
			c-1.51,1.39-2.98,2.83-4.5,4.2c-1.16,1.04-2.37,2.02-3.57,3.01c-0.24,0.19-0.53,0.32-0.75,0.45c-0.14,0.44-0.27,0.81-0.42,1.28
			c0.17,0.07,0.46,0.1,0.52,0.24c0.27,0.63,0.78,0.79,1.38,0.75c1-0.08,2.04,0.25,3-0.27c0.07-0.04,0.19,0,0.28-0.01
			c1.43-0.09,2.87-0.07,4.27-0.33c0.92-0.17,1.81-0.21,2.72-0.25c0.39-0.02,0.77-0.25,1.16-0.25c0.34,0,0.76,0.34,1,0.23
			c0.66-0.32,1.41-0.05,1.99-0.32c0.42-0.2,0.8-0.24,1.19-0.2c1.96,0.19,3.88-0.43,5.84-0.31c0.33,0.02,0.67-0.22,1.02-0.26
			c0.89-0.09,2,0.42,2.83,1.22c-0.37,1.08-1.17,1.42-2.24,1.32c-0.64-0.05-1.3-0.05-1.86,0.29c-0.51,0.31-1.05,0.23-1.59,0.28
			c-0.53,0.05-1.06,0.18-1.58,0.28c-0.53,0.1-1.11-0.22-1.61,0.24c-0.13,0.12-0.45,0.05-0.68,0.04c-2.19-0.04-4.3,0.55-6.44,0.89
			c-0.11,0.02-0.21,0.17-0.3,0.26c-0.43-0.05-0.71-0.48-1.27-0.17c-0.56,0.31-1.28,0.4-1.94,0.42c-0.63,0.02-1.11,0.28-1.66,0.62
			c-0.57-0.44-1.27-0.41-1.93-0.26c-1.31,0.3-2.91,0.24-4.2,0.01c-0.62-0.11-1.22-0.27-1.81-0.45c-1.23-0.38-2-1.31-2.6-2.4
			c-0.11-0.19-0.19-0.39-0.24-0.5c0.19-0.99,0.37-1.91,0.54-2.78c0.78-0.96,1.86-1.61,2.42-2.73c0.04-0.08,0.12-0.17,0.2-0.2
			c1.8-0.69,2.86-2.47,4.62-3.21c0.14-0.63,1.01-0.64,1.12-1.36c0.03-0.23,0.46-0.41,0.71-0.6c1.33-0.97,2.51-2.35,2.55-4.21
			c-0.83-0.2-1.68-0.49-2.54-0.59c-0.93-0.1-1.89-0.05-2.83-0.01c-0.48,0.02-0.96,0.2-1.44,0.27c-0.44,0.06-0.93-0.12-1.31,0.28
			c-0.07,0.07-0.27,0.01-0.41,0.01c-1.01-0.03-2-0.04-2.91,0.52c-0.1,0.06-0.27,0.06-0.4,0.04c-1.28-0.16-2.34,0.45-3.43,0.97
			C311.26,105.9,311,106.08,310.65,106.28z"/>
		<path d="M238.34,109.19c0.49-0.44,0.59-1,0.57-1.62c-0.01-0.31,0.1-0.6,0.2-0.9c0.19-0.63,0.46-1.26,0.39-1.98
			c-0.05-0.51,0.2-1.05,0.25-1.58c0.05-0.49,0.15-0.97,0.24-1.45c0.1-0.56,0.53-0.74,0.74-1.12c0.38,0.07,0.74-0.09,1.1,0.19
			c0.21,0.16,0.7,0.2,0.91,0.06c0.64-0.41,1.17-0.3,1.78,0.03c0.22,0.12,0.54,0.02,0.92,0.02c0.28,0.79,0.58,1.57,0.83,2.36
			c0.14,0.47,0.24,0.95,0.28,1.44c0.05,0.61-0.06,1.24,0.03,1.84c0.09,0.55,0.3,1.11,0.56,1.6c0.29,0.56,0.26,1.14,0.27,1.61
			c0.51,0.94,0.96,1.8,1.44,2.64c0.2,0.36,1.42,1.19,2.28,1.61c1.49-0.75,3.09-1.46,4.59-2.36c0.74-0.44,1.37-1.16,1.88-1.87
			c1.04-1.43,1.79-3.05,2.83-4.49c0.27-0.37,0.27-0.93,0.42-1.52c-0.07,0.07-0.04,0.03,0,0c0.24-0.18,0.67-0.32,0.7-0.53
			c0.19-1.14,1.16-2.07,0.86-3.31c1.2-0.82,2.31-0.35,3.44,0.12c0.62,0.25,0.9,0.82,1.07,1.33c0.13,0.4,0.26,0.86,0.3,1.29
			c0.16,1.56,0.21,3.13,0.31,4.7c0.04,0.61-0.08,1.17-0.58,1.64c0.11,1.62-0.28,3.19-0.77,4.75c-0.08,0.26-0.07,0.55-0.07,0.82
			c-0.01,1.32,0,2.64,0,3.98c0.2,0.34,0.4,0.68,0.59,1.01c1.2,0.27,2.45-0.27,3.61,0.46c0,0.34,0,0.75,0,1.2
			c-0.02,0.01-0.09,0.07-0.16,0.11c-0.71,0.45-1.42,0.87-2.29,0.98c-0.5,0.06-1.05,0.28-1.44,0.59c-1.06,0.84-1.94,0.22-2.81-0.28
			c-0.33-0.19-0.68-0.47-0.64-1.01c0.02-0.27-0.19-0.59-0.38-0.82c-0.5-0.62-0.56-1.42-0.67-2.12c-0.11-0.72-0.31-1.56,0.19-2.3
			c0.11-0.16,0.01-0.46,0.04-0.69c0.15-1.38,0.41-2.73,0.74-4.08c0.3-1.22,0.61-2.5,0.31-3.9c-0.85,1.22-1.76,2.33-2.43,3.57
			c-0.38,0.69-1.01,1.07-1.44,1.66c-0.21,0.28-0.46,0.54-0.9,1.04c-0.6,0.25-1.49,0.65-2.16,1.44c-0.25,0.3-0.64,0.49-0.97,0.71
			c-0.22,0.14-0.46,0.26-0.69,0.38c-0.94,0.47-1.83,1.15-2.82,1.36c-1.08,0.24-2.25,0.05-3.31,0.05c-0.74-0.45-1.42-0.85-2.02-1.22
			c-0.55-0.9-1.1-1.76-1.61-2.63c-0.22-0.38-0.45-0.77-0.54-1.19c-0.17-0.81-0.51-1.51-1.03-2.09c-0.15-0.86-0.3-1.69-0.49-2.74
			c-0.34,0.99-0.4,1.79-0.53,2.58c-0.2,1.24-0.2,2.47-0.26,3.71c-0.01,0.33-0.21,0.66-0.37,0.97c-0.29,0.57-0.28,1.11,0.07,1.64
			c-0.17,0.17-0.33,0.33-0.52,0.52c0,1.3,0,2.62,0,4.01c0.64,0.58,1.32,1.21,2.02,1.85c-0.59,0.65-1.11,1.21-1.83,1.98
			c-0.3,0.05-0.91,0.23-1.53,0.23c-0.57,0-1.13-0.21-1.75-0.34c-0.05-0.31-0.1-0.66-0.16-1.01c-0.05-0.31-0.09-0.62-0.19-0.91
			c-0.42-1.31-0.62-2.65-0.55-4.02c0.03-0.58,0.2-1.15,0.27-1.73c0.06-0.54,0.08-1.05,0.24-1.6c0.2-0.7,0.05-1.5,0.05-2.25
			c0-0.64-0.05-1.27,0.28-1.87C238.49,110.95,238.31,110.05,238.34,109.19z"/>
		<path d="M296.44,117.29c0.35,0,0.82,0,1.34,0c0.57,0.87,0.98,1.73,0.3,2.8c-0.78,1.23-1.44,2.52-2.19,3.77
			c-0.21,0.35-0.52,0.66-0.83,0.93c-0.59,0.5-1.22,0.96-1.98,1.55c-0.65,0.14-2.53,1.08-3.25,1.69c-0.99,0-2.02,0-3.17,0
			c-0.28-0.15-0.47-0.66-1.06-0.56c-0.3,0.05-0.71-0.14-0.97-0.35c-1.02-0.85-1.9-1.86-2.3-3.15c-0.37-1.2-0.75-2.41-0.63-3.72
			c0.1-0.98-0.02-1.98,0.03-2.97c0.03-0.72,0.18-1.43,0.27-2.15c0.03-0.23,0.02-0.47,0-0.71c-0.12-1.72-0.11-1.72,0.56-3.22
			c0.2-0.45,0.27-0.93,0.32-1.43c0.13-1.27-0.33-2.47-0.31-3.71c0-0.19,0-0.37,0-0.52c0.31-0.44,0.6-0.85,0.9-1.27
			c0.44,0,0.85,0,1.16,0c0.24-0.33,0.37-0.73,0.61-0.81c1.17-0.38,2.09-1.33,3.36-1.47c0.58-0.54,1.44-0.07,2.03-0.57
			c1.63,0.2,3.22-0.31,4.84-0.29c1.65,0.02,3.33-0.15,4.95,0.06c1.1,0.14,2.19,0.2,3.27,0.24c0.11,0.11,0.21,0.21,0.37,0.37
			c0,0.35,0,0.77,0,1.27c-0.52,0.38-1.17,0.63-1.91,0.63c-1.61,0-3.21,0.01-4.82,0c-0.42,0-0.82,0-1.16,0.29
			c-0.34,0.29-0.74,0.3-1.16,0.29c-0.52-0.01-1.03,0-1.52,0.11c-0.7,0.25-1.39,0.53-2.1,0.73c-0.81,0.23-1.66,0.32-2.45,0.6
			c-0.82,0.29-1.59,0.72-2.38,1.09c0,1.17,0,2.24,0,3.32c0.09,0.09,0.19,0.19,0.39,0.39c0.12,0,0.38,0.07,0.56-0.01
			c0.88-0.41,1.81-0.2,2.72-0.28c0.72-0.06,1.43,0.17,2.17-0.23c0.56-0.3,1.3-0.05,2-0.26c1.12-0.34,2.36-0.29,3.57-0.41
			c0.22,0.29,0.41,0.56,0.72,0.98c0,0.13,0,0.5,0,0.88c-0.23,0.31-0.46,0.63-0.76,1.04c-1.73-0.19-3.31,0.82-5.04,1.19
			c-0.23,0.05-0.46,0.23-0.75,0.24c-0.45,0-0.88-0.03-1.32,0.25c-0.35,0.22-0.93-0.17-1.29,0.28c-0.94,0-1.88,0-2.85,0
			c-0.31,0.35-0.62,0.7-1,1.12c-0.16,0.77,0.27,1.74-0.24,2.5c0.08,0.46,0.2,0.85,0.22,1.24c0.05,0.91-0.01,1.81,0.27,2.72
			c0.33,1.1,0.64,2.16,2.14,2.66c0.39,0.05,1.04,0.01,1.62-0.47c0.23-0.19,0.54-0.34,0.83-0.37c0.69-0.08,1.13-0.51,1.61-0.93
			c0.5-0.44,1.07-0.8,1.71-1.27c0.3-0.55,0.68-1.25,1.17-2.15c0-0.03,0-0.3,0-0.62C295.48,118.17,295.93,117.76,296.44,117.29z"/>
		<path d="M279.35,119.51c-0.5,0.44-0.86,0.75-1.4,1.23c-0.82-0.08-1.89-0.18-2.87-0.28c-0.36-0.5-0.63-0.85-0.89-1.22
			c-0.67-0.94-1.14-1.92-1-3.14c0.06-0.56-0.22-1.14-0.24-1.72c-0.02-0.64-0.05-1.33,0.17-1.91c0.24-0.61-0.23-1.33,0.36-1.83
			c0.11-1.61,0.55-3.22,0.27-4.82c-0.12-0.71-0.29-1.35,0-2.03c0.01-0.03-0.12-0.13-0.18-0.19c0.21-0.36,0.41-0.73,0.75-1.32
			c0.04-0.02,0.35-0.18,0.64-0.33c0.97,0.22,1.87,0.49,2.17,1.59c0.13,0.58-0.01,1.2,0.29,1.84c0.17,0.36,0.26,1-0.13,1.46
			c-0.08,0.09-0.11,0.26-0.09,0.38c0.2,1.49-0.32,2.93-0.31,4.42c0,0.62-0.16,1.25-0.27,1.86c-0.2,1.08,0.42,2.06,0.26,3.21
			c0.36,0.14,0.69,0.26,1.11,0.41C278.41,117.81,278.35,118.87,279.35,119.51z"/>
	</g>
</g>
</svg>
