<svg xmlns="http://www.w3.org/2000/svg" width="290.97" height="241.08" viewBox="0 0 290.97 241.08"><path d="M148.5,133.41c2.38-53.92,80.36-92,141.92-92.14C354,41.18,429.75,81.56,432.34,132.1c2.82,54.76-80.87,104.8-155.45,99.13C216.14,226.61,146.19,185.79,148.5,133.41Z" transform="translate(-144.95 -37.77)" fill="none" stroke="#000" stroke-miterlimit="10" stroke-width="7"/><path d="M292.17,275.34q.21-12.1,0-24.89-.14-7.77-.44-15.28" transform="translate(-144.95 -37.77)" fill="none" stroke="#000" stroke-linecap="round" stroke-miterlimit="10" stroke-width="7"/><path d="M314.37,165.72a3.77,3.77,0,0,1,.43,1.57,2.34,2.34,0,0,0,.25.92,1,1,0,0,1-.39,1.33,4.27,4.27,0,0,0-.93,1,1.63,1.63,0,0,1-.14.18,3.66,3.66,0,0,0-1.69.22,1.4,1.4,0,0,1-.6,0c-.14,0-.28-.05-.46-.08l-.3-.27a2.25,2.25,0,0,1-1.5.15,3.9,3.9,0,0,1-1.49-.58,4.88,4.88,0,0,0-1.39-.69,4.53,4.53,0,0,1-.59-.28,4.82,4.82,0,0,0-.42-.65c-.46-.53-.93-1-1.41-1.54a4.22,4.22,0,0,1-.91-1.36,1.41,1.41,0,0,0-.34-.54h-.43v-.8l-.47-.49h-.26s-.06-.08-.06-.11a2.89,2.89,0,0,0-.82-1.91c-.29-.37-.7-.65-.82-1.12a2.59,2.59,0,0,0-1.18-.21c-.34,0-.68,0-1,0a11.35,11.35,0,0,0-1.42.13c-.45.08-.89.26-1.34.34a5.8,5.8,0,0,0-1.66.65,2,2,0,0,1-1.39.1,1.6,1.6,0,0,0-1.14,0,2.78,2.78,0,0,1-.8.26c-.38.07-.78.09-1.16.14-.18,0-.35.09-.53.12s-.39-.08-.54.11c0,0-.07,0-.12,0-.53.05-1.08.06-1.61.14a21.63,21.63,0,0,0-2.77.46,12.44,12.44,0,0,0-2,.73,2.12,2.12,0,0,0-.28,1.19,3.76,3.76,0,0,0-1,1.77c-.24.66-.44,1.33-.66,2a1.09,1.09,0,0,1-.2.42,1.14,1.14,0,0,0-.31,1,2.32,2.32,0,0,1-.51,1.72,5,5,0,0,0-.77,1.74,10.05,10.05,0,0,0-.26,1.05,3,3,0,0,1-1.33,1.82,1.72,1.72,0,0,1-.64.16,7.93,7.93,0,0,1-1.09,0,2.85,2.85,0,0,1-1.22-.47,3.91,3.91,0,0,1-1.39-2.12c-.1-.26-.12-.54-.22-.81a.85.85,0,0,1,.07-.65,7.71,7.71,0,0,1,.76-1.35,8.85,8.85,0,0,0,.68-1.59,3.21,3.21,0,0,0,.11-.52,2.35,2.35,0,0,0,1-1.12,2.92,2.92,0,0,0,.53-1.65,1.9,1.9,0,0,1,.17-.58c.67-.4.75-1.11.89-1.79a1.42,1.42,0,0,0-.85-.23,14.11,14.11,0,0,1-2.07-.14,5,5,0,0,1-1.52-.37,1.74,1.74,0,0,1-.22-.15v-.72c-.55.21-1.07.44-1.61.59-.26.07-.56.08-.83.16a1.36,1.36,0,0,0-.5.18,4.15,4.15,0,0,1-1.62.61,3.07,3.07,0,0,0-1,.32,2.37,2.37,0,0,1-1.16.32,8.6,8.6,0,0,0-1.48.29c-.6.14-1.19.36-1.8.48-.34.07-.68.22-1,.29-.54.1-1.06.28-1.6.34-.24,0-.48.08-.72.13s-.51-.12-.72.12c-.37,0-.76.12-1.13-.14a14.57,14.57,0,0,1-1.52.8,1,1,0,0,1-.83.09,1.72,1.72,0,0,0-.48-.1l-1-.13c-.33,0-.67.1-1-.12,0,0-.13,0-.19,0a7.9,7.9,0,0,1-1.94-.15,10.66,10.66,0,0,1-1.9-.38,4.42,4.42,0,0,1-1-.63c-.12,0-.35,0-.58,0a2.32,2.32,0,0,1-1.47-.48c-.54-.36-1.14-.59-1.7-.89a2.81,2.81,0,0,0-.75-.18A4,4,0,0,1,239.7,162l-.64.19-1-.9a3.37,3.37,0,0,1-.64-.89c-.35-.67-.72-1.33-1.09-2a1.14,1.14,0,0,0-.18-.3,2.17,2.17,0,0,1-.5-1.15,8.05,8.05,0,0,1-.13-1.62,8.23,8.23,0,0,0-.19-.9l-.45-.88c0-.07.13-.18.12-.28a9.81,9.81,0,0,1,.16-1.95,4.16,4.16,0,0,1,.22-1.19,4.44,4.44,0,0,0,.12-.9c.07-.47.23-.91.3-1.37s.23-.89.34-1.33.26-.93.39-1.39a5.51,5.51,0,0,1,.4-1.31c0-.07,0-.17,0-.26s.13-.51.32-.55.28-.34.45-.48A4.58,4.58,0,0,1,238,141a14.89,14.89,0,0,1,.49-1.66,14.5,14.5,0,0,1,1.42-3.07,9.36,9.36,0,0,1,.75-.94,5.4,5.4,0,0,1,.66-2.47c.19-.39.32-.82.52-1.2s.56-.93.82-1.4a17,17,0,0,0,1.46-3,2,2,0,0,0,0-.24c0-.31.06-.32.49-.38a4.1,4.1,0,0,1,.92-2.11c.25-.36.5-.73.72-1.12a1.82,1.82,0,0,0,.31-1.18c.44-.36.87-.68,1.27-1a10.67,10.67,0,0,0,1.18-1.5c.36-.45.72-.9,1.05-1.37a7,7,0,0,1,1.1-1.21,6,6,0,0,1,1-.67.85.85,0,0,0,.17-.82l1.57-1.07a17.32,17.32,0,0,1,1.71-1,14,14,0,0,0,1.83-1.19c.3-.21.59-.43.87-.64h1.57a3.39,3.39,0,0,1,.75-.35,3.57,3.57,0,0,1,1.3,0,7.31,7.31,0,0,1,1.77.88,6.2,6.2,0,0,0,1.69.84,3.55,3.55,0,0,1,.66,1.39c.14.54.32,1.07.47,1.61a1.7,1.7,0,0,1,0,.39,2.6,2.6,0,0,1-.1.4,6.82,6.82,0,0,0-.29,1.56,8.22,8.22,0,0,1-.13,1,3.34,3.34,0,0,1-.1,1,3.94,3.94,0,0,0-.13,1.16,5.21,5.21,0,0,0-.5.71,7.64,7.64,0,0,1-1.92,2.66,4.62,4.62,0,0,1-.64,1.42,7.58,7.58,0,0,1-.68.82,8.77,8.77,0,0,0-1.06,1.29,1.91,1.91,0,0,1-1.23.74,2.16,2.16,0,0,1-1.79-.28,3,3,0,0,1-1.2-1.17,3.74,3.74,0,0,1-.66-1.59s-.08-.09-.13-.14a3.68,3.68,0,0,1,1.14-1.78c.59-.56,1.15-1.16,1.74-1.72a7.93,7.93,0,0,0,1.09-1.36,4,4,0,0,0,.41-1.18v-1l.77-.76c0-.24.06-.49-.27-.61-.39.28-.88.12-1.34.25a4.92,4.92,0,0,0-2.34,1.21c-.52.55-1,1.12-1.55,1.67a1,1,0,0,1-.68.36c-.21.28-.38.53-.57.76a8.34,8.34,0,0,0-.92,1,1.06,1.06,0,0,0-.19.51c0,.08-.1.17-.15.26h-.68l-.83,1a1.39,1.39,0,0,1-.15.19,4.1,4.1,0,0,0-1.14,1.53v.5a3.63,3.63,0,0,0-.74.66,1.39,1.39,0,0,1-.68.63,2.43,2.43,0,0,1-.19,1.12,3.1,3.1,0,0,0-.09.73,3.58,3.58,0,0,0-1,1.91,1.42,1.42,0,0,1-.62.9,1.53,1.53,0,0,0-.67,1.13c0,.24-.11.47-.14.71a1,1,0,0,1-.3.52,7.69,7.69,0,0,0-1.1,1.54,12.69,12.69,0,0,0-.67,1.26,25.27,25.27,0,0,0-1,2.48c-.19.6-.48,1.18-.76,1.83v1.32a4.36,4.36,0,0,0-.9,1.63,6.57,6.57,0,0,1-.63,1.61.87.87,0,0,0-.15.58,2.46,2.46,0,0,1-.08.58,1.12,1.12,0,0,1,.08.35,4.57,4.57,0,0,1-.11,1.56c-.07.18,0,.43,0,.63s-.24.36-.23.54-.14.68.07,1a.56.56,0,0,1,0,.12c0,.5.07,1,.13,1.49a11.67,11.67,0,0,0,.26,1.31,11,11,0,0,0,.51,1.46,2.35,2.35,0,0,0,1.38,1.29,2.37,2.37,0,0,0,1.33,1.84,8.81,8.81,0,0,0,1.06.54,6.89,6.89,0,0,0,1.19.39c.43.06.81.24,1.23.31a5.93,5.93,0,0,1,1.34.57,2.57,2.57,0,0,1,1.35,0c.21.05.41.13.62.19.06,0,.16,0,.19,0,.24-.23.53-.11.79-.12a8.28,8.28,0,0,1,1.22,0,17.24,17.24,0,0,0,2.39-.16,5,5,0,0,0,1.51-.38,3.24,3.24,0,0,0,.74-.52l.66.41a3.17,3.17,0,0,0,.73,0,16.7,16.7,0,0,0,4-1.36c.21,0,.41.15.56.1a11.16,11.16,0,0,0,1.42-.29,3.43,3.43,0,0,1,.69-.21c.1,0,.22.07.34.1.76-.34,1.53-.71,2.31-1s1.38-.52,2.06-.79a19.42,19.42,0,0,1,2-.69,18.9,18.9,0,0,1,2.09-.55.85.85,0,0,0,.47-.26,2.84,2.84,0,0,1,1.36-.76,10.5,10.5,0,0,1,1.24-.26l.72-.13a2.94,2.94,0,0,1,1.42-.82c.15-.38.33-.8.47-1.24.22-.7.4-1.41.63-2.12a4,4,0,0,0,.12-.78,2.09,2.09,0,0,1,.37-.88,6.11,6.11,0,0,0,.68-1.65,15.07,15.07,0,0,0,.29-1.49,12.75,12.75,0,0,0,.11-1.47,4.9,4.9,0,0,0,.79-1.83c.11-.57.18-1.15.34-1.72a7.29,7.29,0,0,0,.15-1,6.24,6.24,0,0,1,.77-2.52c-.06-.34.13-.76-.12-1.16a.48.48,0,0,1,0-.37,3.15,3.15,0,0,0,.36-1.59c0-.26.09-.52.11-.79s-.09-.61,0-.82c.21-.37,0-.77.2-1.14s.06-.75.18-1.09,0-.55.13-.78,0-.52.14-.71,0-.54.1-.8a6.1,6.1,0,0,0,.25-1.92l-.23-.19a5.37,5.37,0,0,1,.21-2.08.53.53,0,0,0,0-.12c0-.61.11-1.21.12-1.82,0-1,.19-1.93.15-2.9s0-1.93,0-2.9c0-.41-.1-.82-.12-1.23a5.5,5.5,0,0,0,0-1.22,8.62,8.62,0,0,1-.11-1.75c0-.31-.1-.61-.13-.92s0-.6,0-.9a5.84,5.84,0,0,1,.71-1,5.6,5.6,0,0,1,1-.66h1.05a5.43,5.43,0,0,1,.4.56c.15.25.26.54.42.78a.76.76,0,0,0,.57.32c.17,0,.34,0,.5,0,.1.23.18.46.29.66a3.49,3.49,0,0,0,.36.51l.14.12a.86.86,0,0,1,.65.27,4.12,4.12,0,0,0,1.47,2.21,3.25,3.25,0,0,0,1,2.85v.4l-.42.34a2.46,2.46,0,0,1,.68,1.25,10.16,10.16,0,0,1,.29,1.24,7.84,7.84,0,0,0,.44,1.48,1.53,1.53,0,0,0,.27.41c.14.15.3.3.48.48l-.46.49a11.54,11.54,0,0,1,1,2.48c.09.28.12.59.2.88.19.7.24,1.43.48,2.12a13,13,0,0,1,.3,1.3c.18.37.62.32.93.57l-.29.37c0,.33.08.72-.24,1l.36.54c0,.47-.12,1,.42,1.41-.1.23-.2.44-.28.67a.41.41,0,0,0,0,.31c.17.21,0,.48.14.65s0,.49.13.66,0,.46.12.66.05.63.14.91,0,.62.12.91c.14.63.14,1.27.26,1.89a9.47,9.47,0,0,0,.13,1c.1.32,0,.64.13.92s0,.55.13.78a4.91,4.91,0,0,1,.12.72,21.13,21.13,0,0,0,.72,3.05,6.11,6.11,0,0,1,.24,1l-.3.21v.53l.47.73a1,1,0,0,0-.11.27,6.32,6.32,0,0,0,.58,2.27,15.29,15.29,0,0,1,.86,2.09c.16.45,0,.88.15,1.34a4.52,4.52,0,0,0,1.69,1.2c.25.14.48.29.72.45a2.34,2.34,0,0,1,.6.88l-1,1.88a10.35,10.35,0,0,0,1.25,2.08c.46.7,1,1.34,1.49,2,.28.4.52.81.81,1.28.58,0,.95.58,1.59.64v.73a3.6,3.6,0,0,1,1.8-.31c.84,0,1.68,0,2.52,0A4.07,4.07,0,0,0,314.37,165.72ZM289,137l-.25.65c-.22.62-.39,1.26-.55,1.9-.11.46-.21.94-.33,1.4a7.81,7.81,0,0,0-.26,1.43c0,.6-.24,1.16-.3,1.76,0,.36-.17.74-.23,1.12a11.71,11.71,0,0,1-.28,1.17c-.18.74-.42,1.46-.57,2.21a1.16,1.16,0,0,0,0,.78,2,2,0,0,1,.07.41l-.79.78a1.4,1.4,0,0,1,0,.46c-.21.55-.16,1.15-.35,1.71-.12.37-.16.79-.28,1.17s-.26.76-.35,1.15-.26.71-.31,1.09a8,8,0,0,1-.36,1.19c.61,0,1.19,0,1.77,0a23.23,23.23,0,0,0,2.64-.14c.05,0,.11,0,.13,0,.23-.24.54,0,.78-.13A1.79,1.79,0,0,1,290,157c.42,0,.81-.23,1.23-.13.3-.27.68-.08,1-.18a5.24,5.24,0,0,1,1.13-.08,2.41,2.41,0,0,1,.38,0,1.27,1.27,0,0,0,1.18-.43,1.23,1.23,0,0,1,.41-.22,2.12,2.12,0,0,0,2.19-.46,10.36,10.36,0,0,0-.2-1.06c-.2-.7-.32-1.41-.45-2.12a6.38,6.38,0,0,1-.27-1.57,3.76,3.76,0,0,1-.36-1.32,10.37,10.37,0,0,1-.27-1.37,12.19,12.19,0,0,0-.3-1.62c-.2-.83-.24-1.68-.48-2.5a4.85,4.85,0,0,0-.11-.72c-.1-.23,0-.51-.13-.78s0-.6-.13-.91a9.67,9.67,0,0,1-.13-1c-.09-.42-.05-.86-.13-1.29s0-1.08-.13-1.62a15.58,15.58,0,0,1-.14-1.81s0-.11,0-.13c-.23-.18-.08-.44-.12-.65a3.06,3.06,0,0,1-.12-.66c0-.38-.24-.72-.14-1.1a14.56,14.56,0,0,1-.39-1.71c-.17-.57-.34-1.14-.54-1.7-.14-.4-.37-.77-.11-1.21.05-.08,0-.21,0-.33A2.44,2.44,0,0,1,292,127c-.23-.78-.32-1.62-.54-2.41a3.92,3.92,0,0,0-.5-1.4c-.16-.21-.31-.44-.47-.66a2.49,2.49,0,0,0-.17.53,10.37,10.37,0,0,1-.12,1.75c-.09.4,0,.82-.13,1.23a2.71,2.71,0,0,0,0,.7c0,.25-.1.48-.12.72a9.65,9.65,0,0,1-.11,1.31c-.11.56,0,1.16-.13,1.74a8.27,8.27,0,0,0,0,1.41c0,.46-.1.91-.15,1.36a.7.7,0,0,0-.23.15,2.31,2.31,0,0,0-.39,1.25c0,.41,0,.82,0,1.22S289,136.74,289,137Z" transform="translate(-144.95 -37.77)"/><path d="M317.35,111.34c.74-.36,1.41-.64,2.09-.92s1.14-.45,1.73-.64a7.71,7.71,0,0,1,1.71-.39c.32,0,.65-.12,1-.11s.69,0,1.05,0l.81-1,.31.46,1.05-.16.12.32a6.63,6.63,0,0,1,2-1.05.34.34,0,0,0,.18.11l1.43.13c.2,0,.39.1.59.12s.39,0,.58,0a4.87,4.87,0,0,0,1.42-.15,3.09,3.09,0,0,0,.84-.38,1.21,1.21,0,0,1,.16.16,2,2,0,0,0,1.48.62c.22,0,.43,0,.65,0a4.65,4.65,0,0,1,2.38.78,5.11,5.11,0,0,0,.57.33c.42.06.79.1,1.14.18a.92.92,0,0,1,.67.71,3.13,3.13,0,0,0,.86.36,1.82,1.82,0,0,0,.29.08,2.61,2.61,0,0,1,1.16.31,1.33,1.33,0,0,1,.24.43c.08.71.62,1,1.17,1.18s1,.37,1.46.62l.25.57-.08.06.61.56a9.92,9.92,0,0,1,1.61,2,8.83,8.83,0,0,0,1.24,1.58c-.05.47.33.87.16,1.33a4,4,0,0,1,1,1.37,2.23,2.23,0,0,0-.16,1.72,3.32,3.32,0,0,1,.17,1.09,5.06,5.06,0,0,0,0,1.1,11.19,11.19,0,0,1-.17,2.45,13.24,13.24,0,0,1-.65,2.75,25.93,25.93,0,0,1-1.64,3.88c-.32.58-.64,1.16-1,1.72s-.64,1.07-.93,1.61c-.37.69-.82,1.33-1.2,2a25.84,25.84,0,0,0-1.26,2.31,2.4,2.4,0,0,1-.27.53,3.61,3.61,0,0,1-.44.33,3.14,3.14,0,0,0-.32.31c.05.32-.15.47-.39.58s-.19.17-.27.3a9.51,9.51,0,0,1-.74,1.31c-.36.41-.62.9-1,1.33-.6.74-1.24,1.45-1.81,2.21a9.77,9.77,0,0,0-1.24,1.93,2.25,2.25,0,0,1-.3.39h-.37c-.3.39-.59.75-.87,1.13s-.33.52-.53.74c-.58.64-1.11,1.31-1.66,2-.82,1-1.73,1.82-2.63,2.7-.57.56-1.21,1.08-1.84,1.59a36.44,36.44,0,0,1-4.33,3.07,4.58,4.58,0,0,0-1.13,1.15l.12.22a5,5,0,0,0-.58.47c-.39.45-.77.92-1.14,1.4-.2.25-.34.55-.55.79a7.81,7.81,0,0,1-.74.62,6,6,0,0,1-1.26-.16,3.14,3.14,0,0,0-.66-.11c-.22,0-.44,0-.67-.11s-.38,0-.57,0a2.07,2.07,0,0,1-1.12-.14,1.43,1.43,0,0,1-.21-.12,2.67,2.67,0,0,0-.68-.37,4.63,4.63,0,0,0-1,0,5.73,5.73,0,0,1-.84-1.16,2.12,2.12,0,0,1-.55-1.25c-.2-.18-.12-.42-.09-.6.09-.44.17-.88.27-1.31a3.54,3.54,0,0,0,0-1.52,6.9,6.9,0,0,0-.29-1.29,12,12,0,0,0-.38-1.2,13.41,13.41,0,0,1,.08-1.89,1.24,1.24,0,0,0-.33-1.41l.37-.72c0-.95,0-2,0-3a8.5,8.5,0,0,1,.39-2.41c.07-.23.17-.38,0-.62a2.74,2.74,0,0,1-.25-.72,6.71,6.71,0,0,0,.25-.85,22.19,22.19,0,0,0,.25-4.53,11.2,11.2,0,0,0,0-1.16c-.08-.91.14-1.81.15-2.71a2.94,2.94,0,0,1,.25-1.05,3,3,0,0,0,.12-1.13l-.5-1c.25,0,.35-.24.36-.38a3.6,3.6,0,0,0-.26-2c0-.05.12-.11.12-.18,0-.46.18-.89.16-1.35,0-1.25,0-2.49,0-3.74a21,21,0,0,0-.15-2.51,5.52,5.52,0,0,0-.13-1.1c-.14-.38,0-.77-.12-1.11s0-.8-.12-1.17a12.06,12.06,0,0,1-.13-2.07,8.34,8.34,0,0,0-.17-.93c-.57,0-.83.51-1.4.76H312a9.71,9.71,0,0,1-3.7,2.34c-.71.3-1.45.52-2.16.82a3.83,3.83,0,0,1-.45.1c-.38-.34-.76-.67-1.11-1a3.59,3.59,0,0,1-.58-.72,1,1,0,0,1-.19-.57,4,4,0,0,1,.37-1.91c.15-.26.34-.46.5-.69a12.34,12.34,0,0,1,1.14-1.32l1.11.17a12.09,12.09,0,0,1,3.4-2,15,15,0,0,1,2.26-.76,1.83,1.83,0,0,0,.81-.51,4.19,4.19,0,0,1,1.78-1,1.2,1.2,0,0,1,.38,0Zm2.09,17s-.15.11-.14.16c.07.51-.16,1-.14,1.5a21,21,0,0,0,.12,3.36c.09.48,0,1,.12,1.49a3.92,3.92,0,0,1,0,1.28c-.05.45.16.86.13,1.3a9.74,9.74,0,0,0-.12,1.62,2.56,2.56,0,0,1-.19,1,4,4,0,0,0-.33,1.41c0,.07-.1.14-.11.21s0,.24,0,.29.09.33.09.49c0,.53,0,1.07,0,1.61,0,.15.06.35,0,.44s-.07.49-.12.73-.1.47-.12.71a4.23,4.23,0,0,1-.11,1,3.8,3.8,0,0,0,0,1c0,.3-.11.6-.12.91,0,.9,0,1.8,0,2.7a10.7,10.7,0,0,0,.13,2.65c-.1.8.17,1.59.13,2.39a1.22,1.22,0,0,0,.12.42,1.62,1.62,0,0,0-.24,1.15,8,8,0,0,0,.4,1.13c.19.41.59.53.85.8a8.85,8.85,0,0,1,.85-.39,11.37,11.37,0,0,0,2.53-1.51c.94-.67,1.88-1.34,2.85-2a5.75,5.75,0,0,0,1.64-1.32c.36-.48.83-.89,1.23-1.35.78-.92,1.69-1.72,2.5-2.63,1.07-1.2,2.27-2.27,3.27-3.55.56-.71,1.21-1.37,1.71-2.12a29.37,29.37,0,0,0,1.86-3c.09-.2.33-.36.36-.55a1.37,1.37,0,0,1,.48-.83,13.36,13.36,0,0,0,1.59-1.86c.51-.76,1.06-1.49,1.54-2.26s1-1.77,1.56-2.63c.35-.55.76-1.07,1.13-1.59.06-.38.11-.77.19-1.15a3.74,3.74,0,0,1,.17-.57l.64-1.8a8.62,8.62,0,0,0,.57-3v-.43l.52-.68a13,13,0,0,0-.11-2c-.1-.36-.15-.74-.26-1.12-.29-1-.73-1.93-1-2.93a3.13,3.13,0,0,1-.45-.24c-.15-.1-.34-.22-.39-.37a2.17,2.17,0,0,0-.62-.8H344l-.66-.67-.29-.63a4,4,0,0,0-.67-.35,10.22,10.22,0,0,1-1.31-.58,3.53,3.53,0,0,1-1.21-1,1.51,1.51,0,0,0-.73-.41c-.91-.23-1.77-.6-2.68-.82a8.06,8.06,0,0,0-1-.31c-.35,0-.67-.24-1-.14a2,2,0,0,0-1.1-.13c-.5,0-1,0-1.48,0a2.86,2.86,0,0,0-1.1.17,1.63,1.63,0,0,1-1.46-.16,5.94,5.94,0,0,1-2.12.77c-.14.24-.41,0-.57.18s-.42,0-.61.09c-.82.34-1.72.36-2.57.62a6.21,6.21,0,0,0-2.15.87,1.47,1.47,0,0,1-.41.18,3.08,3.08,0,0,0-1.42-.08l-.34.26v.43l-.5.37v.88c0,.28,0,.55,0,.83a2.13,2.13,0,0,0,.11.79c.09.24,0,.52.13.79a4.92,4.92,0,0,1,.14,1,2.15,2.15,0,0,0,.11.86.76.76,0,0,1,0,.61c-.14.25-.05.5-.09.74s-.09.48-.13.72c0,.06,0,.17,0,.19.28.19.06.5.2.76a2.07,2.07,0,0,1,0,.87v1.74A3.13,3.13,0,0,0,319.44,128.36Z" transform="translate(-144.95 -37.77)"/></svg>