<svg xmlns="http://www.w3.org/2000/svg" width="482.07" height="238.64" viewBox="0 0 482.07 238.64"><path d="M301.55,283.85q.22-12.12,0-24.9-.14-7.75-.43-15.28" transform="translate(-63.39 -48.7)" fill="none" stroke="#000" stroke-linecap="round" stroke-miterlimit="10" stroke-width="7"/><path d="M66.9,145.52c.81-48.16,128.15-91.93,233.91-93.29C409.49,50.84,540.13,93.67,542,142.12s-125.69,100.53-238,100.95C193.2,243.49,66.08,194,66.9,145.52Z" transform="translate(-63.39 -48.7)" fill="none" stroke="#000" stroke-miterlimit="10" stroke-width="7"/><path d="M291.41,129.49c.34.46.65,1.21,1.21,1.56s.88,1,1.37,1.45c-.81.42-1.63.84-1.82,1.87a6.88,6.88,0,0,1-4.25.12c-.56-1.53-.58-3.17-1-4.73a4.28,4.28,0,0,1,.26-3.43.63.63,0,0,0,.1-.4c-.31-1.85.59-3.61.41-5.41s.65-3.44.5-5.2a1.08,1.08,0,0,1,.27-.56,4.12,4.12,0,0,0,.63-2.65c0-.93.75-1.75.43-2.73.77-1,.32-2.12.49-3.31l1.07-1.66c1.31.64,2.53.9,3.73.1l1.88.61a4.68,4.68,0,0,1,.84,1.37,17.39,17.39,0,0,1,.53,5.35,18.7,18.7,0,0,1,1.26,3.75c.1,1.07,1,1.53,1.26,2.41a2.67,2.67,0,0,0,1.85,1.9c.11,0,.12.39.19.66h2c1.2-.7,2.46-1.44,3.74-2.15.17-.1.44,0,.59,0,2.64-2.08,4.27-4.89,5.91-7.67.74-1.24,1.28-2.6,2-3.88a4.43,4.43,0,0,0,1-3c0-.18.35-.44.53-.64,1.4-.45,2.55.26,3.63.86a2.54,2.54,0,0,1,1.13,1.7c.12,1.22.73,2.34.53,3.62-.15,1,.08,2.1-.05,3.13a36.34,36.34,0,0,1-1.23,7.33c-.3.87.15,1.88-.52,2.71-.09.12.12.52.24.77a2,2,0,0,1-.26,2.2l.86,2.16h3.73l1.11,1,4.16-5.44c0,.05-.12-.36,0-.5,1.18-1.17,1.58-2.81,2.51-4.14a26.44,26.44,0,0,0,3.54-7,25.75,25.75,0,0,1,1.73-3.54,10.75,10.75,0,0,0,1.12-3.11,5.21,5.21,0,0,1,1.35-2.55l-.34-.33,1.22-1.77,1.25,1a3.2,3.2,0,0,1,2.84,1.14,7.91,7.91,0,0,0,.41,2.66A45.72,45.72,0,0,1,348.7,110c.21.81.34,1.65.54,2.46.05.19.35.36.34.52a10.68,10.68,0,0,0,.87,4.58c.54,1.35.55,2.9,1,4.31a12.55,12.55,0,0,0,1.28,2.39h3.91c.07,1.39-.24,1.84-1.41,2.26a13.15,13.15,0,0,0-1.5.8l1.79,1.3,2.93.46.34-.32c.57-2.46,1-4.75,1.65-7a13.7,13.7,0,0,0,.86-3.68,8,8,0,0,1,.42-1.61,12.49,12.49,0,0,0,.43-4.74c-.23-1.71.44-3.31.51-5,0-.57.54-1.12.84-1.69,1.47-.44,2.6.53,3.93.85.19,1.2.38,2.47.57,3.73s.36,2.4.55,3.69l.76.26-.47.74c1.14,2.07,1.54,4.51,2.73,6.64a27.3,27.3,0,0,0,3.69,5.44c1.19,1.28,2.29,2.65,3.54,3.89a3.67,3.67,0,0,0,2.85,1.06c1.4-1.92,1.15-4.31,1.93-6.39,0-.11-.27-.32-.26-.47,0-.68.11-1.37.22-2.42.08.08-.29-.14-.26-.32.27-2-.57-3.88-.52-5.87,0-1.13-.39-2.26-.38-3.4a13.44,13.44,0,0,0-.5-3.17c0-.19-.23-.35-.37-.56,1-.74,0-1.48-.06-2.25s0-1.79,0-2.9c.47.08.92.17,1.36.23l2.48.29,2.58,1.94-1.94,3.26c0,1.23-.05,2.64,0,4a15,15,0,0,0,.43,2.28c.17.83-.27,1.68.39,2.55.41.54-.21,1.54.47,2.27.22.23,0,.86,0,1.31,0,1.87,0,3.73,0,5.6a10,10,0,0,1-1.83,6,3.12,3.12,0,0,1-1.48,1.22,14.07,14.07,0,0,0-2.53,1.74,2.39,2.39,0,0,1-1.73-.42c-1.06-.65-2.22-1.13-3.32-1.71a5.11,5.11,0,0,1-1.23-.8c-1.77-1.76-3.74-3.38-5-5.53a53.76,53.76,0,0,1-3.47-5.72,15,15,0,0,0-1-1.52,11.58,11.58,0,0,0-.78,2.23c-.08.82-.9,1.49-.8,2.06a2.34,2.34,0,0,1-.55,1.85,14.14,14.14,0,0,1-.43,4c-.49,1.33.5,2.67.42,4l1.74,1.27v2l-4.18,1.43c-2.11-.41-2.1-2.49-2.46-4.2a15.17,15.17,0,0,1,0-3.23l-3.32.69c-.34-.12-.88-.87-1.48.17-.85-.47-1.74-.88-2.54-1.41a5.52,5.52,0,0,1-1.64-2.22c-.42-.82-.93-1.58-1.44-2.43l-1.52.45c-.67.15-1.15-.59-2.15-.07s-2.3.11-3.31.11l-1.88,1-.64-.34c-.71.52-1.63.28-2.52.3s-1.94,0-3,0c.3,1-1.17.66-1,1.53-1.26,1.72-2.48,3.47-3.8,5.15a2.73,2.73,0,0,1-2.69.92l-1.13-1.09V133l1.29-1.89-1-.32-3.75,1.59-2.33-1.26a26.77,26.77,0,0,1-1.63-4.62,5.57,5.57,0,0,1-.19-1.26c.08-.76.28-1.52.42-2.28s-.07-1.35.37-2.1a10.23,10.23,0,0,0,.47-2.47,48.49,48.49,0,0,0,.68-5.54c-.68.8-1.12,1.25-1.48,1.75s-.59,1.11-.94,1.62-.91,1.12-1.33,1.7a16.27,16.27,0,0,1-3.23,3.06c-.24.13-.56.16-.75.33-.66.61-1.28,1.26-2.06,2-1.49-.29-2.22,1.31-4,1.78-1.93-.2-4.48.71-6.61-.94-.84-1.22-1.71-2.41-2.49-3.65s-.37-3-1.83-4v-1.85l-.72-.72c-.08.11-.24.22-.23.31.17.85-.53,1.69,0,2.54-.91.54-.13,1.64-.83,2.38-.34.35-.19,1.4.21,2.3-.4.82-1.29,1.85-.33,3.1l-.76.2Zm51.92-20.07c-.48,1.84-2,2.94-2.35,4.66a11,11,0,0,1-2.45,4.32c-1.11,1.34-.85,3.35-2.33,4.22v1.47a21.44,21.44,0,0,0,2.95.55,23.64,23.64,0,0,0,3.16-.25c1,.67,2.21.37,3.36-.18l.94.55.6-.63a12.47,12.47,0,0,1-.71-2.6c-.07-1.3-.62-2.47-.77-3.7-.19-1.63-1-3-1.13-4.72A14.31,14.31,0,0,0,343.33,109.42Z" transform="translate(-63.39 -48.7)"/><path d="M259,120.09c-1.27.5-2.35,1-3.42.1-1.88.08-3.81-.32-6.07.75l-1.69,2c0,3.85,0,7.58,0,11.31a14.63,14.63,0,0,0,.61,3.77,31.82,31.82,0,0,0,1.54,3.61l1.32.11v1.15l1.51,1.22-1,2.5a7.47,7.47,0,0,1-3.92-.91c-.55-.28-.89-1-1.45-1.27-.86-.36-.66-1.21-1.05-1.69-.72-.89-.66-2-1-2.95a19.68,19.68,0,0,1-.62-3.11c-.13-.61-.31-1.22-.44-1.83s-.22-1.07-.36-1.82c.46-1.06.59-5.46.21-10.14a35.62,35.62,0,0,0-5.4.93c-1.74.57-3.56.64-5.31,1.21a45.53,45.53,0,0,1-5.19,1.46c-.18,2.78-.76,5.44-.56,8.16a5.19,5.19,0,0,0,1.1,3,5.87,5.87,0,0,1,4.35,1.17l-.93.52v1.12l-1.48,1.23-4,.56L223.64,140c0-.06.09-.36,0-.5a5.9,5.9,0,0,1-.85-4.34c0-.64-.55-1.15-.08-1.91.3-.49.05-1.31.05-2V127l-2.63-1.41v-2.57a3.62,3.62,0,0,1,3.32-1,4,4,0,0,0,.67-2.49c-.1-.52.27-1,.37-1.4.24-1,.78-2,.51-3.16a3.74,3.74,0,0,1,.44-2,7.07,7.07,0,0,0,.44-1.83,37.25,37.25,0,0,0,0-3.81,11.85,11.85,0,0,1,.75-4.18c.1-.33.26-.78.13-1a4.88,4.88,0,0,1-.05-3.7,18.25,18.25,0,0,0,.08-4.4l1.27-1.11a3.18,3.18,0,0,1,3,3l-.71,1.92a4.52,4.52,0,0,1,.25,3.52c0,.27-.28.54-.25.78.31,2.36-.53,4.64-.49,7,0,.83-.34,1.66-.41,2.5s0,1.79,0,2.69c0,.07,0,.17,0,.22-1.3,2-.79,4.21-.91,6.53,1-.08,1.86.29,2.92-.27.89-.47,2.08-.06,3.14-.51s2.32,0,3.1-.59,1.93-.12,2.88-.71c.79-.5,2.14.18,3.07-.63l.53-1.1-.3-.3a11,11,0,0,1,.39-2,6.66,6.66,0,0,0,.45-2.29c0-.69.34-1.36.41-2.06a13.74,13.74,0,0,1,.05-2.23c.55-2,.23-4.25,1.2-6.22.13-.25-.23-.71-.21-1.07a9.22,9.22,0,0,1,.31-1.2c.15-.76.27-1.52.4-2.33l-.45-.49c.16-.35.56-.81.46-1.09-.24-.69.55-1.17.16-1.93a4.44,4.44,0,0,1-.1-2.19c.06-.77.23-1.53.34-2.21a2.77,2.77,0,0,1,4.13.34c0,1.79,0,3.64,0,5.5a13.69,13.69,0,0,1-.42,2.06c-.12.62.24,1.31-.41,1.87-.19.16,0,.71-.05,1.08,0,1,.21,2.2-.22,3s.29,2-.65,2.67c-.18.14,0,.72,0,1.09-.17,1.06.33,2.16-.31,3.23-.51.85,0,1.91-.48,2.94s-.1,2.32-.1,3.64a54,54,0,0,1,5.41,0c1.71.17,3.06-1.25,5-.86l.8,2.24c-.17-2.21,1.18-3.35,1.47-5a20.88,20.88,0,0,1,1.91-4.42c.87-.26,1.82-1.22,2.88.07.47,1.63-.57,3.07-1,4.6a9.23,9.23,0,0,1-1.68,4c-.16,2.61-1.13,5.25.35,8l1.95.73a14.83,14.83,0,0,0,3.3-2.31c1.73-2.11,4.16-3.73,4.76-6.72a22.67,22.67,0,0,1,1.58-3.59,6.14,6.14,0,0,0,0-1.71c.88-.75,1.09-2.56,2.46-3l3.08.49c-.27,2.55.64,5,.51,7.61-.05,1,.5,2.08.36,3.17a3.92,3.92,0,0,1-.3.88c.37,1.43.73,2.84,1.1,4.26h2.17l.7,1.76c-.63,1.32-1.88,1.85-3.22,2.84l-2.83-.49a6.52,6.52,0,0,1-2.56-5.13,15.29,15.29,0,0,0-.6-2.47c-.72-.1-.91.4-1.19.94-.49.91-.83,2-2.07,2.27-.23,0-.41.4-.6.63,0,0,0,.18,0,.21-1.15,1.08-2.35,2.12-3.48,3.24a13.06,13.06,0,0,1-3.79,2.19c-1.82.89-2.86-.24-4-.94a3.47,3.47,0,0,1-1.73-3.3,5,5,0,0,0-.41-1.38,7.12,7.12,0,0,1-.42-1.83,17.59,17.59,0,0,1,.39-1.83,15,15,0,0,0,0-2.12.18.18,0,0,0,.06.15l.37-.32-.14-.14A3.11,3.11,0,0,1,259,120.09Z" transform="translate(-63.39 -48.7)"/><path d="M429.08,184.7l-1.72-.54c-.61-1.83-3-2-3.73-3.83-.79,0-1.4-.32-2,.25a1.51,1.51,0,0,1-1.05.11c-1.85-.28-3.59.57-5.42.46-.67.81-1.73.31-2.59.8s-2-.11-2.76.31-2-.31-2.65.68c0,0-.14,0-.21,0-1.92-.31-3.75.43-5.64.47a12.66,12.66,0,0,1-4.94-1.08,4,4,0,0,1-2.84-4.12c0-.59,0-1.19,0-1.91.55-.64,1.19-1.33,1.75-2.07,1.84-2.41,4.42-4,6.73-5.83.58-.47,1-1.08,1.6-1.57a20.43,20.43,0,0,1,1.82-1.5,5.29,5.29,0,0,0,2.46-3.64c0-.24.33-.44.55-.7a3.16,3.16,0,0,0-2.8-1.32,18.33,18.33,0,0,0-4.91,0c-1.89.39-3.85.21-5.68.85a9.73,9.73,0,0,0-1.56.91l-.68-.44a11.38,11.38,0,0,0-4.53,2.26,15.66,15.66,0,0,1-.64,3.58,6.24,6.24,0,0,0-.38,2.53,62.74,62.74,0,0,0,0,6.72,13,13,0,0,0,1.75,6.2c.43.65.87,1.29,1.4,2.06l-1.18,3c-1.67.51-2.71-.79-3.77-1.93a14.34,14.34,0,0,1-1.29-2,11.77,11.77,0,0,0-.7-3.47c-.63-1.24.28-2.66-.74-3.73l.45-4.07c-1.11-1.22,0-2.44,0-3.66a28.42,28.42,0,0,1,.45-3.69l-.65-.65-3.36,1.73h-1.18L377,164.35v-1.81c1.14-.67,2.23-1.76,3.44-1.91,1.88-.24,3.08-1.34,4.42-2.37.17-.13.33-.29.45-.4l3.36.56,1.3-1.14.59.44a34.79,34.79,0,0,1,5.14-1.28c1.75-.24,3.43-.93,5.24-.83s3.42-.79,5.19-.46l5.39,1,1.7,2.13a7.33,7.33,0,0,1-1.11,5c-.43.78-.7,1.65-1.13,2.44a4.58,4.58,0,0,1-2.3,2.43c-.39.14-.66.57-1,.87-1.95,1.8-3.88,3.61-5.84,5.38-.7.63-1.51,1.12-2.17,1.77a5.52,5.52,0,0,0-.77,1.44l1.42,1.24c4.86.34,10-.59,15.58-1.15-.05,0,.43.36.71.25,1.77-.75,3.62-.25,5.44-.45.75-1.53.61-3.19.66-4.85.1-3.08.26-6.15.45-9.22a3.6,3.6,0,0,0-1-2.79,12.41,12.41,0,0,0-2.66.8c-.94.51-1.68-.42-2.48,0-.37-.88-.9-1.65-.57-2.53a3.21,3.21,0,0,1,2.26-2,17,17,0,0,0,3-.83,4.85,4.85,0,0,0,1.63-.93c1,0,2.1.06,3.14,0s1.81-.34,2.73-.42,1.79,0,2.68,0c.67,0,1.16-.79,2-.27a4.32,4.32,0,0,0,1.9.27c.74,0,1.61-.24,2.22.05,1.34.65,3,.51,4.1,1.38s2.67,1.3,3.05,2.91c1.86.76,1.87,2.78,2.8,4.18a1.5,1.5,0,0,1,.24,1,28.22,28.22,0,0,1-.92,4.33,15.5,15.5,0,0,1-1.85,3.48,24.78,24.78,0,0,1-6.12,6.18,26.67,26.67,0,0,0-3.45,3c-1.17,1.21-3,1.35-4.08,2.62A4,4,0,0,0,429.08,184.7Zm1.88-5.22a4.56,4.56,0,0,0,1.05-.29,25.27,25.27,0,0,0,5-3.61c1.17-1.26,2.42-2.44,3.63-3.65a12.08,12.08,0,0,0,3.35-5.55,3.09,3.09,0,0,0-.23-2.64,23,23,0,0,1-1.07-2.24l-1.68-.6-3.3-2.16c-2.15,0-4.16.06-6.17,0a7.88,7.88,0,0,0-4.35,1.17c.13.13.33.24.33.34-.05,2.25.42,4.5-.25,6.76a16.25,16.25,0,0,0-.53,2.91,15.38,15.38,0,0,1-.44,3.85c-.41,1.11.31,2.21.58,3.34,1,.25,1.94-1,2.84-.26.73.62,2.32-.36,2.37,1.34a3.91,3.91,0,0,0-.89,1.48v-.21H429l.26.32-.84.21.23.36A8.35,8.35,0,0,0,431,179.48Z" transform="translate(-63.39 -48.7)"/><path d="M345,156.16l.08.07c2,1.78,2.44,2.91,1.12,6.12-.32.77-.72,1.5-1.08,2.24-.74,1.54-1.45,3-3.15,3.85-.63.3-1.07,1-1.6,1.54a62.64,62.64,0,0,1-5.94,5.1,17.3,17.3,0,0,0-2.16,2.59l1.07.49.23.68c5.23.43,10.35-.61,15.82-1,.83,1.19,2-.78,3.14-.18a20.65,20.65,0,0,0,.67-5.83,4.33,4.33,0,0,1,.34-1.63,8.44,8.44,0,0,0,.58-3.15c-.14-1.78,0-3.58,0-5.35l1.12-1.13h1.35a11.4,11.4,0,0,1,5.38-3.14c.77-.13,1.52-.36,2.29-.43a12.44,12.44,0,0,0,2.45-.05c2.39-.74,4.82-.38,7.22-.38,2,0,4,.77,6.12.29V159c-1.5.78-3.17.62-4.83.62a15.94,15.94,0,0,0-3.79.07c-1.23.33-2.42.34-3.58.58s-2.35.8-3.54,1.14a22.78,22.78,0,0,0-2.27.48,11.29,11.29,0,0,0-3.35,1.88v3.78l.86.86a14.15,14.15,0,0,1,1.54-.26c2.25-.17,4.51-.29,6.76-.47a5.82,5.82,0,0,0,1.16-.43,7.76,7.76,0,0,1,4.25.11c1.67,1.28-.44,1.93-.42,3a9.29,9.29,0,0,0-4.77.87c-1.31.59-2.76.41-4.13.83a32.11,32.11,0,0,1-5.3.69l-.73,1.19c-.39.85.18,2-.81,3.22,1.78-.39,3.4.43,4.9-.55,1.34.23,2.82.07,4,1.37l-1.81,1.29c-1.89-.41-4,.73-6.47,1a6.87,6.87,0,0,0,0,1.43,10.3,10.3,0,0,0,.8,1.74l1.53,1.53c1.63.64,2.92-.48,4.22-1s2.38-1.77,3.69-2.82c0-.13.06-.49.1-.84l.82-.82v-1.35l2.28-2h1.21a11.07,11.07,0,0,1,.56,1c.17.38.28.78.43,1.22a31.6,31.6,0,0,1-3.53,6.09,13.14,13.14,0,0,1-3.32,2.83,24.4,24.4,0,0,1-3.3,1.78c-.53.24-1.17.89-1.76.37s-.94.39-1.49.13a2.92,2.92,0,0,0-1.11,0c-.32-.3-.62-.82-1-.86-2.67-.35-3.51-2.33-4.22-4.47-.26-.79-.59-1.55-.89-2.32.17-.36.35-.72.66-1.39-1.08.24-2-.33-2.69.52-2.28-.31-4.31,1.07-6.58.94a8,8,0,0,0-2.7.51,8,8,0,0,1-2.53.33c-1.6,0-3.13.8-4.74.45-2.19-.47-4.54-.59-6.12-2.51a11.53,11.53,0,0,1-.81-1.32c0-.06,0-.2,0-.35a5.24,5.24,0,0,1,2.17-5.37,5.78,5.78,0,0,1,2.87-2.74c1.24-.69,1.8-2.09,3.2-2.53.51-.16.85-.81,1.3-1.2a13.36,13.36,0,0,1,2.48-2.11c1.09-.57,1.84-2.08,2.77-4.42-.49-1-1.6-1-2.38-1.12a21.71,21.71,0,0,0-5.58,0,8.62,8.62,0,0,1-2.51.33c-.94-.15-1.65.5-2.51.48h-.67l-1.05,1-1-.63L322.19,163c-.73,1,0,1.87-.66,2.57-.5.53.18,1.47-.6,2-.14.09,0,.56,0,.86v7.85c0,.63,1.12,4.54,1.32,5.27a6.59,6.59,0,0,0,1.92,2.64L323,187.36c-1.75.46-2.75-.79-3.77-1.9a14.92,14.92,0,0,1-1.33-1.92,15.42,15.42,0,0,0-.6-3.32,6.92,6.92,0,0,1-.4-2.3,4.38,4.38,0,0,0-.23-1.25,2.83,2.83,0,0,1,0-2.28,3.11,3.11,0,0,0-.05-2.71,1.5,1.5,0,0,1-.17-.82c.11-.7.29-1.38.44-2.06s-.15-1.38.27-2.14a1.8,1.8,0,0,0-.38-2.42c-1.55.41-2.75,1.86-4.6,1.67l-1.55-1.75v-1.61l2.12-1.24a4.64,4.64,0,0,1,2.14-.81c1.33-.1,2.15-1.26,3.23-1.9a3.43,3.43,0,0,0,.72-.76l3.8.61.79-1.24.74.49a36.3,36.3,0,0,1,5.11-1.26c1.74-.24,3.43-.92,5.23-.83s3.43-.79,5.2-.46Z" transform="translate(-63.39 -48.7)"/><path d="M203.83,177c.94,1.3.33,2.68.59,4l2.18,1.61-.83,1.52,1,1h1.9a15.83,15.83,0,0,0,5.9-3.94c-.24-.93,1.56-1.51,1-2.74l2.17-2.16h1.45l.88,2.15a31.87,31.87,0,0,1-3.54,6.13,12.78,12.78,0,0,1-3.32,2.83,36.21,36.21,0,0,1-3.5,1.82c-.49.25-1.06.79-1.55.35s-.94.38-1.49.12a2.51,2.51,0,0,0-1,0c-1.46-1.24-3.69-1.24-4.51-3.24-2.4.52-4.3,1.92-6.41,2.7s-4.13,1.59-6.26,2.22a9.17,9.17,0,0,0-2.69.53,16,16,0,0,1-2.87.66c-.92.16-1.85.26-3.07.43l-1.22.64c-1.28-.15-2.19-.32-3.11-.34a15.61,15.61,0,0,1-7.16-2.19c-.23-.14-.58-.06-.79-.08a23.46,23.46,0,0,1-3.2-2.67,20.63,20.63,0,0,1-2-3.32,32.15,32.15,0,0,1-.52-4.79,24.48,24.48,0,0,1,.85-4.34,10.52,10.52,0,0,1,1.74-4.47,9,9,0,0,1,2-5.42c.28-.39.7-.82.73-1.25.15-2.15,1.42-3.75,2.42-5.51a7.05,7.05,0,0,0,.43-1.73l.43-.12,1.83-3.71c.66-1.19,1.92-1.87,2.58-3.19s2.05-1.81,2.71-3.13c.28-.57,1.28-.76,1.93-1.17,1.07-.68,2.12-1.4,3.48-2.3.38-.14,1.13.12,1.95-.29,1.17-.58,2.23.55,3.3,1a7.52,7.52,0,0,1,1.33,1A6.07,6.07,0,0,1,190,149c-.41,1.77-.09,3.76-1.34,5.26-1.1,1.31-1.67,3-3,4.17a6.63,6.63,0,0,0-.87,1.24H182.6l-1.42-1.52-.5-1.64a8.29,8.29,0,0,1,1.87-2c.94-.53,1-1.71,2.08-2v-1.93l.93-.94c-.21-.07-.38-.2-.55-.18a7.89,7.89,0,0,0-1.26.21c-.4.09-.8.22-1.26.36-1.11,1.11-2.36,2.2-3.41,3.46s-2.33,2.07-3.38,3.37l0,.91a4.12,4.12,0,0,0-1.64,2.53c-.41,1.43-1.44,2.52-2,3.9s-1.42,2.39-2,3.66c-.72,1.65-1.73,3.24-1.62,4.84l-1.74,3.61c-.14,1.15.26,2.56-.29,4a2.59,2.59,0,0,1,.27.84,8.73,8.73,0,0,0,1.89,5.07c1.17,1.72,2.9,2,4.5,2.7s3.45.42,5.19.45c1.14,0,2.3.17,3.29-.7a1,1,0,0,1,1.52.25c.54-.91,1.58-.32,2.38-.8,1.08-.65,2.55-.62,3.82-1,1.06-.31,2.05-.83,3.09-1.2a22.74,22.74,0,0,1,4.54-1.48,2.15,2.15,0,0,0,.78-.28c.72-.42,1.42-.88,2.11-1.32-.39-.41-.76-.89.08-1.26a6.2,6.2,0,0,1-.42-1.7c.1-2.92.27-5.85.42-8.77,0-.08,0-.17,0-.23,1.38-2.2.76-4.66.88-7,0-.67,0-1.35,0-2.06l1.17-1.09h1.24c.32-1.12,1.52-1.07,2.18-1.71a5.23,5.23,0,0,1,2.45-1.12,11.08,11.08,0,0,1,3.71-.77c2.28.11,4.47-.69,6.77-.47,2.76.26,5.53.36,8.39.54v2a12.1,12.1,0,0,1-2.3.54c-1.79.09-3.59,0-5.38,0-1,0-2,.35-2.95.4a7.92,7.92,0,0,0-2.85.71,13.41,13.41,0,0,1-3.59,1,9.75,9.75,0,0,0-4.34,2v3.7l1.05.92a3.64,3.64,0,0,1,1.14-.27c2.36.27,4.64-.59,7-.49a5.43,5.43,0,0,0,1.38-.42,7.54,7.54,0,0,1,2-.41,9.83,9.83,0,0,1,2.25.68l.45,1-1.28,1.83c-1.83-.15-3.68.56-5.56,1.16a3.2,3.2,0,0,1-.81.2,4.79,4.79,0,0,0-2.3.41c-.57.33-1.33.08-2.07.41s-2,.09-3.09.09l-1.07,1.06C204.16,174.81,204.78,176,203.83,177Z" transform="translate(-63.39 -48.7)"/><path d="M291,176.78c.25,2.39.46,4.43.65,6.3l2,2c1.66.54,2.94-.54,4.25-1.08s2.26-1.69,3.52-2.69c-.26-1.08,1.64-1.69,1-3.06l2-2h1.63l.9,2.22a58.74,58.74,0,0,1-3.47,6,14.46,14.46,0,0,1-3.31,2.88,27.64,27.64,0,0,1-4,2.12,1.09,1.09,0,0,1-1.53-.27c-.64.79-1.51.3-2.17.43-.41-.33-.72-.8-1.09-.86-2.53-.37-3.41-2.26-4.13-4.32l-.87-2.54.35-.58a12.28,12.28,0,0,1,.05-6.27,12.62,12.62,0,0,0,0-2.46,5.13,5.13,0,0,1,.46-2.94,4.81,4.81,0,0,0,.44-2.74c0-1.56,0-3.13,0-4.7a1.85,1.85,0,0,0-.1-.37,14.75,14.75,0,0,1-1.71.43,19.09,19.09,0,0,1-2,0,3.2,3.2,0,0,1-2.78.89,7.46,7.46,0,0,0-4.28.76,6.55,6.55,0,0,0-3.84-.15c-1.23.26-2.43.63-3.56.93.11.83.23,1.67.34,2.5.07.49-.17,1,.3,1.46a.94.94,0,0,1,.13.81c-.7,2.05.33,4.09.06,6.14a5,5,0,0,0,.46,1.81c1.15.45,2.38-1.32,3.47.32v2.67l-1.69,2-3.05,1.85h-1.24l-2.74-4.4a100,100,0,0,1-.7-11.68,4.21,4.21,0,0,0-1-3.11c-1.08-.82-2.18,1.23-3.17,0a6.49,6.49,0,0,1-6,.31l-.57-1.73,2-1.8c1.82-.6,4.4-.24,6.71-1.29a.92.92,0,0,1,.44,0c2.58.34,5.08-.64,7.65-.47a6.12,6.12,0,0,0,3-.39c.89-.39,2,.24,3-.44.46-.31,1.31-.09,2-.05a3.57,3.57,0,0,0,2.82-.86l.37.31,8-1.94.7-.71,1.75,2.34c.61-.15,1.28-.3,1.94-.49a23.16,23.16,0,0,1,2.38-.72,8.58,8.58,0,0,1,2.62-.14c1.07.16,1.93-.54,3-.49s2.09,0,3.13,0c2.7.14,5.39.34,8.17.52v2a15.79,15.79,0,0,1-1.87.61,8.23,8.23,0,0,1-1.57,0c-1.42,0-2.84-.06-4.25,0s-2.72.29-4.08.43c-.15,0-.35-.06-.44,0-1.2,1-2.82.81-4.09,1.46-.66.34-1.28.14-1.86.41a11.21,11.21,0,0,0-3.26,1.89v3.67l1.12,1c.17-.1.4-.34.63-.35a20.12,20.12,0,0,0,2.91,0c2.36-.44,4.84-.22,7.11-1.2a1.86,1.86,0,0,1,1.05,0c.6.14,1.19.37,2,.64l.45,1-1.27,1.82a15.27,15.27,0,0,0-5.57,1.18,3.68,3.68,0,0,1-.81.19,4.79,4.79,0,0,0-2.3.41c-.57.33-1.33.08-2.07.41s-2,.09-3.08.09l-1.07,1.06C291.12,174.81,291.74,176,291,176.78Z" transform="translate(-63.39 -48.7)"/><path d="M246.49,187.87a2.85,2.85,0,0,1-1.67-.41c-1-.67-2.22-1.11-3.32-1.69a5.86,5.86,0,0,1-1.4-1c-1.72-1.71-3.63-3.27-4.89-5.37s-2.7-3.73-3.52-5.92a5.37,5.37,0,0,0-.8-1.11c-1.38,1.12-.62,3-1.86,4l.43.48a3.16,3.16,0,0,0-.91,2.55,8.27,8.27,0,0,1-.33,2.53,3.11,3.11,0,0,0,.27,3c.23.28.08.86.1,1.29l1.71,1.25v2.07l-4.17,1.4c-1.9-.43-2.24-2.32-2.44-4.1a27.48,27.48,0,0,1,0-5.59,38.41,38.41,0,0,1,1-4.95c.55-2.38,1.72-4.62,1.65-7.15,1.18-2.62.67-5.42,1-8.13.16-1.45,0-3.18,1.42-4.46,1.31-.4,2.43.59,3.75.88.19,1.23.38,2.49.57,3.75s.36,2.4.56,3.69l.75.27-.47.73c1.15,2.07,1.54,4.51,2.73,6.64a27.59,27.59,0,0,0,3.69,5.44c1.19,1.27,2.28,2.65,3.54,3.88a3.65,3.65,0,0,0,2.87,1.08c1.34-1.93,1.16-4.3,1.9-6.39,0-.11-.24-.31-.24-.47,0-.68.11-1.36.2-2.41a.85.85,0,0,1-.26-.55c-.07-1.29.15-2.62-.47-3.84.33-2.14-.49-4.19-.49-6.31a12.29,12.29,0,0,0-.65-2.72c.84-.72-.27-1.52-.22-2.36s0-1.76,0-2.71l3.95.59,2.49,1.94-2,3.13a18.45,18.45,0,0,0,.06,4.06c.52,2.35.18,4.84,1.26,7.08a3.32,3.32,0,0,1,0,1.34c0,2.09,0,4.18,0,6.27a9.38,9.38,0,0,1-2.07,5.63,4.86,4.86,0,0,1-1.2.87Z" transform="translate(-63.39 -48.7)"/></svg>