<svg xmlns="http://www.w3.org/2000/svg" width="453.75" height="267.49" viewBox="0 0 453.75 267.49"><path d="M302.41,279.94q.21-12.12,0-24.89-.14-7.77-.44-15.29" transform="translate(-72.49 -15.95)" fill="none" stroke="#000" stroke-linecap="round" stroke-miterlimit="10" stroke-width="7"/><path d="M522.74,114.92C522,170.13,403.28,236.63,303.29,238.18c-102.76,1.6-225.56-57-227.28-112.51S194.12,19.94,300.36,19.45C405,19,523.51,59.43,522.74,114.92Z" transform="translate(-72.49 -15.95)" fill="none" stroke="#000" stroke-miterlimit="10" stroke-width="7"/><path d="M327.92,172.18a15,15,0,0,0-2.27-1.89,12.79,12.79,0,0,1-2.38-2.3l-.88-4.65.37-.42-.43-.48c0-.14-.07-.36,0-.44.68-.65.64-1.58,1-2.36a19.07,19.07,0,0,1,3.23-6,27.37,27.37,0,0,0,1.76-2.26,13.65,13.65,0,0,1,.86-1.24c.84-.89,1.79-1.68,2.57-2.62a15.6,15.6,0,0,1,4.43-3.18,11.49,11.49,0,0,1,4-.9,2.45,2.45,0,0,1,1.4.44A15,15,0,0,1,343,145l-.61,1.7L341,148l-.76-.55-5.9,3c.11-.11,0-.06,0,0-1.72,2.54-4.11,4.52-6.06,7.2-.11.57-.23,1.43-.45,2.26s-.57,1.73-.86,2.59c.84.75.19,1.74.32,2.65l2.05,3C334.92,171,340,170,345.1,169.19a2.37,2.37,0,0,0-.27-2.28,3.27,3.27,0,0,1-.46-1.4c-.09-.94.81-1.74.07-2.89-.46-.7-.09-1.93-.09-2.92l-.49-.49-.16-.16c-.5.79-1.49.07-2,.59-1.09,1.1-2.65,1-3.91,1.66-.63.32-1.31.52-2.35.92h-1.54l-1.14-2a6.16,6.16,0,0,1,.95-1.71c.63-.56,1.49-1.27,2.2-1.22,1.37.1,2.41-.67,3.49-1.1a53.47,53.47,0,0,1,5.48-1.72,31.79,31.79,0,0,1,5.38-1.42,3.59,3.59,0,0,0,1.8-.61c.89-.71,1.91-.59,2.9-.79a11.19,11.19,0,0,0,4.52-1.44v-1.81l1-1.7c1.47-.25,2.65.52,4,1,0,.48.05,1,.07,1.5a.61.61,0,0,0,.16.16.38.38,0,0,0,.21,0,7.35,7.35,0,0,1,3.6.6l.66,2.27-2.68,1.61-1-.89v2.28l.65.15c.39.43-.42.34-.37.68.94,2.37,1.77,4.79,2.86,7.08a17.4,17.4,0,0,0,3.69,5.37c1.31,1.22,2.38,2.69,3.61,4a3.77,3.77,0,0,0,3,1.18l1-2c.28-1.58.56-3.14.87-4.82a1.63,1.63,0,0,1,.26-2.29c-.17-.28-.49-.56-.52-.88-.19-2.07-.3-4.15-.49-6.23-.09-1.09-.43-2.17-.41-3.25a5.65,5.65,0,0,0-.56-3c-.45-.74.21-1.16.06-1.72a4.84,4.84,0,0,1-.48-2.11,14.08,14.08,0,0,0,0-2.18l4.05.66,2.48,1.91a4.41,4.41,0,0,1-.58,1.06c-1.86,2-1.58,4.48-1.28,6.77a42,42,0,0,0,.86,6c.9,3.14.35,6.31.36,9.46a7.88,7.88,0,0,1-2.18,5,5.38,5.38,0,0,1-1.05.75l-2.7,1.83a3,3,0,0,1-1.66-.41,36.24,36.24,0,0,0-3.41-1.72,5.58,5.58,0,0,1-1.42-1,34.88,34.88,0,0,1-5-5.49c-1.25-1.91-2.47-3.86-3.53-5.88a1.94,1.94,0,0,0-1.26-1.2l-1.4,4.11.3.33a3.24,3.24,0,0,0-.93,2.59,8.13,8.13,0,0,1-.34,2.6,3.22,3.22,0,0,0,.27,3c.23.29.08.87.11,1.33l1.75,1.27v2.12l-4.27,1.43c-1.94-.44-2.3-2.37-2.5-4.19a28.14,28.14,0,0,1,0-5.73,38.6,38.6,0,0,1,1-5.07c.56-2.45,1.6-4.75,1.75-7.33.09-1.47,1-2.87.82-4.59a2.91,2.91,0,0,0-2,.25,13.66,13.66,0,0,1-3.49,1c-1.08.23-1.72,1.26-3,1.14-.92-.07-1.92.78-3,1.24a41.93,41.93,0,0,1,.45,5c0,1.59,1.27,2.83.93,4.5,1.68.21,2.11,1.7,2.24,2.86a3.6,3.6,0,0,0,2.33,3.33v3.14l-2.25,1c-2.47-.93-3.54-3.39-5.24-5.53-.71.19-1.54-.31-2.41.41-.36.3-1.18,0-1.79.06-2.16.13-4.36-.39-6.46.45-.91-.65-1.86.32-2.8-.1s-1.86-.68-2.8-1C329.18,172.45,328.61,172.35,327.92,172.18Z" transform="translate(-72.49 -15.95)"/><path d="M295.24,121.38l.91-.61-.61-.88c3.1-1.45,4.1-4.77,6.59-7,0-.16-.11-.51,0-.73,1-1.67,1.84-3.39,3-5a40.51,40.51,0,0,0,3.45-6.83c-.33-1.1,1.34-1.48.92-2.61,1.42-1,1.2-2.72,1.84-4.06l1.21-2.55-.21-.21,1.21-1.84c1,1.4,3,.81,3.87,1.81.58,2.16,1.23,3.93,1.52,5.75.39,2.5,1.63,4.78,1.64,7.39,0,1.31.82,2.56,1,3.92.12.91.64,1.76.72,2.67a4.36,4.36,0,0,0,1.61,2.9h3.79c.71,2.45-2,1.92-2.67,3.15.87,2,3,1,4.32,2l.45-.42c.67-2.65,1.26-5,1.86-7.37a15.29,15.29,0,0,0,.8-3.35,11.54,11.54,0,0,1,.42-1.88,13.68,13.68,0,0,0,.46-4.63c-.27-1.82.37-3.54.51-5.31a5.53,5.53,0,0,1,.85-1.78c1.57-.42,2.77.57,4.05.92.19,1.29.38,2.52.56,3.74s.37,2.47.57,3.81l.78.27-.48.71c1.14,2.15,1.59,4.63,2.79,6.82a27.13,27.13,0,0,0,3.75,5.58c1.21,1.32,2.37,2.7,3.62,4a3.36,3.36,0,0,0,3,1.12l1.16-2.26c.12-.57-.19-1.34.38-2.16a4.23,4.23,0,0,0,.28-2.43,4.22,4.22,0,0,1,.26-2.29c-.15-.28-.44-.58-.46-.91-.07-1.32.16-2.68-.48-3.93.35-2.19-.49-4.3-.5-6.47a12.8,12.8,0,0,0-.66-2.8c.87-.73-.28-1.54-.23-2.41s0-1.8,0-2.77l4.05.61,2.55,2-2,3.2a18.74,18.74,0,0,0,.06,4.16c.54,2.4.19,5,1.3,7.26a3.62,3.62,0,0,1,0,1.36c0,1.92,0,3.83,0,5.74a10.21,10.21,0,0,1-1.86,6.11,2.83,2.83,0,0,1-1.3,1.18,7.21,7.21,0,0,0-2.73,2,12.06,12.06,0,0,1-1.61-.52c-1.28-.6-2.54-1.26-3.8-1.9a2.56,2.56,0,0,1-.76-.37c-2-2-4.19-3.77-5.65-6.15a54.61,54.61,0,0,1-3.42-5.69,15.11,15.11,0,0,0-.84-1.37c-1.28,1.29-.74,3.14-1.91,4.17l.42.42a4.67,4.67,0,0,0-.9,3.16,4.75,4.75,0,0,1-.3,1.93,4,4,0,0,0,.13,3,5,5,0,0,1,.26,1.5l1.73,1.26v2.18c-.69.17-1.4.29-2.07.51s-1.3.56-2,.89c-2.32-.44-2.33-2.55-2.69-4.31a16.94,16.94,0,0,1,0-3.34l-3.37.7-.9-.44-.66.61a21.61,21.61,0,0,1-2.57-1.42,4,4,0,0,1-1.67-2.27,5.06,5.06,0,0,0-1.75-2.48l-1.52.57a2.25,2.25,0,0,0-2.15-.09c-.89.47-2.24.1-3.39.1l-1.68.91c-.64-.66-1.27.08-1.92,0a20.21,20.21,0,0,0-2.06,0h-2.37c.27.94-.78.91-1.14,1.51a48.09,48.09,0,0,1-3.81,5.31,2.82,2.82,0,0,1-2.81,1l-1.11-1.12v-2.07C295.47,122.26,295.18,121.72,295.24,121.38Zm11.48-8c4.49.85,4.49.85,6.16.23.8.92,1.87.23,2.7.48l.73-.55,1.19.65.5-.84a11.36,11.36,0,0,1-.68-2.59c0-1.26-.59-2.38-.74-3.6-.2-1.64-1-3.1-1.21-4.79a19.78,19.78,0,0,0-1.4-4.16c-2.23,5-4.88,9.43-7.25,14.18Z" transform="translate(-72.49 -15.95)"/><path d="M200.84,99.79a21.24,21.24,0,0,0-1.05,1.93c-1.39,3.14-3.41,5.92-5.14,8.87a4,4,0,0,1-2.68,2.23,23.49,23.49,0,0,0-2.63.84c-1-.63-2.19-.93-3.09-1.86a9.15,9.15,0,0,0-2-1.21,6.21,6.21,0,0,0-1.05-1.81,10.55,10.55,0,0,1-2.63-5.11c-.53-1.78-1.35-3.44-1.75-5.26-.43-2-1.11-4-1.7-6-1.32,1.85-.49,3.85-.88,6l-.8.6c0,1.16.3,2.3-.09,3.11s-.31,1.8-.74,2.68-.09,2.09-.09,3.11a3.9,3.9,0,0,0-.95,2.66,20.9,20.9,0,0,1-1,4.87,14.25,14.25,0,0,0-.43,3.52l-.79.8c-.38,1.11.16,2.29-.47,3.47-.39.73.43,1.72.76,2.59a1.65,1.65,0,0,0,1.3,1.2l1.29,2.92c-.58.5-1.08,1-1.61,1.39s-1.06.76-1.59,1.14h-1.88c-.21-.27-.54-.53-.63-.86-.46-1.65-1.69-3.08-1.4-4.93a4.06,4.06,0,0,1-.4-3.24c.67-2.3.2-4.81,1.32-7,0-2.72,1.22-5.2,1.47-7.91.15-1.69.83-3.36.85-5.13a3.84,3.84,0,0,1,.44-1.19c.57-1.58.42-3.29.9-4.89a12.48,12.48,0,0,0,.46-2.33c.07-.76-.21-1.63.06-2.28.62-1.46.24-3,.43-4.41a15.89,15.89,0,0,0,.43-4.4,14.33,14.33,0,0,0-.42-1.6l1-1.68,1.73.26c.79-.66,2-.07,3-.28l1.11,1.07c.2.82.43,1.51.53,2.21a11.49,11.49,0,0,1,.52,2.57,4.5,4.5,0,0,0,.45,2.31,10.23,10.23,0,0,1,.46,2.57c.27,1.09.82,2.1,1.19,3.17.06.17-.19.44-.37.81l1.1,1.72c.11.18.33.37.32.55,0,1.58.91,2.85,1.46,4.22a16.73,16.73,0,0,0,2.18,3.93c.63.83,1.7,1.06,2.13,2.13a4.73,4.73,0,0,0,1.27-.56,12.88,12.88,0,0,0,3.6-4.92c.43-1.12,1.41-1.93,1.81-3.15A16,16,0,0,1,198,95.55a10.42,10.42,0,0,0,1.07-3,21.84,21.84,0,0,0,1.14-3,7.65,7.65,0,0,1,.79-2.21c.18-.39.64-.76.61-1.11-.18-2.33,1.51-4.21,1.48-6.54,0-1,.75-2.1,1.31-3.55V73.8l1.5-1.47L209,74.81c0,1.69,0,3.51,0,5.33a11.47,11.47,0,0,1-.43,1.65A15.21,15.21,0,0,0,208,85c0,.57-.5,1.15-.88,1.95.44,2.23-.75,4.62-.44,7.11-.86,1.11,0,2.61-.88,3.78-.18.24.28.88.29,1.34a5.11,5.11,0,0,1-.33,1.23,37.14,37.14,0,0,0-1,5.57,29.85,29.85,0,0,0-.37,3,6.75,6.75,0,0,1-.83,2.87,5.36,5.36,0,0,0-.09,1.57c-.08.71.27,1.5-.4,2.14-.16.15-.1.59-.05.88a11.66,11.66,0,0,1,.42,1.87c0,.55-.43,1.11-.39,1.65.07,1.16-.33,2.33.36,3.51.36.64.06,1.65.06,2,.4,1.22.61,2.05.93,2.83a18.87,18.87,0,0,0,1.41,2.85,3.23,3.23,0,0,0,2,1.16,14.85,14.85,0,0,1,1.93.81c.48,1.87-1.05,2.13-1.92,2.78l-4.12-1.09-3-3.06c-.32-1.15-.75-2.58-1.11-4a12.67,12.67,0,0,1-.73-4.06c0-.6-.48-1.39-.24-1.78.43-.69.18-1.33.25-2a20.22,20.22,0,0,0,0-2.06,20.39,20.39,0,0,1,0-2.07c.09-.93.3-1.86.44-2.79s-.27-1.78.43-2.59c.19-.21,0-.74,0-1.12a12.94,12.94,0,0,1,.85-4.69,2.06,2.06,0,0,0,.07-.66A18.86,18.86,0,0,1,200.84,99.79Z" transform="translate(-72.49 -15.95)"/><path d="M232.47,184.84c-1-.83-2-.47-2.93-.6s-1.82-.38-2.52-.53a3.48,3.48,0,0,1-1.09-3c.08-2.53-.55-5-.68-7.5a24,24,0,0,1,.31-5.22c.11-.63.47-1.05.1-1.78-.22-.44.24-1.18.27-1.8,0-1.22,0-2.45,0-3.67.05-1-.26-2.07.42-3,.21-.31.06-.9,0-1.36s.25-1.24-.42-1.66c.57-.43.43-1.05.43-1.63,0-2.45,0-4.89,0-7.34,0-1.09-.34-2.16-.42-3.25s0-2.1,0-3.44c-2.75,1.47-5,3.38-7.92,3.95a4.27,4.27,0,0,1-1.82-2.8l2-2.73c.56,0,1.18.19,1.42,0,1.9-1.74,4.65-1.92,6.69-3.65a8.9,8.9,0,0,0,4.68-1.07,6.27,6.27,0,0,1,2.67-.78c.4,0,.8-.33,1.21-.37a22.47,22.47,0,0,0,3-.61,36,36,0,0,1,6-.39c.25,0,.48-.27.72-.41l.89.89c1.22,0,2.58-.21,3.68.86.23.23.88,0,1.53,0l1.2,1.5.2-.28a4.87,4.87,0,0,1,1.26.74c.91,1,.94,1.09,2.08,1.26,1.71,2.15,3.51,4.15,4.39,6.74.33.85-.35,1.92.57,2.73-.19,1,.25,2-.3,3.09-.38.73-.09,1.79-.41,2.58a44.69,44.69,0,0,1-3.11,6.73c-1.16,1.89-2.18,3.88-3.52,5.66-1.18,1.58-2.48,3.08-3.53,4.74a68,68,0,0,1-4.45,5.66,19,19,0,0,1-4.57,4.35,41,41,0,0,0-4.67,3.68,18.15,18.15,0,0,0-1.46,1.86C233.79,183.58,233.17,184.14,232.47,184.84Zm-1.67-6.47A7.41,7.41,0,0,0,232,178a31.29,31.29,0,0,0,6-4.23,57.37,57.37,0,0,0,5.33-5.36,35.7,35.7,0,0,0,3-3.77,31.08,31.08,0,0,1,2.44-3.79,37.71,37.71,0,0,0,3.34-4.37,20,20,0,0,0,2.2-3.67c.27-.68.25-1.55.56-2.3a15.92,15.92,0,0,0,.79-2.19c.16-.64,0-1.4.22-2a3.73,3.73,0,0,0-.09-3.35,10.66,10.66,0,0,1-.53-2c-1.66-2.31-4.06-3.71-6.15-5.21-.93-.32-1.73-.64-2.55-.86a12.66,12.66,0,0,0-4.77-.67c-.56.77-1.39.33-2.1.46s-1.4.3-2.1.46a16,16,0,0,0-5.48,1.78l-.74-.55-1.07,1.51a4.34,4.34,0,0,0-.22,2.06c.07.79-.22,1.57.37,2.38.28.4-.25,1.35-.38,2.06,0,.21-.07.55,0,.65.68.54.37,1.26.39,1.9,0,1.68,0,3.37,0,5.05s-.32,3.27.41,4.87a2.76,2.76,0,0,1-.07,1.55,28.69,28.69,0,0,0-.78,3.1,16.33,16.33,0,0,0,0,3.89c.19,1.39-.63,2.59-.5,3.94a16.82,16.82,0,0,0,.38,4,11.63,11.63,0,0,1,.08,3.67Z" transform="translate(-72.49 -15.95)"/><path d="M418.36,109.9h1.46c2.13-.57,3.22-2.2,5.07-2.35,2.62-2.07,4.29-5,6-7.79.76-1.27,1.31-2.67,2-4,.51-.91,1.21-1.84,1-3,0-.18.37-.45.56-.65,1.43-.47,2.6.28,3.71.88a2.55,2.55,0,0,1,1.15,1.75c.13,1.24.75,2.39.55,3.71-.16,1,.08,2.15-.06,3.2-.33,2.51-.4,5.07-1.25,7.5-.31.89.14,1.93-.53,2.78-.1.12.12.53.24.78a2,2,0,0,1-.27,2.25l.89,2.22H443l.68,2.1-6.48,2.6-2.35-1.26a25.86,25.86,0,0,1-1.69-4.75,5.3,5.3,0,0,1-.19-1.29c.09-.78.3-1.55.44-2.33s-.33-1.55.46-2.11c-.08-2.66,1.43-5.14.78-8.1l-3.53,5.3a20.31,20.31,0,0,1-3.15,2.74c-1.29.55-2.05,1.72-3.05,2.58-1.56-.09-2.37,1.3-4,1.85h-2.12c-1.69,0-3.42.22-4.89-1.11-.65-1-1.41-2.14-2.1-3.31a8.13,8.13,0,0,1-.86-1.93,5.93,5.93,0,0,0-1.34-2.56v-1.82c-.3-.3-.52-.51-.73-.73-.08.11-.21.22-.23.34-.09.57.23,1.23-.42,1.66.8.58.13,1.1,0,1.68a8.34,8.34,0,0,1-.42,1.67,2.16,2.16,0,0,0,.28,2.18c-.36,1-1.46,2-.35,3.29l-.84.29V119c.36.49.68,1.27,1.26,1.61s.9,1,1.39,1.48c-.85.41-1.67.86-1.88,1.92a7.13,7.13,0,0,1-4.35.11c-.54-1.57-.58-3.24-1-4.85a4.32,4.32,0,0,1,.27-3.5.84.84,0,0,0,.1-.42c.16-2.23.23-4.47.48-6.69.22-1.92.11-3.94,1.2-5.69a1.19,1.19,0,0,0,.15-.62,18.19,18.19,0,0,1,.89-4.68,10,10,0,0,0,0-2.58l1.14-1.75a3.63,3.63,0,0,0,3.82.09l1.84.61c1.26,1.87,1.46,2.87,1.46,6.85a20.13,20.13,0,0,1,1.31,3.89c.11,1.09,1,1.57,1.29,2.47a2.84,2.84,0,0,0,1.9,2C418.27,109.2,418.27,109.55,418.36,109.9Z" transform="translate(-72.49 -15.95)"/><path d="M294.79,122.29l-2.73,2.37-1.46-.55c.39-2.4-.62-4.4-1.17-6.49a28.89,28.89,0,0,1-1-10.3c0-.12.21-.22.31-.32l-.57-1.23c-4-.1-7.57,1.62-11.21,3.23v8.13a4.66,4.66,0,0,0,2.93,2c.05.05.15.1.15.16,0,.45.06.9.08,1.41l-2.18,2c-.7-.8-1.76-.1-2.69-.39a8.17,8.17,0,0,1-2.5-4.65c-.23-.89-.56-1.75-.86-2.68.85-1.47.18-3.17.48-5a7.85,7.85,0,0,0-1.47.28c-.72.28-1.4.67-2.12,1l-.29-.29-2.76,1.3c-1.9-.19-.73-1.92-1.74-2.56a15.09,15.09,0,0,1,5.61-3,7.55,7.55,0,0,0,2.69-1.2,3.4,3.4,0,0,0,.92-2.8c-.09-2,.67-4,.5-6s0-3.94,0-5.78c1.23-1.57,2.39-.13,3.54-.17.13,1.07.75,2,.63,3.19a6,6,0,0,0,.24,3.09c.59,1.23-.57,2-.35,3.19a3.43,3.43,0,0,1-.4,3.14c1.87.54,3.67-.15,5.35-.5s3.61-.38,5-1.66c.51-.59-.21-1.55.62-2.06.11-.07.11-.48,0-.65-.82-1.41-.36-2.94-.43-4.41s0-3,0-4.8c.5.09,1,.19,1.41.26l2.07.29c.82,1.47.35,3.47,1.67,5l-.43.56c.12,1,.2,2,.34,2.91s.32,1.85.51,2.86h1.6l1.52,2.09a6,6,0,0,1-1,1.91,6,6,0,0,1-2,.69c-.51.88-.94,1.7-.26,2.77a1.06,1.06,0,0,1-.55,1.58c.23.39.54.68.58,1,.19,1.77.33,3.54.47,5.31,0,.39.87,3.5,1.05,3.93a8.52,8.52,0,0,1,.33,1C294.56,121.42,294.86,122,294.79,122.29Z" transform="translate(-72.49 -15.95)"/><path d="M239.17,96.38a9.81,9.81,0,0,1-5.36.64c-2.27-.18-4.45.55-6.69.49-.16,0-.36-.06-.45,0-1.23,1-2.9.82-4.2,1.5-.67.35-1.31.12-1.89.41a10.56,10.56,0,0,0-3.34,2v3.73l1.07.94a3.84,3.84,0,0,1,1.17-.28c2.42.28,4.75-.6,7.16-.5a5.67,5.67,0,0,0,1.41-.43,7.19,7.19,0,0,1,2.1-.42,10.1,10.1,0,0,1,2.3.7l.47,1-1.31,1.9c-1.87-.21-3.76.57-5.68,1.17a4,4,0,0,1-.83.21,4.8,4.8,0,0,0-2.36.42c-.58.34-1.35.06-2.12.41s-2.1.09-3.17.09l-1.11,1.12c-.25,1.16.46,2.44-.48,3.3a11.16,11.16,0,0,1,.43,1.6,20.22,20.22,0,0,1,0,2.06,4.71,4.71,0,0,0,1.66,3.91c.29.24.54.54.8.8,1.66.54,3-.55,4.32-1.09s2.32-1.73,3.69-2.83c0-.09.1-.51.18-.93l.82-.82v-1.34l2.06-2.09h1.6l1,2.32c-1.16,2-2,4.29-3.59,6.07-.23.25-.28.84-.51.9-1.29.35-1.71,1.84-3,2.19a6.32,6.32,0,0,0-1.29.76,19.35,19.35,0,0,1-2.09,1c-.69.26-1.42,1-2.15,0-.66.77-1.54.31-2.28.43-.36-.32-.67-.83-1-.88-2.69-.4-3.59-2.38-4.29-4.61-.25-.81-.6-1.58-.92-2.42l.36-.52a12.63,12.63,0,0,1-.32-2.26c.1-2.77.28-5.53.43-8.3,0-.15-.06-.34,0-.45,1.36-2.1.81-4.46.91-6.73,0-.84,0-1.68,0-2.51L213.78,98h1.37a13.23,13.23,0,0,1,5.72-3.26c1.63-.43,3.32-.08,4.85-.48,2.56-.67,5.09-.25,7.63-.36a25,25,0,0,1,2.79.41c1,.08,2,0,3,0Z" transform="translate(-72.49 -15.95)"/><path d="M274.84,172.11l1.12-2.18v-1.05l2.05-2h1.63l.94,2.26a43.2,43.2,0,0,1-3.42,5.93,19.25,19.25,0,0,1-4.19,3.67,4.86,4.86,0,0,1-.77.34c-.7.34-1.38.75-2.1,1s-1.42,1-2.14,0c-.66.79-1.54.33-2.28.44-.37-.32-.67-.83-1.05-.88-2.68-.41-3.59-2.38-4.28-4.61-.24-.81-.6-1.59-.92-2.41l.36-.53a12.85,12.85,0,0,1-.32-2.27c.1-2.76.28-5.53.43-8.29,0-.15-.06-.35,0-.45,1.37-2.11.8-4.47.91-6.74,0-.84,0-1.68,0-2.5l1.15-1.15h1.38a12.35,12.35,0,0,1,5.72-3.26c1.63-.42,3.32-.08,4.85-.48,2.55-.67,5.09-.25,7.62-.36a24.88,24.88,0,0,1,2.8.41c1,.08,2,0,3,0v2.11a8.89,8.89,0,0,1-4.91.62c-2.49-.21-4.91.53-7.38.48-1.36.85-3,.88-4.41,1.52-.67.3-1.31.11-1.9.41a10.6,10.6,0,0,0-3.33,2v3.72l1.15,1c.17-.1.4-.34.65-.36a17.5,17.5,0,0,1,2.29,0c1.87.14,3.65-.77,5.54-.5.37.06.78-.31,1.19-.42a7.06,7.06,0,0,1,2.1-.42,9.9,9.9,0,0,1,2.29.7l.47,1-1.32,1.89c-1.87-.2-3.75.58-5.68,1.17a3.49,3.49,0,0,1-.83.21,4.74,4.74,0,0,0-2.35.42c-.58.34-1.36.06-2.12.41s-2.1.09-3.17.09l-1.1,1.1c-.25,1.11.37,2.31-.38,3.17.25,2.26.5,4.43.73,6.45l2.06,2.07c1.67.55,3-.56,4.33-1.1S273.6,173.1,274.84,172.11Z" transform="translate(-72.49 -15.95)"/><path d="M390.93,98.15l-1.16-.7a35.38,35.38,0,0,0-9.62,8.7v1.69l1.88,1.87,3.57.93c.08,0,.5-.35.7-.25,1.05.54,2.3.11,3.22.53a4.75,4.75,0,0,0,2.15.34,10.24,10.24,0,0,1,6,2.22,5.08,5.08,0,0,1,2.24,5,20.66,20.66,0,0,0-1.63,2.55c-.84,1.84-2.52,2.45-4.18,3.15a24.69,24.69,0,0,1-4.19,1.53c-.12,0-.21.27-.33.28-1.69.19-3.37.35-5,.51l-2.06-2.06V122c8-.35,8.12-1.3,12.14-2.45l.67-2-2.56-1.66c-1.3-.11-2.75.29-4-.76a1.89,1.89,0,0,0-1.29-.15c-1,.11-2-.23-3-.17a6.58,6.58,0,0,1-2.85-.79c-1-.43-2.08-.5-2.94-1.23-.19-.16-.56-.11-1-.19a5.82,5.82,0,0,1-2.42-5.83c.21-1.22.25-3,2.16-3.42l.05-.81c1.12-1.35,2.24-2.64,3.29-4,.43-.55,1.24-.56,1.51-1.4.16-.5,1-.78,1.53-1.16s1.16-.87,1.79-1.22c1.23-.71,2.49-1.36,3.75-2,1.43-.75,1.43-.74,3.3-.67-.34,1.19.85,2.24.35,3.37A15,15,0,0,1,390.93,98.15Z" transform="translate(-72.49 -15.95)"/><path d="M285.85,165.05a5.75,5.75,0,0,1-2-5.48c.21-1.23.26-3,2.14-3.44l.09-.84a35.46,35.46,0,0,1,3.48-4,23.82,23.82,0,0,1,2.2-2.28c.83-.55,1.8-.88,2.6-1.45,1.12-.8,2.4-1.29,3.53-2a4.53,4.53,0,0,1,3.21-.67c.18,1.11.7,2.33.46,3.37s-1.24,1.77-2,2.73l-1.13-.72c-3.81,2.13-6.78,5.29-9.65,8.67v1.73l2,1.95c.52.1,1.1.17,1.66.32s1.06.36,1.61.55c.33-.09.84-.4,1.09-.26,1,.55,2.2.07,3,.51,1,.54,1.9.28,2.84.35a13.53,13.53,0,0,1,4.94,1.91,5.82,5.82,0,0,1,2.24,2.89,7.73,7.73,0,0,1,.38,2.31c-.52.84-1,1.63-1.49,2.43a7.19,7.19,0,0,1-4.54,3.35c-.94.29-1.8.82-2.73,1.15a8,8,0,0,1-3.17.7c-.54,0-1.09.34-1.65.41a13.54,13.54,0,0,1-1.8,0l-2-2v-2.45c2.12-.5,4.31.33,6.43-.55,1.89-.78,3.89-1.29,5.74-1.89l.64-2-2.49-1.63c-2.72-.08-2.72-.08-4.06-.9-1.13-.27-2.22.3-3.19-.39-.88.68-1.69-.15-2.54-.19a10.62,10.62,0,0,1-2.83-.87C288,166,287.17,165.62,285.85,165.05Z" transform="translate(-72.49 -15.95)"/><path d="M241.25,99.4l1.12-.12.13-.6,6.31-3a4.17,4.17,0,0,0,3-.93c1.53-.22,3,.26,4.48-.45.84-.4,1.64.35,2.3.7l3.22.62c1.23.55,1.27,1.79,1.72,2.74a1.75,1.75,0,0,1-.11,1.3,3.75,3.75,0,0,1-4.48,2.41L256.82,101l.41-1.4c-1.88-1.26-3.28-.7-6.26.59l-.54-.42a19.72,19.72,0,0,0-8.12,5.49,3,3,0,0,0-.79,2.2,24.09,24.09,0,0,1,0,2.65c.84,2.76,3.12,3.92,4.57,5.48l3,1c.85.47,1.79-.08,2.77.61.69.5,1.93-.36,2.74.53,1-.2,2.12.39,3.07-.36a.66.66,0,0,1,.41-.1c1.89.24,3.7-.32,5.59-.54l1.91-1.29a1.52,1.52,0,0,0,2,.23,2.19,2.19,0,0,1,1.9-.07,12.93,12.93,0,0,1-3.78,3.06,23.13,23.13,0,0,1-3.55.83,18.71,18.71,0,0,1-5.07.5c-1.88,0-3.65.62-5.55.54a20.69,20.69,0,0,1-8-1.89,12.18,12.18,0,0,1-4.17-2.7,7,7,0,0,1-1.7-3c-.35-1.34-1-2.65-1.3-4-.38-1.82.43-3.49,1-5.1a6.36,6.36,0,0,1,3.41-3.6C241.09,100.1,241.13,99.69,241.25,99.4Z" transform="translate(-72.49 -15.95)"/><path d="M367.73,95.68h1.15l1.63,1.83a47.73,47.73,0,0,1-.08,7.25,58.63,58.63,0,0,0-.38,6.47,3.83,3.83,0,0,0,.63,2.75l1.23.13c-.61,1.39,1.95,2.38.4,3.92l-2.59.39c-1.91-.19-2.67-1.91-3.8-3.35,0-.64.06-1.4,0-2.16s-.4-1.24-.42-1.87a8.22,8.22,0,0,1,.22-3.34c.46-1.06-.15-2.16.6-3.21.43-.62.13-1.79.06-2.7a6.67,6.67,0,0,0-.28-2.63c-.26-.55.27-1.47.53-2.57Z" transform="translate(-72.49 -15.95)"/><path d="M314.75,148.46h1.34l1.64,1.6c0,2.08.06,4.15,0,6.21-.06,1.54-.35,3.08-.43,4.62s0,3.2,0,4.6l.67,1.32h.92l1.29,3.37-.79.66-2.9.46c-1.39-.36-2.19-1.92-3.24-3.39-.17-1.67-.41-3.5-.52-5.33a4.16,4.16,0,0,1,.39-2.59c.41-.72-.37-1.8.47-2.55,0-1.73-.05-3.47-.1-5.2,0-.12-.2-.22-.31-.33.83-.64.26-1.55.49-2.36Z" transform="translate(-72.49 -15.95)"/></svg>