<svg xmlns="http://www.w3.org/2000/svg" width="535.4" height="218.6" viewBox="0 0 535.4 218.6"><path d="M302.85,262.93q.21-12.1,0-24.89-.14-7.77-.44-15.28" transform="translate(-38.01 -47.83)" fill="none" stroke="#000" stroke-linecap="round" stroke-miterlimit="10" stroke-width="7"/><path d="M41.52,129.79c.58-42.71,149.55-85.51,281.22-77.48,114.83,7,248.83,45.14,247.16,86-1.72,42.15-147.6,85.25-268.12,80.65C184.48,214.5,40.93,171.89,41.52,129.79Z" transform="translate(-38.01 -47.83)" fill="none" stroke="#000" stroke-miterlimit="10" stroke-width="7"/><path d="M392,126.51l1.36-1.49c1.62,0,2.06,1.4,3,2.16a19.18,19.18,0,0,0-.75,7.23,20.13,20.13,0,0,0,3.25-1.64,54.33,54.33,0,0,0,5.86-4.62,7.56,7.56,0,0,0,1.93-2.72,9.36,9.36,0,0,1,.66-1.16,4.2,4.2,0,0,1,3.06.91,7.92,7.92,0,0,1-2,3.73c-.76.8-1.64,1.5-2.44,2.27-.3.29-.53.66-1,1.2a23.31,23.31,0,0,0-5.27,3.88l-.75.09-2.67,2.18c1.4.83,2.38,2.25,4.16,2.57.73.12,1.35.79,2,1.18,1.31.76,2.68,1.42,3.94,2.25.92.6,2,.88,3.18,1.51,1.37-.2,2.93.72,4.6.42.6-.11,1.23.19,1.82-.35.32-.29,1.07.12,2.1.91a1.1,1.1,0,0,1,0,.18c0,.33,0,.65,0,1l-1.78,1.27-2.22-.42a2.91,2.91,0,0,1-2.51.88,15.28,15.28,0,0,0-2.14,0,7,7,0,0,1-4.36-1.23c-1.66-1-3.59-1.54-5-2.94-.47-.45-1.33-.49-2.41-.86h-2.21l.49,1.86L395.3,148c-.72.71-2.13.56-2.27,2-.35-.06-.82,0-.93-.17-.74-1.18-1.82-2.16-2.2-3.78-1.19.18-2.51-.34-3.76.4-2-.22-3.76.75-5.71.88s-3.63.8-5.53.68a4.2,4.2,0,0,1-2.56.39,12.17,12.17,0,0,1-4.08-1,4,4,0,0,1-2.36-2.51,1.91,1.91,0,0,0,0-.36,4.87,4.87,0,0,1,1.7-4.39,15.21,15.21,0,0,1,2.68-2.48c1.13-.62,1.66-1.89,2.94-2.3.38-.12.63-.63,1-.93a22.6,22.6,0,0,1,2.15-1.84,6.45,6.45,0,0,0,2.43-3.85,2.32,2.32,0,0,0-2.06-1,19.76,19.76,0,0,0-4.86,0,7.69,7.69,0,0,1-2.18.29c-.81-.12-1.43.41-2.18.42h-.59l-.91.86-.87-.55-3.72,1.9a11.05,11.05,0,0,1-.45,2.12c-.26.57.2,1.29-.48,1.77-.15.11,0,.62,0,.94,0,2.15-.12,4.3,0,6.43a11.48,11.48,0,0,0,1.5,5.4c.36.58.75,1.13,1.22,1.83-.28.76-.61,1.66-1,2.64-2.53.4-3.08-2.07-4.31-3.11-.36-1.58-1-3-.89-4.32s-1.06-2.57-.17-4c.77-1.25-1-2.75.08-4.12-.32-1.41.6-2.71.37-4.1l-.51-.51c-1.31.51-2.35,1.62-4,1.5l-1.33-1.5v-1.39c.65-.4,1.29-.86,2-1.22a4.06,4.06,0,0,1,1.71-.6c1.16-.06,1.88-1.07,2.82-1.63a4.37,4.37,0,0,0,.73-.75,10.68,10.68,0,0,0,1.56.45,9.55,9.55,0,0,0,1.51,0l.79-.79.89.21c.73-.64,2-.57,3.07-.89a20.59,20.59,0,0,1,3.63-.67c1.26-.12,2.54-.07,3.78-.31a8.2,8.2,0,0,1,3.68,0c1.2.27,2.44.4,3.69.59a1.11,1.11,0,0,0,.11.11c1.61,1.42,2.29,2.5.87,5.46-.31.65-.48,1.37-.85,2-.71,1.2-1.25,2.51-2.69,3.17-.72.34-1.19,1.18-1.82,1.74-1.55,1.38-3.07,2.79-4.75,4a12,12,0,0,0-1.76,2.1l1.34,1.24h3.09a11.32,11.32,0,0,0,3.36-.36c1.07-.32,2.25.22,3.38-.31s2.29.32,3.38-.57c.78,1.14,1.65,0,2.52,0s1.81,0,2.89,0c0-.74,0-1.49,0-2.24s0-1.43,0-2.14a5.82,5.82,0,0,1,.35-2.39c.32-.72-.31-1.65.38-2.38.14-.14,0-.5.05-.76a4.42,4.42,0,0,1,.35-2.19c.33-.63-.05-1.41.35-2.2A6,6,0,0,0,392,126.51Z" transform="translate(-38.01 -47.83)"/><path d="M142.06,137.67a40,40,0,0,1-1.15,5.88c-.36,1,0,1.89-.34,2.78l-.69.69c-.15,1,.28,2-.41,2.94.37,1.08.4,2.31,1.38,3.12a3.44,3.44,0,0,1,1.35,2.53c-1.17,1.13-2.15,2.62-4.34,2l-1.46-3.31c-.13-1.2-.35-2.57-.41-3.94a8.7,8.7,0,0,1,.36-2c.14-.72-.2-1.46.34-2.21.34-.48-.17-1.38.44-1.95,0-2.3,1.16-4.41,1.17-6.72.68-.65.13-1.61.55-2.3s.11-1.5.24-2.24a1.57,1.57,0,0,1,.16-.52c.75-1.39.55-3,1-4.45s.15-2.82.49-4.1,0-2.82.35-4.13a12.24,12.24,0,0,0,.32-3.55,3,3,0,0,0-.39-1l.74-1.3c.71-.65,1.26.23,2-.18.53-.31,1.39-.06,2.11-.06a2.78,2.78,0,0,1,1.17,1.81,11.47,11.47,0,0,1,.66,3.22,5.45,5.45,0,0,0,.35,1.6c.42,1.59.8,3.18,1.22,4.76a2,2,0,0,0,.32.47l-.4.62c.3.46.59.92.88,1.38a2.3,2.3,0,0,1,.35.63,18.7,18.7,0,0,0,3.15,6.87,8.64,8.64,0,0,0,1.72,1.58c.16.13.49.05.69.06a13.55,13.55,0,0,0,3.78-4.87c1-1.8,1.71-3.73,2.82-5.44a22.91,22.91,0,0,0,1-2.71,7.24,7.24,0,0,0,.89-2.75,2,2,0,0,1,.4-1.18,5,5,0,0,0,1-2.74c.31-1.1.64-2.19.92-3.29a6.62,6.62,0,0,1,.44-2,6.59,6.59,0,0,0,.72-4.09l1.07-1c.11,0,.27,0,.35.05.81.69,1.61,1.41,2.5,2.19,0,1.29,0,2.72,0,4.14a5.28,5.28,0,0,1-.41,2.15,6.08,6.08,0,0,0-.36,2.58,2.76,2.76,0,0,0-.77,2.41c.11,1.72-.69,3.37-.39,5.1-.81.92,0,2.23-.75,3.2-.13.17.14.66.25,1-.7.41-.06,1.34-.6,2-.38.46-.22,1.39-.4,2.13a27.86,27.86,0,0,0-.45,4.3,6.71,6.71,0,0,1-.31,1.23,6.33,6.33,0,0,0-.49,2.74,1.58,1.58,0,0,1-.36,1.6c-.09.09,0,.38,0,.57a10.29,10.29,0,0,1,.35,1.79c0,.53-.36,1.06-.34,1.59a17.27,17.27,0,0,0,.46,4.68c.35,1,.36,2.29,1.23,3.19.26.28.2.85.45,1.16a3.27,3.27,0,0,0,2,1.23c.77.15,1.8.35,1.64,1.79l-1.69,1.24-3.74-1-2.25-2.28c-.36-1.21-.8-2.47-1.09-3.76a10.76,10.76,0,0,1-.58-3.09,2.49,2.49,0,0,0-.21-1.67c-.21-.32.18-1,.22-1.51s0-1.17,0-1.75a17,17,0,0,1,0-1.75c.09-.8.25-1.59.38-2.37s-.34-1.67.34-2.41c.13-.14,0-.49.06-.74.1-.75-.27-1.54.23-2.24s.09-1.4.45-2.16.09-2,.09-2.91l.47-.94c-.2,0-.36-.09-.38-.06-.68,1.27-1.32,2.57-2,3.82-1.07,1.83-2.14,3.67-3.36,5.41a13.33,13.33,0,0,1-2.19,2l-.42-.42-1.45.73c-1.87-.24-2.86-2-4.35-2.38-.67-.9-1.27-1.68-1.83-2.48a17,17,0,0,1-1.58-3.82,11.81,11.81,0,0,0-.94-2.52c-.44-.62.18-1.48-.62-1.9,0-1.46-.74-2.67-1.16-4a3.53,3.53,0,0,1,0-.88c-.78,1.21-.78,1.21-.78,4.91l-.79.79a10.37,10.37,0,0,1-.75,4.81,3.8,3.8,0,0,0,0,1.35A2.6,2.6,0,0,1,142.06,137.67Z" transform="translate(-38.01 -47.83)"/><path d="M284.83,140.41l.73-.72v-1.76a9.92,9.92,0,0,0,1.26-3.91,14.8,14.8,0,0,1,1-4.26c.28-.72-.27-1.58.48-2.13,0-2,.89-4,.29-6.16a7.5,7.5,0,0,1,.28-2.6l.83-.8h1.82c.13.36.22.71.37,1a11.36,11.36,0,0,1,.78,5.13c0,.76-.57,1.36-.43,2.18a2.83,2.83,0,0,1-.31,2,8.36,8.36,0,0,0-.45,2.15c-.15.64-.42,1.25-.59,1.89a4.51,4.51,0,0,0-.17,1.1c0,.56.05,1.17-.41,1.58s-.14,1-.29,1.5a7.46,7.46,0,0,0-.45,1.76,13.45,13.45,0,0,1-.66,2.27,9,9,0,0,0-.57,2.7,5,5,0,0,1-.38,2.16,8.58,8.58,0,0,0-.38,3c-.07.93-.3,1.84-.36,2.76a6.43,6.43,0,0,0,.74,3.59c.13.24,0,.6,0,.83,1.54.57,2.57-.61,3.87-.77.46-.58.66-1.47,1.59-1.62a35.29,35.29,0,0,0,4.68-5.66c.09-.15.15-.36.28-.46,1.05-.82,1.25-2.06,1.67-3.21s.5-2.29,1.56-3.13c0-1-.21-2.24.75-3.11,0-.89.62-1.63.44-2.56a11.17,11.17,0,0,1,0-2.08c.75-1.69,2.19-1.84,3.71-1.81l.58.58c0,.56,0,1.15,0,1.72a11.75,11.75,0,0,0,.65,3.63,7.27,7.27,0,0,1,.12,2.67c-.58,3.76-.56,4.59.5,7.66.92,2.68,1.2,3.14,2.79,4.74h1.77c1.31-1.48,2.66-3,4-4.54a7.54,7.54,0,0,0,1.05-2.48c.7-1.68.86-3.52,1.55-5.2a3.11,3.11,0,0,0,0-1c0-1.11-.19-2.26.65-3.24.2-.24.1-.73.13-1.11.1-1.18-.29-2.42.39-3.53-.28-1.86.46-3.65.38-5.49a2.59,2.59,0,0,0-.28-1.65c-.22-.31.13-1,.24-1.6l-.33-.36c.56-.5.45-1.09.22-1.72-.1-.28-.3-.64-.21-.86a11.34,11.34,0,0,0,.39-3.75,4.75,4.75,0,0,1,.51-1.26l1.87-.45a7.73,7.73,0,0,1,1.37,4.16,5.44,5.44,0,0,0-.27,2.34,1,1,0,0,1,0,.57c-.69,1.06-.3,2.24-.37,3.35-.14,2.22-.62,4.42-.4,6.66-.63,1.12-.32,2.35-.39,3.54a2.54,2.54,0,0,1,0,.39c-.14.6-.85,1.2,0,1.82-.65.56-.26,1.32-.37,2-.27,1.57-.46,3.17-.86,4.71a20.35,20.35,0,0,0-.74,3,3.28,3.28,0,0,1-.78,2c-1.05,1-1.27,2.4-2.17,3.4s-2,2-3,3l-2,2c-1.16-.21-2.39.2-3.66-.36a6.81,6.81,0,0,1-3.52-2.85c-.61-1.11-1.15-2.25-1.71-3.38a1.49,1.49,0,0,1-.24-.49c-.15-1.36-.28-2.73-.41-4l-.34-.34-.85.85-.13-.19c-.4.87-.74,1.77-1.22,2.6a10.55,10.55,0,0,1-1.36,1.77,60.55,60.55,0,0,0-4.09,4.56c-1.35,1.88-3.41,2.77-5.09,4.18a2.33,2.33,0,0,1-2.32.35c-1-.45-2.17-.32-3.16-.86l-1.67-3.3c.15-1.18-.66-2.41-.41-3.76.11-.67-.24-1.38.35-2,.14-.15-.27-.75-.28-1.15a3.09,3.09,0,0,1,.32-1c.64-1.73.54-3.62,1.14-5.37A5.67,5.67,0,0,0,284.83,140.41Z" transform="translate(-38.01 -47.83)"/><path d="M468.83,136.2l-.54-.55c-.63.17-1.4.16-1.84.53a8.64,8.64,0,0,1-2.17.91c-.6.28-1.26.42-1.85.71a3.6,3.6,0,0,1-2.6.38l-.89-1.56.64-1.53c.72-.37,1.43-1.07,2.1-1,1.17.07,1.88-1.06,3-.86,1-1,2.49-.93,3.74-1.31a27.14,27.14,0,0,1,3.86-1.08,31.23,31.23,0,0,0,4.59-1.45c1.3.18,2.95-.69,4.71-1a18.26,18.26,0,0,1,3-.65,9.24,9.24,0,0,0,1.6-.37,7.31,7.31,0,0,1,3.1.48c.19.64.37,1.28.56,2l-2.3,1.37-.26-.66c-1.55.58-2.94.4-4.26,1s-2.64.44-3.89,1-2.84.31-3.87,1.46a7.27,7.27,0,0,0-3.81,1.43,35.88,35.88,0,0,1,.37,4c0,1.35,1,2.41.79,3.83,1.39.19,1.77,1.42,1.9,2.42.18,1.38.51,2.42,2,2.71v2.82l-1.92.78c-2.11-1-2.45-2.07-4.41-4.67-.61.13-1.33-.32-2,.34-.21.2-.76,0-1.14,0-2,.13-4-.36-5.88.38-.78-.48-1.58.25-2.38-.06s-1.58-.57-2.38-.83c-.46-.15-.94-.25-1.51-.4l-4-3.42c-.25-1.34-.5-2.65-.77-4.07l.27-.34-.35-.56c.31-.81,1-1.48.8-2.42,1-1.64,1.42-3.65,2.91-5,.33-.31.79-.58.94-1,.86-2.36,3.09-3.5,4.56-5.32,1.49-.64,2.6-2.17,4.47-1.91a2.9,2.9,0,0,1,2.2-.35l1.72,1.29c-.43,1-.48,2.06-1.59,2.62l-.72-.44c-1.88.39-3.25,1.83-4.77,2.34l-5.37,6c-.36,1.4-.73,2.87-1.12,4.38.67.6.08,1.5.39,2.49.52.78,1.18,1.74,1.71,2.51.61.19,1,.26,1.3.4a9.12,9.12,0,0,0,3.89,1,22.83,22.83,0,0,1,2.34,0c1.59.1,3.1-.66,4.71-.43.29,0,.64-.29,1-.49a2,2,0,0,0-.3-1.84c-.18-.38-.48-.88-.36-1.18C469.45,139.29,468.3,137.69,468.83,136.2Z" transform="translate(-38.01 -47.83)"/><path d="M429,138.86c-1,.92-.56,2-1.16,2.78s0,1.68-.78,2.26a15.06,15.06,0,0,1-.34,3.37,2.67,2.67,0,0,0,.29,2.56c.19.24,0,.75,0,1L428.6,152v1.73L425,155c-1.79-.44-2-2.13-2.17-3.66a22.09,22.09,0,0,1,0-4.67,18.17,18.17,0,0,1,.85-4.32c.35-1,.62-2.08,1-3.09a6.06,6.06,0,0,0,.5-3.31c1.05-2.2.58-4.58.84-6.87.15-1.33.08-2.87,1.25-4,1.19-.19,2.2.45,3.27.85.32,2.14.64,4.28,1,6.45l.54.12c.28.32-.19.34-.26.71.74,1.86,1.45,3.91,2.38,5.85a14.71,14.71,0,0,0,3.11,4.57c1.16,1.08,2.13,2.35,3.19,3.53a2.43,2.43,0,0,0,2.36.86c1.42-1.7,1-3.84,1.77-5.63,0-.09-.41-.57-.32-1s.18-.69.33-1.26a1.29,1.29,0,0,1-.32-.56c-.16-1.7-.22-3.41-.42-5.1A39.27,39.27,0,0,0,443,129a2.3,2.3,0,0,0-.28-.55c.1-.39.38-.86.25-1.06-.7-1.08-.15-2.24-.46-3.51l3.54.53,2.16,1.67-1.7,2.77a19.1,19.1,0,0,0,0,3c.35,2.19.63,4.39,1,6.58a33.13,33.13,0,0,1,0,7.9,3.81,3.81,0,0,1-1.43,3.09c-.12.88-.83,1.13-1.49,1.5a23.16,23.16,0,0,0-2,1.39,2.42,2.42,0,0,1-1.57-.36c-.87-.53-1.83-.9-2.73-1.39a6.13,6.13,0,0,1-1.35-1,25.94,25.94,0,0,1-4.12-4.52,44.76,44.76,0,0,1-3.13-5.13A6.42,6.42,0,0,0,429,138.86Z" transform="translate(-38.01 -47.83)"/><path d="M248.64,147.26a3.4,3.4,0,0,1-2.8,1.54c-.53.08-1.06.19-1.75.32l-.54-.39-.77.48a15.41,15.41,0,0,1-2-1.09,4.69,4.69,0,0,1-1.53-2.07,15.8,15.8,0,0,0-1.28-2.06l-1.56.49c-.31,0-.73-.7-1.47-.19a3.14,3.14,0,0,1-1.65.21c-1.07,0-2.14,0-2.9.91l-.58-.39c-1.55.57-3.2.08-4.8.31-1.1,1.48-2.18,3-3.28,4.44-.23.31-.63.53-.75.86-.44,1.17-1.39,1.29-2.57,1.29l-1-1.17v-1.38l1.08-1.58-.33-.48a21.43,21.43,0,0,0,3-2.9,15.68,15.68,0,0,1,2.52-3.19c0-.29-.11-.67,0-.79a6.14,6.14,0,0,0,1.23-2,9.84,9.84,0,0,1,1.1-1.88,16.53,16.53,0,0,0,2.84-5.63c.26-.89,1.12-1.49,1-2.49,1.14-1,1.15-2.51,1.59-3.82a8.85,8.85,0,0,1,1.06-1.76l-.26-.28,1-1.48.9.6,2.73.94c-.21,1.8.74,3.2,1,4.76.32,2.18,1.4,4.17,1.42,6.45a13.48,13.48,0,0,0,.91,3.29,8.54,8.54,0,0,1,.56,2.09,3.69,3.69,0,0,0,1.44,2.63h3.23l0,.68c-.23,1.44-2,.88-2.44,2.13l1.28.91,3.2.57ZM233.77,128.9c-.42,1.62-1.71,2.58-2,4.08a9.57,9.57,0,0,1-2.14,3.75c-1,1.17-.72,2.92-2,3.65v1.31c1.74.21,3.42,1.05,5.08.07a2.94,2.94,0,0,0,3.15,0l.81.46.53-.52a11.89,11.89,0,0,1-.62-2.29c-.08-1.13-.54-2.15-.68-3.22-.18-1.41-.9-2.64-1-4.1A11.61,11.61,0,0,0,233.77,128.9Z" transform="translate(-38.01 -47.83)"/><path d="M178.84,131.39v3.18l.92.93c.23-.12.44-.32.66-.33.71,0,1.45.08,2.14,0,2.18-.37,4.46-.15,6.56-1.09a1.63,1.63,0,0,1,.9,0c.53.12,1,.3,1.65.47,1.34,1-.48,1.61-.47,2.57a11.91,11.91,0,0,0-4.35.73c-.58.15-1.09.6-1.78.44s-1.07.23-1.59.33c-1.42.28-2.86.38-4.59.58l-.85,1.07c-.17.71.38,1.72-.26,2.42l.58,5.44,2,1.83a4.58,4.58,0,0,0,2.36-.5,21.51,21.51,0,0,0,2.08-1.08,19.27,19.27,0,0,0,2.1-1.83c-.22-.89,1.49-1.4.87-2.59l1.76-1.75h1.37l.81,1.87a41.62,41.62,0,0,1-3.12,5.63,35.13,35.13,0,0,1-2.94,2.22,11.17,11.17,0,0,1-2.06,1.12c-.84.24-1.56,1.48-2.62.44-.55.73-1.32.16-1.83.39-.41-.33-.68-.72-1-.77-2.19-.35-3-2-3.58-3.78-.23-.68-.47-1.36-.76-2.2l.32-.49a10.55,10.55,0,0,1,0-5.46,10.19,10.19,0,0,0,0-2.14,4.69,4.69,0,0,1,.4-2.56,4.14,4.14,0,0,0,.38-2.37c0-1.49,0-3,0-4.66l1.33-.91.63,0a12.25,12.25,0,0,1,4.91-2.73c1.37-.41,2.8-.11,4.11-.43a23.27,23.27,0,0,1,6.28-.28,43.86,43.86,0,0,0,5.3.32v1.82a8.55,8.55,0,0,1-4.63.51c-2.06-.17-4,.6-5.52.45-1.52.49-2.54.83-3.58,1.13-.69.2-1.43.29-2.12.52A8.94,8.94,0,0,0,178.84,131.39Z" transform="translate(-38.01 -47.83)"/><path d="M329.9,148.32c-.43-.25-.85-.51-1.28-.74a4.33,4.33,0,0,1-2.11-2.6c-.35-.9-.65-1.81-.95-2.72a3.74,3.74,0,0,1-.16-2,13.18,13.18,0,0,1,3-6,17.51,17.51,0,0,0,1.54-1.88,15.42,15.42,0,0,1,4.33-4,7.78,7.78,0,0,0,1.06-.7c.29-.3.39-.86.72-1,1.57-.88,3.19-1.68,4.8-2.5.15-.08,2.52-.7,2.63-.68.31,0,.61.08.92.14l1.94.38c1.72.52,2.12,2.58,3.56,3.53v5c-1.27,1.65-.58,3.94-1.93,5.53.14,1.58-.78,2.7-1.59,4-1.35,2.13-3.5,3-5.49,4.18-.57.33-1.18.6-1.76.91A8.43,8.43,0,0,1,335,148.4c-1,0-1.91.67-3,.4C331.3,148.61,330.58,148.48,329.9,148.32Zm12.78-20.65-1.59.86c-.52.28-1.07.54-1.58.86a34.2,34.2,0,0,0-4.34,3.14,17.7,17.7,0,0,0-3.19,4.12c-.24.36-.56.67-.77,1-.82,1.47-1.52,3-1.08,4.7a4.41,4.41,0,0,0,2.49,2.45,9.13,9.13,0,0,0,6.64-1.5c1.06-.72,2.37-1.22,3.15-2.16a11.15,11.15,0,0,0,2.57-4.35,37.57,37.57,0,0,1,1.33-3.72c.33-.86-.43-1.72.08-2.56.05-.07,0-.25-.07-.34a4.94,4.94,0,0,0-.46-.47A3,3,0,0,1,342.68,127.67Z" transform="translate(-38.01 -47.83)"/><path d="M223.71,130.56l-.54-.78c-1.19.12-2.19.16-3.16.33a11.83,11.83,0,0,0-2,.76h-1.77a4.58,4.58,0,0,0-2,.35,2.47,2.47,0,0,1-1.63.09c-1.35-.38-2.71.2-4.06.43-.54.1-1.05.3-1.56.44.09.74.2,1.52.27,2.3,0,.43-.11.9.35,1.24.1.07.1.39,0,.54a5.56,5.56,0,0,0,0,3,22.84,22.84,0,0,1,0,3l.56,1.09c1,.24,2-1.22,2.92.27v2.26c-.29.57-1.15.79-1.17,1.67-1.49.21-2.35,2-4.09,1.61L203.32,145c.42-1.58-.34-3.16-.33-4.81s.08-3.37,0-5.06a12,12,0,0,0-.58-2.38c-1.15-.92-2.1.71-3-.23a6.1,6.1,0,0,1-5.15.28l-.59-1.71,1.52-1.31,2-.46a10.31,10.31,0,0,0,2.2-.31,10.54,10.54,0,0,1,3.7-.45c2.29-.08,4.54-.67,6.85-.41,1-.64,2.16-.09,3.1-.5s2-.09,3-.3a10.9,10.9,0,0,0,1.73-.66l.21.2,6.9-1.68.6-.56,2,2.27a7.75,7.75,0,0,0-1.51,2.18C225.61,129.69,224.64,130,223.71,130.56Z" transform="translate(-38.01 -47.83)"/><path d="M254.77,132.29l-.68.67v3.39c-1.65,2.18-.5,4.49-.39,6.86l1.21,1c.71.46,1.78-1,2.84-.24,1.31-.6,2.68-1.2,4-1.84s2.59-1.26,4-2l.56.36,1.71-.41c.1,1.3-1.1,1.77-1.26,2.8-.26,0-.58-.1-.75,0-1.8,1.24-3.79,2.14-5.67,3.22-.32.18-.61.65-.89.63-1.29-.08-2.23,1.13-3.58.85a1.63,1.63,0,0,0-1.63.26c-.16.15-.68-.06-1-.12l-1.58-.31a14.69,14.69,0,0,1-2.13-3.1,7.19,7.19,0,0,1-.43-4.79,4.94,4.94,0,0,0,.23-2,6,6,0,0,1,.49-2.92,3,3,0,0,0,.28-2,2.93,2.93,0,0,1,0-2.42L249,127.81c.07-1.84,1.6-2.26,2.58-3.17l2.74.9A23.16,23.16,0,0,1,254.77,132.29Z" transform="translate(-38.01 -47.83)"/><path d="M414.88,127.66l1-1H417l1.49,1.59a39.62,39.62,0,0,1-.07,6.23,39.15,39.15,0,0,0-.29,5.5,11.4,11.4,0,0,0,.32,2.15l1,.11c.33.86.69,1.69.94,2.55.07.22-.22.54-.33.78l-2.58.47a5.89,5.89,0,0,1-2.78-2.87c-.17-1.26-.43-2.55-.48-3.86a4.22,4.22,0,0,1,.22-2.62c.48-.76-.33-1.81.53-2.5a21.56,21.56,0,0,0-.1-4.26C414.72,129.06,415.42,128.4,414.88,127.66Z" transform="translate(-38.01 -47.83)"/></svg>