<?xml version="1.0" encoding="utf-8"?>
<!-- Generator: Adobe Illustrator 25.2.1, SVG Export Plug-In . SVG Version: 6.00 Build 0)  -->
<svg version="1.1" id="Layer_1" xmlns="http://www.w3.org/2000/svg" xmlns:xlink="http://www.w3.org/1999/xlink" x="0px" y="0px"
	 viewBox="0 0 600 300" style="enable-background:new 0 0 600 300;" xml:space="preserve">
<style type="text/css">
	.st0{fill:none;stroke:#000000;stroke-width:7;stroke-linecap:round;stroke-miterlimit:10;}
</style>
<path class="st0" d="M303.64,213.09c0.77,10.44,1.22,21.25,1.27,32.43c0.04,10.32-0.26,20.33-0.84,30.01"/>
<path class="st0" d="M293.04,209.41c43.43,5.13,95.19-20.59,102.62-62.45c8.23-46.36-40.96-95.27-92.58-96.07
	c-45.18-0.7-94.44,35.45-93.45,81.22C210.56,174.72,254.59,204.87,293.04,209.41z"/>
<g>
	<g>
		<path d="M335.37,108.45c0.17,0.61,0.34,1.21,0.52,1.85c-0.23,0.54-0.36,1.16-0.3,1.8c0.04,0.45,0.12,0.9,0.19,1.35
			c0.13,0.77,0.16,1.53,0.08,2.31c-0.1,0.9-0.38,1.75-0.7,2.59c-0.28,0.76-0.5,1.55-0.66,2.34c-0.03,0.13-0.08,0.27-0.16,0.37
			c-0.85,1.13-1.59,2.33-2.33,3.53c-0.96,1.55-1.96,3.08-3.07,4.53c-0.41,0.53-1.55,1.7-2.1,2.16c0.03,0.32-0.14,0.57-0.39,0.76
			c-0.02,0.1-0.04,0.19-0.07,0.37c-0.14,0.12-0.33,0.28-0.51,0.45c-0.7,0.73-1.43,1.44-2.09,2.2c-0.51,0.58-0.95,1.22-1.42,1.84
			c-0.07,0.1-0.14,0.22-0.25,0.27c-0.63,0.32-1.06,0.84-1.43,1.41c-0.03,0.05-0.06,0.09-0.09,0.14c-0.46,0.1-0.79,0.35-1.08,0.72
			c-0.42,0.54-0.9,1.05-1.37,1.56c-0.38,0.42-0.76,0.85-1.17,1.24c-0.7,0.67-1.39,1.35-2.16,1.94c-0.72,0.54-1.42,1.1-2.15,1.62
			c-0.61,0.43-1.26,0.8-1.88,1.22c-0.24,0.16-0.46,0.35-0.68,0.54c-0.98,0.88-2,1.71-3.11,2.41c-0.97,0.62-2.03,0.99-3.17,1.15
			c-0.13,0.18-0.15,0.38-0.14,0.59c0,0.21,0,0.42,0,0.62c-0.02,0.7-0.04,1.41-0.08,2.11c-0.01,0.23-0.07,0.47-0.18,0.67
			c-0.14,0.27-0.17,0.52-0.07,0.79c0.04,0.12,0.06,0.24,0.1,0.36c0.11,0.32,0.23,0.64,0.34,0.94c-0.07,0.19-0.12,0.33-0.18,0.5
			c0.31,0.11,0.63,0,0.91,0.07c0.09,0.3,0.15,0.6,0.28,0.86c0.14,0.27,0.35,0.5,0.53,0.75c0.06,0.71-0.04,1.41-0.2,2.09
			c-0.1,0.43-0.2,0.64-0.86,1.05c0,0.68-0.01,1.39-0.53,1.94c-1.53,0.14-3,0.02-4.36-0.81c-0.26-0.46-0.41-1-0.53-1.53
			c-0.16-0.69-0.25-1.38-0.27-2.09c-0.01-0.64-0.07-1.27-0.06-1.9c0-0.62,0.03-1.24,0.08-1.86c0.06-0.75,0.15-1.51,0.25-2.26
			c0.09-0.67,0.21-1.33,0.31-2c0.05-0.33,0.06-0.66,0.1-0.99c0.04-0.38,0.1-0.76,0.14-1.15c0.01-0.08,0.03-0.17,0.02-0.25
			c-0.04-0.4,0.08-0.76,0.29-1.1c0.07-0.12,0.12-0.25,0.19-0.37c0.19-0.33,0.26-0.68,0.29-1.06c0.08-0.81,0.23-1.61,0.36-2.41
			c0.12-0.71,0.25-1.41,0.37-2.11c0.11-0.65,0.22-1.3,0.32-1.95c0.05-0.35,0.08-0.71,0.1-1.07c0.03-0.62,0.05-1.24,0.08-1.86
			c0.01-0.11,0.04-0.22,0.08-0.32c0.27-0.68,0.47-1.38,0.51-2.12c0.02-0.33,0.07-0.66,0.07-0.99c0.01-0.57-0.05-1.13-0.29-1.6
			c0.22-0.36,0.41-0.69,0.61-1.03c0.03-0.67,0.06-1.34,0.11-2.02c0.04-0.66,0.12-1.32,0.15-1.98c0.03-0.72,0.02-1.44,0.02-2.16
			c0-0.85,0.03-1.69-0.02-2.54c-0.06-1.02-0.11-2.04-0.35-3.03c-0.1-0.4-0.06-0.79-0.01-1.19c0.1-0.79,0.06-1.57-0.31-2.34
			c-0.13,0.03-0.24,0.04-0.36,0.08c-1.46,0.43-2.8,1.1-4.07,1.93c-1.39,0.9-2.73,1.88-4.07,2.86c-0.45,0.32-0.88,0.66-1.34,0.97
			c-0.32,0.22-0.66,0.41-1.05,0.46c-0.2,0.03-0.41,0.05-0.62,0.03c-0.46-0.05-0.93-0.12-1.4-0.19c-0.21-0.17-0.43-0.37-0.67-0.53
			c-0.24-0.16-0.5-0.29-0.8-0.45c-0.31-1.22-0.13-2.41,0.32-3.57c0.55-0.21,1.06-0.39,1.56-0.59c0.62-0.25,1.21-0.56,1.72-0.98
			c0.32-0.27,0.57-0.6,0.75-0.96c0.05-0.01,0.08-0.03,0.1-0.02c0.55,0.24,1.05,0.08,1.53-0.21c0.92-0.56,1.81-1.18,2.8-1.62
			c0.18-0.08,0.42-0.09,0.54-0.33c0.01-0.11,0.02-0.25,0.03-0.38c0.73-0.25,1.45-0.49,2.16-0.75c0.7-0.26,1.32-0.68,1.87-1.16
			c0.11,0,0.18-0.01,0.25,0c0.35,0.04,0.64-0.07,0.93-0.27c0.63-0.44,1.35-0.68,2.06-0.97c0.77-0.31,1.54-0.61,2.3-0.94
			c0.31-0.14,0.62-0.31,0.89-0.53c0.4-0.33,0.81-0.46,1.3-0.27c0.62-0.29,1.03-0.81,1.51-1.25c0.67,0,1.32-0.1,1.95-0.33
			c0.53-0.19,1.05-0.43,1.54-0.72c0.36-0.21,0.74-0.38,1.12-0.58c0.18,0.09,0.35,0.18,0.59,0.3c0.1-0.02,0.3-0.02,0.44-0.11
			c0.53-0.34,1.13-0.43,1.72-0.57c0.32-0.07,0.65-0.11,0.97-0.19c0.41-0.1,0.78-0.27,1.11-0.56c0.74,0,1.5,0.05,2.24-0.01
			c1.73-0.13,3.46-0.06,5.19-0.06c0.49,0,0.99,0.09,1.48,0.14c0.44,0.05,0.87,0.12,1.31,0.17c0.61,0.07,1.18,0.28,1.75,0.49
			c0.66,0.24,1.24,0.6,1.84,1.03C333.92,106.74,334.53,107.68,335.37,108.45z M308.86,143.08c0.08,0,0.16-0.01,0.24,0
			c0.32,0.04,0.55-0.09,0.78-0.3c0.47-0.45,0.97-0.86,1.45-1.3c0.91-0.85,1.83-1.69,2.72-2.56c0.95-0.93,1.88-1.89,2.79-2.85
			c0.78-0.82,1.53-1.67,2.28-2.53c0.78-0.9,1.53-1.82,2.26-2.69c0.21-0.11,0.38-0.19,0.54-0.28c0.16-0.1,0.32-0.21,0.49-0.33
			c1.27-1.74,2.6-3.45,4.16-4.97c0.01-0.42,0.23-0.76,0.44-1.11c0.16-0.26,0.32-0.52,0.49-0.77c0.23-0.34,0.26-0.75,0.37-1.11
			c0.33-0.17,0.63-0.32,0.89-0.45c0.1-0.28,0.14-0.53,0.26-0.72c0.29-0.44,0.4-0.9,0.23-1.42c0.06-0.04,0.1-0.08,0.15-0.1
			c0.5-0.24,0.81-0.64,1.06-1.12c0.36-0.7,0.57-1.43,0.7-2.2c0.15-0.85,0.29-1.7,0.44-2.53c-0.08-0.32-0.2-0.62-0.24-0.93
			c-0.04-0.33-0.01-0.66-0.01-0.97c-0.45-0.39-0.73-0.84-0.97-1.33c-0.32-0.67-0.86-1.1-1.65-1.13c-0.29-0.01-0.58-0.03-0.86-0.08
			c-0.5-0.09-1.01-0.17-1.44-0.48c-0.11-0.08-0.25-0.15-0.38-0.16c-0.39-0.02-0.79-0.06-1.16,0.02c-0.51,0.11-1.01,0.13-1.52,0.14
			c-0.3,0-0.58-0.05-0.84-0.17c-0.58-0.26-1.12-0.21-1.65,0.14c-0.31,0.21-0.64,0.32-1.03,0.19c-0.16,0.23-0.31,0.45-0.46,0.67
			c-1.6-0.09-3.1,0.11-4.37,1.15c-0.66-0.19-1.28-0.07-1.84,0.27c-0.51,0.31-1.04,0.49-1.52,0.5c-0.53,0.32-0.94,0.62-1.4,0.84
			c-0.52,0.25-1.08,0.41-1.61,0.65c-0.52,0.23-1.04,0.46-1.52,0.74c-0.45,0.26-0.79,0.64-0.95,1.18c0.18,0.16,0.36,0.31,0.5,0.43
			c0.06,0.41-0.02,0.76-0.09,1.11c-0.07,0.32-0.11,0.65-0.12,0.98c-0.01,0.27,0.04,0.55,0.07,0.82c0.01,0.08,0.01,0.17,0.02,0.25
			c0.17,0.81,0.35,1.61,0.53,2.42c0.03,0.13,0.03,0.27,0.03,0.35c-0.2,0.34-0.37,0.62-0.55,0.92c0.01,0.06,0.03,0.14,0.06,0.21
			c0.29,1.01,0.51,2.03,0.5,3.09c0,0.11,0.03,0.22,0.04,0.33c0.01,0.08,0.03,0.16,0.02,0.25c-0.02,0.37-0.04,0.74-0.08,1.11
			c-0.03,0.34-0.07,0.68-0.13,1.02c-0.12,0.68-0.26,1.35-0.37,2.03c-0.07,0.42-0.11,0.85-0.19,1.26c-0.06,0.29-0.06,0.57-0.03,0.85
			c0.12,0.13,0.22,0.24,0.32,0.35c-0.01,0.14-0.02,0.26-0.03,0.39c-0.1,0.62-0.2,1.25-0.31,1.87c-0.1,0.62-0.21,1.25-0.31,1.87
			c-0.09,0.6-0.18,1.2-0.27,1.79c-0.07,0.46-0.13,0.93-0.2,1.39c-0.07,0.48-0.15,0.95-0.21,1.43c-0.07,0.52-0.12,1.04-0.18,1.56
			c-0.07,0.6-0.16,1.2-0.23,1.8c-0.02,0.15,0,0.3,0,0.47c0.21-0.02,0.39-0.06,0.56-0.06c0.41-0.01,0.79-0.12,1.16-0.29
			c0.42-0.19,0.79-0.46,1.11-0.78C308.14,143.84,308.48,143.47,308.86,143.08z"/>
		<path d="M284.8,112.99c0.04,0.56,0.07,1.04,0.11,1.59c0.38,0.7,0.52,1.53,0.47,2.38c-0.08,1.37-0.09,2.74-0.07,4.11
			c0.01,0.52,0.07,1.05,0.06,1.57c-0.01,0.79-0.04,1.58-0.08,2.36c-0.04,0.66-0.09,1.32-0.16,1.98c-0.08,0.74-0.15,1.48-0.17,2.23
			c-0.01,0.51-0.04,1.02-0.08,1.53c-0.1,1.29-0.24,2.57-0.52,3.84c-0.13,0.6-0.22,1.22-0.31,1.83c-0.09,0.65-0.17,1.31-0.23,1.97
			c-0.02,0.21,0.05,0.44,0.06,0.66c0.03,0.79-0.1,1.56-0.39,2.31c-0.27,0.68-0.44,1.4-0.42,2.14c0,0.25,0.04,0.5,0.1,0.73
			c0.05,0.18,0.05,0.34-0.01,0.52c-0.29,0.88-0.47,1.78-0.61,2.7c-0.1,0.68-0.23,1.36-0.31,2.04c-0.06,0.44-0.06,0.88-0.1,1.32
			c-0.02,0.22-0.06,0.44-0.07,0.66c-0.03,0.78,0.05,1.54,0.19,2.3c0.11,0.59,0.28,1.15,0.56,1.68c0.12,0.23,0.26,0.45,0.42,0.73
			c0.3,0.03,0.63,0.07,0.96,0.09c0.58,0.04,1.16,0.02,1.74,0.1c0.52,0.07,1.04,0.17,1.4,0.63c0.14,0.18,0.22,0.37,0.24,0.6
			c0.05,0.58-0.19,1.05-0.53,1.48c-0.27,0.35-0.54,0.7-0.85,1.09c-0.34,0.2-0.76,0.3-1.2,0.38c-0.42,0.07-0.83,0.2-1.24,0.33
			c-0.13,0.04-0.23,0.14-0.36,0.23c-0.25,0.08-0.48-0.03-0.69-0.17c-0.51-0.34-1.05-0.54-1.66-0.58c-0.22-0.01-0.44-0.05-0.66-0.07
			c-0.44-0.06-0.8-0.25-1.09-0.6c-0.82-0.96-1.18-2.12-1.48-3.3c-0.21-0.85-0.37-1.72-0.44-2.6c-0.07-0.81-0.17-1.62-0.14-2.44
			c0.02-0.67,0.1-1.35,0.14-2.02c0.07-1.1,0.32-2.17,0.55-3.25c0.1-0.44,0.02-0.91,0.02-1.38c-0.03-0.04-0.07-0.09-0.12-0.15
			c0.01-0.04,0.02-0.08,0.03-0.11c0.26-0.68,0.49-1.38,0.63-2.1c0.12-0.58,0.21-1.16,0.31-1.75c0.09-0.52,0.16-1.03,0.23-1.55
			c0.04-0.34,0.06-0.69,0.1-1.03c0.05-0.42,0.1-0.85,0.15-1.27c0.03-0.29,0.06-0.58,0.1-0.86c0.11-0.82,0.22-1.64,0.35-2.45
			c0.06-0.39,0.18-0.78,0.26-1.17c0.03-0.17,0.07-0.36,0.04-0.53c-0.09-0.57-0.09-1.12,0.01-1.69c0.12-0.69,0.25-1.38,0.32-2.08
			c0.04-0.39-0.02-0.8-0.03-1.2c-0.01-0.37-0.02-0.75-0.01-1.12c0-0.19,0.05-0.38,0.06-0.57c0.04-0.66,0.04-1.33,0.1-1.99
			c0.07-0.66,0.11-1.32,0.17-1.98c0.11-1.07,0.06-2.13,0.05-3.2c0-0.49-0.12-0.98-0.18-1.47c-0.02-0.18-0.04-0.35-0.06-0.53
			c-0.03-0.26-0.05-0.52-0.07-0.78c-0.01-0.12-0.01-0.25,0-0.37c0.02-0.22,0.05-0.44,0.06-0.66c0.02-0.52,0.22-0.91,0.73-1.15
			c0.53-0.24,1.06-0.39,1.64-0.38c0.47,0.01,0.94-0.06,1.39,0.16C284.43,112.8,284.63,112.9,284.8,112.99z"/>
	</g>
</g>
</svg>
