<svg xmlns="http://www.w3.org/2000/svg" width="425.92" height="261.16" viewBox="0 0 425.92 261.16"><path d="M297.75,241.39c-.47,7.62-.74,15.52-.76,23.69,0,7.53.15,14.84.5,21.91" transform="translate(-86.45 -29.33)" fill="none" stroke="#000" stroke-linecap="round" stroke-miterlimit="10" stroke-width="7"/><path d="M90,123.38c2.13-54.55,106.68-85,195.18-90.08,101-5.72,228,41.17,223.59,99.25-4.22,56.22-102.93,104-212.78,105C192.21,238.49,87.82,178.85,90,123.38Z" transform="translate(-86.45 -29.33)" fill="none" stroke="#000" stroke-miterlimit="10" stroke-width="7"/><path d="M246.1,69.65l2.54,2.53c0,1.36,0,3.1,0,4.84a5.23,5.23,0,0,1-.51,1.9,10.13,10.13,0,0,0-.37,2.8,3.08,3.08,0,0,0-.82,2.62c.11,1.86-.72,3.65-.42,5.53-.87,1-.07,2.38-.79,3.48-.29.46.34,1.24,0,2a6.42,6.42,0,0,0-.45,1.92,42.73,42.73,0,0,0-.87,7,2.33,2.33,0,0,1-.42,1.29,3.44,3.44,0,0,0-.42,2c0,.73.24,1.52-.39,2.16-.11.11,0,.42,0,.62a8.94,8.94,0,0,1,.38,1.73c0,.57-.38,1.16-.36,1.72.07,1.78.25,3.55.39,5.32.89,1,.45,2.5,1.47,3.41.33,1.68,1.48,2.32,3.05,2.69.61.15,1.76.42,1.27,1.94l-1.83,1.32c-1.26-.45-2.39-1.1-3.74-.84a11.69,11.69,0,0,0-1.05-1.06c-1.65-1.3-2-3.19-2.6-5.06s-.54-3.95-1.12-5.86c1-2.4-.38-5,.75-7.43,0-.06,0-.14,0-.21.14-1.7.33-3.4.41-5.11,0-1,.72-1.93.44-3,.72-.52.33-1.28.41-1.94.11-.91.18-1.83.28-2.85a1.17,1.17,0,0,0-.69.72,64.56,64.56,0,0,1-5.06,8.9,7,7,0,0,1-2.64,2.45c-.89-.47-1.42.46-2.14.56-1.88-.31-3-2-4.7-2.62l-1.79-2.52c-1.07-1.53-1.43-3.35-2.1-5-1.17-3-1.78-6.15-2.85-9.23-1.28,1.64-.4,3.54-.77,5.32l-.78.78a10.28,10.28,0,0,1-.79,5.06,3.18,3.18,0,0,0,0,1.45,3.75,3.75,0,0,1-.57,2.52,1.35,1.35,0,0,0-.27.72,23.77,23.77,0,0,1-1.19,5.84,9.65,9.65,0,0,0,0,2.59l-.79.53c-.3,1.29.29,2.39-.53,3.3.21.75.36,1.54.64,2.27s.42,1.32,1.32,1.32l1.18,2.58L214.07,125h-2.23l-1.55-3.57c-.34-.8.34-1.79-.53-2.52.16-.94-.29-1.92.28-2.85a2.35,2.35,0,0,0,.13-1.2,34.3,34.3,0,0,1,.72-4.33c.2-1.74.71-3.41,1.06-5.09s.33-3.57,1.17-5.2a1.41,1.41,0,0,0,0-.84,3.76,3.76,0,0,1,.47-2.55c.66-1.18.36-2.48.71-3.71a26.71,26.71,0,0,0,.62-4.43c.17-1.64.07-3.31.39-4.89a17.32,17.32,0,0,0,.34-3.64,6.24,6.24,0,0,0-.38-1.31l.8-1.38c.77-.58,1.35.29,2.12-.13.59-.33,1.51-.07,2.18-.07,1.14.42,1.24,1.51,1.56,2.33a10.71,10.71,0,0,1,.47,3.17,7.55,7.55,0,0,0,.42,1.73c.48,1.64.68,3.36,1.3,5a7,7,0,0,0,.35.74l-.35.39c0,.14-.06.35,0,.41,1.27,1.21,1.4,3,2,4.45a20.32,20.32,0,0,0,2.64,5c.65.8,1.39,1.8,2.58,1.78a16,16,0,0,0,4.14-5.34c.54-1,1.42-1.89,1.57-2.92a9.65,9.65,0,0,1,1.47-3c.87-1.7,1.15-3.6,2-5.3.17-.34.06-.82.2-1.18.28-.66.65-1.28,1.09-2.14a4.36,4.36,0,0,1,.64-2.65,5.27,5.27,0,0,0,.6-2.47,11.11,11.11,0,0,1,1.26-3.74V70.84l.88-1.19Z" transform="translate(-86.45 -29.33)"/><path d="M358.93,168.14v-2.9a21.64,21.64,0,0,0,1.63-1.94,15.65,15.65,0,0,1,3-2.93c1.05-.93,2.26-1.68,3.36-2.57.6-.48,1.08-1.1,1.65-1.62a15.86,15.86,0,0,1,1.58-1.26,5.21,5.21,0,0,0,2.33-3.43c0-.23.29-.43.46-.66-.4-1.17-1.59-1.12-2.35-1.23a13.09,13.09,0,0,0-5,0c-1.58.41-3.26-.05-4.74.76-.84-.25-1.22.48-1.81.92l-.77-.46a10.61,10.61,0,0,0-4.37,2.24,8.68,8.68,0,0,1-.74,3.76,3.87,3.87,0,0,0-.1,1.23c0,2.32-.14,4.65,0,7a14.12,14.12,0,0,0,1.66,6,13.41,13.41,0,0,0,1.32,1.68l-1.1,2.94c-2.76.39-3.35-2.26-4.67-3.4-.39-1.73-1-3.24-1-4.71s-1.11-2.75-.16-4.34c.79-1.33-.78-2.84,0-4.5.58-1.28.38-2.92.52-4.34l-.54-.54a1.31,1.31,0,0,0-.27.06,13.35,13.35,0,0,0-2.27,1.13,2.75,2.75,0,0,1-1.82.38l-1.44-1.61v-1.55c.66-.38,1.33-.79,2-1.17a4.63,4.63,0,0,1,2-.77c1.24-.09,2-1.18,3-1.79a3.06,3.06,0,0,0,.65-.71l3.6.57,1-1,.45.3a35.19,35.19,0,0,1,4.81-1.19c1.65-.22,3.24-.87,4.94-.78s3.22-.75,4.89-.43l5,.95s0,0,.06.06c1.72,1.51,2.5,2.7.94,5.92-.32.64-.59,1.31-.89,2-.69,1.45-1.33,2.91-3,3.62-.42.18-.7.69-1.06,1-1.73,1.6-3.4,3.26-5.23,4.74a14.9,14.9,0,0,0-2,1.7,4.72,4.72,0,0,0-.57,1.22l1.31,1.22h3.35a11.87,11.87,0,0,0,3.64-.37c1.15-.36,2.44.23,3.66-.35s2.49.36,3.58-.55c.6.11,1,.78,1.87.24.55-.36,1.46-.2,2.21-.23s1.41,0,2.21,0l1-1.51c0-1.27.06-2.6,0-3.93-.13-2.64.69-5.21.47-7.85a3.8,3.8,0,0,0-.94-2.63,12.53,12.53,0,0,0-2.49.74c-.88.46-1.58-.4-2.33,0-.37-.85-.87-1.57-.56-2.4a2.89,2.89,0,0,1,2.13-1.88c1-.24,2-.52,3-.85a11.41,11.41,0,0,0,1.62-.83c.71,0,1.7,0,2.68,0s1.71-.32,2.58-.39a12.29,12.29,0,0,0,2.51,0c1.9-.62,3.72.2,5.58.13a7.16,7.16,0,0,1,3.87,1.24c1.13.71,2.62,1.2,3.06,2.74,1.78.71,1.79,2.61,2.65,3.94a1.45,1.45,0,0,1,.23.94,26.64,26.64,0,0,1-.86,4.08,14.1,14.1,0,0,1-1.73,3.28,23.33,23.33,0,0,1-5.77,5.83,18.54,18.54,0,0,0-3.1,2.7c-1.12,1.25-2.92,1.37-4,2.62a3.79,3.79,0,0,0-2.61.85l-1.61-.58c-.5-1.71-2.83-1.83-3.54-3.7-.86.2-1.68-.25-2.41.46-.14.14-.54,0-.82,0a19.22,19.22,0,0,0-3.85.35,15.45,15.45,0,0,0-3.67.87c-.18.08-.42,0-.62,0-.78.15-1.59-.26-2.4.36-.52.4-1.52-.29-2.11.48,0,0-.14,0-.2,0-1.81-.29-3.54.39-5.32.44a14.23,14.23,0,0,1-4.67-1A4.49,4.49,0,0,1,358.93,168.14Zm33.36.45c1,.55,1.84,0,2.64-.36a17.45,17.45,0,0,0,5.27-3.56c1.29-1.3,2.59-2.58,3.88-3.87a13.86,13.86,0,0,0,2.73-4.77,3.43,3.43,0,0,0-.14-2.85,17.18,17.18,0,0,0-1-1.93l-1.48-.51L401,148.68c-2,0-3.93.06-5.82,0a7.42,7.42,0,0,0-4.09,1.1c.08.08.16.13.17.18a15.74,15.74,0,0,1,0,6.34c-.2.83.19,1.81-.57,2.51-.07.06,0,.27,0,.41a11,11,0,0,1-.39,3.63c-.38,1,.3,2.08.54,3.12a5.46,5.46,0,0,1,1.9-.32,10.13,10.13,0,0,0,1.94.42c.26,0,.51.55.77.86l-.9.92Z" transform="translate(-86.45 -29.33)"/><path d="M260.47,148.14l.9-1.51c1.35-.3,2.42.51,3.63.85l.54,3.56c.17,1.13.34,2.26.53,3.46l.69.17-.36.72c1,2.18,1.52,4.76,2.9,7a19.61,19.61,0,0,0,3,4.27c1.25,1.18,2.29,2.56,3.47,3.82a3.78,3.78,0,0,0,1.32.88,4.53,4.53,0,0,0,1.27.14c1.46-1.85,1.11-4.13,1.91-6.08,0-.09-.29-.3-.28-.44,0-.65.12-1.29.23-2.27.06.06-.25-.12-.27-.32-.18-1.91-.22-3.84-.47-5.73a41.69,41.69,0,0,0-.83-6,2,2,0,0,0-.38-.53c1-.69-.05-1.39,0-2.12s0-1.68,0-2.73c.46.09.87.18,1.3.24.74.1,1.49.17,2.31.26l2.45,1.84-1.84,3.06c0,1.17,0,2.51,0,3.84a14.42,14.42,0,0,0,.41,2.14c.16.79-.25,1.59.36,2.4.39.51-.17,1.45.45,2.14.21.24,0,.82,0,1.24,0,1.76,0,3.52,0,5.28a9.36,9.36,0,0,1-1.72,5.62,3,3,0,0,1-1.4,1.15,12.18,12.18,0,0,0-2.37,1.63,2.27,2.27,0,0,1-1.64-.39c-1-.61-2.09-1.07-3.13-1.62a4.71,4.71,0,0,1-1.16-.75,30.13,30.13,0,0,1-4.76-5.21,55.7,55.7,0,0,1-3.28-5.39,10.29,10.29,0,0,0-.75-1.2c-1.26,1.12-.63,2.87-1.76,3.78l.37.44a3.36,3.36,0,0,0-.82,2.45,8.8,8.8,0,0,1-.32,2.38,2.89,2.89,0,0,0,.3,2.79c.21.24,0,.82,0,1.16L263,175.8v2c-.64.15-1.28.26-1.9.47s-1.2.52-1.87.82c-2.14-.41-2.16-2.34-2.49-4a15.84,15.84,0,0,1,0-3.08l-3.1.65-.83-.41-.61.56a18.2,18.2,0,0,1-2.36-1.3,4.23,4.23,0,0,1-1.57-2.08,3.56,3.56,0,0,0-1.71-2.26l-1.25.49a2,2,0,0,0-1.81-.19c-1,.41-2.19.19-3.41.25l-1.47.8c-.56-.61-1.14,0-1.73,0s-1.27,0-1.9,0h-2.1c-.37.47-.74.93-1.09,1.41-1.18,1.62-2.33,3.27-3.55,4.86a5.76,5.76,0,0,1-1.33.91h-1.26l-1-1.05a3.32,3.32,0,0,1,1.2-3.33l-.46-.77a15.68,15.68,0,0,0,4.3-4.37c.07-.09,0-.35,0-.4a8.24,8.24,0,0,0,2.22-3.1c1.5-2.92,3.48-5.57,4.77-8.59a14.43,14.43,0,0,0,.59-2.07c.17-.65,1.14-.87.89-1.78-.05-.18.39-.52.63-.76.77-.76.62-1.87.93-2.78a7.47,7.47,0,0,1,1.33-2.51l-.34-.33,1.09-1.58,1.35.84a6.69,6.69,0,0,1,1.25.22,8.76,8.76,0,0,1,1.34.76c-.27,1.76.79,3.26,1,5,.35,2.36,1.5,4.53,1.54,7a14.81,14.81,0,0,0,1,3.58,10.1,10.1,0,0,1,.62,2.27,4,4,0,0,0,1.55,2.85h3.51l0,.75c-.25,1.55-2.13,1-2.64,2.31l1.42,1,2.81.44.46-1.08c.37-1.59.79-3.74,1.41-5.83a13.82,13.82,0,0,0,.78-3.48,8.43,8.43,0,0,1,.4-1.51,17.7,17.7,0,0,0,.41-2.15c.07-.7,0-1.41,0-2.11a8.2,8.2,0,0,1,.06-2.72A7.73,7.73,0,0,0,260.47,148.14Zm-18.34,2.64a4.67,4.67,0,0,1-.78,1.67c-.66,1.1-.94,2.44-1.62,3.53a51,51,0,0,0-3.34,6c-.1.24-.13.56-.31.71a1.66,1.66,0,0,0-.41,2c1.83,0,3.6,1.1,5.38,0a3.37,3.37,0,0,0,3.44,0l.91.55.7-.71a3.51,3.51,0,0,1-.42-.58c-.49-1.31-.42-2.73-.8-4.08s-.71-2.67-1-4a31.81,31.81,0,0,0-1.12-4.18A6.81,6.81,0,0,0,242.13,150.78Z" transform="translate(-86.45 -29.33)"/><path d="M270.17,99.78l.56,1-1.25,1.81a8.55,8.55,0,0,0-4.48.89c-1.27.59-2.62.36-3.92.72a8.44,8.44,0,0,1-4.55.45l-1.1,1.11c-.19,1,.29,2.1-.42,3.08,1,1.81-.26,4,.89,5.88l1.75,1.75c1.57.52,2.78-.5,4-1a16.3,16.3,0,0,0,3.33-2.53c-.27-1,1.55-1.58.92-2.88l1.9-1.9h1.49c.14.31.31.66.46,1s.29.73.43,1.1a54.91,54.91,0,0,1-3.26,5.64,13.94,13.94,0,0,1-3.12,2.71,27.42,27.42,0,0,1-3.8,2,1,1,0,0,1-1.45-.26c-.6.76-1.42.28-2.05.42-.38-.32-.67-.77-1-.82-2.38-.35-3.21-2.13-3.9-4.07l-.85-2.43.37-.46a11.83,11.83,0,0,1,0-6,12.81,12.81,0,0,0,0-2.32,4.77,4.77,0,0,1,.43-2.78,4.48,4.48,0,0,0,.42-2.57V94.3l1.09-.7-.16-.23h1.34a10.13,10.13,0,0,1,5.16-3c.72-.13,1.42-.34,2.15-.41a11.79,11.79,0,0,0,2.31,0c2.25-.69,4.54-.27,6.8-.37a4.24,4.24,0,0,1,1.78.29c1.22.49,2.46-.24,3.67-.59.62-.17,1.41-.09,1.72-1,.71,0,1.4,0,2.09,0,2.06-.06,4.08-.69,6.16-.42.8-.64,1.55-.32,2.41,0a8.47,8.47,0,0,0,2.52,0,9.31,9.31,0,0,1,2.45.7c1,.25,2.12.31,2.89,1.21s2,.94,2.21,2.21c1.91.69,1.63,2.89,2.79,4.1.11.11.09.4.05.6a18.5,18.5,0,0,0-.39,1.94,10.84,10.84,0,0,1-.38,2,17,17,0,0,1-.69,1.63,6.42,6.42,0,0,1-.88,1.73,26.09,26.09,0,0,1-5.93,6,22.91,22.91,0,0,0-2.95,2.53,21.67,21.67,0,0,1-2.62,1.83c-1.32,1-3,1-4.28,1.91l-1.29-.47-4.24-3.92v-.9l-.81-.77.44-.67-.45-.75a5.33,5.33,0,0,0,.37-1.56c-.28-3.69.53-7.34.47-11a3.62,3.62,0,0,0-.93-2.62,12.42,12.42,0,0,0-2.5.74c-.88.47-1.58-.39-2.33,0l-.83-1.82-6.32.6.06.12c-1.12.36-2.22.75-3.34,1.07a20.8,20.8,0,0,0-2.14.46,10.53,10.53,0,0,0-3.17,1.77V100l.83.79a5.29,5.29,0,0,1,1.42-.23c2.16.29,4.22-.61,6.37-.46.35,0,.72-.29,1.09-.4A7.59,7.59,0,0,1,270.17,99.78Zm12.66,12a1.74,1.74,0,0,0,.65.1,16.23,16.23,0,0,0,2-.73,18,18,0,0,0,5.27-3.57c1.24-1.25,2.49-2.49,3.73-3.73A15,15,0,0,0,297.39,99a3.45,3.45,0,0,0-.18-2.88,14.2,14.2,0,0,0-1.08-1.91c-.56-.18-1.37-.2-1.76-.62a12.75,12.75,0,0,0-3-1.91c-1.69,0-3.52.06-5.35,0a8.39,8.39,0,0,0-4.33,1,5.48,5.48,0,0,1,.28,1.13c0,1.47,0,3,0,4.43,0,.33,0,.77-.15,1-.49.57,0,1.29-.3,1.78a4.32,4.32,0,0,0-.4,2,5.07,5.07,0,0,1-.35,2.61,2.26,2.26,0,0,0,.06,2c.51.74.09,1.49.44,2.3l2,1.46Z" transform="translate(-86.45 -29.33)"/><path d="M363,110l-1.63.64c-.39,0-.94-1-1.77-.15-.3.29-1.07.15-1.61.12a4,4,0,0,0-3.22.93l-.67-.37c-.68.5-1.55.26-2.39.29s-1.82,0-2.73,0c-.28.73-1,1.11-1.36,1.74-.95,1.53-2,3-3.12,4.42a2.82,2.82,0,0,1-2.72,1l-1-1.38v-1.35l1.16-1.7-.41-.72c1.5-.74,2.31-2.1,3.39-3.26-.31.12-.73.16-.93.38a6.6,6.6,0,0,1-4.61,2.17,11,11,0,0,1-2.37.4c-.82-.1-1.47.61-2.36.45a5.36,5.36,0,0,0-2.52,0,11.85,11.85,0,0,1-3.64.38,16.33,16.33,0,0,1-7.33-1.7,16,16,0,0,1-3.24-1.89c-1.83-1.44-2.15-3.59-3-5.55-1.07-2.59,0-4.87,1-7.09.41-1,1.68-1.58,2.53-2.38a4,4,0,0,0,.54-.79l1-.11.12-.56L326,91.21a3.71,3.71,0,0,0,2.45-.55,1.82,1.82,0,0,1,.93-.29c1.14-.1,2.29.14,3.43-.39.79-.36,1.52.32,2.18.68l2.87.53c1.15.53,1.23,1.64,1.6,2.55a1.67,1.67,0,0,1-.12,1.19,3.43,3.43,0,0,1-4.11,2.2l-1.94-1,.35-1.33c-.77-.34-1.4-.82-2.18-.63-1.2.3-2.39.66-3.78,1L327.4,95c-3.16,1.37-6.24,2.9-8.19,6.2,0,.36,0,.85,0,1.33,0,1.15-.28,2.41.56,3.35s1,2,2.32,2.44c.59.19,1,.94,1.28,1.22l2.87.94c.79.38,1.65-.07,2.56.54.65.43,1.67-.09,2.56.42a2.78,2.78,0,0,0,2.26,0,7.87,7.87,0,0,1,2.81-.37c1.07-.14,2.13-.33,3.28-.52l1.63-1.11c1.16,1.26,2.6-.83,3.87.28l2.31-2.78c0-.12-.08-.38,0-.54.88-1.54,1.7-3.12,2.72-4.57a37.58,37.58,0,0,0,3.18-6.3c-.31-1,1.23-1.36.84-2.39,1.31-.91,1.11-2.5,1.69-3.74.37-.76.73-1.53,1.12-2.35l-.2-.2L358,85.15c.93,1.32,2.79.73,3.55,1.66a53,53,0,0,1,1.4,5.31c.36,2.3,1.51,4.39,1.51,6.8,0,1.21.76,2.36.94,3.61.12.83.6,1.62.66,2.45a4,4,0,0,0,1.49,2.68h3.49c.65,2.25-1.84,1.77-2.5,3,1.15,2,3.38.88,4.9,1.71l1.09,1.38c-.88,1.9-3.12,1.17-4.61,2-.51-.2-1-.88-1.58.1-.81-.45-1.64-.84-2.4-1.34a5.22,5.22,0,0,1-1.54-2.1C364,111.62,363.54,110.9,363,110Zm-4.5-16.3c-.42,1.76-1.85,2.78-2.21,4.4A10.33,10.33,0,0,1,354,102.2c-1.05,1.27-.79,3.16-2.19,4v1.41c1.88.27,3.69,1.12,5.5.1a3.22,3.22,0,0,0,3.42,0l.88.51.58-.58a12,12,0,0,1-.68-2.47c-.07-1.22-.58-2.33-.72-3.49-.19-1.53-1-2.87-1.07-4.44A13.45,13.45,0,0,0,358.51,93.73Z" transform="translate(-86.45 -29.33)"/><path d="M164.22,146.34a8.33,8.33,0,0,1,3.61-4.17c.47-.26.66-1,1.08-1.42a7.55,7.55,0,0,1,1.3-.91,47.23,47.23,0,0,1,6.37-3.47c1.79-.82,3.4-2.05,5.48-2.06,1.51-1.28,3.62-.68,5.21-1.69,1.91.24,3.89-.49,5.76.38a2,2,0,0,0,.61,0c1.57.16,1.86.32,3,1.66,0,.21.08.56,0,.61-1.09.63-.54,2.36-2,2.68,0,0-.08-.17-.19-.17-1.73,0-3.47,0-5.22,0l-1.7.88-2.37-1.46c-1.39.6-3,.73-4.47,1.28a23.06,23.06,0,0,0-5.06,2.6c-1.42,1-2.82,2-4.26,2.93-.22.14-.58.22-.66.42-.36.94-1.71,1.07-1.87,1.92-.25,1.3-1.33,2.4-.92,3.86a3.73,3.73,0,0,1,0,1c.3.49.54,1,.85,1.39a8.17,8.17,0,0,0,1.77,2.18c.83.53,1.42,1.28,2.19,1.83a28.86,28.86,0,0,0,3.81,2.52,36,36,0,0,0,3.86,1.37c1.17.42,2.49.56,3.36,1.7,1.68-.32,3,.8,4.49,1.27a12.49,12.49,0,0,0,2.36.94,3.35,3.35,0,0,1,1.44.58c2.23,1.56,5.06,2.25,6.68,4.65l.49,2.9c-1.12,1.69-2.61,2.57-3,4.1l-2,1.58c-.26,0-.59,0-.8.1a11.5,11.5,0,0,1-6.13,2c-.91.71-2.1.09-3,.49a6.09,6.09,0,0,1-3,.33c-1.27-.06-2.54-.35-4.15-.59-1-.57-1.09-2-1.64-3.17l.92-2.41,2.28-.65,1,1.61v1.22c.11.07.22.2.33.21a13.19,13.19,0,0,0,7.08-1.26c1.74,0,3.1-1,4.62-1.6a4.44,4.44,0,0,0,2.68-2.42c-1-2.48-3.47-3-5.62-4l-1.1-1.16c-.6-.13-1.14-.19-1.64-.35-1.87-.57-3.53-1.72-5.48-2.06-1.51-.26-2.69-1.37-4.23-1.52-2.45-1.52-5.39-2.19-7.5-4.31-1.8-.67-2.29-2.63-3.66-3.76-.57-.47-.66-1.52-1-2.52a16.89,16.89,0,0,1-.45-2.93A19.72,19.72,0,0,1,164.22,146.34Z" transform="translate(-86.45 -29.33)"/><path d="M326,168.59a2.72,2.72,0,0,1-.29-.14c-.05,0-.1-.14-.15-.14l-5.32.35c-.27.35-.65.8-1,1.28-1.14,1.65-2.35,3.25-3.55,4.85a2.67,2.67,0,0,1-2.61.92l-1-1.15a3.34,3.34,0,0,1,1.26-3.26A2.65,2.65,0,0,1,313,171a2.3,2.3,0,0,1-.11-.48c2.76-1.32,3.72-4.36,5.94-6.38,0-.2-.12-.57,0-.73,1.13-1.32,1.61-3,2.61-4.41a20.33,20.33,0,0,0,3.23-6.67c.22-.8,1.44-1.11.93-2.16,1.28-.83,1.22-2.33,1.6-3.55a8.24,8.24,0,0,1,1.27-2.38l-.54-.54a3.72,3.72,0,0,0,.84-.52,4.69,4.69,0,0,0,.48-1l.88.74,2.69.91c.7,2.55,1.48,4.8,1.9,7.11.3,1.71,1.14,3.26,1.07,5.09,0,1.18.7,2.36.93,3.6.15.83.58,1.62.65,2.46a3.86,3.86,0,0,0,1.52,2.66h3.46c.63,2.24-1.85,1.76-2.52,3,1.26,1.72,3.28,1.16,5.14,2l.87,1.1c-.9,1.85-3.09,1.21-4.63,2-.48-.14-1-.91-1.55.11a20,20,0,0,1-2.4-1.34,4.3,4.3,0,0,1-1.56-2.08,3.5,3.5,0,0,0-1.71-2.23l-1.29.47a2,2,0,0,0-2-.09c-.82.44-2.06.1-3.11.1Zm7.48-3.91c-.25-.92-.53-1.72-.7-2.55-.21-1-.27-2.12-.51-3.16A39.75,39.75,0,0,1,331,154.2a14.84,14.84,0,0,0-1.25-3.46c-.37,1.67-1.74,2.71-2.15,4.29a10.34,10.34,0,0,1-2.23,4.1c-1.12,1.24-.86,3.16-2.27,4.05v1.48c1.91.2,3.74,1.13,5.54.05,1.2.89,2.34.38,3.42,0l.73.53Z" transform="translate(-86.45 -29.33)"/><path d="M299.48,172l-3.19,1.1-1.45-.47c-.69-1.83-3-2.12-3.93-4.25,0,.11,0-.22-.06-.53l-.78-.77c.55-.45.53-.89,0-1.31a4.93,4.93,0,0,0,.39-1.53c-.27-3.69.52-7.34.46-11a3.27,3.27,0,0,0-1-2.76l-3.16,1.09a2.92,2.92,0,0,0-1.63-.36c-.34-.89-.89-1.6-.24-2.78a3.1,3.1,0,0,1,2-1.41,10.57,10.57,0,0,1,2.82-.82c.67-.08.95-.5,1.43-.89.77,0,1.61,0,2.44,0s1.85-.32,2.78-.39,2.17.33,2.92-.09c1.37-.78,2.46.37,3.71.11a7.11,7.11,0,0,1,3.71.67c1,.34,2.13.35,2.86,1.26s2,.76,2.07,2.06c1.78.71,1.81,2.6,2.66,3.94a1.55,1.55,0,0,1,.27.93,19.34,19.34,0,0,1-1,4.46,13.52,13.52,0,0,1-2.93,4.7c-2,1.89-4,3.9-6.13,5.64-1.37,1.1-2.63,2.48-4.47,3A1.07,1.07,0,0,0,299.48,172Zm-4.76-22.3c.08.1.22.19.25.3a25.57,25.57,0,0,1-.13,6.36c-.25,1.18-.39,2.38-.56,3.57-.13.86.16,1.72-.37,2.6a2.26,2.26,0,0,0,.07,2c.5.74.06,1.5.44,2.3l2,1.45-.44.54a3,3,0,0,0,2.49-.52,18.06,18.06,0,0,0,5.3-3.53c1.28-1.3,2.58-2.59,3.87-3.88a13.81,13.81,0,0,0,2.88-4.93,3,3,0,0,0-.15-2.67c-.36-.69-.7-1.4-1-2.08-.64-.21-1.45-.23-1.84-.65a12.9,12.9,0,0,0-2.94-1.9c-1.72,0-3.55,0-5.37,0A8,8,0,0,0,294.72,149.71Z" transform="translate(-86.45 -29.33)"/><path d="M233.23,146.14l2.09,2.37-2,2.94-1.92,1-.64-.88a18.83,18.83,0,0,1-2.06.49,14.45,14.45,0,0,1-1.86,0,3.25,3.25,0,0,1-2.85.85,6.61,6.61,0,0,0-3.84.73c-2.49-1-4.7.45-7,.63.12.88.23,1.66.34,2.45.06.46-.16.95.29,1.37a.92.92,0,0,1,.12.77c-.64,1.94.3,3.85.05,5.78a4.92,4.92,0,0,0,.44,1.71c1.08.42,2.24-1.25,3.27.3v2.52l-1.6,1.86-2.87,1.73h-1.17l-2.61-4.18a87.69,87.69,0,0,1-.61-10.74,5.21,5.21,0,0,0-.71-3c-1.23-.9-2.26.87-3.28-.25a5.92,5.92,0,0,1-5.53.33l-.52-1.55,1.79-1.78c1.75-.57,4.17-.27,6.35-1.21a.9.9,0,0,1,.4,0c2.3.31,4.52-.44,6.79-.45a19.09,19.09,0,0,0,5.3-.48c1.38-.4,2.72-.15,3.9-.35l1.42-.75c.45.7.89.09,1.43-.05a53.9,53.9,0,0,1,5.6-1.26C232.47,146.93,232.75,146.53,233.23,146.14Z" transform="translate(-86.45 -29.33)"/><path d="M417.72,174.46v-2c2-.41,4,.32,6-.49,1.68-.7,3.47-1.15,5.21-1.72.2-.63.41-1.25.62-1.86l-2.4-1.52h-2.46a2.83,2.83,0,0,0-2.4-.84c-.93.1-1.84-.18-2.78-.16a7.57,7.57,0,0,1-2.64-.7c-.91-.34-1.78-.8-2.68-1.17a3.65,3.65,0,0,0-.87-.12c-3.32-2-2.82-7.73-.3-8.58v-.77c.11-.15.18-.26.27-.36a16.35,16.35,0,0,0,2.84-3.26c.31-.56,1.09-.57,1.38-1.3.18-.47.91-.72,1.41-1.06s1.08-.78,1.65-1.11c1.48-.85,3-1.66,4.5-2.5h2c-.35,1.14.8,2.1.29,3.16a15.72,15.72,0,0,1-1.81,2.42l-1.1-.61c-3.44,2-6.11,4.82-8.78,7.91v1.71l1.65,1.65,3.22.87c.25-.06.75-.36,1-.22.89.6,2,.05,2.75.48.92.53,1.78.11,2.62.35,2.67.75,5.41,1.35,6.58,4.44a10.36,10.36,0,0,1,.33,2c-.42.74-.8,1.52-1.28,2.22-1.35,1.95-1.88,2.15-4.32,3.23-1.2.53-2.42,1-3.65,1.38-.12,0-.21.24-.32.25-1.49.17-3,.32-4.34.46Z" transform="translate(-86.45 -29.33)"/><path d="M380.75,90.09a25,25,0,0,1,.53,7.28l-.8.84v3.71c-1.67,2.35-.52,4.78-.37,7.32l1,.8c1,.93,2.2-1,3.29.09l4.42-2c1.41-.67,2.81-1.36,4.36-2.11l.63.35,1.77-.42c.21,1.39-1.08,1.91-1.33,3-.29,0-.72,0-.94.13-1.69,1.41-3.9,2-5.58,3.33-1.11.93-2.67.72-3.76,1.66-.16.14-.54,0-.82,0-.86.1-1.78-.28-2.59.39-.16.13-.62-.11-.95-.18l-1.75-.39a30,30,0,0,1-2.43-3.47,7.46,7.46,0,0,1-.46-2.75c-.15-2.06.68-4.06.45-6.15a2.47,2.47,0,0,1,.49-1.66c.59-.73.15-1.48.32-2.2-.86-.87-.2-1.74.11-2.73-1-.61-1-1.77-1.4-2.58.31-1.82,1.78-2.38,2.88-3.19Z" transform="translate(-86.45 -29.33)"/><path d="M309.49,92.86a44.73,44.73,0,0,1-.08,6.73,56.84,56.84,0,0,0-.35,6,3.58,3.58,0,0,0,.59,2.52l1.1.13c-.49,1.27,1.83,2.21.38,3.6l-2.89.43c-1.25-.27-1.95-1.84-3-3.16.32-1.77-.66-3.54-.42-5.42.18-1.39.45-2.75.74-4.12a10.14,10.14,0,0,0,.1-2.7,5.36,5.36,0,0,0-.27-2.42c-.25-.49.26-1.35.51-2.36l.94-.81h1.2Z" transform="translate(-86.45 -29.33)"/></svg>