<svg xmlns="http://www.w3.org/2000/svg" width="425.92" height="261.16" viewBox="0 0 425.92 261.16"><path d="M297.77,232.59c-.47,7.62-.74,15.52-.76,23.69,0,7.53.15,14.84.5,21.92" transform="translate(-86.47 -20.53)" fill="none" stroke="#000" stroke-linecap="round" stroke-miterlimit="10" stroke-width="7"/><path d="M90,114.58c2.13-54.55,106.68-85,195.18-90.07,101-5.73,228,41.16,223.59,99.24-4.22,56.22-102.93,104-212.78,105C192.23,229.69,87.84,170.05,90,114.58Z" transform="translate(-86.47 -20.53)" fill="none" stroke="#000" stroke-miterlimit="10" stroke-width="7"/><path d="M442.75,135.69a18.85,18.85,0,0,1-2.74.73,15.12,15.12,0,0,1-3.34.21c-1.07,0-2.07.42-3.17.36a10.78,10.78,0,0,1-2.22-.44c-1-.27-1.95-.6-2.88-.89a4.06,4.06,0,0,0-.93-1.07,6.93,6.93,0,0,1-2-2,5,5,0,0,1-.81-2.51c-.07-.44,0-.9,0-1.34a2.39,2.39,0,0,0-.23-.65c.3-.93.52-1.79.86-2.59a21.11,21.11,0,0,1,1.44-3,22.24,22.24,0,0,1,1.81-2.29,1,1,0,0,1,.08-.52A13,13,0,0,1,430,118a12.44,12.44,0,0,1,1.33-1.39c.6-.43,1-1.11,1.62-1.55s1.52-.92,2.22-1.49a1.36,1.36,0,0,1,.62-.29c1.1-.15,2.2-.27,3.13-.38a2.12,2.12,0,0,1,1.59,1.43l-.38,1.6-.77.63a5.25,5.25,0,0,1-.7,0,4.11,4.11,0,0,0-2.77.9c-.58.38-1.21.68-1.91,1.07l0,.57a7.82,7.82,0,0,0-2.64,2.5,14.8,14.8,0,0,1-2.09,2.55c-.19,2-1.22,3.74-.92,5.63.43.84.79,1.6,1.19,2.33a1.32,1.32,0,0,0,.55.59,33.1,33.1,0,0,0,3.87,1.48,6.46,6.46,0,0,0,2.17-.13,5.29,5.29,0,0,1,.54-.13,9.91,9.91,0,0,0,3.65-.59c.35-.12.77,0,1.14-.14a4,4,0,0,0,.89-.5,7.37,7.37,0,0,1-.54-3.45,22.75,22.75,0,0,0-.35-3.6,6.77,6.77,0,0,0-2.35.63c-.93.41-1.91.7-2.85,1.07a3.91,3.91,0,0,1-2.77.51l-.63-.63V126c.07-1.29,1.34-1.14,1.84-1.75a8.22,8.22,0,0,0,1.82-.45,18.36,18.36,0,0,1,5.72-2.07c1.38-.84,3.08-.68,4.49-1.46.22-.12.58,0,.87,0l.66-.62h1.78c.64-.71,1.49-.59,2.43-.59l.67-.93v-1.18l1.33-1.21a3.73,3.73,0,0,1,2.5.7l.47,1.43a4.89,4.89,0,0,1,3.17.62v1.89l-1.77,1.07-.82-.39v1.2l.52.49v1.22l.55.56a13.65,13.65,0,0,0,1.73,4.7c.2.37.55.67.72,1.05a6.8,6.8,0,0,0,1.38,2,5.43,5.43,0,0,1,1.19,1.45c.24.51.75.84,1.08,1.34a4.41,4.41,0,0,0,2.09,1.37c.3.12.62.2,1,.31l1.05-1.76c.07-2.1.48-4.32.37-6.59a11.87,11.87,0,0,0-.52-2.78,1.46,1.46,0,0,1,.25-1.68c-.12-.18-.32-.37-.34-.58-.13-1-.17-2-.33-3a11.38,11.38,0,0,0-.55-1.65,1,1,0,0,0,0-1.32,4.43,4.43,0,0,1-.31-1.58l.36-.86a6.16,6.16,0,0,1,4.69,1.37l.19.45-.25,1.35a2.46,2.46,0,0,0-1.08,2.67,11.08,11.08,0,0,1,.26,2.73,3.92,3.92,0,0,0,.27,1.84c.26.48,0,1.08.26,1.68a8,8,0,0,1,.35,2.69c.05,1.25,0,2.5,0,3.74a7.35,7.35,0,0,1-.53,2.78,3.1,3.1,0,0,0-.1.82,10.22,10.22,0,0,1-3.75,3.46c-1.33.39-2.4-.38-3.48-1a2.71,2.71,0,0,0-1.63-.64c-.64-.67-1.32-1.4-2-2.09a28.88,28.88,0,0,1-3.18-4.21c-.86-1.19-1.27-2.6-2.11-3.77-.11-.16-.24-.31-.41-.53a10.69,10.69,0,0,0-1.06,3.89l-.54.53a15.58,15.58,0,0,1-.31,3.46,3.73,3.73,0,0,0,0,1.63,13.66,13.66,0,0,0,.38,1.57,2.17,2.17,0,0,1,1.38,2.4c-.84.8-1.95.74-2.9,1.08a1.43,1.43,0,0,1-1.73-.41,7.45,7.45,0,0,1-.73-1.63,14.28,14.28,0,0,1-.27-5,15.37,15.37,0,0,1,.64-3.17c.35-1.39.69-2.8,1.16-4.15a43.33,43.33,0,0,0,.89-4.57,7.13,7.13,0,0,0,.26-1.82,2.77,2.77,0,0,0-.9.17,7,7,0,0,1-1.95.72,4.65,4.65,0,0,0-2.63,1.15,5.57,5.57,0,0,0-1.32.14c-.65.23-1.27.57-1.95.89.27,1.86.52,3.65.73,5.12.29.92.48,1.54.68,2.2,1.05.3,1.14,1.27,1.37,2.2s.24,1.83,1.37,2.1c.12,0,.21.21.37.36v2.49l-.61.61c-1.43.46-2.29-.47-3.05-1.41a28.47,28.47,0,0,0-1.92-2.49C442.84,136.13,442.83,135.91,442.75,135.69Z" transform="translate(-86.47 -20.53)"/><path d="M239.64,130.68h2.59l.51.47-.71,1.46-1.54.62,1.36,1.09c1.12.25,2.53,0,3.53,1.28v1l-1.58.88-3.62.4L238,136.82c-.67-1.18-1.43-2.5-2.17-3.78-.55.13-1,.39-1.36.28a2.35,2.35,0,0,0-1.54.08,8.26,8.26,0,0,1-2.14.27,8.93,8.93,0,0,0-2.26.31c-1.3.47-2.61.18-3.92.27-.2,0-.4,0-.6,0l-.42.82,1.52.13.46,1.63c-.31.72-1.22.78-1.88,1.28H221c-.84.95-1.49,2.35-3.34,1.69a1.57,1.57,0,0,1-.73-1.28A8.08,8.08,0,0,1,213,137.1c-.81-.53-1.73-.89-2.58-1.35-.62-.34-1.21-.72-2-1.18-.62,0-1.2-.87-1.93-.85-.92,0-1.28-.79-2.11-.85l-.28.28,1.15,2.22A3.39,3.39,0,0,1,203,137.6l-.47.81h-1c-.69-.76-.85-1.95-1.87-2.52a3.38,3.38,0,0,1,.25-1.63c.5-1.33.38-1.81.06-3.78a2.44,2.44,0,0,1,.19-2,.59.59,0,0,0,.07-.42,11.79,11.79,0,0,1,.37-3.75c.26-1.57.17-3.21.82-4.73.19-.46-.25-1.1.41-1.43l-.42-.6.75-1.53,1.34-.38a7.06,7.06,0,0,1,2,1.92c-.36,1,0,2.25-.81,3.15.63,1.14.13,2.4.41,3.77.66-1.15,2-1.07,2.81-1.85a8.83,8.83,0,0,1,1.82-1.34c.33-.17.6-.5.94-.6.52-.16.6-.67.93-1s.79-.54,1.14-.86a6.06,6.06,0,0,0,2.24-3.41c0-.12.2-.21.34-.36,1,0,2-.21,2.83.73a3,3,0,0,1-.6,2.21c-.59.77-.86,1.83-1.94,2.18a.89.89,0,0,0-.52.52c-.19.86-1,1.12-1.52,1.73a4.68,4.68,0,0,1-1.83,1.27,11.77,11.77,0,0,0-3.23,2.34c-1.38.23-1.74,1.7-3.05,2,.86.72,1.58,1.37,2.35,1.95a5.45,5.45,0,0,0,1,.37c.75.36,1.5.73,2.23,1.13.57.32,1.07.77,1.66,1s1.17.57,1.73.88a10.52,10.52,0,0,0,2,1c.62.2,1.23.42,1.88.64a4,4,0,0,0,1.77-1.63c.8-1.25,1.81-2.36,2.85-3.69v-.92s.29,0,.38-.19c.9-1.52,1.76-3.06,2.66-4.58.69-1.15,1.16-2.41,1.74-3.61a20.38,20.38,0,0,1,1.48-3.14,16.88,16.88,0,0,0,1-2.73,7.48,7.48,0,0,1,.52-.88l-.31-.44,1.48-1,2.79.89a23.58,23.58,0,0,1,.58,2.31c.17,1,.64,2,.76,3,.22,1.73,1.26,3.28,1.08,5.11,0,.46.31,1,.44,1.45a22.82,22.82,0,0,1,.76,3A3.5,3.5,0,0,0,239.64,130.68Zm-8-10.32c-1.21.81-1.25,2.22-1.87,3.31s-1.32,2.23-1.91,3.4a16.29,16.29,0,0,1-1.79,3.39l.75.51c.58.13,1.31-.21,2,.26.28.18.84,0,1.26-.11a11.46,11.46,0,0,1,4.21,0,.9.9,0,0,1,.21.08c.86-.82.13-1.47-.25-2.47a6.83,6.83,0,0,0-.22-2c-.27-.71-.35-1.52-.62-2.28a14.2,14.2,0,0,1-.43-2.08,14.23,14.23,0,0,1-.5-1.43c-.15-.48-.32-1-.51-1.43,0-.1-.18-.15-.35-.28Z" transform="translate(-86.47 -20.53)"/><path d="M127.79,121.53a2.26,2.26,0,0,0,.59-1.85c0-2.14,0-4.29,0-6.43a2.59,2.59,0,0,0-.26-1.69c-.12-.17.12-.61.22-1l-.35-1.08c-.09,0-.2-.07-.27,0a20.6,20.6,0,0,0-5.62,3.42,11.87,11.87,0,0,1-1.65,1.06,1.75,1.75,0,0,1-2,0c-.35-.23-.73-.43-1.11-.65V111c.82-1.14,2.64-1.13,3.36-2.57l.31.31c1.17-.72,2.38-1.37,3.53-2.16a13.25,13.25,0,0,1,2.87-1.35c.7-.26,1.28-.82,2-.9a6.76,6.76,0,0,0,2-.87c.47-.2,1-.31,1.76-.55l.57-.72c1.38.06,2.35-.67,3.41-1.12a12.83,12.83,0,0,0,2-.31c.59-.22,1.3-.12,1.87-.56.2-.15.57-.09.86-.09,1.84,0,3.69,0,5.53,0a9.47,9.47,0,0,1,3.24.84,1.58,1.58,0,0,1,1,.91,4,4,0,0,0,1.13,1.58c.16.58.47,1,.36,1.37-.39,1.19.13,2.33.07,3.5a10,10,0,0,1-.45,2.22,7.34,7.34,0,0,0-.5,1.75,1.8,1.8,0,0,1-.35.89c-1.18,1.81-2.35,3.62-3.6,5.38a19.33,19.33,0,0,1-1.67,1.72,1.27,1.27,0,0,0-.3.94c-.72.69-1.45,1.37-2.13,2.09-.4.41-.68.93-1.08,1.34s-1,.46-1.17,1.14c-.05.23-.56.32-.78.55-.49.53-.88,1.15-1.39,1.66a21.79,21.79,0,0,1-5,3.86,8,8,0,0,0-1.89,1.55,7.27,7.27,0,0,1-3.69,1.81c0,.61,0,1.25,0,1.89,0,.37.15.77-.21,1.11-.13.12-.08.46,0,.69.09.4.24.79.39,1.26,1,.52,1.06.6,1,2.89-.7.55-.73,1.39-1,2.21a6,6,0,0,1-3.19-.41c-.54-.5-.45-1.21-.65-1.83a10.43,10.43,0,0,1-.24-3.33,9.7,9.7,0,0,1,.29-1.82c.1-.56-.27-1.19.27-1.68-.15-1.66.49-3.16.9-4.71.22-.87.1-1.84.35-2.7a13,13,0,0,0,.28-3,3.09,3.09,0,0,1,.32-1.5c.52-.8.13-1.64.25-2.44C128.08,121.76,127.88,121.64,127.79,121.53Zm20.59-9.31-.28-.31.84-.52.58-1.14c.14-.73.33-1.37.39-2s0-1.49,0-2.14l-1.2-1.58c-2-.92-4.1-.57-6.18-1l-1.69.84a5.36,5.36,0,0,0-3.15.9c-.95-.32-1.83.37-2.67.77a24.56,24.56,0,0,0-3.7,1.85c.07.34.36.85.23,1.2-.55,1.47.1,2.78.43,4.35l-.64.34a10.74,10.74,0,0,1,.59,2.11,10.56,10.56,0,0,1-.11,2c-.18,1.26-.79,2.5-.34,3.81a.59.59,0,0,1,0,.32c-.33,1.32-.4,2.69-.72,4a28,28,0,0,0-.34,3.45c0,.23-.15.44-.19.67s-.07.53-.11.92c.41-.11.68-.18.94-.27,1.33-.44,2.13-1.7,3.42-2.21,2-2,4-3.88,5.88-5.95a42.89,42.89,0,0,1,3-3.23,7.82,7.82,0,0,0,1.37-1.66c.64-1,1.63-1.73,2-2.89a2.78,2.78,0,0,1,1.11-1.48C148.16,113.16,148.21,112.62,148.38,112.22Z" transform="translate(-86.47 -20.53)"/><path d="M349.26,110.25l-1.51.49a4.94,4.94,0,0,1-2.08,1.49c-.83.29-1.64.61-2.51.94l-1.08-1.44c-.06-1.84-.06-1.84,1.3-3.2a2.88,2.88,0,0,0,1.35-.38,7.15,7.15,0,0,1,3.39-1.46l1.54-1.17a5.94,5.94,0,0,0,3.77-.89,5.52,5.52,0,0,1,3.4-.57l.6-.6a4.79,4.79,0,0,0,2.73-.62,5.3,5.3,0,0,0,3.52,0l1.07.55c1-.31,2,.43,3,.74a2.31,2.31,0,0,1,1.38.69c.21.28.75.3,1.1.42.35.39.65,1,1,1.09,1,.17,1.2,1.09,1.92,1.47a1.64,1.64,0,0,1,.63.91c.31.91,1.46,1.29,1.47,2.4,0,.28.32.56.57.94,0,1.21,0,2.55,0,3.89a10.41,10.41,0,0,1-.9,4c-.78,2.07-2.17,3.79-3.16,5.73-.82,1.6-2.09,2.87-2.86,4.49a12.66,12.66,0,0,1-1.63,2c-.31.4-.55.85-.91,1.41a3.88,3.88,0,0,0-.76.56c-.45.5-.86,1-1.27,1.57a18.73,18.73,0,0,1-4.82,4.54c-.72.54-1.48,1-2.16,1.61a13.89,13.89,0,0,0-1.88,2.33c-.22.27-.45.52-.71.81-1.57.09-3.07-.48-4.6-.63l-1-1.41a13.31,13.31,0,0,0-.06-3.45c-.3-1.12,0-2.31-.5-3.55,0-.08.27-.34.25-.58-.18-1.92.42-3.79.32-5.71-.06-1,.41-2,.31-3a27.41,27.41,0,0,1,0-3.14c0-.21.18-.41.33-.72-.1-.11-.34-.25-.33-.37.14-1.21-.24-2.41.23-3.64a2.19,2.19,0,0,0-.16-2,.86.86,0,0,1-.08-.56C349.74,114.29,349,112.38,349.26,110.25Zm4.05,30a23.75,23.75,0,0,0,6.36-4.64c1.15-1.18,2.36-2.3,3.47-3.51a15.46,15.46,0,0,0,2-2.59c.63-1,1.32-2,2-3,.49-.7,1.07-1.34,1.56-2s1-1.67,1.6-2.47a10.47,10.47,0,0,0,1.27-2.76,22,22,0,0,0,.9-4,5,5,0,0,0-.54-3.64c-.09-.13,0-.38,0-.41-.59-1-1.64-1.36-2.13-2.26a17,17,0,0,1-2.77-1.61,2.72,2.72,0,0,0-.62-.3,10.22,10.22,0,0,0-3.05-.62,1,1,0,0,1-.53-.19,14,14,0,0,1-1.61.2,5.46,5.46,0,0,0-2.79.48,1.42,1.42,0,0,1-.4.12c-1.35.34-2.79.36-4,1.23h-1.27a11.35,11.35,0,0,0-.23,1.81c0,.76.21,1.51.27,2.27a44.88,44.88,0,0,0,.25,5.42,19.63,19.63,0,0,1,0,4.47c-.06,1.46.24,2.92-.25,4.38a8.94,8.94,0,0,0-.05,2.08c-.05.71-.26,1.41-.27,2.12,0,2.54,0,5.08,0,7.62A2.31,2.31,0,0,0,353.31,140.28Z" transform="translate(-86.47 -20.53)"/><path d="M247.8,120.17s-.09-.31,0-.44a32,32,0,0,1,2.08-2.57,15.28,15.28,0,0,1,2.35-2.13c.68-.49,1.44-.88,2.1-1.42a1.32,1.32,0,0,1,.62-.29c1.15-.15,2.3-.27,3.48-.4l1.31,1.32-.42,1.73-.6.6h-2l-3.54,2v.56a7,7,0,0,0-2.63,2.39,18,18,0,0,1-2.16,2.67c-.18,2-1.26,3.73-.92,5.7l1.41,2.75a40.62,40.62,0,0,0,4.15,1.59,2.93,2.93,0,0,0,2.29-.18,1.42,1.42,0,0,1,.72-.07,11,11,0,0,0,3.21-.55c.71-.21,1.56.05,2.15-.73a7.81,7.81,0,0,1-.49-3.37c.14-1.23-.31-2.4-.33-3.73l-1.84.34c-.48.3-.89.76-1.36.82-1.62.23-3,1.51-4.68,1.22l-.77-.72v-1.51c.44-.38.37-1.39,1.3-1,.22-.23.4-.41.58-.58a.88.88,0,0,1,.27-.06,2.43,2.43,0,0,0,1.52-.31,23.56,23.56,0,0,1,4.73-2c1.23-.4,2.5-.7,3.75-1,.46-.12.92-.18,1.37-.3s.88-.28,1.46-.47l.42-.42c.9-.06,1.85.19,2.64-.51.14-.13.46-.06.7-.1.5-.08,1-.18,1.41-.26l.95-1.5a2,2,0,0,1,1.78.31,1.69,1.69,0,0,0,1.25.25,8.87,8.87,0,0,1,3.16.31,2.9,2.9,0,0,1,.5.37v1.86l-1.65,1-2.24-.3c.22,1.45-.49,2.68-.26,4-.56,1.58-.23,3.21-.28,4.81a9.86,9.86,0,0,0,.24,1.72l.85,0c.22,1,1.2,1.7,1,2.85-1,.73-1,.73-2.65.71-1.38-.49-1.94-1.6-2.71-2.6a5.79,5.79,0,0,0-.28-2c-.24-.61.22-1.37-.24-2a4,4,0,0,0,.23-1.79c0-.41.2-.81.28-1.22a9.66,9.66,0,0,1,.22-1.25,7.09,7.09,0,0,0,.06-2.22h-1a3.68,3.68,0,0,1-2.11.87,4,4,0,0,0-2.72,1.2c-1.17-.2-2.09.54-3.22.94l.76,5.31.68,2.06c1,.18,1.07,1.17,1.31,2a5.77,5.77,0,0,1,.27.92,1.41,1.41,0,0,0,1.1,1.34c.13,0,.22.2.39.37v2.53l-.77.66a2.41,2.41,0,0,1-2.44-1c-.9-1.1-1.74-2.25-2.67-3.45a24,24,0,0,1-2.6.67,20.23,20.23,0,0,1-3.63.22,20.42,20.42,0,0,1-2.72.34,8.93,8.93,0,0,1-2.5-.48c-.91-.35-1.87-.56-2.76-.81-.31-.37-.54-.88-.93-1.07a5.55,5.55,0,0,1-2.35-2.47,4.47,4.47,0,0,1-.53-2.32,2.37,2.37,0,0,0-.28-1.82,15.31,15.31,0,0,0,.95-2.61,10,10,0,0,1,1.37-2.86A25.94,25.94,0,0,1,247.8,120.17Z" transform="translate(-86.47 -20.53)"/><path d="M319.19,112.92l1.3,1.31-.41,1.74-.6.6h-2l-3.6,2v.56c-2.17,1.12-3,3.53-4.74,5-.17,1.94-1.25,3.72-.91,5.69l1.4,2.75a40.81,40.81,0,0,0,4.16,1.59,2.94,2.94,0,0,0,2.29-.18,1.49,1.49,0,0,1,.71-.07,11,11,0,0,0,3.21-.55c.72-.21,1.57.06,2.16-.74a7.56,7.56,0,0,1-.49-3.36c.14-1.23-.32-2.39-.33-3.75a5.39,5.39,0,0,0-2,.46,13.59,13.59,0,0,1-3.34,1.37,3.69,3.69,0,0,1-2.66.49l-.61-.61v-1.55c0-1.17,1.35-.86,1.85-1.62h1a33.55,33.55,0,0,1,6.27-2.45c1.43-.4,2.87-.76,4.3-1.16.45-.13.88-.28,1.47-.47l.42-.42c.88-.07,1.79.13,2.64-.48.37-.27,1-.12,1.51-.16a5.84,5.84,0,0,1,2.84-.88c.56,0,1.11-.22,1.67-.27s1.2,0,1.8,0a5,5,0,0,1,1.95.73v1.77l-1.77,1.07c-.89-.54-1.9-.15-2.84-.3l-.56.57-3.39.45a3.77,3.77,0,0,1-2.05.81,4,4,0,0,0-2.68,1.17c-1.19-.14-2.12.55-3.23,1l.74,5.21.68,2.14c1,.19,1.1,1.19,1.33,2a9.25,9.25,0,0,1,.28.92,1.4,1.4,0,0,0,1.11,1.33c.12,0,.21.2.37.36v2.51l-.68.67a2.49,2.49,0,0,1-2.55-1c-.89-1.11-1.73-2.25-2.65-3.45-.75.24-1.6.48-2.47.67a35,35,0,0,1-4.07.26,21.61,21.61,0,0,1-2.42.3,6.9,6.9,0,0,1-2.5-.48,27.35,27.35,0,0,0-2.75-.8c-.32-.38-.55-.9-.94-1.08a5.49,5.49,0,0,1-2.35-2.47,4.92,4.92,0,0,1-.53-2.32c0-.61.35-1.31-.31-1.73a8.73,8.73,0,0,0,.9-2.12,8.59,8.59,0,0,1,1.67-3.65c.45-.69,1-1.31,1.64-2.13a.67.67,0,0,1,.05-.46,30.35,30.35,0,0,1,2.07-2.58A16.4,16.4,0,0,1,313,115c.69-.48,1.44-.88,2.1-1.41a1.41,1.41,0,0,1,.62-.29C316.86,113.17,318,113.05,319.19,112.92Z" transform="translate(-86.47 -20.53)"/><path d="M285.28,128.22c-.4,1.33-1.1,2.49-1,3.82l-.57.57c0,.19,0,.39,0,.58a14.43,14.43,0,0,1-.24,2.59,6.07,6.07,0,0,0,.34,3.47,2.22,2.22,0,0,1,1.41,2.32c-.93,1.09-2.42.68-3.36,1.38-1.32-.16-1.67-1.18-2-2a8.35,8.35,0,0,1-.33-2.41c-.05-.64,0-1.29,0-1.94a19.21,19.21,0,0,1,.71-4.05,29.88,29.88,0,0,1,1.14-4.17c.49-1.46.43-3,.87-4.42a9,9,0,0,0,.24-3.33c-.08-1.28.43-2.49.33-3.81L284,115.7a3.52,3.52,0,0,1,2.59.76,43.58,43.58,0,0,1,1.05,5.76l.5.5v1.2l.56.56a12.57,12.57,0,0,0,1.73,4.7,22.12,22.12,0,0,0,1.8,2.69c.68.89,1.58,1.62,2.18,2.55a5.9,5.9,0,0,0,3.42,2.23l1.06-1.75c.07-2.21.48-4.54.36-6.91a10.72,10.72,0,0,0-.46-2.36,1.87,1.87,0,0,1,.19-1.82c-.09-.13-.27-.27-.29-.43a24.9,24.9,0,0,1-.34-2.7,2.49,2.49,0,0,0-.62-1.84,3.83,3.83,0,0,0-.33-3l.45-1c.77.07,1.55.12,2.36.24s1.31,1,2.2,1a1.76,1.76,0,0,0,.12.39.79.79,0,0,0,.16.22l-.21,1.3-1.23,1.59c.12.77.3,1.61.36,2.46a13.24,13.24,0,0,0,.06,2.68c.36,1.31.48,2.67.79,4a19.26,19.26,0,0,1,.07,3.88,8.53,8.53,0,0,1-.59,3.8,1.52,1.52,0,0,0,0,.67,16.52,16.52,0,0,1-1.67,2.05,18.92,18.92,0,0,1-2.31,1.51H297c-1.57-.47-2.52-1.56-4-1.89-.5-.5-1.08-1.12-1.7-1.7a31.06,31.06,0,0,1-3.48-4.52C286.88,131.12,286.58,129.46,285.28,128.22Z" transform="translate(-86.47 -20.53)"/><path d="M168.62,130.66h2.5l.69.49-.73,1.48-1.56.58c.26.31.43.54.61.74s.35.36.59.6c1.26,0,2.68-.22,3.71,1v1l-1.57.85-2,.24-1.54.16L167,136.81c-.32-.57-.7-1.26-1.09-1.94s-.56-1.43-1.29-1.81c-.57.24-1.13.59-1.61.11a12,12,0,0,1-2.23.46,14.32,14.32,0,0,0-3.95.6,6.9,6.9,0,0,1-1.93,0h-1.85a3.94,3.94,0,0,1-.43.59c-.16.16-.51.23-.55.4a5.28,5.28,0,0,1-1.49,2.08c-.55.65-1,1.4-1.51,2.06a3.23,3.23,0,0,1-.89.55h-1.45l-.71-.79a4.29,4.29,0,0,1,.69-2.48,5.59,5.59,0,0,0,.33-1.21,9.31,9.31,0,0,0,.79-.61,5.48,5.48,0,0,0,1.15-1.1,17.43,17.43,0,0,1,3-3.83v-.74c.6-1,1.2-2,1.79-3,.71-1.2,1.42-2.39,2.09-3.62a15,15,0,0,0,.61-1.54c.15-.38.22-.87.5-1.12a1.43,1.43,0,0,0,.38-1.29,5.77,5.77,0,0,0,1.24-2.39,5.68,5.68,0,0,1,1.11-2.46l-.29-.48,1.32-1.14c.74.6,1.8.61,2.89,1,.19.76.41,1.62.63,2.47s.38,1.53.6,2.29c.39,1.33.42,2.77,1.18,4,.07.1,0,.29,0,.44a8.33,8.33,0,0,0,.74,3.58,15.87,15.87,0,0,1,.45,1.9A4.34,4.34,0,0,0,168.62,130.66Zm-7.86-10.41c-1.56,1.4-1.73,3.48-2.86,5s-1.65,3.51-2.66,5.17l.52.47c.71.14,1.51-.18,2.23.3a1.08,1.08,0,0,0,.88,0c1.33-.59,2.72-.15,4.07-.27a2,2,0,0,1,.7.19,1,1,0,0,0,.14-1.46,2.49,2.49,0,0,1-.39-1.78,1.72,1.72,0,0,0,0-.6,22.86,22.86,0,0,1-.64-2.43,7.66,7.66,0,0,1-.56-2.46c0-.1-.24-.2-.28-.33-.12-.4-.18-.82-.31-1.21-.19-.56-.42-1.09-.64-1.63l-.19,0Z" transform="translate(-86.47 -20.53)"/><path d="M377.06,119h1.3c.2-.3.3-.66.52-.75,1.2-.49,2.14-1.44,3.46-1.76.68-.17,1.44,0,2-.49,1.57.23,3.09-.39,4.66-.31s3.2,0,4.79,0c.53,0,1,.8,1.57.08l1.64.36.42,1c-.08.16-.11.32-.21.4a4.6,4.6,0,0,1-2,.61h-5.08a3.2,3.2,0,0,1-1.85.61,3.68,3.68,0,0,0-2.07.43,15.14,15.14,0,0,1-3.31,1,5.21,5.21,0,0,0-2.56,1.35V125a2,2,0,0,0,.6,0,9.25,9.25,0,0,1,3.62-.27,8.1,8.1,0,0,0,1.67-.32,9.44,9.44,0,0,0,1.7-.22,11.81,11.81,0,0,1,3.25-.38,1.71,1.71,0,0,1,1.1,1.23l-.93,1.73c-2.23,0-4.14,1.37-6.39,1.23l-.63.59-.32-.29c-1.13.58-2.33.15-3.54.35l-1,.77c-.23.79.28,1.82-.23,2.59.07.61.16,1.12.19,1.63a9.41,9.41,0,0,0,.28,2.58,3.81,3.81,0,0,0,1.4,1.94,1.69,1.69,0,0,0,2.21-.15c.32-.26.57-.51,1-.45.19,0,.4-.23.62-.27.76-.16,1-1,1.58-1.25a2.07,2.07,0,0,0,1.22-1.29c.19-.62,1.08-1,.61-1.77l1.35-1.35h1.35l.89,1.64c-.69,1.27-1.4,2.61-2.13,3.93a8.21,8.21,0,0,1-2,2.2c-1.39,1.17-3.11,1.7-4.67,2.66h-3l-.16-.5c-2.15-.22-3.11-1.73-3.85-3.52a8.38,8.38,0,0,1-.6-3.8c.05-.74,0-1.5,0-2.24a4.6,4.6,0,0,1,.23-1.85,3.22,3.22,0,0,0-.12-1.85c-.11-.49-.25-.89.14-1.34a3.19,3.19,0,0,0,.44-1,3.82,3.82,0,0,0,.31-2.85,6.9,6.9,0,0,1-.09-2.8A4.49,4.49,0,0,1,377.06,119Z" transform="translate(-86.47 -20.53)"/><path d="M400.13,140a4,4,0,0,1-.26-2.36l.38-.38c.69.11,1.46-.18,2.2.28a1.21,1.21,0,0,0,1,0c.93-.48,2-.38,2.95-.85a18.06,18.06,0,0,1,2.81-.92,1.9,1.9,0,0,0,.44-1.69,4.77,4.77,0,0,0-3.38-1.31.85.85,0,0,1-.42-.07c-.29-.15-.56-.32-.92-.54-1,.3-2-.63-3.26-.13a43.78,43.78,0,0,1-6.39-2.41c-.78-.78-.84-1.87-1.15-2.82a2.34,2.34,0,0,1,.35-2.07,9.85,9.85,0,0,0,.67-1.48h.66l.1-.76a2.12,2.12,0,0,1,.13-.2c.92-1,1.81-2,2.76-3a8.78,8.78,0,0,1,2.8-2.25,17.12,17.12,0,0,0,1.86-1.28c.59-.35,1.25-.59,1.86-.91a3.74,3.74,0,0,1,2.11-.27c.11.11.28.2.31.32.18.83.34,1.66.48,2.39L407,119.29a10.36,10.36,0,0,0-2.34.25c-.47.12-.18.83-.76.66s-.61.49-.95.57c-.75.16-1,1-1.59,1.22A3.31,3.31,0,0,0,400,123.4a12.29,12.29,0,0,1-1.67,1.72v1.57l1.55,1.18c1.86.46,3.7.31,5.43.93a3.42,3.42,0,0,0,1.32.06,4.11,4.11,0,0,1,2.31.58,20.57,20.57,0,0,0,2.35,1.17,3.66,3.66,0,0,1,2,2.74c.08.31.18.62.29,1-.08.11-.28.27-.28.42,0,1.26-.94,2-1.54,2.95a2.4,2.4,0,0,1-1.12.87,37.1,37.1,0,0,1-4,1.83,10.14,10.14,0,0,1-3.59.74c-.49,0-1,0-1.49,0Z" transform="translate(-86.47 -20.53)"/><path d="M195,119.46l-.3,1-1.63,1.42a5.36,5.36,0,0,1-3.64-.67l.38-1.24-1.69-.42c-.89.65-2.31-.11-2.91,1.12-.35-.08-.73-.3-.94-.19A24.13,24.13,0,0,0,180,122.9a6.34,6.34,0,0,0-2.28,2.79v1.93c0,1.24,0,1.23,1.09,2.51a3.8,3.8,0,0,1,.45,1c.62.57,1.59.68,1.81,1.48l3.18,1.07c1.42-.1,3.2.37,5,.37s3.57-.55,5.37-.34l1.63-1.24.94.29a15.61,15.61,0,0,1,2.47-.61c-.12.35-.14.51-.23.6-.3.33-.61.87-.95.9-.61,0-.32.67-.71.79s-.47.37-.72.39c-.81.07-1.53.52-2.28.63-1.85.26-3.67.89-5.58.63-1.83.52-3.7.23-5.55.3a6.27,6.27,0,0,1-2.74-.61,28.36,28.36,0,0,1-4.07-2.08c-.2-.13-.52-.24-.55-.41-.12-.54-.56-.79-.88-1.14a2.36,2.36,0,0,1-.71-1.51,3.42,3.42,0,0,0-.36-1.33,6.11,6.11,0,0,1-.54-2.63,8.25,8.25,0,0,1,.91-3.66,2.76,2.76,0,0,1,1.17-1.48c.82-.47,1.38-1.33,2.21-1.87a21.32,21.32,0,0,1,3.45-1.79,3.11,3.11,0,0,0,1-.51,1.36,1.36,0,0,1,.72-.41,7.68,7.68,0,0,0,2.45-.57,12.22,12.22,0,0,1,2.85-.34,5.81,5.81,0,0,1,2.66.44,17.19,17.19,0,0,0,2.32.56l.77.8Z" transform="translate(-86.47 -20.53)"/><path d="M420.9,131.56h.64c.25,1,1.17,1.71,1,2.84-.77.95-1.83.73-2.68.75a6.18,6.18,0,0,1-2.7-2.63,6.17,6.17,0,0,0-.26-2c-.24-.64.14-1.44-.25-2.14a1.29,1.29,0,0,0,.21-.44,16.34,16.34,0,0,1,.35-3.15,16.22,16.22,0,0,0,.24-3.92,2.72,2.72,0,0,0-.19-.85l.28-1.78.7-1a2.46,2.46,0,0,1,2.45,1c.13.66.29,1.26.35,1.87a9.73,9.73,0,0,1,0,1.79c0,.66-.18,1.31-.29,2s.23,1.35-.27,2c-.15.19,0,.58,0,.88,0,1,0,2.1,0,3.14A2.75,2.75,0,0,0,420.9,131.56Z" transform="translate(-86.47 -20.53)"/></svg>