<svg xmlns="http://www.w3.org/2000/svg" width="463.7" height="272.4" viewBox="0 0 463.7 272.4"><path d="M71.69,177.68c-2.46-52.52,123.53-96.4,232.11-96.45,99.78,0,219.63,36.89,224.4,86.86,5,52.44-118.7,98.81-228.26,99.65C196,268.53,74.06,228.53,71.69,177.68Z" transform="translate(-68.15 -77.73)" fill="none" stroke="#000" stroke-miterlimit="10" stroke-width="7"/><path d="M304.85,270.25c.77,12.77,1.22,26,1.27,39.67q.06,18.93-.85,36.7" transform="translate(-68.15 -77.73)" fill="none" stroke="#000" stroke-linecap="round" stroke-miterlimit="10" stroke-width="7"/><path d="M225.44,168.65v-.4c1.16-1.07,2.27-2.23,3.53-3.2.59-.45,1.05-1.15,1.89-1.27a.56.56,0,0,0,.37-.3c.23-.83,1-1,1.61-1.34a28.14,28.14,0,0,0,3.09-1.79,3.14,3.14,0,0,1,1.39-.61c.57-.05,1.12-.21,1.68-.29a4.25,4.25,0,0,1,2.27.36c.49.21.49.2,1.12-.07,2.53,2.3,3.3,3.24,4,4.94a2.81,2.81,0,0,0-.26.74c-.05.54,0,1.08,0,1.84l.89-1.37c.94-.39,2.07-.42,3.12-.81.3-.11.68,0,1,0a10.21,10.21,0,0,0,3.17-.77,1.5,1.5,0,0,0,1.5.24,14,14,0,0,1,4.27-.49,14.07,14.07,0,0,0,4.13-.48,18.58,18.58,0,0,1,2.7-.29c.52-.06,1-.2,1.55-.24s1,0,1.53,0l.52-.52a6.09,6.09,0,0,0,3-.46c.07,0,.24.15.4.26l.65-.94.19.18.23,0c.86-.09,1.73-.12,2.57-.29.24,0,.79-.08.75-.63,0,0,.29-.09.41-.13a2.07,2.07,0,0,1,1.09,1.77l1.2.12c-.47.66-.87,1.15-1.21,1.7s-.87,1-.79,1.7a5,5,0,0,0-1.13.38c-.34.2-.54.68-1.06.44l-.19-.46a4.58,4.58,0,0,0-1.74,0c-.55.24-1.09.06-1.57.23a15.88,15.88,0,0,1-1.6.44,11.51,11.51,0,0,1-2.94.29,6,6,0,0,0-2.27.39,1.9,1.9,0,0,1-.71.13c-.85,0-1.71,0-2.55,0a5.61,5.61,0,0,0-2.47.68l-.85-.22v.74l.43.45c-.08.39-.29.77-.21,1.08a21.57,21.57,0,0,1,.25,4.24,7.5,7.5,0,0,1,.25,1.43c-.09.68-.12,1.38-.19,2.19l.84,1.38a2.87,2.87,0,0,1,2-.46l.88.53a2.78,2.78,0,0,0,0,2.19l-1.4,2.07c-1.05.1-1.75,1.12-2.87,1.58h-1.17l-.9-.9a10.06,10.06,0,0,0-.92-1.91,6.12,6.12,0,0,1-1.1-3.25c-.12-.81.14-1.66-.26-2.45a.77.77,0,0,1,0-.63,4,4,0,0,0,.22-2.2c0-.56-.19-1.11-.23-1.68a7.4,7.4,0,0,0-.05-1.77,5,5,0,0,1-.21-1.35l-.92-1a5.21,5.21,0,0,1-2.35.56,4,4,0,0,0-1,.24,5.62,5.62,0,0,1-1.68.27,17.09,17.09,0,0,0-1.75,0l-.87-.67-.43-1.61a6.63,6.63,0,0,1-.49,2.15c-.37.57-.26,1.26-.67,1.78a.38.38,0,0,0,0,.24c.22,1-.37,1.8-.62,2.68a4.23,4.23,0,0,0-.4,1.75c.1.78-.52,1.26-.89,1.79-.49.69-1,1.37-1.52,2.06a5.19,5.19,0,0,1-1.15.91,13.78,13.78,0,0,0-1.48,1,3.81,3.81,0,0,1-1.77,1,8.93,8.93,0,0,0-2.63,1.33c-.31.2-.6.42-.92.65a3.51,3.51,0,0,0-2.21.43.48.48,0,0,1-.23.07c-1.5,0-3,.45-4.49.25-.39,0-.77-.18-1.29-.3a2.5,2.5,0,0,0-1.63-1c-.32,0-.78-.65-1.14-1.31l-3.69.31c-.61.53-1.41.12-2.11.46-.43.21-1,.22-1.38.61a1.79,1.79,0,0,0-1.81-.2,20.67,20.67,0,0,1-2.66.66,3.07,3.07,0,0,1-1.55.26c-.23-.06-.45-.15-.72-.24a5,5,0,0,1-1.9.5c-.77,0-1.54,0-2.3,0a12,12,0,0,1-4.31-1.3,1.82,1.82,0,0,1-.94-1.12,6.64,6.64,0,0,0-.72-1.28,11.53,11.53,0,0,1,.51-3.56,4.26,4.26,0,0,0,1.72-1.56,5.6,5.6,0,0,1,1.55-1.52c.91-.62,1.73-1.37,2.6-2,.18-.15.42-.23.6-.38.58-.47,1.15-.94,1.71-1.43a23.74,23.74,0,0,1,2-1.83,7,7,0,0,0,2.46-3.69,2,2,0,0,0-1.76-1c-.73,0-1.43-.28-2.19-.27a14.75,14.75,0,0,0-4.39.52,3.19,3.19,0,0,1-.76,0,6.08,6.08,0,0,0-1.83.2c-.5.19-1.11.1-1.59.48a.86.86,0,0,1-.6.07,5.75,5.75,0,0,0-3.36.85c-.42.22-.83.46-1.33.73a4.4,4.4,0,0,1-.5,2.68c-.09.15,0,.42,0,.63,0,.86,0,1.71,0,2.56A13.09,13.09,0,0,1,193,177c-.08.26.19.6.23.91.1.77.14,1.55.27,2.32a12.41,12.41,0,0,0,.52,2.08,18.63,18.63,0,0,0,.91,1.92c0,.11.08.22.12.32l1,.72a4.26,4.26,0,0,1-.75,2.46v.68a1.13,1.13,0,0,1-.2.13c-1.56.32-2.49-.64-3.37-1.68-.18-.21-.28-.5-.48-.69a3.07,3.07,0,0,1-.85-1.84,6.52,6.52,0,0,0-1-2.87c0-.68,0-1.44,0-2.2,0-.36.14-.74-.22-1.07-.11-.09-.1-.44,0-.6.49-1,.14-2,.24-3,0-.13.06-.31,0-.37-.51-.5-.08-1,0-1.46s.47-.65.15-1.13c-.13-.22.06-.65.11-1a3.42,3.42,0,0,1,.2-1.19,1.43,1.43,0,0,0-.41-1.64s-.2-.05-.26,0c-.6.57-1.45.64-2.1,1.13a1.49,1.49,0,0,1-2.17-.12c-.34-.29-.71-.55-1.1-.84v-1.37c.48-.78.72-.93,1.81-1.37.55-.23,1.05-.58,1.77-1h1.1l3.19-2.41a4.46,4.46,0,0,0,2.44.57,8.46,8.46,0,0,0,1.51-.76c.6-.08,1.57.27,2.32-.49a3.4,3.4,0,0,0,1.42-.24c.42-.21,1,.19,1.42-.28,1.56,0,3-.68,4.64-.54a15.42,15.42,0,0,0,2.32-.22c.76,0,1.53,0,2.3,0a3,3,0,0,1,1.56.23c.41.22,1-.16,1.44.25.2.17.66,0,.8,0,1.37.44,1.75,1.67,2.61,2.41a8.37,8.37,0,0,1-1,4.31c-.22.46-.57.87-.75,1.35a7.23,7.23,0,0,1-3,3.47,3.31,3.31,0,0,0-.27.26c-1.17,1.09-2.32,2.19-3.51,3.25s-2.2,1.87-3.31,2.8a2.62,2.62,0,0,1-.52.22l-.37,1.13.65,1a2.42,2.42,0,0,0,1.47.27,36.89,36.89,0,0,0,4.6-.31,19.29,19.29,0,0,0,2.67-.31,11,11,0,0,1,2.62-.15c.35,0,.7-.18,1-.25s.75.15,1.07-.21c.08-.09.32-.06.48,0,.49,0,.91.45,1.51.12a4.29,4.29,0,0,1,1.51-.2,4.52,4.52,0,0,1-.53-2.33,12.47,12.47,0,0,1,.86-3.22,14.49,14.49,0,0,1,2.53-3.8A16.07,16.07,0,0,0,225.44,168.65Zm9.16-2.56-1.41,1.06c-.39.3-.79.59-1.15.91s-.81.69-1.24,1a7,7,0,0,0-1.75,1.82c-.54.88-1.1,1.75-1.69,2.61a7.84,7.84,0,0,0-1.62,5.4,4.94,4.94,0,0,0,2.56.18,18.84,18.84,0,0,0,2.65-.49l.43.54a1.85,1.85,0,0,1,1.69.58l.13.71a12.69,12.69,0,0,0,7.2-5.8c.37-1,.71-1.83,1.06-2.71a9.2,9.2,0,0,0,.85-3.73,9.88,9.88,0,0,1,.19-1.51,1.83,1.83,0,0,0-1.62-.6c-1-.55-1.91-.92-2.35-2-1.07.93-2.52.89-3.25,2Z" transform="translate(-68.15 -77.73)"/><path d="M156.83,193.4c-.78-2.11-.6-4.28-.59-6.42,0-.48.32-.91.26-1.43a1.71,1.71,0,0,1,.23-1.31c.08-.1,0-.33,0-.5a15.43,15.43,0,0,1,.28-2.56c.16-.6.47-1.17.59-1.8a2.59,2.59,0,0,0,.14-.45,19.61,19.61,0,0,1,.47-2.86,12.76,12.76,0,0,0,.31-3.33,2.12,2.12,0,0,1,.23-1.31,6,6,0,0,0,.27-2.69c0-.51,0-1,0-1.5a1.9,1.9,0,0,0,.52-1.61c0-.38,0-.76,0-1.15,0-.55,0-1.1,0-1.65a11.78,11.78,0,0,1,.25-1.56c.17-.76-.27-1.44-.27-2.19a8.7,8.7,0,0,0-.19-2.2,10.8,10.8,0,0,1,0-2.67l-.32-.32a12.56,12.56,0,0,0-1.35.46,25.82,25.82,0,0,0-4.86,3.06,15.09,15.09,0,0,1-1.25,1,3.45,3.45,0,0,1-2.75.81l-1.8-1.16.26-2.72c1.06-.5,2-.89,2.82-1.36.3-.16.48-.54.78-.91h.84a20.87,20.87,0,0,1,3.12-1.79c.39-.85,1.29-.72,2-1a15.41,15.41,0,0,0,1.57-1c.06,0,.38.1.56,0a27.09,27.09,0,0,1,4.11-1.77c.52-.24.91-.67,1.6-.63.38,0,.79-.51,1.3-.87a8.32,8.32,0,0,0,3.15-.95c.39-.18.81-.67,1.27-.2l1.78-.57a9.84,9.84,0,0,0,1.84-.49,4.82,4.82,0,0,1,2-.12c1.53,0,3.06,0,4.59,0a11.23,11.23,0,0,1,3,.52,8.54,8.54,0,0,1,1.72.77c.18.1.27.38.38.59a5.48,5.48,0,0,0,1.45,2,9.1,9.1,0,0,1,.24,1,1.62,1.62,0,0,1,0,.93,1.89,1.89,0,0,0-.12,1.35c.36,2.44.37,3-.29,4.91a6.38,6.38,0,0,0-.52,1.71,1.65,1.65,0,0,1-.34.74c-1.23,1.84-2.5,3.64-3.67,5.51-.23.35-.5.64-.75,1a8.78,8.78,0,0,1-.73,1c-1.43,1.4-2.5,3.1-3.93,4.52-.66.67-1.26,1.44-1.94,2.11a13.58,13.58,0,0,0-1.4,1.2,22.36,22.36,0,0,1-2.28,2.49,28.57,28.57,0,0,1-4.56,3.47,3.51,3.51,0,0,0-.59.42,18.16,18.16,0,0,1-3.31,2.49,10.11,10.11,0,0,1-2.24.78c0,.33,0,.78,0,1.23a5.52,5.52,0,0,1-.21,2,1.37,1.37,0,0,0,.18,1.43c.11.13-.06.51-.11.84l.88.07c0,.23,0,.43.05.63l.5.5c-.12.68.2,1.43-.26,2.13a2.22,2.22,0,0,0-.55,1.44c0,.26-.32.54-.52.86A5,5,0,0,1,156.83,193.4ZM169,149.23,165.24,151c-.07,0-.18,0-.25,0a5.42,5.42,0,0,0-2.45,1.55l.65.71a4.45,4.45,0,0,0-.08,3.17,10.25,10.25,0,0,1,.32,1.82l-.51.49a5.63,5.63,0,0,1,.44,1.5,16.12,16.12,0,0,1-.41,5.17,3.29,3.29,0,0,0,.17,2.53,1.4,1.4,0,0,0-.24.42,14.93,14.93,0,0,1-.3,2.44c-.19.66-.05,1.34-.26,1.93s0,1.13-.25,1.55a4.2,4.2,0,0,0-.22,1.7c0,.13.06.3,0,.38-.44.52-.16,1.1-.26,1.67a2.82,2.82,0,0,0,1.14-.14,5.58,5.58,0,0,0,1.94-1.48c.24-.25.47-.5.85-.39.58-.47,1.19-.91,1.71-1.42,1.77-1.73,3.5-3.48,5.24-5.23.21-.21.53-.39.61-.64.17-.58.69-.82,1-1.24a7.79,7.79,0,0,1,1.1-1.32,9.84,9.84,0,0,0,1.8-1.79c.81-1.1,1.8-2.08,2.64-3a3.49,3.49,0,0,1,.42-1.06c.28-.32.53-.62.45-1l1.27-1.27a1.9,1.9,0,0,1,.6-1.63,3.13,3.13,0,0,0,.62-.88,14.75,14.75,0,0,0,.82-3.88c0-.08,0-.21,0-.24-.47-.36-.14-.88-.19-1l-1.29-1.93a2.57,2.57,0,0,0-.89-.22,3.38,3.38,0,0,1-1.42-.3,3.65,3.65,0,0,0-1.3-.24c-.68,0-1.37,0-2,0-.4,0-.83-.31-1.17-.22a16.69,16.69,0,0,0-2.07.85,4,4,0,0,1-1.34.14,1.73,1.73,0,0,0-1,.25A2.79,2.79,0,0,1,169,149.23Z" transform="translate(-68.15 -77.73)"/><path d="M314.28,168.27l-.88-.18c0,.15-.12.28-.09.37.12.29.28.57.48,1a1.54,1.54,0,0,0-.06,1.59,1.45,1.45,0,0,1,.08.73c0,.81,0,1.62,0,2.43s.22,1.37.23,2.06a15.62,15.62,0,0,1-.17,1.93l.78,1.34,1.92-.46,1,.59a3.32,3.32,0,0,0,0,2.22l-1.38,2.07c-1,.07-1.73,1.09-2.88,1.57h-1.17L311,184.28a3.26,3.26,0,0,0-.74-1.68,6.62,6.62,0,0,1-.85-2.09,17.14,17.14,0,0,1-.21-2.46,1.27,1.27,0,0,0-.17-.83,1.24,1.24,0,0,1-.06-1,4.58,4.58,0,0,0,0-3.24.57.57,0,0,1,0-.13c0-.64,0-1.28,0-1.91a17.72,17.72,0,0,0-.34-1.78l-.83-.84a5.26,5.26,0,0,1-2.32.56,5.72,5.72,0,0,0-1,.23,5.59,5.59,0,0,1-1.69.28,14.78,14.78,0,0,0-1.76,0l-.83-.63-.54-1.65.8-1.25c.93-.38,2-.41,3-.77a2.56,2.56,0,0,1,.88,0,12,12,0,0,0,3.07-.61c.07,0,.12-.11.14-.12a8.36,8.36,0,0,0,1.34.2,7,7,0,0,0,1.17-.24c.36-.07.74.12,1.08-.21.14-.13.48-.05.73-.05.85,0,1.71,0,2.56,0,.52,0,1,.16,1.58-.2s1,0,1.55-.25a7,7,0,0,1,1.79-.27c1.35-.22,2.72-.24,4.11-.34l.47-.47a6.17,6.17,0,0,0,3.34-.58c.19-.6.82-.94,1.23-1.45a9.17,9.17,0,0,1,1.66,0,7.38,7.38,0,0,1,1.42.59l.22-.59.49,0a2.28,2.28,0,0,1,1,1.8h1c-.42,1.39-1.82,2.11-1.9,3.51l-.43.11a5.6,5.6,0,0,0,1.18,4.5l1.21.24.8-.41c.75.37.88.32,2-.78.78-.09,1.61-.08,2.11-1,1.61-.45,2.37-1.82,2.89-3.36a20.69,20.69,0,0,1,.76-2,11,11,0,0,0,1.32-3.42c0-.29.32-.54.49-.81l.78-1.38h2.21l.84.58c0,.25.05.42,0,.5a1,1,0,0,0,0,1.34c.22.35.51.86.23,1.25s-.13.81-.23,1.29c-.8.45-.74,1.4-1,2.18a6.65,6.65,0,0,1-1,2.41,8.07,8.07,0,0,0-.8,1.95l-.5,1.29a2.66,2.66,0,0,1-.59,1.71,6,6,0,0,0-.69,1.88,12.68,12.68,0,0,0-.5,2.34,8.67,8.67,0,0,0-.28,2.32c-.48.62-.14,1.41-.46,2.11a2.19,2.19,0,0,0,.44,2c.32.49.59,1,.92,1.61.88.3,1.94.52,2.35,1.69l-.26.87-1.07,1.08-1.85-.34c-.66-.66-1.89-.82-2.24-2h-.55a4,4,0,0,0-.16-.45,12.3,12.3,0,0,1-1.26-2.79,4.43,4.43,0,0,1-.19-.69c0-1,0-2,0-2.93,0-.4.18-.78.24-1.18s-.13-.77.26-1v-3.28c-1.23.58-2.47.78-3.48,1.62-2.12.06-4.33.23-6.12-1.5l-.85,0-2-4.17a5.72,5.72,0,0,1,.25-2.58c-.55-.4-1,.33-1.5.14-.54.53-1.26.13-1.89.38a5.19,5.19,0,0,1-1.86.12,2.92,2.92,0,0,0-1.55.27,3.55,3.55,0,0,1-1.82.25c-.59,0-1.19,0-1.78,0A4.69,4.69,0,0,0,314.28,168.27Z" transform="translate(-68.15 -77.73)"/><path d="M438.18,180.64V179l-.5-.4v-.86c0-.93.05-1.87,0-2.8s-.21-1.71-.33-2.64l-.34-.33c-.63.28-1.24.77-2,.53a3.66,3.66,0,0,1-2.18,1,11.18,11.18,0,0,0-2.75,1h-1.67c-.64-.24-.6-.93-.92-1.38a.53.53,0,0,1,0-.49c.39-.65.37-1.53,1.21-1.95h.69l.52-.52.83.17c.18-.32.65-.32,1-.51a26.83,26.83,0,0,1,4.53-1.7c2-.61,4-1.11,6-1.53.54-.12,1-.41,1.58-.48s.82-.66,1.34-.79h2.05a1.69,1.69,0,0,1,1.44-.51,4.67,4.67,0,0,0,2.51-.78c.45-.15,1.06.18,1.69-.2a6,6,0,0,1,1.67-.25,14.94,14.94,0,0,1,2.83-.05l1.4.76c.07.47.13.87.2,1.27,0,0,.05.06.08.09l-.26.63a3.21,3.21,0,0,0-1.94,1.22l-.72-.67c-.73.1-1.47.58-2.22.1l-.64.69c-1.4-.13-2.57.75-3.91.48a7.09,7.09,0,0,1-2.78,1.05c-1,.24-2,.32-2.66,1.3-1.24-.24-2.23.59-3.49.78a21,21,0,0,0,.24,2.81,17.37,17.37,0,0,1,.35,3.35l.75,1.8-.29.31,1.11.55a7.14,7.14,0,0,1,.69,2,6.24,6.24,0,0,0,.82,2.08c.2.33.7.48,1.15.77a3.91,3.91,0,0,1,.3,1c0,.39.18.82-.16,1.21s.14.86-.41,1.12l-1.73.33a6.2,6.2,0,0,1-2.5-2.2,27.22,27.22,0,0,1-1.91-2.64c-.72.17-1.41.38-2.11.5a22.34,22.34,0,0,1-2.45.25,24.1,24.1,0,0,1-2.55,0,4.18,4.18,0,0,0-1.82.44,2.17,2.17,0,0,0-.67-.16,11.3,11.3,0,0,1-4.62-.9c-.6-.2-1.24-.3-2-.48l-.31-.67c-.81-.67-1.53-1.21-2.19-1.81a5.12,5.12,0,0,1-1.44-2.72,14.44,14.44,0,0,1-.22-2.33c0-.35-.12-.7-.17-1,.31-1,.58-2,1-2.92a15.84,15.84,0,0,1,2.09-4,13.19,13.19,0,0,0,2.28-3.26c1-.69,1.39-1.91,2.49-2.56a12.44,12.44,0,0,0,2.09-2,4.23,4.23,0,0,0,2.06-1.3,10.56,10.56,0,0,1,1.49-.32c.49,0,.89-.39,1.43-.29a7.37,7.37,0,0,0,1.4,0l1.19.61a3,3,0,0,1-.52,3.44h-2.26c-1.33.74-2.65,1.46-4,2.21l0,.84h-.68c-.42.47-.69,1-1.09,1.16-.7.28-.87.92-1.25,1.41a15,15,0,0,1-1.79,2.18,1.69,1.69,0,0,1-.43.2,30.58,30.58,0,0,1-.75,3,10,10,0,0,0-.34,3.81,3.49,3.49,0,0,0,.58,1.28c.26.44.57.86.95,1.45.84.39,1.82.88,2.84,1.3a3.92,3.92,0,0,0,1.07.13,4.08,4.08,0,0,0,3.22.34c.12,0,.23-.13.33-.11a17.28,17.28,0,0,0,3.22-.26,2.88,2.88,0,0,0,1.31-.24c.33-.18.81.11,1.18-.26C437.47,180.54,437.83,180.64,438.18,180.64Z" transform="translate(-68.15 -77.73)"/><path d="M395.51,179.82l-.44.1c0,.23,0,.51,0,.79a15,15,0,0,1-.44,3.12,3.47,3.47,0,0,0,.41,3.07l-.31.46c.91.8,2.25,1.32,1.78,3a8.7,8.7,0,0,1-1.76.67,4.6,4.6,0,0,0-1.5.42,2.44,2.44,0,0,1-.81.17l-.58-.56h-.54a14.29,14.29,0,0,1-.58-1.54,9.84,9.84,0,0,1-.52-3.36,13.82,13.82,0,0,1,.17-2.86,11,11,0,0,1,.59-2.57c0-2,1.05-3.68,1.32-5.59a12.14,12.14,0,0,1,.53-1.82c.16-.47-.33-.91.16-1.4.3-.3.1-1.05.32-1.5a5.22,5.22,0,0,0,.22-2.21,30.58,30.58,0,0,0,.22-5.43l1.36-1.56c1.26-.05,1.26-.05,3.21.76a20.74,20.74,0,0,1,.58,4.18c.38.6.22,1.33.47,2a5.33,5.33,0,0,0,.54.86v1.51l.79.67a5.74,5.74,0,0,0,.85,3.2c.71,1.54,1.63,3,2.46,4.47.06.11.12.25.22.29a3.6,3.6,0,0,1,1.31,1.11c.3.41.53.89.84,1.3s.75.88,1.11,1.32a4.87,4.87,0,0,0,2.4,1.55l.9.29,1.07-1.72c.36-1.37.22-2.91.77-4.34a1.34,1.34,0,0,1-.18-.51c0-.68,0-1.36,0-2,0-.31-.23-.61-.23-.91s.24-.62.22-.92a4.05,4.05,0,0,0-.33-1.51,1.41,1.41,0,0,1-.15-.83c.16-1.43-.33-2.82-.27-4.24a4.3,4.3,0,0,1-.26-2,1.51,1.51,0,0,1-.5-1.34,15.46,15.46,0,0,0-.28-3c0-.19-.26-.32,0-.58s0-.48,0-.79c1.16-.37,2.27.41,3.3.18l2.36,1.61-.35,1.9c-.65.14-.72.73-1,1.2a1.71,1.71,0,0,0-.14,1.55,3.18,3.18,0,0,1,.17,1.07c0,.64-.05,1.29,0,1.92a27.21,27.21,0,0,0,.92,5.36,6.14,6.14,0,0,1,.1,1c.07.56-.21,1.17.24,1.69a.43.43,0,0,1,0,.37,3.85,3.85,0,0,0,0,2.87c-.39.47-.13,1-.22,1.54a4.45,4.45,0,0,1-.36,1.38c-.25.42-.05.82-.18,1.25l-2.27,2.88c-1.06-.08-1.54.72-2.17,1.29A5.07,5.07,0,0,1,407.6,188a5.11,5.11,0,0,0-.83-.45,6.57,6.57,0,0,1-2.57-1.75c-.58-.72-1.21-1.38-1.85-2a17.1,17.1,0,0,1-2.61-3.65c-.19-.35-.29-.77-.81-.79a11.21,11.21,0,0,0-2.29-4.1A17,17,0,0,0,395.51,179.82Z" transform="translate(-68.15 -77.73)"/><path d="M350.44,165.81c1.07.27,1.75-1,2.82-.74l.72-.71c1-.19,1.84-.8,2.61-.61l2-.65.31-.3a1,1,0,0,1,.24,0,5,5,0,0,0,2.73-.5,2.8,2.8,0,0,1,1-.26,10.65,10.65,0,0,1,1.13,0l.52-.52c1.57.24,3.18-.77,4.8,0l.55-.52c.11.08.21.24.3.23a9.15,9.15,0,0,1,3.7.93c.78.29,1.59.48,2.56.77a10.26,10.26,0,0,0,1.72,1.53c.32.16.47.64.78,1.09l-.33,2.55-.65.47v.75a2.48,2.48,0,0,0-1.56,1.74,3.29,3.29,0,0,0-.7.47,17.51,17.51,0,0,1-3.88,3,3.62,3.62,0,0,1-1.84.83c-.53,0-1,.61-1.54.87a17.93,17.93,0,0,1-2.6,1.1c-.89.25-1.57.9-2.5,1.08a3.55,3.55,0,0,0-1.68.83,3.91,3.91,0,0,1-3.08.92h-.48l-.83-1.1v-1.89a15.63,15.63,0,0,0,3.5-1.16,7.78,7.78,0,0,0,1.75-1c.07-.06.13-.18.18-.18,1.08,0,1.85-.7,2.76-1.07a23,23,0,0,0,2.53-1.27c1.46-.8,2.9-1.63,4.35-2.44a1.52,1.52,0,0,1,.27-.11,17.06,17.06,0,0,1,1-1.39,1.8,1.8,0,0,0,.47-1.57l-.55-.54c-.31-.06-.63-.1-.94-.19a4.9,4.9,0,0,0-1.12-.37c-1.15,0-2.17-.74-3.36-.55a5,5,0,0,1-1.68.29,7.09,7.09,0,0,0-1.66,0,5.2,5.2,0,0,0-.92.24,9.41,9.41,0,0,1-1.67.29,5.43,5.43,0,0,0-1.73.43c-.51.21-1.14.12-1.65.32a7,7,0,0,0-3.13,1.69l.23.74a5.24,5.24,0,0,0-.69,2.43c0,.64,0,1.28,0,1.92a3.38,3.38,0,0,1-.21,1.58,2.05,2.05,0,0,0,.11,1.32.91.91,0,0,1,0,.79,1.94,1.94,0,0,0,0,1.55,1.41,1.41,0,0,1,0,.93,2,2,0,0,0,0,1.65c.24.56,0,1.2.31,1.79a5.44,5.44,0,0,1,.34,1.51l2.88-.34.91,1.31-.34,1.22a4,4,0,0,0-.68.18c-.57.27-1,.82-1.74.72-1.05.88-2.31.71-3.41.69-1.36-.76-1.54-2.12-2-3.31a8.18,8.18,0,0,1-.5-1.57c-.08-.54,0-1.11,0-1.66s-.2-.95-.24-1.43c-.1-1,.37-1.94.27-3a9.52,9.52,0,0,1,0-2.92,17,17,0,0,0,.22-2.81c-.32-.63-.88-.4-1.35-.44-.84-.41-.67-1.43-1.21-2C348.62,168,349.91,167.21,350.44,165.81Z" transform="translate(-68.15 -77.73)"/><path d="M295.58,159.73c3.25,3.16,2.92,3,4,4.92a5.36,5.36,0,0,0-.27,2.76,3.6,3.6,0,0,1-.54,2.2c-.34.46-.16,1-.45,1.49s0,1-.15,1.47a9,9,0,0,0-.86,2.55,4.51,4.51,0,0,1-.95,2.43,16,16,0,0,1-1.53,2,5.69,5.69,0,0,1-1.15.91,14.26,14.26,0,0,0-1.48,1,3.77,3.77,0,0,1-1.77,1,8.26,8.26,0,0,0-2.63,1.33l-.89.63a3.39,3.39,0,0,0-1.81.26,3.07,3.07,0,0,1-1.55.26c-.69.06-1.38.23-2.07.23-.9,0-1.8-.09-2.65-.14-.59-.58-1.07-1.19-1.9-1.14a8,8,0,0,1-2.15-3.58c-.19-.56-.34-1.14-.51-1.7-.31-1-.15-1-.06-2.22a12.29,12.29,0,0,1,1.31-3.69,11.65,11.65,0,0,1,1.2-1.79,18.54,18.54,0,0,1,1.87-2.22l0-.56,4.63-4a3.11,3.11,0,0,1,.62-.35c.14-.07.37-.1.41-.2.47-1.16,1.62-1.33,2.54-1.85a22.06,22.06,0,0,0,2.05-1.21,4.83,4.83,0,0,1,2.21-.84c.35,0,.69-.2,1-.24a3.87,3.87,0,0,1,2.28.35A1,1,0,0,0,295.58,159.73Zm-7.93,6.36c-1,1-2.23,1.74-3.27,2.68a12.23,12.23,0,0,0-2.6,2.86A42.31,42.31,0,0,0,279.1,176c-.11.8-.23,1.73-.34,2.59l1.74,2.11,2.47.18c.17,0,.39-.07.5,0,.42.32.76.11,1.21,0a15.3,15.3,0,0,0,5.17-2.28,8.67,8.67,0,0,0,1.61-1.35c.52-.56.9-1.26,1.42-1.82a3.53,3.53,0,0,0,1-1.63,9.07,9.07,0,0,1,.7-1.89,9.57,9.57,0,0,0,.88-4,6.86,6.86,0,0,1,.21-1.31,2,2,0,0,0-1.77-.61,4.47,4.47,0,0,0-1.21-.73c-.63-.14-.48-.86-1.11-1.1-.28.15-.65.36-1,.55s-.73.3-1.07.5-.74.49-1.18.79Z" transform="translate(-68.15 -77.73)"/><path d="M382.17,163.75l.93-1.24H384a2,2,0,0,1,1.8,1.53,8.45,8.45,0,0,1,.3,2.19c-.08.58,0,1.19,0,1.78s-.16,1.12-.24,1.68.22,1.18-.26,1.68c0,0,0,.08,0,.13-.08,1.53-.24,3.07-.23,4.61a13.49,13.49,0,0,0,.47,2.46l.94.05c.43.9.57,1.94,1.43,2.71-.16.13-.43.23-.47.39-.23.89-1,.82-1.64.95a7.15,7.15,0,0,1-1.39,0c-.15-.16-.3-.43-.46-.44-.79,0-1.07-.62-1.41-1.17-.21-.34-.49-.64-.71-1a2.05,2.05,0,0,1-.35-.75c-.05-.41,0-.85,0-1.27s-.18-.78-.24-1.17.12-.91-.25-1.31c-.08-.09,0-.33,0-.5.08-.43.17-.86.25-1.29s0-.78.2-1.2-.11-1.15.31-1.65c-.18-.72.28-1.36.26-2.07s0-1.36,0-2a4.33,4.33,0,0,0-.16-.56,2.17,2.17,0,0,1,.09-1.56C382.29,164.54,382.18,164.22,382.17,163.75Z" transform="translate(-68.15 -77.73)"/></svg>