<?xml version="1.0" encoding="utf-8"?>
<!-- Generator: Adobe Illustrator 25.2.1, SVG Export Plug-In . SVG Version: 6.00 Build 0)  -->
<svg version="1.1" id="Layer_1" xmlns="http://www.w3.org/2000/svg" xmlns:xlink="http://www.w3.org/1999/xlink" x="0px" y="0px"
	 viewBox="0 0 1366 768" style="enable-background:new 0 0 1366 768;" xml:space="preserve">
<g>
	<g>
		<path d="M553.56,411.13c-1.18-0.06-2.31-0.37-3.27-0.11c-6.44,1.74-12.9,3.45-19.25,5.47c-6.14,1.95-12.11,4.41-18.25,6.36
			c-2.25,0.71-4.75,0.76-7.14,0.84c-2.09,0.06-4.85-2.67-5.25-5.09c-0.42-2.49-0.08-4.87,2.56-6.02c1.64-0.72,3.5-1.64,5.17-1.49
			c6.74,0.61,12.89-1.53,19.19-3.3c15.14-4.25,30.3-8.46,45.53-12.4c3.14-0.81,5.2-1.53,5.74-5.2c0.41-2.74,1.78-5.41,3.08-7.93
			c0.64-1.24,1.99-2.76,3.18-2.91c1.49-0.18,3.14,0.91,4.92,1.52c-1.29,3.9-2.33,7.04-3.71,11.21c6.59-2.34,12.53-3.64,18.7-4.02
			c2.49-0.15,5.54-1.2,6.65-4.48c0.4-1.2,1.55-2.14,2.15-2.94c7.51,2.61,7.46,2.61,7.85,9.19c0.2,3.39-0.12,7.04,1.06,10.1
			c1.3,3.39-1.03,6.33,0.2,9.77c1.12,3.12,1,6.17,5.44,6.24c0.97,0.02,1.92,1.56,2.96,2.47c-0.45,0.91-0.66,1.7-1.14,2.25
			c-2.73,3.09-6.17,5.78-10.27,4.38c-4.44-1.51-6.77-5.62-7.73-10.23c-0.46-2.22,0.65-4.91-1.82-6.26
			c-5.36,5.36-10.41,10.94-16.06,15.84c-2.41,2.09-5.96,3.15-9.17,3.96c-3.76,0.95-8.03-2.79-9.88-7.35
			c-2.07-5.11-1.84-10.38-1.35-16.44c-6.45,1.32-12.43,2.09-17.4,5.69c2.74,11.95-1.67,21.64-9.37,29.87
			c-5.75,6.14-12.3,11.57-18.73,17.03c-4.25,3.6-9.51,5.84-14.95,6.26c-11.31,0.87-19.01-1.68-24.08-13.25
			c-3.45-7.87-5.42-15.66-3.69-24.88c1.72-9.17,5.49-17.31,8.69-25.74c2.85-7.49,6.42-14.76,9.75-22.03
			c4.63-10.09,10.22-20.09,18.6-27.84c3.42-3.16,7.45-5.74,11.46-8.18c2.52-1.54,4.41-0.69,6.02,1.75
			c3.32,5.05,2.14,9.43-2.83,13.57c-4.6,3.84-10.4,5.68-14.68,10.17c-7.03,7.37-11.71,16.08-15.67,25.2
			c-3.4,7.83-5.76,16.11-9.1,23.97c-3.17,7.46-2.95,15.17-1.97,22.75c0.76,5.85,4.54,10.68,9.45,14c3.18,2.16,7.24,1.76,10.65,0.37
			c15.63-6.38,27.72-16.69,34.49-32.5C551.56,417.8,552.39,414.61,553.56,411.13z M583.45,401.87c-0.11,3.2-1.77,5.63-0.81,9.11
			c0.96,3.53,2.11,5.44,5.53,6.32c7.09-4.89,14.33-9.65,16.99-19.88C597.56,398.98,590.8,400.36,583.45,401.87z"/>
		<path d="M984.71,434c3.53,1.64,5.65,3.73,4.28,8.35c-2.75,1.12-6.03,2.47-9.31,3.8c-5.81-3.9-4.38-9.85-4.97-15.88
			c-2.03,0.24-4.02,0.29-5.91,0.73c-5.04,1.18-9.58-0.34-12.3-4.4c-0.43-0.64-0.53-1.49-0.94-2.14c-1.12-1.75-1.99-4.37-3.58-4.95
			c-2.33-0.85-5.24-0.53-7.84-0.18c-7.74,1.05-15.44,2.35-24.96,3.84c-2.38,3.02-6.1,7.35-9.33,12.01
			c-2.04,2.94-4.35,3.36-7.87,2.36c-0.45-5.55,0.2-10.08,5.1-14.27c4.27-3.65,7.52-8.78,10.43-13.71
			c8.44-14.32,15.95-29.12,21.01-45.05c0.3-0.94,1.19-1.69,1.79-2.51c2.99,1.18,5.8,2.29,8.62,3.4c1.49,6.54,3.23,13.05,4.41,19.65
			c1.09,6.12,3.21,11.98,4.29,18.08c1.55,8.77,2.26,9.54,11.29,10.96c0.41,0.07,0.76,0.56,1.44,1.1c-1.95,1.39-3.81,2.72-5.67,4.05
			c3.27,4.2,3.27,4.2,10.03,4.44c0.84-3.01,1.66-6.2,2.61-9.36c3.32-11.02,6.27-22.11,5.67-33.76c-0.19-3.63,1.35-6,4.4-7.9
			c2.13,0.78,4.29,1.57,6.26,2.3c3.11,21.88,9.82,41.43,29.46,54.27c2.86-3.07,4.32-5.68,4.49-9.05
			c0.62-12.65-0.59-25.13-2.91-37.55c-0.75-4.03-0.98-8.17-1.5-12.71c5.47-1.06,9.59,1.75,13.83,3.65c0.07,0.88,0.34,1.52,0.13,1.91
			c-1.35,2.51-3.9,4.92-3.99,7.44c-0.2,5.41,0.28,11,1.5,16.28c3.03,13.14,2.5,14.78,0.92,26.44c-0.66,4.85-8.24,12.01-12.79,12.43
			c-0.52,0.05-1.15,0.11-1.57-0.12c-4.28-2.41-9.26-4.15-12.61-7.5c-6.74-6.75-13.03-14.09-16.35-23.37
			c-0.25-0.69-1.01-1.2-1.93-2.24c-1.36,2.24-2.33,4.31-2.67,6.78c-0.32,2.35-0.99,4.65-1.49,6.98c-0.49,2.28-1.18,4.55-1.39,6.85
			C984.52,428.06,984.71,430.73,984.71,434z M941.23,381.15c-5.35,10.54-10.44,20.58-15.51,30.57c4.75,2.99,12.84,3.44,24,1.45
			C947.17,402.42,945.64,391.43,941.23,381.15z"/>
		<path d="M748.03,435.14c0.56,1.03,1.19,2.16,1.79,3.31c0.47,0.9,0.92,1.81,1.52,3.02c12.07-0.64,23.45-2.82,33.3-12.21
			c-3.69-2.63-6.43-5.17-9.65-6.76c-8.37-4.12-17.08-7.32-25.97-10.29c-8.23-2.75-16.89-5.69-23.65-11.56
			c-6.63-5.76-11.72-12.64-11.67-22.16c0.03-5.61,2.39-10.1,5.99-14.06c7.4-8.14,16.88-13.03,26.84-17.26
			c6.22-2.64,12.69-4.48,19.2-5.86c6.95-1.47,14.07-0.56,20.87,1.8c0.99,0.34,1.86,1.01,2.46,1.35c-1.3,2.83-2.15,4.68-3.49,7.59
			c-1.16,0-3.48-0.13-5.78,0.03c-3.33,0.24-6.81-0.91-9.99,1.35c-0.89,0.63-3.13,0.7-3.82,0.05c-4.4-4.17-8.6-1.13-12.71,0.18
			c-9.6,3.05-17.69,8.71-25.21,15.27c-6.36,5.54-6.58,14.6-0.4,19.99c6.3,5.5,12.76,10.52,21,13.22
			c9.83,3.21,19.43,7.19,28.94,11.28c4.27,1.84,8.3,4.48,12.02,7.3c5.26,4,5.54,9.11,1.35,14.37c-0.66,0.83-1.65,1.47-2.08,2.39
			c-1.92,4.08-5.42,5.78-9.29,7.77c-7.27,3.74-15.04,4.53-22.8,5.44c-3.23,0.38-6.72-0.53-9.97-1.34c-4.63-1.15-6.25-3.39-5.94-7.74
			c0.1-1.47,0.69-3.06,1.5-4.29C743.65,435.47,745.48,434.41,748.03,435.14z"/>
		<path d="M855.77,384.71c-0.23,8.66-2.66,16.92-5.9,24.78c-2.79,6.78-8.75,11.13-15.31,14.08c-5.62,2.52-11.24,5.03-17.5,6.12
			c-8.55,1.49-14.91-1.75-19.1-9.53c-4.15-7.73-2.55-14.31,1.75-21.14c7.57-12.03,18.13-20.73,30.21-27.8
			c5.4-3.16,11.14-3.66,17.1-1.77c3.83,1.21,8.45,7.08,8.74,11.26C855.85,382.03,855.77,383.35,855.77,384.71z M837.04,378.25
			c-8.25,2.77-14.67,8.61-20.52,15.12c-3.85,4.28-7.27,8.84-8.88,14.6c-1.98,7.09,0.9,11.46,8.13,12.48
			c5.38,0.76,9.71-1.44,14.13-3.77c11-5.81,18.41-20.1,17.04-32.77C843.62,382.02,840.31,380.12,837.04,378.25z"/>
		<path d="M673.05,363.29c2.5,0,4.35,0,6.35,0c0.32,0.71,0.8,1.38,0.89,2.09c0.3,2.45,1.16,5.13,0.52,7.35
			c-1.34,4.68-3.44,9.15-5.32,13.67c-3.48,8.37-6.6,16.84-7.89,25.87c-0.15,1.05,0.24,2.3-0.21,3.15c-1.65,3.08-1.33,5.82,0.18,8.93
			c1.39,2.87,3.5,4.22,6.29,5.16c0.64,0.21,1.04,1.13,1.88,2.11c-1.22,1.57-2.47,3.16-3.74,4.79c-1-0.21-1.78-0.24-2.45-0.53
			c-5.33-2.29-9.1-6.23-11.35-11.49c-1.09-2.54-1.77-4.89-0.67-8.17c1.44-4.29,0.89-9.25,1.22-14.39c-2.05-1.43-4.32-0.09-6.64,1.17
			c-7.12,3.87-13.08,0.33-18.88-3.25c-1.14-0.7-1.6-2.6-2.26-3.99c-1-2.12-1.91-4.29-2.47-5.55c0.26-4.71,0.39-8.59,0.72-12.46
			c0.15-1.78,0.25-3.79,1.12-5.25c2.15-3.65,3.93-3.58,10.18-0.18c0,4.11-0.12,8.36,0.05,12.59c0.08,2.04,0.44,4.17,1.18,6.06
			c1.55,3.95,3.75,5.26,7.29,3.7c7.51-3.31,15.23-6.23,17.29-16.04C667.44,373.4,670.64,368.63,673.05,363.29z"/>
		<path d="M871.24,370.63c2.66,1.09,4.33,1.78,6.22,2.55c0.15,0.62,0.29,1.36,0.52,2.08c1.71,5.33,1.39,10.44,0.38,16.06
			c-1.28,7.13-3.04,14.4-2.15,21.87c0.62,5.18,1.82,6.32,7.16,5.53c6.05-0.9,11.46-3.57,16.87-6.18c3.78-1.82,7.32-4.24,12.16-2.69
			c-1.65,3.93-4.38,6.52-8.37,7.97c-5.62,2.04-9.77,6.96-15.92,8.06c-3.8,0.68-7.5,2.18-11.31,2.47c-2.1,0.16-5.16-0.81-6.32-2.37
			c-2.75-3.69-6.06-7.38-5.42-12.7c0.53-4.4,0.06-8.79,1.31-13.28c1.37-4.92,1.08-10.31,1.48-15.5c0.02-0.2-0.35-0.41-0.43-0.65
			c-0.74-2.18-2.55-4.77-1.93-6.47C866.38,374.9,869.04,373.06,871.24,370.63z"/>
	</g>
</g>
</svg>
